<?xml version="1.0" encoding="utf-8"?>
<!-- Generator: Adobe Illustrator 22.1.0, SVG Export Plug-In . SVG Version: 6.00 Build 0)  -->
<svg version="1.1" id="Layer_1" xmlns="http://www.w3.org/2000/svg" xmlns:xlink="http://www.w3.org/1999/xlink" x="0px" y="0px"
	 viewBox="0 0 1920 600" style="enable-background:new 0 0 1920 600;" xml:space="preserve">
<style type="text/css">
	.st0{fill:#080245;}
	.st1{opacity:0.5;fill:url(#SVGID_1_);}
	.st2{opacity:0.5;}
	.st3{fill:url(#SVGID_2_);}
	.st4{fill:url(#SVGID_3_);}
	.st5{fill:url(#SVGID_4_);}
	.st6{fill:url(#SVGID_5_);}
	.st7{fill:url(#SVGID_6_);}
	.st8{fill:url(#SVGID_7_);}
	.st9{fill:url(#SVGID_8_);}
	.st10{fill:url(#SVGID_9_);}
	.st11{fill:url(#SVGID_10_);}
	.st12{fill:url(#SVGID_11_);}
	.st13{fill:url(#SVGID_12_);}
	.st14{fill:url(#SVGID_13_);}
	.st15{fill:url(#SVGID_14_);}
	.st16{fill:url(#SVGID_15_);}
	.st17{fill:url(#SVGID_16_);}
	.st18{fill:url(#SVGID_17_);}
	.st19{fill:url(#SVGID_18_);}
	.st20{fill:url(#SVGID_19_);}
	.st21{fill:url(#SVGID_20_);}
	.st22{fill:url(#SVGID_21_);}
	.st23{fill:url(#SVGID_22_);}
	.st24{fill:url(#SVGID_23_);}
	.st25{fill:url(#SVGID_24_);}
	.st26{fill:url(#SVGID_25_);}
	.st27{fill:url(#SVGID_26_);}
	.st28{fill:url(#SVGID_27_);}
	.st29{fill:url(#SVGID_28_);}
	.st30{fill:url(#SVGID_29_);}
	.st31{fill:url(#SVGID_30_);}
	.st32{fill:url(#SVGID_31_);}
	.st33{fill:url(#SVGID_32_);}
	.st34{fill:url(#SVGID_33_);}
	.st35{opacity:0.15;fill:none;stroke:url(#SVGID_34_);stroke-width:2;stroke-miterlimit:10;}
	.st36{opacity:0.5;fill:none;stroke:url(#SVGID_35_);stroke-width:2;stroke-miterlimit:10;}
	.st37{fill:none;stroke:url(#SVGID_36_);stroke-width:2;stroke-miterlimit:10;}
	.st38{fill:url(#SVGID_37_);}
	.st39{fill:url(#SVGID_38_);}
	.st40{fill:url(#SVGID_39_);}
	.st41{fill:url(#SVGID_40_);}
	.st42{fill:url(#SVGID_41_);}
	.st43{fill:url(#SVGID_42_);}
	.st44{fill:url(#SVGID_43_);}
	.st45{fill:url(#SVGID_44_);}
	.st46{opacity:0.9;fill:url(#SVGID_45_);}
</style>
<rect class="st0" width="1920" height="370"/>
<linearGradient id="SVGID_1_" gradientUnits="userSpaceOnUse" x1="56.4851" y1="457.9768" x2="1874.3134" y2="-91.2394">
	<stop  offset="0" style="stop-color:#42E7E1"/>
	<stop  offset="1" style="stop-color:#40E5DF;stop-opacity:0"/>
</linearGradient>
<rect class="st1" width="1920" height="370"/>
<g class="st2">
	<linearGradient id="SVGID_2_" gradientUnits="userSpaceOnUse" x1="1179.2996" y1="138.8578" x2="1179.2996" y2="126.089">
		<stop  offset="0" style="stop-color:#42E7E1"/>
		<stop  offset="1" style="stop-color:#40E5DF;stop-opacity:0"/>
	</linearGradient>
	<rect x="1177.6" y="126.1" class="st3" width="3.4" height="12.8"/>
	<linearGradient id="SVGID_3_" gradientUnits="userSpaceOnUse" x1="1179.2996" y1="145.8563" x2="1179.2996" y2="142.3571">
		<stop  offset="0" style="stop-color:#42E7E1"/>
		<stop  offset="1" style="stop-color:#40E5DF;stop-opacity:0"/>
	</linearGradient>
	<rect x="1177.6" y="142.4" class="st4" width="3.4" height="3.5"/>
	<linearGradient id="SVGID_4_" gradientUnits="userSpaceOnUse" x1="1179.2996" y1="198.3428" x2="1179.2996" y2="194.8443">
		<stop  offset="0" style="stop-color:#42E7E1"/>
		<stop  offset="1" style="stop-color:#40E5DF;stop-opacity:0"/>
	</linearGradient>
	<rect x="1177.6" y="194.8" class="st5" width="3.4" height="3.5"/>
	<linearGradient id="SVGID_5_" gradientUnits="userSpaceOnUse" x1="1179.2996" y1="191.3451" x2="1179.2996" y2="163.3518">
		<stop  offset="0" style="stop-color:#42E7E1"/>
		<stop  offset="1" style="stop-color:#40E5DF;stop-opacity:0"/>
	</linearGradient>
	<rect x="1177.6" y="163.4" class="st6" width="3.4" height="28"/>
	<linearGradient id="SVGID_6_" gradientUnits="userSpaceOnUse" x1="1187.8057" y1="170.7797" x2="1187.8057" y2="158.011">
		<stop  offset="0" style="stop-color:#42E7E1"/>
		<stop  offset="1" style="stop-color:#40E5DF;stop-opacity:0"/>
	</linearGradient>
	<rect x="1186.1" y="158" class="st7" width="3.4" height="12.8"/>
	<linearGradient id="SVGID_7_" gradientUnits="userSpaceOnUse" x1="1187.8057" y1="177.7783" x2="1187.8057" y2="174.279">
		<stop  offset="0" style="stop-color:#42E7E1"/>
		<stop  offset="1" style="stop-color:#40E5DF;stop-opacity:0"/>
	</linearGradient>
	<rect x="1186.1" y="174.3" class="st8" width="3.4" height="3.5"/>
	<linearGradient id="SVGID_8_" gradientUnits="userSpaceOnUse" x1="1213.3239" y1="90.9749" x2="1213.3239" y2="78.2061">
		<stop  offset="0" style="stop-color:#42E7E1"/>
		<stop  offset="1" style="stop-color:#40E5DF;stop-opacity:0"/>
	</linearGradient>
	<rect x="1211.6" y="78.2" class="st9" width="3.4" height="12.8"/>
	<linearGradient id="SVGID_9_" gradientUnits="userSpaceOnUse" x1="1213.3239" y1="97.9734" x2="1213.3239" y2="94.4741">
		<stop  offset="0" style="stop-color:#42E7E1"/>
		<stop  offset="1" style="stop-color:#40E5DF;stop-opacity:0"/>
	</linearGradient>
	<rect x="1211.6" y="94.5" class="st10" width="3.4" height="3.5"/>
	<linearGradient id="SVGID_10_" gradientUnits="userSpaceOnUse" x1="1213.3239" y1="150.4599" x2="1213.3239" y2="146.9614">
		<stop  offset="0" style="stop-color:#42E7E1"/>
		<stop  offset="1" style="stop-color:#40E5DF;stop-opacity:0"/>
	</linearGradient>
	<rect x="1211.6" y="147" class="st11" width="3.4" height="3.5"/>
	<linearGradient id="SVGID_11_" gradientUnits="userSpaceOnUse" x1="1213.3239" y1="143.4622" x2="1213.3239" y2="115.4689">
		<stop  offset="0" style="stop-color:#42E7E1"/>
		<stop  offset="1" style="stop-color:#40E5DF;stop-opacity:0"/>
	</linearGradient>
	<rect x="1211.6" y="115.5" class="st12" width="3.4" height="28"/>
	<linearGradient id="SVGID_12_" gradientUnits="userSpaceOnUse" x1="1221.83" y1="122.8968" x2="1221.83" y2="110.128">
		<stop  offset="0" style="stop-color:#42E7E1"/>
		<stop  offset="1" style="stop-color:#40E5DF;stop-opacity:0"/>
	</linearGradient>
	<rect x="1220.1" y="110.1" class="st13" width="3.4" height="12.8"/>
	<linearGradient id="SVGID_13_" gradientUnits="userSpaceOnUse" x1="1221.83" y1="129.8953" x2="1221.83" y2="126.3961">
		<stop  offset="0" style="stop-color:#42E7E1"/>
		<stop  offset="1" style="stop-color:#40E5DF;stop-opacity:0"/>
	</linearGradient>
	<rect x="1220.1" y="126.4" class="st14" width="3.4" height="3.5"/>
	<linearGradient id="SVGID_14_" gradientUnits="userSpaceOnUse" x1="1221.83" y1="175.3841" x2="1221.83" y2="147.3908">
		<stop  offset="0" style="stop-color:#42E7E1"/>
		<stop  offset="1" style="stop-color:#40E5DF;stop-opacity:0"/>
	</linearGradient>
	<rect x="1220.1" y="147.4" class="st15" width="3.4" height="28"/>
	<linearGradient id="SVGID_15_" gradientUnits="userSpaceOnUse" x1="1221.83" y1="182.3818" x2="1221.83" y2="178.8834">
		<stop  offset="0" style="stop-color:#42E7E1"/>
		<stop  offset="1" style="stop-color:#40E5DF;stop-opacity:0"/>
	</linearGradient>
	<rect x="1220.1" y="178.9" class="st16" width="3.4" height="3.5"/>
	<linearGradient id="SVGID_16_" gradientUnits="userSpaceOnUse" x1="1386.2451" y1="138.8578" x2="1386.2451" y2="126.089">
		<stop  offset="0" style="stop-color:#42E7E1"/>
		<stop  offset="1" style="stop-color:#40E5DF;stop-opacity:0"/>
	</linearGradient>
	<rect x="1384.5" y="126.1" class="st17" width="3.4" height="12.8"/>
	<linearGradient id="SVGID_17_" gradientUnits="userSpaceOnUse" x1="1386.2451" y1="145.8563" x2="1386.2451" y2="142.3571">
		<stop  offset="0" style="stop-color:#42E7E1"/>
		<stop  offset="1" style="stop-color:#40E5DF;stop-opacity:0"/>
	</linearGradient>
	<rect x="1384.5" y="142.4" class="st18" width="3.4" height="3.5"/>
	<linearGradient id="SVGID_18_" gradientUnits="userSpaceOnUse" x1="1386.2451" y1="191.3451" x2="1386.2451" y2="163.3518">
		<stop  offset="0" style="stop-color:#42E7E1"/>
		<stop  offset="1" style="stop-color:#40E5DF;stop-opacity:0"/>
	</linearGradient>
	<rect x="1384.5" y="163.4" class="st19" width="3.4" height="28"/>
	<linearGradient id="SVGID_19_" gradientUnits="userSpaceOnUse" x1="1386.2451" y1="198.3428" x2="1386.2451" y2="194.8443">
		<stop  offset="0" style="stop-color:#42E7E1"/>
		<stop  offset="1" style="stop-color:#40E5DF;stop-opacity:0"/>
	</linearGradient>
	<rect x="1384.5" y="194.8" class="st20" width="3.4" height="3.5"/>
	<linearGradient id="SVGID_20_" gradientUnits="userSpaceOnUse" x1="1394.7512" y1="170.7797" x2="1394.7512" y2="158.011">
		<stop  offset="0" style="stop-color:#42E7E1"/>
		<stop  offset="1" style="stop-color:#40E5DF;stop-opacity:0"/>
	</linearGradient>
	<rect x="1393" y="158" class="st21" width="3.4" height="12.8"/>
	<linearGradient id="SVGID_21_" gradientUnits="userSpaceOnUse" x1="1394.7512" y1="177.7783" x2="1394.7512" y2="174.279">
		<stop  offset="0" style="stop-color:#42E7E1"/>
		<stop  offset="1" style="stop-color:#40E5DF;stop-opacity:0"/>
	</linearGradient>
	<rect x="1393" y="174.3" class="st22" width="3.4" height="3.5"/>
	<linearGradient id="SVGID_22_" gradientUnits="userSpaceOnUse" x1="1352.2207" y1="90.9749" x2="1352.2207" y2="78.2061">
		<stop  offset="0" style="stop-color:#42E7E1"/>
		<stop  offset="1" style="stop-color:#40E5DF;stop-opacity:0"/>
	</linearGradient>
	<rect x="1350.5" y="78.2" class="st23" width="3.4" height="12.8"/>
	<linearGradient id="SVGID_23_" gradientUnits="userSpaceOnUse" x1="1352.2207" y1="97.9734" x2="1352.2207" y2="94.4741">
		<stop  offset="0" style="stop-color:#42E7E1"/>
		<stop  offset="1" style="stop-color:#40E5DF;stop-opacity:0"/>
	</linearGradient>
	<rect x="1350.5" y="94.5" class="st24" width="3.4" height="3.5"/>
	<linearGradient id="SVGID_24_" gradientUnits="userSpaceOnUse" x1="1352.2207" y1="150.4599" x2="1352.2207" y2="146.9614">
		<stop  offset="0" style="stop-color:#42E7E1"/>
		<stop  offset="1" style="stop-color:#40E5DF;stop-opacity:0"/>
	</linearGradient>
	<rect x="1350.5" y="147" class="st25" width="3.4" height="3.5"/>
	<linearGradient id="SVGID_25_" gradientUnits="userSpaceOnUse" x1="1352.2207" y1="143.4622" x2="1352.2207" y2="115.4689">
		<stop  offset="0" style="stop-color:#42E7E1"/>
		<stop  offset="1" style="stop-color:#40E5DF;stop-opacity:0"/>
	</linearGradient>
	<rect x="1350.5" y="115.5" class="st26" width="3.4" height="28"/>
	<linearGradient id="SVGID_26_" gradientUnits="userSpaceOnUse" x1="1360.7268" y1="122.8968" x2="1360.7268" y2="110.128">
		<stop  offset="0" style="stop-color:#42E7E1"/>
		<stop  offset="1" style="stop-color:#40E5DF;stop-opacity:0"/>
	</linearGradient>
	<rect x="1359" y="110.1" class="st27" width="3.4" height="12.8"/>
	<linearGradient id="SVGID_27_" gradientUnits="userSpaceOnUse" x1="1360.7268" y1="129.8953" x2="1360.7268" y2="126.3961">
		<stop  offset="0" style="stop-color:#42E7E1"/>
		<stop  offset="1" style="stop-color:#40E5DF;stop-opacity:0"/>
	</linearGradient>
	<rect x="1359" y="126.4" class="st28" width="3.4" height="3.5"/>
	<linearGradient id="SVGID_28_" gradientUnits="userSpaceOnUse" x1="1360.7268" y1="182.3818" x2="1360.7268" y2="178.8834">
		<stop  offset="0" style="stop-color:#42E7E1"/>
		<stop  offset="1" style="stop-color:#40E5DF;stop-opacity:0"/>
	</linearGradient>
	<rect x="1359" y="178.9" class="st29" width="3.4" height="3.5"/>
	<linearGradient id="SVGID_29_" gradientUnits="userSpaceOnUse" x1="1360.7268" y1="175.3841" x2="1360.7268" y2="147.3908">
		<stop  offset="0" style="stop-color:#42E7E1"/>
		<stop  offset="1" style="stop-color:#40E5DF;stop-opacity:0"/>
	</linearGradient>
	<rect x="1359" y="147.4" class="st30" width="3.4" height="28"/>
	<linearGradient id="SVGID_30_" gradientUnits="userSpaceOnUse" x1="1187.8057" y1="213.4602" x2="1187.8057" y2="195.2737">
		<stop  offset="0" style="stop-color:#42E7E1"/>
		<stop  offset="1" style="stop-color:#40E5DF;stop-opacity:0"/>
	</linearGradient>
	<polygon class="st31" points="1189.5,211.1 1189.5,195.3 1186.1,195.3 1186.1,213.5 	"/>
	<linearGradient id="SVGID_31_" gradientUnits="userSpaceOnUse" x1="1213.324" y1="195.9487" x2="1213.324" y2="167.9561">
		<stop  offset="0" style="stop-color:#42E7E1"/>
		<stop  offset="1" style="stop-color:#40E5DF;stop-opacity:0"/>
	</linearGradient>
	<polygon class="st32" points="1215,193.7 1215,168 1211.6,168 1211.6,195.9 1211.8,195.9 	"/>
	<linearGradient id="SVGID_32_" gradientUnits="userSpaceOnUse" x1="1352.2207" y1="190.5842" x2="1352.2207" y2="167.9561">
		<stop  offset="0" style="stop-color:#42E7E1"/>
		<stop  offset="1" style="stop-color:#40E5DF;stop-opacity:0"/>
	</linearGradient>
	<polygon class="st33" points="1353.9,190.6 1353.9,168 1350.5,168 1350.5,188.2 	"/>
	<linearGradient id="SVGID_33_" gradientUnits="userSpaceOnUse" x1="1394.7512" y1="219.8401" x2="1394.7512" y2="195.2737">
		<stop  offset="0" style="stop-color:#42E7E1"/>
		<stop  offset="1" style="stop-color:#40E5DF;stop-opacity:0"/>
	</linearGradient>
	<polygon class="st34" points="1396.5,219.8 1396.5,195.3 1393,195.3 1393,217.5 	"/>
</g>
<linearGradient id="SVGID_34_" gradientUnits="userSpaceOnUse" x1="1168.9763" y1="273.5621" x2="1435.5034" y2="273.5621">
	<stop  offset="0" style="stop-color:#352786"/>
	<stop  offset="1" style="stop-color:#3ED8D7"/>
</linearGradient>
<path class="st35" d="M1171.1,267.1l143,82c2.2,1.2,4.8,1.2,6.9,0l112.3-63.8c1.5-0.8,1.5-2.9,0-3.8l-142.3-83.4
	c-2.2-1.3-4.9-1.3-7,0l-113,65.2C1169.6,264.1,1169.6,266.2,1171.1,267.1z"/>
<linearGradient id="SVGID_35_" gradientUnits="userSpaceOnUse" x1="1168.9763" y1="262.0422" x2="1435.5034" y2="262.0422">
	<stop  offset="0" style="stop-color:#352786"/>
	<stop  offset="1" style="stop-color:#3ED8D7"/>
</linearGradient>
<path class="st36" d="M1171.1,255.5l143,82c2.2,1.2,4.8,1.2,6.9,0l112.3-63.8c1.5-0.8,1.5-2.9,0-3.8l-142.3-83.4
	c-2.2-1.3-4.9-1.3-7,0l-113,65.2C1169.6,252.6,1169.6,254.7,1171.1,255.5z"/>
<linearGradient id="SVGID_36_" gradientUnits="userSpaceOnUse" x1="1168.9763" y1="250.5224" x2="1435.5034" y2="250.5224">
	<stop  offset="0" style="stop-color:#352786"/>
	<stop  offset="1" style="stop-color:#3ED8D7"/>
</linearGradient>
<path class="st37" d="M1171.1,244l143,82c2.2,1.2,4.8,1.2,6.9,0l112.3-63.8c1.5-0.8,1.5-2.9,0-3.8L1291.1,175c-2.2-1.3-4.9-1.3-7,0
	l-113,65.2C1169.6,241.1,1169.6,243.2,1171.1,244z"/>
<linearGradient id="SVGID_37_" gradientUnits="userSpaceOnUse" x1="1171.7611" y1="238.6956" x2="1432.7188" y2="238.6956">
	<stop  offset="0" style="stop-color:#4348AE"/>
	<stop  offset="1" style="stop-color:#39B3C2"/>
</linearGradient>
<path class="st38" d="M1432.7,247.8c0-0.7-0.4-1.4-1.1-1.8l-140.4-82.3c-2.1-1.3-4.8-1.3-6.9,0L1172.8,228c-0.7,0.4-1.1,1.1-1.1,1.9
	h0v1h0c0,0.7,0.4,1.4,1.1,1.9l141.1,80.9c2.1,1.2,4.7,1.2,6.9,0l110.8-63c0.7-0.4,1.1-1.1,1.1-1.9h0L1432.7,247.8L1432.7,247.8z"/>
<linearGradient id="SVGID_38_" gradientUnits="userSpaceOnUse" x1="1284.187" y1="212.0813" x2="1302.3214" y2="237.88">
	<stop  offset="0" style="stop-color:#231069"/>
	<stop  offset="1" style="stop-color:#39B3C2"/>
</linearGradient>
<path class="st39" d="M1239,234.3l69,39.5c1,0.6,2.3,0.6,3.3,0l54.2-30.8c0.7-0.4,0.7-1.4,0-1.8l-68.6-40.2c-1-0.6-2.3-0.6-3.4,0
	l-54.5,31.4C1238.3,232.9,1238.3,233.9,1239,234.3z"/>
<g>
	<linearGradient id="SVGID_39_" gradientUnits="userSpaceOnUse" x1="1260.4452" y1="239.5312" x2="1342.5265" y2="239.5312">
		<stop  offset="0" style="stop-color:#231069"/>
		<stop  offset="1" style="stop-color:#39B3C2"/>
	</linearGradient>
	<path class="st40" d="M1292.7,228.9c0.6,0.4,1.4,0.6,2.3,0.6c0.9,0,1.6-0.1,2.2-0.4l12.4-6.4l31.9,18.5c0.6,0.4,1,0.8,1,1.3
		c0,0.5-0.3,0.9-0.9,1.2l-30.6,15.9c-0.6,0.3-1.3,0.5-2.2,0.4c-0.9,0-1.6-0.3-2.3-0.6l-45.1-26.1c-0.6-0.4-1-0.8-1-1.3
		s0.3-0.9,0.9-1.2l18.2-9.5L1292.7,228.9z M1305.9,220.6c-0.6-0.4-1.4-0.6-2.3-0.6l-18.4-0.9c-0.9,0-1.6,0.1-2.2,0.4l-0.5,0.3
		l12.4,7.2l11.7-6.1L1305.9,220.6z M1308.3,231.5c-0.3-0.2-0.7-0.3-1.1-0.3c-0.4,0-0.8,0-1.1,0.2l-15.3,7.9
		c-0.3,0.2-0.4,0.4-0.4,0.6s0.2,0.5,0.5,0.6l0.8,0.5c0.3,0.2,0.7,0.3,1.1,0.3c0.4,0,0.8,0,1.1-0.2l15.3-7.9c0.3-0.2,0.4-0.4,0.4-0.6
		c0-0.2-0.2-0.5-0.5-0.6L1308.3,231.5z M1315.3,235.6l-0.8-0.5c-0.3-0.2-0.7-0.3-1.1-0.3c-0.4,0-0.8,0-1.1,0.2l-15.3,7.9
		c-0.3,0.2-0.4,0.4-0.4,0.6c0,0.2,0.2,0.5,0.5,0.6l0.8,0.5c0.3,0.2,0.7,0.3,1.1,0.3c0.4,0,0.8,0,1.1-0.2l15.3-7.9
		c0.3-0.2,0.4-0.4,0.4-0.6C1315.8,236,1315.6,235.8,1315.3,235.6z M1321.5,239.2l-0.8-0.5c-0.3-0.2-0.7-0.3-1.1-0.3
		c-0.4,0-0.8,0-1.1,0.2l-15.3,7.9c-0.3,0.2-0.4,0.4-0.4,0.6c0,0.2,0.2,0.5,0.5,0.6l0.8,0.5c0.3,0.2,0.7,0.3,1.1,0.3
		c0.4,0,0.8,0,1.1-0.2l15.3-7.9c0.3-0.2,0.4-0.4,0.4-0.6C1322,239.6,1321.8,239.4,1321.5,239.2z"/>
</g>
<g>
	<linearGradient id="SVGID_40_" gradientUnits="userSpaceOnUse" x1="1261.4452" y1="238.5312" x2="1343.5265" y2="238.5312">
		<stop  offset="0" style="stop-color:#42E7E1"/>
		<stop  offset="1" style="stop-color:#40E5DF;stop-opacity:0.5"/>
	</linearGradient>
	<path class="st41" d="M1293.7,227.9c0.6,0.4,1.4,0.6,2.3,0.6c0.9,0,1.6-0.1,2.2-0.4l12.4-6.4l31.9,18.5c0.6,0.4,1,0.8,1,1.3
		c0,0.5-0.3,0.9-0.9,1.2l-30.6,15.9c-0.6,0.3-1.3,0.5-2.2,0.4c-0.9,0-1.6-0.3-2.3-0.6l-45.1-26.1c-0.6-0.4-1-0.8-1-1.3
		s0.3-0.9,0.9-1.2l18.2-9.5L1293.7,227.9z M1306.9,219.6c-0.6-0.4-1.4-0.6-2.3-0.6l-18.4-0.9c-0.9,0-1.6,0.1-2.2,0.4l-0.5,0.3
		l12.4,7.2l11.7-6.1L1306.9,219.6z M1309.3,230.5c-0.3-0.2-0.7-0.3-1.1-0.3c-0.4,0-0.8,0-1.1,0.2l-15.3,7.9
		c-0.3,0.2-0.4,0.4-0.4,0.6s0.2,0.5,0.5,0.6l0.8,0.5c0.3,0.2,0.7,0.3,1.1,0.3c0.4,0,0.8,0,1.1-0.2l15.3-7.9c0.3-0.2,0.4-0.4,0.4-0.6
		c0-0.2-0.2-0.5-0.5-0.6L1309.3,230.5z M1316.3,234.6l-0.8-0.5c-0.3-0.2-0.7-0.3-1.1-0.3c-0.4,0-0.8,0-1.1,0.2l-15.3,7.9
		c-0.3,0.2-0.4,0.4-0.4,0.6c0,0.2,0.2,0.5,0.5,0.6l0.8,0.5c0.3,0.2,0.7,0.3,1.1,0.3c0.4,0,0.8,0,1.1-0.2l15.3-7.9
		c0.3-0.2,0.4-0.4,0.4-0.6C1316.8,235,1316.6,234.8,1316.3,234.6z M1322.5,238.2l-0.8-0.5c-0.3-0.2-0.7-0.3-1.1-0.3
		c-0.4,0-0.8,0-1.1,0.2l-15.3,7.9c-0.3,0.2-0.4,0.4-0.4,0.6c0,0.2,0.2,0.5,0.5,0.6l0.8,0.5c0.3,0.2,0.7,0.3,1.1,0.3
		c0.4,0,0.8,0,1.1-0.2l15.3-7.9c0.3-0.2,0.4-0.4,0.4-0.6C1323,238.6,1322.8,238.4,1322.5,238.2z"/>
</g>
<g>
	<linearGradient id="SVGID_41_" gradientUnits="userSpaceOnUse" x1="1260.4452" y1="209.5312" x2="1342.5265" y2="209.5312">
		<stop  offset="0" style="stop-color:#231069"/>
		<stop  offset="1" style="stop-color:#39B3C2"/>
	</linearGradient>
	<path class="st42" d="M1292.7,198.9c0.6,0.4,1.4,0.6,2.3,0.6c0.9,0,1.6-0.1,2.2-0.4l12.4-6.4l31.9,18.5c0.6,0.4,1,0.8,1,1.3
		c0,0.5-0.3,0.9-0.9,1.2l-30.6,15.9c-0.6,0.3-1.3,0.5-2.2,0.4c-0.9,0-1.6-0.3-2.3-0.6l-45.1-26.1c-0.6-0.4-1-0.8-1-1.3
		s0.3-0.9,0.9-1.2l18.2-9.5L1292.7,198.9z M1305.9,190.6c-0.6-0.4-1.4-0.6-2.3-0.6l-18.4-0.9c-0.9,0-1.6,0.1-2.2,0.4l-0.5,0.3
		l12.4,7.2l11.7-6.1L1305.9,190.6z M1308.3,201.5c-0.3-0.2-0.7-0.3-1.1-0.3c-0.4,0-0.8,0-1.1,0.2l-15.3,7.9
		c-0.3,0.2-0.4,0.4-0.4,0.6s0.2,0.5,0.5,0.6l0.8,0.5c0.3,0.2,0.7,0.3,1.1,0.3c0.4,0,0.8,0,1.1-0.2l15.3-7.9c0.3-0.2,0.4-0.4,0.4-0.6
		c0-0.2-0.2-0.5-0.5-0.6L1308.3,201.5z M1315.3,205.6l-0.8-0.5c-0.3-0.2-0.7-0.3-1.1-0.3c-0.4,0-0.8,0-1.1,0.2l-15.3,7.9
		c-0.3,0.2-0.4,0.4-0.4,0.6c0,0.2,0.2,0.5,0.5,0.6l0.8,0.5c0.3,0.2,0.7,0.3,1.1,0.3c0.4,0,0.8,0,1.1-0.2l15.3-7.9
		c0.3-0.2,0.4-0.4,0.4-0.6C1315.8,206,1315.6,205.8,1315.3,205.6z M1321.5,209.2l-0.8-0.5c-0.3-0.2-0.7-0.3-1.1-0.3
		c-0.4,0-0.8,0-1.1,0.2l-15.3,7.9c-0.3,0.2-0.4,0.4-0.4,0.6c0,0.2,0.2,0.5,0.5,0.6l0.8,0.5c0.3,0.2,0.7,0.3,1.1,0.3
		c0.4,0,0.8,0,1.1-0.2l15.3-7.9c0.3-0.2,0.4-0.4,0.4-0.6C1322,209.6,1321.8,209.4,1321.5,209.2z"/>
</g>
<g>
	<linearGradient id="SVGID_42_" gradientUnits="userSpaceOnUse" x1="1261.4452" y1="208.5312" x2="1343.5265" y2="208.5312">
		<stop  offset="0" style="stop-color:#42E7E1"/>
		<stop  offset="1" style="stop-color:#40E5DF;stop-opacity:0.5"/>
	</linearGradient>
	<path class="st43" d="M1293.7,197.9c0.6,0.4,1.4,0.6,2.3,0.6c0.9,0,1.6-0.1,2.2-0.4l12.4-6.4l31.9,18.5c0.6,0.4,1,0.8,1,1.3
		c0,0.5-0.3,0.9-0.9,1.2l-30.6,15.9c-0.6,0.3-1.3,0.5-2.2,0.4c-0.9,0-1.6-0.3-2.3-0.6l-45.1-26.1c-0.6-0.4-1-0.8-1-1.3
		s0.3-0.9,0.9-1.2l18.2-9.5L1293.7,197.9z M1306.9,189.6c-0.6-0.4-1.4-0.6-2.3-0.6l-18.4-0.9c-0.9,0-1.6,0.1-2.2,0.4l-0.5,0.3
		l12.4,7.2l11.7-6.1L1306.9,189.6z M1309.3,200.5c-0.3-0.2-0.7-0.3-1.1-0.3c-0.4,0-0.8,0-1.1,0.2l-15.3,7.9
		c-0.3,0.2-0.4,0.4-0.4,0.6s0.2,0.5,0.5,0.6l0.8,0.5c0.3,0.2,0.7,0.3,1.1,0.3c0.4,0,0.8,0,1.1-0.2l15.3-7.9c0.3-0.2,0.4-0.4,0.4-0.6
		c0-0.2-0.2-0.5-0.5-0.6L1309.3,200.5z M1316.3,204.6l-0.8-0.5c-0.3-0.2-0.7-0.3-1.1-0.3c-0.4,0-0.8,0-1.1,0.2l-15.3,7.9
		c-0.3,0.2-0.4,0.4-0.4,0.6c0,0.2,0.2,0.5,0.5,0.6l0.8,0.5c0.3,0.2,0.7,0.3,1.1,0.3c0.4,0,0.8,0,1.1-0.2l15.3-7.9
		c0.3-0.2,0.4-0.4,0.4-0.6C1316.8,205,1316.6,204.8,1316.3,204.6z M1322.5,208.2l-0.8-0.5c-0.3-0.2-0.7-0.3-1.1-0.3
		c-0.4,0-0.8,0-1.1,0.2l-15.3,7.9c-0.3,0.2-0.4,0.4-0.4,0.6c0,0.2,0.2,0.5,0.5,0.6l0.8,0.5c0.3,0.2,0.7,0.3,1.1,0.3
		c0.4,0,0.8,0,1.1-0.2l15.3-7.9c0.3-0.2,0.4-0.4,0.4-0.6C1323,208.6,1322.8,208.4,1322.5,208.2z"/>
</g>
<g>
	<linearGradient id="SVGID_43_" gradientUnits="userSpaceOnUse" x1="1260.4452" y1="179.5312" x2="1342.5265" y2="179.5312">
		<stop  offset="0" style="stop-color:#231069"/>
		<stop  offset="1" style="stop-color:#39B3C2"/>
	</linearGradient>
	<path class="st44" d="M1292.7,168.9c0.6,0.4,1.4,0.6,2.3,0.6c0.9,0,1.6-0.1,2.2-0.4l12.4-6.4l31.9,18.5c0.6,0.4,1,0.8,1,1.3
		c0,0.5-0.3,0.9-0.9,1.2l-30.6,15.9c-0.6,0.3-1.3,0.5-2.2,0.4c-0.9,0-1.6-0.3-2.3-0.6l-45.1-26.1c-0.6-0.4-1-0.8-1-1.3
		s0.3-0.9,0.9-1.2l18.2-9.5L1292.7,168.9z M1305.9,160.6c-0.6-0.4-1.4-0.6-2.3-0.6l-18.4-0.9c-0.9,0-1.6,0.1-2.2,0.4l-0.5,0.3
		l12.4,7.2l11.7-6.1L1305.9,160.6z M1308.3,171.5c-0.3-0.2-0.7-0.3-1.1-0.3c-0.4,0-0.8,0-1.1,0.2l-15.3,7.9
		c-0.3,0.2-0.4,0.4-0.4,0.6s0.2,0.5,0.5,0.6l0.8,0.5c0.3,0.2,0.7,0.3,1.1,0.3c0.4,0,0.8,0,1.1-0.2l15.3-7.9c0.3-0.2,0.4-0.4,0.4-0.6
		c0-0.2-0.2-0.5-0.5-0.6L1308.3,171.5z M1315.3,175.6l-0.8-0.5c-0.3-0.2-0.7-0.3-1.1-0.3c-0.4,0-0.8,0-1.1,0.2l-15.3,7.9
		c-0.3,0.2-0.4,0.4-0.4,0.6c0,0.2,0.2,0.5,0.5,0.6l0.8,0.5c0.3,0.2,0.7,0.3,1.1,0.3c0.4,0,0.8,0,1.1-0.2l15.3-7.9
		c0.3-0.2,0.4-0.4,0.4-0.6C1315.8,176,1315.6,175.8,1315.3,175.6z M1321.5,179.2l-0.8-0.5c-0.3-0.2-0.7-0.3-1.1-0.3
		c-0.4,0-0.8,0-1.1,0.2l-15.3,7.9c-0.3,0.2-0.4,0.4-0.4,0.6c0,0.2,0.2,0.5,0.5,0.6l0.8,0.5c0.3,0.2,0.7,0.3,1.1,0.3
		c0.4,0,0.8,0,1.1-0.2l15.3-7.9c0.3-0.2,0.4-0.4,0.4-0.6C1322,179.6,1321.8,179.4,1321.5,179.2z"/>
</g>
<g>
	<linearGradient id="SVGID_44_" gradientUnits="userSpaceOnUse" x1="1261.4452" y1="178.5312" x2="1343.5265" y2="178.5312">
		<stop  offset="0" style="stop-color:#42E7E1"/>
		<stop  offset="1" style="stop-color:#40E5DF;stop-opacity:0.5"/>
	</linearGradient>
	<path class="st45" d="M1293.7,167.9c0.6,0.4,1.4,0.6,2.3,0.6c0.9,0,1.6-0.1,2.2-0.4l12.4-6.4l31.9,18.5c0.6,0.4,1,0.8,1,1.3
		c0,0.5-0.3,0.9-0.9,1.2l-30.6,15.9c-0.6,0.3-1.3,0.5-2.2,0.4c-0.9,0-1.6-0.3-2.3-0.6l-45.1-26.1c-0.6-0.4-1-0.8-1-1.3
		s0.3-0.9,0.9-1.2l18.2-9.5L1293.7,167.9z M1306.9,159.6c-0.6-0.4-1.4-0.6-2.3-0.6l-18.4-0.9c-0.9,0-1.6,0.1-2.2,0.4l-0.5,0.3
		l12.4,7.2l11.7-6.1L1306.9,159.6z M1309.3,170.5c-0.3-0.2-0.7-0.3-1.1-0.3c-0.4,0-0.8,0-1.1,0.2l-15.3,7.9
		c-0.3,0.2-0.4,0.4-0.4,0.6s0.2,0.5,0.5,0.6l0.8,0.5c0.3,0.2,0.7,0.3,1.1,0.3c0.4,0,0.8,0,1.1-0.2l15.3-7.9c0.3-0.2,0.4-0.4,0.4-0.6
		c0-0.2-0.2-0.5-0.5-0.6L1309.3,170.5z M1316.3,174.6l-0.8-0.5c-0.3-0.2-0.7-0.3-1.1-0.3c-0.4,0-0.8,0-1.1,0.2l-15.3,7.9
		c-0.3,0.2-0.4,0.4-0.4,0.6c0,0.2,0.2,0.5,0.5,0.6l0.8,0.5c0.3,0.2,0.7,0.3,1.1,0.3c0.4,0,0.8,0,1.1-0.2l15.3-7.9
		c0.3-0.2,0.4-0.4,0.4-0.6C1316.8,175,1316.6,174.8,1316.3,174.6z M1322.5,178.2l-0.8-0.5c-0.3-0.2-0.7-0.3-1.1-0.3
		c-0.4,0-0.8,0-1.1,0.2l-15.3,7.9c-0.3,0.2-0.4,0.4-0.4,0.6c0,0.2,0.2,0.5,0.5,0.6l0.8,0.5c0.3,0.2,0.7,0.3,1.1,0.3
		c0.4,0,0.8,0,1.1-0.2l15.3-7.9c0.3-0.2,0.4-0.4,0.4-0.6C1323,178.6,1322.8,178.4,1322.5,178.2z"/>
</g>
<linearGradient id="SVGID_45_" gradientUnits="userSpaceOnUse" x1="1301.4171" y1="274.2819" x2="1301.4171" y2="118.181">
	<stop  offset="0" style="stop-color:#42E7E1"/>
	<stop  offset="1" style="stop-color:#40E5DF;stop-opacity:0"/>
</linearGradient>
<path class="st46" d="M1365.2,118.2h-127.5h0v115.2l0,0c0,0.4,0.2,0.7,0.5,0.9l69,39.5c1,0.6,2.3,0.6,3.3,0l54.2-30.8
	c0.4-0.2,0.5-0.6,0.5-0.9l0,0L1365.2,118.2L1365.2,118.2z"/>
</svg>
