<?xml version="1.0" encoding="utf-8"?>
<!-- Generator: Adobe Illustrator 22.1.0, SVG Export Plug-In . SVG Version: 6.00 Build 0)  -->
<svg version="1.1" id="Layer_1" xmlns="http://www.w3.org/2000/svg" xmlns:xlink="http://www.w3.org/1999/xlink" x="0px" y="0px"
	 viewBox="0 0 1920 600" style="enable-background:new 0 0 1920 600;" xml:space="preserve">
<style type="text/css">
	.st0{fill:#080245;}
	.st1{opacity:0.5;fill:url(#SVGID_1_);}
	.st2{fill:url(#SVGID_2_);}
	.st3{opacity:0.8;fill:url(#SVGID_3_);}
	.st4{fill:none;stroke:url(#SVGID_4_);stroke-width:4;stroke-miterlimit:10;}
	.st5{fill:#42E5E0;}
	.st6{opacity:0.8;}
	.st7{opacity:0.8;fill:url(#SVGID_5_);}
	.st8{fill:none;stroke:url(#SVGID_6_);stroke-width:4;stroke-miterlimit:10;}
	.st9{opacity:0.8;fill:url(#SVGID_7_);}
	.st10{fill:none;stroke:url(#SVGID_8_);stroke-width:4;stroke-miterlimit:10;}
	.st11{opacity:0.5;}
	.st12{opacity:0.8;fill:url(#SVGID_9_);}
	.st13{fill:none;stroke:url(#SVGID_10_);stroke-width:4;stroke-miterlimit:10;}
	.st14{opacity:0.3;}
	.st15{opacity:0.8;fill:url(#SVGID_11_);}
	.st16{fill:none;stroke:url(#SVGID_12_);stroke-width:4;stroke-miterlimit:10;}
	.st17{opacity:0.8;fill:url(#SVGID_13_);}
	.st18{fill:none;stroke:url(#SVGID_14_);stroke-width:4;stroke-miterlimit:10;}
	.st19{opacity:0.8;fill:url(#SVGID_15_);}
	.st20{fill:none;stroke:url(#SVGID_16_);stroke-width:4;stroke-miterlimit:10;}
	.st21{opacity:0.8;fill:url(#SVGID_17_);}
	.st22{fill:none;stroke:url(#SVGID_18_);stroke-width:4;stroke-miterlimit:10;}
	.st23{opacity:0.8;fill:url(#SVGID_19_);}
	.st24{fill:none;stroke:url(#SVGID_20_);stroke-width:4;stroke-miterlimit:10;}
	.st25{opacity:0.8;fill:url(#SVGID_21_);}
	.st26{fill:none;stroke:url(#SVGID_22_);stroke-width:4;stroke-miterlimit:10;}
	.st27{opacity:0.8;fill:url(#SVGID_23_);}
	.st28{fill:none;stroke:url(#SVGID_24_);stroke-width:4;stroke-miterlimit:10;}
	.st29{fill:#0F0A4C;}
	.st30{opacity:0.8;fill:#50EBE5;}
	.st31{fill:#408AAF;}
	.st32{fill:url(#SVGID_25_);}
	.st33{fill:url(#SVGID_26_);}
	.st34{fill:url(#SVGID_27_);}
	.st35{fill:url(#SVGID_28_);}
	.st36{fill:url(#SVGID_29_);}
	.st37{fill:url(#SVGID_30_);}
	.st38{fill:url(#SVGID_31_);}
	.st39{fill:#4EEEE6;}
	.st40{fill:url(#SVGID_32_);}
	.st41{opacity:0.8;fill:#46B7C7;}
	.st42{opacity:0.8;fill:#4CE5E2;}
	.st43{opacity:0.7;fill:#4EEEE6;}
	.st44{fill:#4CD3D9;}
	.st45{fill:url(#SVGID_33_);}
	.st46{opacity:0.9;fill:#45BFCA;}
	.st47{fill:url(#SVGID_34_);}
	.st48{fill:url(#SVGID_35_);}
	.st49{opacity:0.8;fill:#45BFCA;}
	.st50{opacity:0.3;fill:#43E4DF;}
	.st51{fill:url(#SVGID_36_);}
	.st52{fill:url(#SVGID_37_);}
	.st53{opacity:0.5;fill:url(#SVGID_38_);}
	.st54{fill:url(#SVGID_39_);}
	.st55{fill:url(#SVGID_40_);}
	.st56{fill:url(#SVGID_41_);}
	.st57{fill:url(#SVGID_42_);}
	.st58{fill:url(#SVGID_43_);}
</style>
<g>
	<rect class="st0" width="1920" height="600"/>
	<linearGradient id="SVGID_1_" gradientUnits="userSpaceOnUse" x1="25.5839" y1="582.3129" x2="1905.5839" y2="14.3129">
		<stop  offset="0" style="stop-color:#42E7E1"/>
		<stop  offset="1" style="stop-color:#40E5DF;stop-opacity:0"/>
	</linearGradient>
	<rect class="st1" width="1920" height="600"/>
	<g>
		<g>
			<linearGradient id="SVGID_2_" gradientUnits="userSpaceOnUse" x1="476.3849" y1="427.8233" x2="1612.9753" y2="427.8233">
				<stop  offset="8.648649e-02" style="stop-color:#43E4DF;stop-opacity:0"/>
				<stop  offset="0.5" style="stop-color:#43E4DF;stop-opacity:0.3"/>
				<stop  offset="1" style="stop-color:#43E4DF;stop-opacity:0"/>
			</linearGradient>
			<path class="st2" d="M1294.1,550c-9.8,0-19.6-2.4-28.3-7.2L1083,442.1c-9.5-5.5-21.3-5.4-30.7,0.3l-0.1,0.1l-145.6,82.1
				c-15.8,8.9-34.8,9-50.7,0.3L476.4,316l5.7-10.4l379.5,208.8c12.3,6.7,26.9,6.6,39.2-0.2l145.5-82c13.1-7.8,29.4-7.9,42.6-0.4
				l182.7,100.5c14.3,7.8,31.9,7.7,46-0.4l289.5-166.5l5.9,10.3l-289.5,166.5C1314.4,547.4,1304.3,550,1294.1,550z"/>
		</g>
	</g>
	<g>
		<g>
			
				<radialGradient id="SVGID_3_" cx="1024.4559" cy="236.6294" r="9.3734" gradientTransform="matrix(2.4074 0 0 1.2963 -1081.5927 -80.7407)" gradientUnits="userSpaceOnUse">
				<stop  offset="0" style="stop-color:#42E7E1"/>
				<stop  offset="0.7821" style="stop-color:#41E6E0;stop-opacity:0.2"/>
				<stop  offset="1" style="stop-color:#40E5DF;stop-opacity:0"/>
			</radialGradient>
			<ellipse class="st3" cx="1384.7" cy="226" rx="22.6" ry="12.2"/>
			<linearGradient id="SVGID_4_" gradientUnits="userSpaceOnUse" x1="1313.0397" y1="247.457" x2="1386.0543" y2="247.457">
				<stop  offset="0" style="stop-color:#40E5DF;stop-opacity:0"/>
				<stop  offset="1" style="stop-color:#42E7E1"/>
			</linearGradient>
			<line class="st4" x1="1385.1" y1="227.1" x2="1314" y2="267.8"/>
			<circle class="st5" cx="1386.9" cy="226.7" r="5.5"/>
		</g>
		<g class="st6">
			
				<radialGradient id="SVGID_5_" cx="916.8922" cy="415.8439" r="9.3734" gradientTransform="matrix(2.4074 0 0 1.2963 -1081.5927 -80.7407)" gradientUnits="userSpaceOnUse">
				<stop  offset="0" style="stop-color:#42E7E1"/>
				<stop  offset="0.7821" style="stop-color:#41E6E0;stop-opacity:0.2"/>
				<stop  offset="1" style="stop-color:#40E5DF;stop-opacity:0"/>
			</radialGradient>
			<ellipse class="st7" cx="1125.7" cy="458.3" rx="22.6" ry="12.2"/>
			<linearGradient id="SVGID_6_" gradientUnits="userSpaceOnUse" x1="1079.9838" y1="472.3734" x2="1127.1056" y2="472.3734">
				<stop  offset="0" style="stop-color:#40E5DF;stop-opacity:0"/>
				<stop  offset="1" style="stop-color:#42E7E1"/>
			</linearGradient>
			<line class="st8" x1="1126.1" y1="459.4" x2="1081" y2="485.3"/>
			<circle class="st5" cx="1128" cy="459.1" r="5.5"/>
		</g>
		
			<radialGradient id="SVGID_7_" cx="1090.5309" cy="284.5721" r="9.3734" gradientTransform="matrix(2.4074 0 0 1.2963 -1081.5927 -80.7407)" gradientUnits="userSpaceOnUse">
			<stop  offset="0" style="stop-color:#42E7E1"/>
			<stop  offset="0.7821" style="stop-color:#41E6E0;stop-opacity:0.2"/>
			<stop  offset="1" style="stop-color:#40E5DF;stop-opacity:0"/>
		</radialGradient>
		<ellipse class="st9" cx="1543.8" cy="288.1" rx="22.6" ry="12.2"/>
		<linearGradient id="SVGID_8_" gradientUnits="userSpaceOnUse" x1="1472.1089" y1="309.6049" x2="1545.1235" y2="309.6049">
			<stop  offset="0" style="stop-color:#40E5DF;stop-opacity:0"/>
			<stop  offset="1" style="stop-color:#42E7E1"/>
		</linearGradient>
		<line class="st10" x1="1544.1" y1="289.3" x2="1473.1" y2="330"/>
		<circle class="st5" cx="1546" cy="288.9" r="5.5"/>
		<g class="st11">
			
				<radialGradient id="SVGID_9_" cx="1052.4225" cy="184.1208" r="9.3734" gradientTransform="matrix(2.4074 0 0 1.2963 -1081.5927 -80.7407)" gradientUnits="userSpaceOnUse">
				<stop  offset="0" style="stop-color:#42E7E1"/>
				<stop  offset="0.7821" style="stop-color:#41E6E0;stop-opacity:0.2"/>
				<stop  offset="1" style="stop-color:#40E5DF;stop-opacity:0"/>
			</radialGradient>
			<ellipse class="st12" cx="1452" cy="157.9" rx="22.6" ry="12.2"/>
			<linearGradient id="SVGID_10_" gradientUnits="userSpaceOnUse" x1="1380.3666" y1="179.3902" x2="1453.3813" y2="179.3902">
				<stop  offset="0" style="stop-color:#40E5DF;stop-opacity:0"/>
				<stop  offset="1" style="stop-color:#42E7E1"/>
			</linearGradient>
			<line class="st13" x1="1452.4" y1="159" x2="1381.4" y2="199.7"/>
			<circle class="st5" cx="1454.2" cy="158.7" r="5.5"/>
		</g>
		<g class="st14">
			
				<radialGradient id="SVGID_11_" cx="1042.2808" cy="291.4211" r="9.3734" gradientTransform="matrix(2.4074 0 0 1.2963 -1081.5927 -80.7407)" gradientUnits="userSpaceOnUse">
				<stop  offset="0" style="stop-color:#42E7E1"/>
				<stop  offset="0.7821" style="stop-color:#41E6E0;stop-opacity:0.2"/>
				<stop  offset="1" style="stop-color:#40E5DF;stop-opacity:0"/>
			</radialGradient>
			<ellipse class="st15" cx="1427.6" cy="297" rx="22.6" ry="12.2"/>
			<linearGradient id="SVGID_12_" gradientUnits="userSpaceOnUse" x1="1355.9514" y1="318.4832" x2="1428.9661" y2="318.4832">
				<stop  offset="0" style="stop-color:#40E5DF;stop-opacity:0"/>
				<stop  offset="1" style="stop-color:#42E7E1"/>
			</linearGradient>
			<line class="st16" x1="1428" y1="298.1" x2="1356.9" y2="338.8"/>
			<circle class="st5" cx="1429.8" cy="297.8" r="5.5"/>
		</g>
		<g class="st14">
			
				<radialGradient id="SVGID_13_" cx="881.2424" cy="354.2032" r="9.3734" gradientTransform="matrix(2.4074 0 0 1.2963 -1081.5927 -80.7407)" gradientUnits="userSpaceOnUse">
				<stop  offset="0" style="stop-color:#42E7E1"/>
				<stop  offset="0.7821" style="stop-color:#41E6E0;stop-opacity:0.2"/>
				<stop  offset="1" style="stop-color:#40E5DF;stop-opacity:0"/>
			</radialGradient>
			<ellipse class="st17" cx="1039.9" cy="378.4" rx="22.6" ry="12.2"/>
			<linearGradient id="SVGID_14_" gradientUnits="userSpaceOnUse" x1="968.2665" y1="399.8675" x2="1041.2811" y2="399.8675">
				<stop  offset="0" style="stop-color:#40E5DF;stop-opacity:0"/>
				<stop  offset="1" style="stop-color:#42E7E1"/>
			</linearGradient>
			<line class="st18" x1="1040.3" y1="379.5" x2="969.3" y2="420.2"/>
			<circle class="st5" cx="1042.1" cy="379.2" r="5.5"/>
		</g>
		<g class="st11">
			
				<radialGradient id="SVGID_15_" cx="927.3412" cy="232.0635" r="9.3734" gradientTransform="matrix(2.4074 0 0 1.2963 -1081.5927 -80.7407)" gradientUnits="userSpaceOnUse">
				<stop  offset="0" style="stop-color:#42E7E1"/>
				<stop  offset="0.7821" style="stop-color:#41E6E0;stop-opacity:0.2"/>
				<stop  offset="1" style="stop-color:#40E5DF;stop-opacity:0"/>
			</radialGradient>
			<ellipse class="st19" cx="1150.9" cy="220.1" rx="22.6" ry="12.2"/>
			<linearGradient id="SVGID_16_" gradientUnits="userSpaceOnUse" x1="1079.245" y1="241.5381" x2="1152.2596" y2="241.5381">
				<stop  offset="0" style="stop-color:#40E5DF;stop-opacity:0"/>
				<stop  offset="1" style="stop-color:#42E7E1"/>
			</linearGradient>
			<line class="st20" x1="1151.3" y1="221.2" x2="1080.2" y2="261.9"/>
			<circle class="st5" cx="1153.1" cy="220.8" r="5.5"/>
		</g>
		<g>
			
				<radialGradient id="SVGID_17_" cx="891.9988" cy="255.4641" r="9.3734" gradientTransform="matrix(2.4074 0 0 1.2963 -1081.5927 -80.7407)" gradientUnits="userSpaceOnUse">
				<stop  offset="0" style="stop-color:#42E7E1"/>
				<stop  offset="0.7821" style="stop-color:#41E6E0;stop-opacity:0.2"/>
				<stop  offset="1" style="stop-color:#40E5DF;stop-opacity:0"/>
			</radialGradient>
			<ellipse class="st21" cx="1065.8" cy="250.4" rx="22.6" ry="12.2"/>
			<linearGradient id="SVGID_18_" gradientUnits="userSpaceOnUse" x1="970.4894" y1="278.5309" x2="1067.1727" y2="278.5309">
				<stop  offset="0" style="stop-color:#40E5DF;stop-opacity:0"/>
				<stop  offset="1" style="stop-color:#42E7E1"/>
			</linearGradient>
			<line class="st22" x1="1066.2" y1="251.5" x2="971.5" y2="305.5"/>
			<circle class="st5" cx="1068" cy="251.2" r="5.5"/>
		</g>
		<g>
			
				<radialGradient id="SVGID_19_" cx="824.08" cy="354.3146" r="9.3734" gradientTransform="matrix(2.4074 0 0 -1.2963 -1081.5927 979.8177)" gradientUnits="userSpaceOnUse">
				<stop  offset="0" style="stop-color:#42E7E1"/>
				<stop  offset="0.7821" style="stop-color:#41E6E0;stop-opacity:0.2"/>
				<stop  offset="1" style="stop-color:#40E5DF;stop-opacity:0"/>
			</radialGradient>
			<ellipse class="st23" cx="902.3" cy="520.5" rx="22.6" ry="12.2"/>
			
				<linearGradient id="SVGID_20_" gradientUnits="userSpaceOnUse" x1="716.7213" y1="432.224" x2="903.6618" y2="432.224" gradientTransform="matrix(1 0 0 -1 0 899.0769)">
				<stop  offset="0" style="stop-color:#40E5DF;stop-opacity:0"/>
				<stop  offset="1" style="stop-color:#42E7E1"/>
			</linearGradient>
			<line class="st24" x1="902.7" y1="519.4" x2="717.7" y2="414.3"/>
			<circle class="st5" cx="904.5" cy="519.8" r="5.5"/>
		</g>
		<g>
			
				<radialGradient id="SVGID_21_" cx="911.3603" cy="410.7072" r="9.3734" gradientTransform="matrix(2.4074 0 0 1.2963 -1081.5927 -80.7407)" gradientUnits="userSpaceOnUse">
				<stop  offset="0" style="stop-color:#42E7E1"/>
				<stop  offset="0.7821" style="stop-color:#41E6E0;stop-opacity:0.2"/>
				<stop  offset="1" style="stop-color:#40E5DF;stop-opacity:0"/>
			</radialGradient>
			<ellipse class="st25" cx="1112.4" cy="451.7" rx="22.6" ry="12.2"/>
			<linearGradient id="SVGID_22_" gradientUnits="userSpaceOnUse" x1="1040.7725" y1="473.1133" x2="1113.7871" y2="473.1133">
				<stop  offset="0" style="stop-color:#40E5DF;stop-opacity:0"/>
				<stop  offset="1" style="stop-color:#42E7E1"/>
			</linearGradient>
			<line class="st26" x1="1112.8" y1="452.8" x2="1041.8" y2="493.5"/>
			<circle class="st5" cx="1114.6" cy="452.4" r="5.5"/>
		</g>
		<g>
			
				<radialGradient id="SVGID_23_" cx="735.3419" cy="436.9615" r="9.3734" gradientTransform="matrix(-2.4074 0 0 1.2963 3181.5925 -80.7407)" gradientUnits="userSpaceOnUse">
				<stop  offset="0" style="stop-color:#42E7E1"/>
				<stop  offset="0.7821" style="stop-color:#41E6E0;stop-opacity:0.2"/>
				<stop  offset="1" style="stop-color:#40E5DF;stop-opacity:0"/>
			</radialGradient>
			<ellipse class="st27" cx="1411.3" cy="485.7" rx="22.6" ry="12.2"/>
			
				<linearGradient id="SVGID_24_" gradientUnits="userSpaceOnUse" x1="617.0244" y1="507.1467" x2="690.0391" y2="507.1467" gradientTransform="matrix(-1 0 0 1 2100 0)">
				<stop  offset="0" style="stop-color:#40E5DF;stop-opacity:0"/>
				<stop  offset="1" style="stop-color:#42E7E1"/>
			</linearGradient>
			<line class="st28" x1="1411" y1="486.8" x2="1482" y2="527.5"/>
			<circle class="st5" cx="1409.1" cy="486.4" r="5.5"/>
		</g>
	</g>
	<g>
		<path class="st29" d="M1079.5,386.5c-4.7-2.8-4.7-7.3,0-10.1l205.2-120c4.7-2.8,12.5-2.8,17.3,0l205.2,120c4.7,2.8,4.7,7.3,0,10.1
			l-205.2,120c-4.7,2.8-12.5,2.8-17.3,0L1079.5,386.5z"/>
	</g>
	<g>
		<polygon class="st30" points="1293.3,375 1130.5,282.3 1130.5,382.2 1293.3,474.9 		"/>
		<polygon class="st31" points="1456.1,382.2 1293.3,474.9 1293.3,375 1456.1,282.3 		"/>
		<linearGradient id="SVGID_25_" gradientUnits="userSpaceOnUse" x1="1221.1023" y1="309.4753" x2="1295.0879" y2="383.9542">
			<stop  offset="0" style="stop-color:#49B1CE"/>
			<stop  offset="1" style="stop-color:#4795C6"/>
		</linearGradient>
		<polygon class="st32" points="1293.3,474.9 1130.5,382.2 1293.3,289.5 1456.1,382.2 		"/>
		<linearGradient id="SVGID_26_" gradientUnits="userSpaceOnUse" x1="1130.5494" y1="435.1825" x2="1293.318" y2="435.1825">
			<stop  offset="0" style="stop-color:#378CB3"/>
			<stop  offset="1" style="stop-color:#312B8F"/>
		</linearGradient>
		<polygon class="st33" points="1293.3,488.2 1130.5,395.5 1130.5,382.2 1293.3,474.9 		"/>
		<linearGradient id="SVGID_27_" gradientUnits="userSpaceOnUse" x1="1130.5494" y1="321.9844" x2="1293.318" y2="321.9844">
			<stop  offset="0" style="stop-color:#3584AD"/>
			<stop  offset="1" style="stop-color:#302B91"/>
		</linearGradient>
		<polygon class="st34" points="1293.3,375 1130.5,282.3 1130.5,269 1293.3,361.7 		"/>
		<linearGradient id="SVGID_28_" gradientUnits="userSpaceOnUse" x1="1293.318" y1="321.9844" x2="1456.0864" y2="321.9844">
			<stop  offset="0" style="stop-color:#251D73"/>
			<stop  offset="1" style="stop-color:#180D5B"/>
		</linearGradient>
		<polygon class="st35" points="1456.1,269 1293.3,361.7 1293.3,375 1456.1,282.3 		"/>
		<linearGradient id="SVGID_29_" gradientUnits="userSpaceOnUse" x1="1293.318" y1="435.1825" x2="1456.0864" y2="435.1825">
			<stop  offset="0" style="stop-color:#251B71"/>
			<stop  offset="1" style="stop-color:#1B105F"/>
		</linearGradient>
		<polygon class="st36" points="1456.1,382.2 1293.3,474.9 1293.3,488.2 1456.1,395.5 		"/>
		<linearGradient id="SVGID_30_" gradientUnits="userSpaceOnUse" x1="1221.1023" y1="196.2772" x2="1295.0879" y2="270.7561">
			<stop  offset="0" style="stop-color:#3274A6"/>
			<stop  offset="1" style="stop-color:#312A91"/>
		</linearGradient>
		<polygon class="st37" points="1293.3,361.7 1130.5,269 1293.3,176.3 1456.1,269 		"/>
		<linearGradient id="SVGID_31_" gradientUnits="userSpaceOnUse" x1="1130.5494" y1="268.9743" x2="1223.9922" y2="268.9743">
			<stop  offset="0.2" style="stop-color:#4FECE5"/>
			<stop  offset="1" style="stop-color:#3260A0"/>
		</linearGradient>
		<polygon class="st38" points="1131.3,269 1224,215.8 1130.5,269 1224,322.2 		"/>
		<polygon class="st30" points="1230.4,354.7 1212.7,344.6 1149.8,382 1212.7,417.9 1230.4,407.8 		"/>
		<polygon class="st39" points="1307.5,382.5 1374,417.8 1436.9,382 1372.3,345.5 		"/>
		<linearGradient id="SVGID_32_" gradientUnits="userSpaceOnUse" x1="1149.7858" y1="346.0378" x2="1293.318" y2="346.0378">
			<stop  offset="0" style="stop-color:#42E7E1"/>
			<stop  offset="1" style="stop-color:#40E5DF;stop-opacity:0"/>
		</linearGradient>
		<polygon class="st40" points="1149.8,308.8 1293.3,390.5 1293.3,375 1164.4,301.5 		"/>
		<polygon class="st41" points="1374,344.6 1374,417.8 1436.9,382 1436.9,308.8 		"/>
		<polygon class="st30" points="1293.3,463.8 1230.4,427.8 1293.3,391.8 1356.2,427.8 		"/>
		<polygon class="st42" points="1230.4,354.7 1230.4,428 1293.3,463.8 1293.3,390.5 		"/>
		<polygon class="st43" points="1149.8,308.8 1149.8,382 1212.7,417.8 1212.7,344.6 		"/>
		<polygon class="st44" points="1149.8,293.2 1149.8,308.8 1164.4,301.5 1164.4,301.5 		"/>
		<linearGradient id="SVGID_33_" gradientUnits="userSpaceOnUse" x1="1230.4302" y1="368.6454" x2="1356.2058" y2="368.6454">
			<stop  offset="0" style="stop-color:#42E7E0;stop-opacity:0"/>
			<stop  offset="0.5" style="stop-color:#42E7E1"/>
			<stop  offset="1" style="stop-color:#40E5DF;stop-opacity:0"/>
		</linearGradient>
		<polygon class="st45" points="1293.3,375 1244,346.8 1230.4,354.5 1293.3,390.5 1356.2,354.5 1342.6,346.8 		"/>
		<polygon class="st46" points="1293.3,375 1293.3,380.9 1356.2,416.9 1356.2,354.7 1342.5,346.9 		"/>
		<polygon class="st43" points="1293.3,375 1307.4,382.5 1356.2,354.7 1356.2,408.4 1374,417.8 1374,329.1 		"/>
		<linearGradient id="SVGID_34_" gradientUnits="userSpaceOnUse" x1="1230.4302" y1="368.6454" x2="1356.2058" y2="368.6454">
			<stop  offset="0" style="stop-color:#42E7E0;stop-opacity:0"/>
			<stop  offset="0.5" style="stop-color:#42E7E1"/>
			<stop  offset="1" style="stop-color:#40E5DF;stop-opacity:0"/>
		</linearGradient>
		<polygon class="st47" points="1293.3,375 1244,346.8 1230.4,354.5 1293.3,390.5 1356.2,354.5 1342.6,346.8 		"/>
		<linearGradient id="SVGID_35_" gradientUnits="userSpaceOnUse" x1="1293.318" y1="346.0378" x2="1436.8501" y2="346.0378">
			<stop  offset="0" style="stop-color:#42E7E0;stop-opacity:0"/>
			<stop  offset="0.4333" style="stop-color:#42E7E1"/>
			<stop  offset="1" style="stop-color:#42E7E1;stop-opacity:0.85"/>
		</linearGradient>
		<polygon class="st48" points="1436.9,308.8 1293.3,390.5 1293.3,375 1422.3,301.5 		"/>
		<polygon class="st49" points="1293.3,390.5 1293.3,463.8 1356.2,428 1356.2,354.7 		"/>
		<polygon class="st43" points="1374,346.5 1374,417.8 1436.9,382 		"/>
		<polygon class="st50" points="1293.3,333.2 1180.9,269.1 1293.3,205.1 1405.8,269.1 		"/>
		<polygon class="st5" points="1210.5,262.6 1231,274.3 1240.1,269.1 1210.5,252.3 1180.9,269.1 1190,274.3 		"/>
		<linearGradient id="SVGID_36_" gradientUnits="userSpaceOnUse" x1="1215.0049" y1="285.7016" x2="1215.0049" y2="262.8888">
			<stop  offset="0" style="stop-color:#42E7E1;stop-opacity:0.75"/>
			<stop  offset="1" style="stop-color:#40E5DF;stop-opacity:0"/>
		</linearGradient>
		<polygon class="st51" points="1231,274.3 1210.5,262.6 1190,274.3 1210.5,286 1240.1,269.1 		"/>
		<g>
			<polygon class="st5" points="1376.2,262.6 1396.7,274.3 1405.8,269.1 1376.2,252.3 1346.6,269.1 1355.7,274.3 			"/>
			<linearGradient id="SVGID_37_" gradientUnits="userSpaceOnUse" x1="1380.7241" y1="285.7016" x2="1380.7241" y2="262.8888">
				<stop  offset="0" style="stop-color:#42E7E1;stop-opacity:0.75"/>
				<stop  offset="1" style="stop-color:#40E5DF;stop-opacity:0"/>
			</linearGradient>
			<polygon class="st52" points="1396.7,274.3 1376.2,262.6 1355.7,274.3 1376.2,286 1405.8,269.1 			"/>
		</g>
		<linearGradient id="SVGID_38_" gradientUnits="userSpaceOnUse" x1="1280.1859" y1="208.7123" x2="1293.6398" y2="222.2559">
			<stop  offset="0" style="stop-color:#3274A6"/>
			<stop  offset="1" style="stop-color:#312A91"/>
		</linearGradient>
		<polygon class="st53" points="1293.3,215.4 1313.8,227.1 1322.9,221.9 1293.3,205.1 1263.7,221.9 1272.8,227.1 		"/>
		<polygon class="st5" points="1293.3,215.4 1313.8,227.1 1322.9,221.9 1293.3,205.1 1263.7,221.9 1272.8,227.1 		"/>
		<linearGradient id="SVGID_39_" gradientUnits="userSpaceOnUse" x1="1297.8645" y1="238.5099" x2="1297.8645" y2="215.6971">
			<stop  offset="0" style="stop-color:#42E7E1;stop-opacity:0.75"/>
			<stop  offset="1" style="stop-color:#40E5DF;stop-opacity:0"/>
		</linearGradient>
		<polygon class="st54" points="1313.8,227.1 1293.3,215.4 1272.8,227.1 1293.3,238.8 1322.9,221.9 		"/>
		<polygon class="st5" points="1293.3,309.8 1313.8,321.5 1322.9,316.3 1293.3,299.5 1263.7,316.3 1272.8,321.5 		"/>
		<linearGradient id="SVGID_40_" gradientUnits="userSpaceOnUse" x1="1297.8645" y1="332.8933" x2="1297.8645" y2="310.0805">
			<stop  offset="0" style="stop-color:#42E7E1;stop-opacity:0.75"/>
			<stop  offset="1" style="stop-color:#40E5DF;stop-opacity:0"/>
		</linearGradient>
		<polygon class="st55" points="1313.8,321.5 1293.3,309.8 1272.8,321.5 1293.3,333.2 1322.9,316.3 		"/>
		<linearGradient id="SVGID_41_" gradientUnits="userSpaceOnUse" x1="1210.4584" y1="280.7909" x2="1210.4584" y2="186.0667">
			<stop  offset="0" style="stop-color:#42E7E1;stop-opacity:0.5"/>
			<stop  offset="1" style="stop-color:#40E5DF;stop-opacity:0"/>
		</linearGradient>
		<polygon class="st56" points="1240.1,175.9 1180.9,175.9 1180.9,269.1 1210.5,286 1240.1,269.1 		"/>
		<linearGradient id="SVGID_42_" gradientUnits="userSpaceOnUse" x1="1376.1776" y1="280.7909" x2="1376.1776" y2="186.0667">
			<stop  offset="0" style="stop-color:#42E7E1;stop-opacity:0.5"/>
			<stop  offset="1" style="stop-color:#40E5DF;stop-opacity:0"/>
		</linearGradient>
		<polygon class="st57" points="1405.8,175.9 1346.6,175.9 1346.6,269.1 1376.2,286 1405.8,269.1 		"/>
		<linearGradient id="SVGID_43_" gradientUnits="userSpaceOnUse" x1="1293.318" y1="323.9959" x2="1293.318" y2="131.1599">
			<stop  offset="0" style="stop-color:#42E7E1;stop-opacity:0.5"/>
			<stop  offset="1" style="stop-color:#40E5DF;stop-opacity:0"/>
		</linearGradient>
		<polygon class="st58" points="1322.9,128.7 1263.7,128.7 1263.7,316.3 1293.3,333.2 1322.9,316.3 		"/>
		<polygon class="st41" points="1422.3,301.5 1422.3,301.5 1436.9,308.8 1436.9,293.2 		"/>
	</g>
</g>
</svg>
