<?xml version="1.0" encoding="utf-8"?>
<!-- Generator: Adobe Illustrator 16.0.3, SVG Export Plug-In . SVG Version: 6.00 Build 0)  -->
<!DOCTYPE svg PUBLIC "-//W3C//DTD SVG 1.1//EN" "http://www.w3.org/Graphics/SVG/1.1/DTD/svg11.dtd">
<svg version="1.1" id="Layer_1" xmlns="http://www.w3.org/2000/svg" xmlns:xlink="http://www.w3.org/1999/xlink" x="0px" y="0px"
	 width="165.219px" height="165.221px" viewBox="0 0 165.219 165.221" style="enable-background:new 0 0 165.219 165.221;"
	 xml:space="preserve">
<path style="fill:#080245;" d="M165.219,80.25V23.603H0v118.014L165.219,80.25z"/>
<g>
	<path style="fill:#0F0A4C;" d="M29.928,100.218c-0.85-0.519-0.85-1.321,0-1.841L81.052,68.26c0.85-0.52,2.266-0.52,3.115,0
		l51.124,30.117c0.85,0.52,0.85,1.322,0,1.841l-51.124,30.117c-0.85,0.52-2.266,0.52-3.115,0L29.928,100.218z"/>
	<g>
		<polygon style="opacity:0.8;fill:#50EBE5;enable-background:new    ;" points="82.61,97.716 42.91,74.963 42.91,99.51 
			82.61,122.262 		"/>
		<polygon style="fill:#408AAF;" points="122.309,99.51 82.61,122.262 82.61,97.716 122.309,74.963 		"/>
		
			<linearGradient id="SVGID_1_" gradientUnits="userSpaceOnUse" x1="610.7642" y1="702.4382" x2="648.9979" y2="740.9268" gradientTransform="matrix(0.4721 0 0 0.4721 -223.3321 -249.8243)">
			<stop  offset="0" style="stop-color:#49B1CE"/>
			<stop  offset="1" style="stop-color:#4795C6"/>
		</linearGradient>
		<polygon style="fill:url(#SVGID_1_);" points="82.61,122.262 42.91,99.51 82.61,76.71 122.309,99.51 		"/>
		
			<linearGradient id="SVGID_2_" gradientUnits="userSpaceOnUse" x1="564.0054" y1="767.5759" x2="648.105" y2="767.5759" gradientTransform="matrix(0.4721 0 0 0.4721 -223.3321 -249.8243)">
			<stop  offset="0" style="stop-color:#378CB3"/>
			<stop  offset="1" style="stop-color:#312B8F"/>
		</linearGradient>
		<polygon style="fill:url(#SVGID_2_);" points="82.61,125.52 42.91,102.767 42.91,99.51 82.61,122.262 		"/>
		
			<linearGradient id="SVGID_3_" gradientUnits="userSpaceOnUse" x1="564.0054" y1="708.6755" x2="648.105" y2="708.6755" gradientTransform="matrix(0.4721 0 0 0.4721 -223.3321 -249.8243)">
			<stop  offset="0" style="stop-color:#3584AD"/>
			<stop  offset="1" style="stop-color:#302B91"/>
		</linearGradient>
		<polygon style="fill:url(#SVGID_3_);" points="82.61,97.716 42.91,74.963 42.91,71.706 82.61,94.459 		"/>
		
			<linearGradient id="SVGID_4_" gradientUnits="userSpaceOnUse" x1="648.105" y1="708.6755" x2="732.2026" y2="708.6755" gradientTransform="matrix(0.4721 0 0 0.4721 -223.3321 -249.8243)">
			<stop  offset="0" style="stop-color:#251D73"/>
			<stop  offset="1" style="stop-color:#180D5B"/>
		</linearGradient>
		<polygon style="fill:url(#SVGID_4_);" points="122.309,71.706 82.61,94.459 82.61,97.716 122.309,74.963 		"/>
		
			<linearGradient id="SVGID_5_" gradientUnits="userSpaceOnUse" x1="648.105" y1="767.5759" x2="732.2026" y2="767.5759" gradientTransform="matrix(0.4721 0 0 0.4721 -223.3321 -249.8243)">
			<stop  offset="0" style="stop-color:#251B71"/>
			<stop  offset="1" style="stop-color:#1B105F"/>
		</linearGradient>
		<polygon style="fill:url(#SVGID_5_);" points="122.309,99.51 82.61,122.262 82.61,125.52 122.309,102.767 		"/>
		
			<linearGradient id="SVGID_6_" gradientUnits="userSpaceOnUse" x1="610.7769" y1="643.5496" x2="649.0106" y2="682.0381" gradientTransform="matrix(0.4721 0 0 0.4721 -223.3321 -249.8243)">
			<stop  offset="0" style="stop-color:#3274A6"/>
			<stop  offset="1" style="stop-color:#312A91"/>
		</linearGradient>
		<polygon style="fill:url(#SVGID_6_);" points="82.61,94.459 42.91,71.706 82.61,48.953 122.309,71.706 		"/>
		
			<linearGradient id="SVGID_7_" gradientUnits="userSpaceOnUse" x1="564.0054" y1="681.1257" x2="612.3042" y2="681.1257" gradientTransform="matrix(0.4721 0 0 0.4721 -223.3321 -249.8243)">
			<stop  offset="0.2" style="stop-color:#4FECE5"/>
			<stop  offset="1" style="stop-color:#3260A0"/>
		</linearGradient>
		<polygon style="fill:url(#SVGID_7_);" points="43.099,71.706 65.71,58.63 42.91,71.706 65.71,84.782 		"/>
		<polygon style="opacity:0.8;fill:#50EBE5;enable-background:new    ;" points="67.268,92.76 62.925,90.258 47.583,99.463 
			62.925,108.243 67.268,105.788 		"/>
		<polygon style="fill:#4EEEE6;" points="86.055,99.557 102.294,108.243 117.636,99.463 101.87,90.494 		"/>
		
			<linearGradient id="SVGID_8_" gradientUnits="userSpaceOnUse" x1="573.9058" y1="721.1755" x2="648.105" y2="721.1755" gradientTransform="matrix(0.4721 0 0 0.4721 -223.3321 -249.8243)">
			<stop  offset="0" style="stop-color:#42E7E1"/>
			<stop  offset="1" style="stop-color:#40E5DF;stop-opacity:0"/>
		</linearGradient>
		<polygon style="fill:url(#SVGID_8_);" points="47.583,81.477 82.61,101.54 82.61,97.716 51.171,79.683 		"/>
		<polygon style="opacity:0.8;fill:#46B7C7;enable-background:new    ;" points="102.294,90.258 102.294,108.243 117.636,99.463 
			117.636,81.477 		"/>
		<polygon style="opacity:0.8;fill:#50EBE5;enable-background:new    ;" points="82.61,119.525 67.268,110.697 82.61,101.87 
			97.952,110.697 		"/>
		<polygon style="opacity:0.8;fill:#4CE5E2;enable-background:new    ;" points="67.268,92.76 67.268,110.745 82.61,119.525 
			82.61,101.54 		"/>
		<polygon style="opacity:0.7;fill:#4EEEE6;enable-background:new    ;" points="47.583,81.477 47.583,99.463 62.925,108.243 
			62.925,90.258 		"/>
		<polygon style="fill:#4CD3D9;" points="47.583,77.653 47.583,81.477 51.171,79.683 51.171,79.683 		"/>
		
			<linearGradient id="SVGID_9_" gradientUnits="userSpaceOnUse" x1="615.605" y1="732.9265" x2="680.605" y2="732.9265" gradientTransform="matrix(0.4721 0 0 0.4721 -223.3321 -249.8243)">
			<stop  offset="0" style="stop-color:#42E7E0;stop-opacity:0"/>
			<stop  offset="0.5" style="stop-color:#42E7E1"/>
			<stop  offset="1" style="stop-color:#40E5DF;stop-opacity:0"/>
		</linearGradient>
		<polygon style="fill:url(#SVGID_9_);" points="82.61,97.716 70.572,90.777 67.268,92.712 82.61,101.54 97.952,92.712 
			94.647,90.777 		"/>
		<polygon style="opacity:0.9;fill:#45BFCA;enable-background:new    ;" points="82.61,97.716 82.61,99.179 97.952,108.007 
			97.952,92.76 94.6,90.824 		"/>
		<polygon style="opacity:0.7;fill:#4EEEE6;enable-background:new    ;" points="82.61,97.716 86.055,99.557 97.952,92.76 
			97.952,105.929 102.294,108.243 102.294,86.433 		"/>
		
			<linearGradient id="SVGID_10_" gradientUnits="userSpaceOnUse" x1="615.605" y1="732.9265" x2="680.605" y2="732.9265" gradientTransform="matrix(0.4721 0 0 0.4721 -223.3321 -249.8243)">
			<stop  offset="0" style="stop-color:#42E7E0;stop-opacity:0"/>
			<stop  offset="0.5" style="stop-color:#42E7E1"/>
			<stop  offset="1" style="stop-color:#40E5DF;stop-opacity:0"/>
		</linearGradient>
		<polygon style="fill:url(#SVGID_10_);" points="82.61,97.716 70.572,90.777 67.268,92.712 82.61,101.54 97.952,92.712 
			94.647,90.777 		"/>
		
			<linearGradient id="SVGID_11_" gradientUnits="userSpaceOnUse" x1="648.105" y1="721.1755" x2="722.3042" y2="721.1755" gradientTransform="matrix(0.4721 0 0 0.4721 -223.3321 -249.8243)">
			<stop  offset="0" style="stop-color:#42E7E0;stop-opacity:0"/>
			<stop  offset="0.4333" style="stop-color:#42E7E1"/>
			<stop  offset="1" style="stop-color:#42E7E1;stop-opacity:0.85"/>
		</linearGradient>
		<polygon style="fill:url(#SVGID_11_);" points="117.636,81.477 82.61,101.54 82.61,97.716 114.049,79.683 		"/>
		<polygon style="opacity:0.8;fill:#45BFCA;enable-background:new    ;" points="82.61,101.54 82.61,119.525 97.952,110.745 
			97.952,92.76 		"/>
		<polygon style="opacity:0.7;fill:#4EEEE6;enable-background:new    ;" points="102.294,90.729 102.294,108.243 117.636,99.463 		
			"/>
		<polygon style="opacity:0.3;fill:#43E4DF;enable-background:new    ;" points="82.61,87.472 55.184,71.753 82.61,55.986 
			110.036,71.753 		"/>
		<polygon style="fill:#42E5E0;" points="62.406,70.148 67.41,73.027 69.628,71.753 62.406,67.598 55.184,71.753 57.402,73.027 		
			"/>
		
			<linearGradient id="SVGID_12_" gradientUnits="userSpaceOnUse" x1="607.6548" y1="689.8083" x2="607.6548" y2="677.9401" gradientTransform="matrix(0.4721 0 0 0.4721 -223.3321 -249.8243)">
			<stop  offset="0" style="stop-color:#42E7E1;stop-opacity:0.75"/>
			<stop  offset="1" style="stop-color:#40E5DF;stop-opacity:0"/>
		</linearGradient>
		<polygon style="fill:url(#SVGID_12_);" points="67.41,73.027 62.406,70.148 57.402,73.027 62.406,75.86 69.628,71.753 		"/>
		<g>
			<polygon style="fill:#42E5E0;" points="102.814,70.148 107.818,73.027 110.036,71.753 102.814,67.598 95.591,71.753 
				97.81,73.027 			"/>
			
				<linearGradient id="SVGID_13_" gradientUnits="userSpaceOnUse" x1="693.2534" y1="689.8083" x2="693.2534" y2="677.9401" gradientTransform="matrix(0.4721 0 0 0.4721 -223.3321 -249.8243)">
				<stop  offset="0" style="stop-color:#42E7E1;stop-opacity:0.75"/>
				<stop  offset="1" style="stop-color:#40E5DF;stop-opacity:0"/>
			</linearGradient>
			<polygon style="fill:url(#SVGID_13_);" points="107.818,73.027 102.814,70.148 97.81,73.027 102.814,75.86 110.036,71.753 			"/>
		</g>
		
			<linearGradient id="SVGID_14_" gradientUnits="userSpaceOnUse" x1="641.3218" y1="649.8005" x2="648.2743" y2="656.7994" gradientTransform="matrix(0.4721 0 0 0.4721 -223.3321 -249.8243)">
			<stop  offset="0" style="stop-color:#3274A6"/>
			<stop  offset="1" style="stop-color:#312A91"/>
		</linearGradient>
		<polygon style="opacity:0.5;fill:url(#SVGID_14_);enable-background:new    ;" points="82.61,58.535 87.614,61.415 89.833,60.14 
			82.61,55.986 75.387,60.14 77.606,61.415 		"/>
		<polygon style="fill:#42E5E0;" points="82.61,58.535 87.614,61.415 89.833,60.14 82.61,55.986 75.387,60.14 77.606,61.415 		"/>
		
			<linearGradient id="SVGID_15_" gradientUnits="userSpaceOnUse" x1="650.4546" y1="665.2595" x2="650.4546" y2="653.3931" gradientTransform="matrix(0.4721 0 0 0.4721 -223.3321 -249.8243)">
			<stop  offset="0" style="stop-color:#42E7E1;stop-opacity:0.75"/>
			<stop  offset="1" style="stop-color:#40E5DF;stop-opacity:0"/>
		</linearGradient>
		<polygon style="fill:url(#SVGID_15_);" points="87.614,61.415 82.61,58.535 77.606,61.415 82.61,64.295 89.833,60.14 		"/>
		<polygon style="fill:#42E5E0;" points="82.61,81.714 87.614,84.593 89.833,83.318 82.61,79.164 75.387,83.318 77.606,84.593 		"/>
		
			<linearGradient id="SVGID_16_" gradientUnits="userSpaceOnUse" x1="650.4546" y1="714.3542" x2="650.4546" y2="702.4879" gradientTransform="matrix(0.4721 0 0 0.4721 -223.3321 -249.8243)">
			<stop  offset="0" style="stop-color:#42E7E1;stop-opacity:0.75"/>
			<stop  offset="1" style="stop-color:#40E5DF;stop-opacity:0"/>
		</linearGradient>
		<polygon style="fill:url(#SVGID_16_);" points="87.614,84.593 82.61,81.714 77.606,84.593 82.61,87.472 89.833,83.318 		"/>
		
			<linearGradient id="SVGID_17_" gradientUnits="userSpaceOnUse" x1="605.3052" y1="687.2546" x2="605.3052" y2="637.9824" gradientTransform="matrix(0.4721 0 0 0.4721 -223.3321 -249.8243)">
			<stop  offset="0" style="stop-color:#42E7E1;stop-opacity:0.5"/>
			<stop  offset="1" style="stop-color:#40E5DF;stop-opacity:0"/>
		</linearGradient>
		<polygon style="fill:url(#SVGID_17_);" points="69.628,48.858 55.184,48.858 55.184,71.753 62.406,75.86 69.628,71.753 		"/>
		
			<linearGradient id="SVGID_18_" gradientUnits="userSpaceOnUse" x1="690.9038" y1="687.2546" x2="690.9038" y2="637.9824" gradientTransform="matrix(0.4721 0 0 0.4721 -223.3321 -249.8243)">
			<stop  offset="0" style="stop-color:#42E7E1;stop-opacity:0.5"/>
			<stop  offset="1" style="stop-color:#40E5DF;stop-opacity:0"/>
		</linearGradient>
		<polygon style="fill:url(#SVGID_18_);" points="110.036,48.858 95.591,48.858 95.591,71.753 102.814,75.86 110.036,71.753 		"/>
		
			<linearGradient id="SVGID_19_" gradientUnits="userSpaceOnUse" x1="648.105" y1="709.7263" x2="648.105" y2="609.4214" gradientTransform="matrix(0.4721 0 0 0.4721 -223.3321 -249.8243)">
			<stop  offset="0" style="stop-color:#42E7E1;stop-opacity:0.5"/>
			<stop  offset="1" style="stop-color:#40E5DF;stop-opacity:0"/>
		</linearGradient>
		<polygon style="fill:url(#SVGID_19_);" points="89.833,37.246 75.387,37.246 75.387,83.318 82.61,87.472 89.833,83.318 		"/>
		<polygon style="opacity:0.8;fill:#46B7C7;enable-background:new    ;" points="114.049,79.683 114.049,79.683 117.636,81.477 
			117.636,77.653 		"/>
	</g>
</g>
<g>
	
		<radialGradient id="SVGID_20_" cx="1045.2739" cy="1442.7566" r="12.6734" gradientTransform="matrix(0.3938 0 0 0.2128 -303.1194 -243.9353)" gradientUnits="userSpaceOnUse">
		<stop  offset="0" style="stop-color:#42E7E1"/>
		<stop  offset="0.7821" style="stop-color:#41E6E0;stop-opacity:0.2"/>
		<stop  offset="1" style="stop-color:#40E5DF;stop-opacity:0"/>
	</radialGradient>
	<ellipse style="opacity:0.8;fill:url(#SVGID_20_);enable-background:new    ;" cx="108.526" cy="63.02" rx="5.004" ry="2.691"/>
	<g>
		
			<linearGradient id="SVGID_21_" gradientUnits="userSpaceOnUse" x1="669.605" y1="672.825" x2="703.5635" y2="672.825" gradientTransform="matrix(0.4721 0 0 0.4721 -223.3321 -249.8243)">
			<stop  offset="0" style="stop-color:#40E5DF;stop-opacity:0"/>
			<stop  offset="1" style="stop-color:#42E7E1"/>
		</linearGradient>
		<polygon style="fill:url(#SVGID_21_);" points="93.089,72.602 92.759,71.989 108.479,62.972 108.762,63.539 		"/>
	</g>
	<ellipse style="fill:#42E5E0;" cx="109.045" cy="63.161" rx="1.227" ry="1.227"/>
	
		<radialGradient id="SVGID_22_" cx="899.8882" cy="1684.9841" r="12.6748" gradientTransform="matrix(0.3938 0 0 0.2128 -303.1194 -243.9353)" gradientUnits="userSpaceOnUse">
		<stop  offset="0" style="stop-color:#42E7E1"/>
		<stop  offset="0.7821" style="stop-color:#41E6E0;stop-opacity:0.2"/>
		<stop  offset="1" style="stop-color:#40E5DF;stop-opacity:0"/>
	</radialGradient>
	<ellipse style="opacity:0.8;fill:url(#SVGID_22_);enable-background:new    ;" cx="51.265" cy="114.568" rx="5.004" ry="2.69"/>
	<g>
		
			<linearGradient id="SVGID_23_" gradientUnits="userSpaceOnUse" x1="560.4312" y1="778.5251" x2="582.2615" y2="778.5251" gradientTransform="matrix(0.4721 0 0 0.4721 -223.3321 -249.8243)">
			<stop  offset="0" style="stop-color:#40E5DF;stop-opacity:0"/>
			<stop  offset="1" style="stop-color:#42E7E1"/>
		</linearGradient>
		<polygon style="fill:url(#SVGID_23_);" points="41.541,120.846 41.21,120.28 51.218,114.521 51.548,115.088 		"/>
	</g>
	<ellipse style="fill:#42E5E0;" cx="51.785" cy="114.71" rx="1.228" ry="1.228"/>
	
		<radialGradient id="SVGID_24_" cx="1134.5815" cy="1507.5457" r="12.666" gradientTransform="matrix(0.3938 0 0 0.2128 -303.1194 -243.9353)" gradientUnits="userSpaceOnUse">
		<stop  offset="0" style="stop-color:#42E7E1"/>
		<stop  offset="0.7821" style="stop-color:#41E6E0;stop-opacity:0.2"/>
		<stop  offset="1" style="stop-color:#40E5DF;stop-opacity:0"/>
	</radialGradient>
	<ellipse style="opacity:0.8;fill:url(#SVGID_24_);enable-background:new    ;" cx="143.694" cy="76.804" rx="5.004" ry="2.691"/>
	<g>
		
			<linearGradient id="SVGID_25_" gradientUnits="userSpaceOnUse" x1="744.105" y1="702.0261" x2="778.0616" y2="702.0261" gradientTransform="matrix(0.4721 0 0 0.4721 -223.3321 -249.8243)">
			<stop  offset="0" style="stop-color:#40E5DF;stop-opacity:0"/>
			<stop  offset="1" style="stop-color:#42E7E1"/>
		</linearGradient>
		<polygon style="fill:url(#SVGID_25_);" points="128.258,86.386 127.927,85.82 143.647,76.757 143.93,77.323 		"/>
	</g>
	<ellipse style="fill:#42E5E0;" cx="144.213" cy="76.992" rx="1.227" ry="1.227"/>
	
		<radialGradient id="SVGID_26_" cx="1083.0942" cy="1371.7839" r="12.6612" gradientTransform="matrix(0.3938 0 0 0.2128 -303.1194 -243.9353)" gradientUnits="userSpaceOnUse">
		<stop  offset="0" style="stop-color:#42E7E1"/>
		<stop  offset="0.7821" style="stop-color:#41E6E0;stop-opacity:0.2"/>
		<stop  offset="1" style="stop-color:#40E5DF;stop-opacity:0"/>
	</radialGradient>
	<ellipse style="opacity:0.8;fill:url(#SVGID_26_);enable-background:new    ;" cx="123.443" cy="47.914" rx="5.004" ry="2.69"/>
	<g>
		
			<linearGradient id="SVGID_27_" gradientUnits="userSpaceOnUse" x1="701.105" y1="640.8259" x2="735.0596" y2="640.8259" gradientTransform="matrix(0.4721 0 0 0.4721 -223.3321 -249.8243)">
			<stop  offset="0" style="stop-color:#40E5DF;stop-opacity:0"/>
			<stop  offset="1" style="stop-color:#42E7E1"/>
		</linearGradient>
		<polygon style="fill:url(#SVGID_27_);" points="107.959,57.497 107.629,56.93 123.348,47.867 123.678,48.433 		"/>
	</g>
	<ellipse style="fill:#42E5E0;" cx="123.915" cy="48.103" rx="1.227" ry="1.227"/>
	
		<radialGradient id="SVGID_28_" cx="1069.3657" cy="1516.8123" r="12.6743" gradientTransform="matrix(0.3938 0 0 0.2128 -303.1194 -243.9353)" gradientUnits="userSpaceOnUse">
		<stop  offset="0" style="stop-color:#42E7E1"/>
		<stop  offset="0.7821" style="stop-color:#41E6E0;stop-opacity:0.2"/>
		<stop  offset="1" style="stop-color:#40E5DF;stop-opacity:0"/>
	</radialGradient>
	<ellipse style="opacity:0.8;fill:url(#SVGID_28_);enable-background:new    ;" cx="118.014" cy="78.786" rx="5.004" ry="2.691"/>
	<g>
		
			<linearGradient id="SVGID_29_" gradientUnits="userSpaceOnUse" x1="689.7046" y1="706.1755" x2="723.6631" y2="706.1755" gradientTransform="matrix(0.4721 0 0 0.4721 -223.3321 -249.8243)">
			<stop  offset="0" style="stop-color:#40E5DF;stop-opacity:0"/>
			<stop  offset="1" style="stop-color:#42E7E1"/>
		</linearGradient>
		<polygon style="fill:url(#SVGID_29_);" points="102.578,88.322 102.248,87.756 117.967,78.739 118.25,79.305 		"/>
	</g>
	<ellipse style="fill:#42E5E0;" cx="118.534" cy="78.928" rx="1.227" ry="1.227"/>
	
		<radialGradient id="SVGID_30_" cx="851.7036" cy="1601.6697" r="12.6678" gradientTransform="matrix(0.3938 0 0 0.2128 -303.1194 -243.9353)" gradientUnits="userSpaceOnUse">
		<stop  offset="0" style="stop-color:#42E7E1"/>
		<stop  offset="0.7821" style="stop-color:#41E6E0;stop-opacity:0.2"/>
		<stop  offset="1" style="stop-color:#40E5DF;stop-opacity:0"/>
	</radialGradient>
	<ellipse style="opacity:0.8;fill:url(#SVGID_30_);enable-background:new    ;" cx="32.289" cy="96.819" rx="5.004" ry="2.69"/>
	<g>
		
			<linearGradient id="SVGID_31_" gradientUnits="userSpaceOnUse" x1="508.105" y1="744.4265" x2="542.0616" y2="744.4265" gradientTransform="matrix(0.4721 0 0 0.4721 -223.3321 -249.8243)">
			<stop  offset="0" style="stop-color:#40E5DF;stop-opacity:0"/>
			<stop  offset="1" style="stop-color:#42E7E1"/>
		</linearGradient>
		<polygon style="fill:url(#SVGID_31_);" points="16.853,106.402 16.522,105.836 32.242,96.772 32.572,97.385 		"/>
	</g>
	<ellipse style="fill:#42E5E0;" cx="32.808" cy="97.008" rx="1.228" ry="1.228"/>
	
		<radialGradient id="SVGID_32_" cx="914.0122" cy="1436.5818" r="12.6748" gradientTransform="matrix(0.3938 0 0 0.2128 -303.1194 -243.9353)" gradientUnits="userSpaceOnUse">
		<stop  offset="0" style="stop-color:#42E7E1"/>
		<stop  offset="0.7821" style="stop-color:#41E6E0;stop-opacity:0.2"/>
		<stop  offset="1" style="stop-color:#40E5DF;stop-opacity:0"/>
	</radialGradient>
	<ellipse style="opacity:0.8;fill:url(#SVGID_32_);enable-background:new    ;" cx="56.835" cy="61.698" rx="5.004" ry="2.69"/>
	<g>
		
			<linearGradient id="SVGID_33_" gradientUnits="userSpaceOnUse" x1="560.105" y1="670.0261" x2="594.0616" y2="670.0261" gradientTransform="matrix(0.4721 0 0 0.4721 -223.3321 -249.8243)">
			<stop  offset="0" style="stop-color:#40E5DF;stop-opacity:0"/>
			<stop  offset="1" style="stop-color:#42E7E1"/>
		</linearGradient>
		<polygon style="fill:url(#SVGID_33_);" points="41.399,71.281 41.069,70.715 56.741,61.651 57.072,62.218 		"/>
	</g>
	<ellipse style="fill:#42E5E0;" cx="57.355" cy="61.887" rx="1.227" ry="1.227"/>
	
		<radialGradient id="SVGID_34_" cx="866.2661" cy="1468.2117" r="12.6459" gradientTransform="matrix(0.3938 0 0 0.2128 -303.1194 -243.9353)" gradientUnits="userSpaceOnUse">
		<stop  offset="0" style="stop-color:#42E7E1"/>
		<stop  offset="0.7821" style="stop-color:#41E6E0;stop-opacity:0.2"/>
		<stop  offset="1" style="stop-color:#40E5DF;stop-opacity:0"/>
	</radialGradient>
	<ellipse style="opacity:0.8;fill:url(#SVGID_34_);enable-background:new    ;" cx="38.048" cy="68.448" rx="5.004" ry="2.691"/>
	<g>
		
			<linearGradient id="SVGID_35_" gradientUnits="userSpaceOnUse" x1="509.105" y1="687.4255" x2="554.1484" y2="687.4255" gradientTransform="matrix(0.4721 0 0 0.4721 -223.3321 -249.8243)">
			<stop  offset="0" style="stop-color:#40E5DF;stop-opacity:0"/>
			<stop  offset="1" style="stop-color:#42E7E1"/>
		</linearGradient>
		<polygon style="fill:url(#SVGID_35_);" points="17.325,80.958 16.994,80.391 37.953,68.401 38.284,68.968 		"/>
	</g>
	<ellipse style="fill:#42E5E0;" cx="38.52" cy="68.59" rx="1.227" ry="1.227"/>
	
		<radialGradient id="SVGID_36_" cx="892.395" cy="1678.0388" r="12.6775" gradientTransform="matrix(0.3938 0 0 0.2128 -303.1194 -243.9353)" gradientUnits="userSpaceOnUse">
		<stop  offset="0" style="stop-color:#42E7E1"/>
		<stop  offset="0.7821" style="stop-color:#41E6E0;stop-opacity:0.2"/>
		<stop  offset="1" style="stop-color:#40E5DF;stop-opacity:0"/>
	</radialGradient>
	<ellipse style="opacity:0.8;fill:url(#SVGID_36_);enable-background:new    ;" cx="48.338" cy="113.105" rx="5.004" ry="2.691"/>
	<g>
		
			<linearGradient id="SVGID_37_" gradientUnits="userSpaceOnUse" x1="542.0669" y1="778.8748" x2="576.0235" y2="778.8748" gradientTransform="matrix(0.4721 0 0 0.4721 -223.3321 -249.8243)">
			<stop  offset="0" style="stop-color:#40E5DF;stop-opacity:0"/>
			<stop  offset="1" style="stop-color:#42E7E1"/>
		</linearGradient>
		<polygon style="fill:url(#SVGID_37_);" points="32.855,122.64 32.572,122.074 48.244,113.057 48.575,113.624 		"/>
	</g>
	<ellipse style="fill:#42E5E0;" cx="48.811" cy="113.247" rx="1.228" ry="1.228"/>
	
		<radialGradient id="SVGID_38_" cx="-859.1313" cy="1713.5251" r="12.6618" gradientTransform="matrix(-0.3938 0 0 0.2128 -223.9308 -243.9353)" gradientUnits="userSpaceOnUse">
		<stop  offset="0" style="stop-color:#42E7E1"/>
		<stop  offset="0.7821" style="stop-color:#41E6E0;stop-opacity:0.2"/>
		<stop  offset="1" style="stop-color:#40E5DF;stop-opacity:0"/>
	</radialGradient>
	<ellipse style="opacity:0.8;fill:url(#SVGID_38_);enable-background:new    ;" cx="114.426" cy="120.658" rx="5.004" ry="2.69"/>
	<g>
		
			<linearGradient id="SVGID_39_" gradientUnits="userSpaceOnUse" x1="-218.7251" y1="794.8757" x2="-184.7665" y2="794.8757" gradientTransform="matrix(-0.4721 0 0 0.4721 26.9618 -249.8243)">
			<stop  offset="0" style="stop-color:#40E5DF;stop-opacity:0"/>
			<stop  offset="1" style="stop-color:#42E7E1"/>
		</linearGradient>
		<polygon style="fill:url(#SVGID_39_);" points="129.91,130.193 114.19,121.177 114.521,120.611 130.194,129.627 		"/>
	</g>
	<ellipse style="fill:#42E5E0;" cx="113.955" cy="120.8" rx="1.228" ry="1.228"/>
</g>
</svg>
