<?xml version="1.0" encoding="utf-8"?>
<!-- Generator: Adobe Illustrator 22.1.0, SVG Export Plug-In . SVG Version: 6.00 Build 0)  -->
<svg version="1.1" id="Layer_1" xmlns="http://www.w3.org/2000/svg" xmlns:xlink="http://www.w3.org/1999/xlink" x="0px" y="0px"
	 viewBox="0 0 350 250" style="enable-background:new 0 0 350 250;" xml:space="preserve">
	<style type="text/css">
	@keyframes hostikofadeIn {
    0% {
			opacity: 1;
		}


		50% {
			opacity: 0;
		}


		100% {
			opacity: 1;
		}
}
	.svgfade{
    animation: hostikofadeIn 4s infinite;
}
	.st0{fill:#080245;}
	.st1{fill:#0F0A4C;}
	.st2{opacity:0.8;fill:#50EBE5;enable-background:new    ;}
	.st3{fill:#408AAF;}
	.st4{fill:url(#SVGID_1_);}
	.st5{fill:url(#SVGID_2_);}
	.st6{fill:url(#SVGID_3_);}
	.st7{fill:url(#SVGID_4_);}
	.st8{fill:url(#SVGID_5_);}
	.st9{fill:url(#SVGID_6_);}
	.st10{fill:url(#SVGID_7_);}
	.st11{fill:#4EEEE6;}
	.st12{fill:url(#SVGID_8_);}
	.st13{opacity:0.8;fill:#46B7C7;enable-background:new    ;}
	.st14{opacity:0.8;fill:#4CE5E2;enable-background:new    ;}
	.st15{opacity:0.7;fill:#4EEEE6;enable-background:new    ;}
	.st16{fill:#4CD3D9;}
	.st17{fill:url(#SVGID_9_);}
	.st18{opacity:0.9;fill:#45BFCA;enable-background:new    ;}
	.st19{fill:url(#SVGID_10_);}
	.st20{fill:url(#SVGID_11_);}
	.st21{opacity:0.8;fill:#45BFCA;enable-background:new    ;}
	.st22{opacity:0.3;fill:#43E4DF;enable-background:new    ;}
	.st23{fill:#42E5E0;}
	.st24{fill:url(#SVGID_12_);}
	.st25{fill:url(#SVGID_13_);}
	.st26{opacity:0.5;fill:url(#SVGID_14_);enable-background:new    ;}
	.st27{fill:url(#SVGID_15_);}
	.st28{fill:url(#SVGID_16_);}
	.st29{fill:url(#SVGID_17_);}
	.st30{fill:url(#SVGID_18_);}
	.st31{fill:url(#SVGID_19_);}
	.st32{opacity:0.8;fill:url(#SVGID_20_);enable-background:new    ;}
	.st33{fill:url(#SVGID_21_);}
	.st34{opacity:0.8;fill:url(#SVGID_22_);enable-background:new    ;}
	.st35{fill:url(#SVGID_23_);}
	.st36{opacity:0.8;fill:url(#SVGID_24_);enable-background:new    ;}
	.st37{fill:url(#SVGID_25_);}
	.st38{opacity:0.8;fill:url(#SVGID_26_);enable-background:new    ;}
	.st39{fill:url(#SVGID_27_);}
	.st40{opacity:0.8;fill:url(#SVGID_28_);enable-background:new    ;}
	.st41{fill:url(#SVGID_29_);}
	.st42{opacity:0.8;fill:url(#SVGID_30_);enable-background:new    ;}
	.st43{fill:url(#SVGID_31_);}
	.st44{opacity:0.8;fill:url(#SVGID_32_);enable-background:new    ;}
	.st45{fill:url(#SVGID_33_);}
	.st46{opacity:0.8;fill:url(#SVGID_34_);enable-background:new    ;}
	.st47{fill:url(#SVGID_35_);}
	.st48{opacity:0.8;fill:url(#SVGID_36_);enable-background:new    ;}
	.st49{fill:url(#SVGID_37_);}
	.st50{opacity:0.8;fill:url(#SVGID_38_);enable-background:new    ;}
	.st51{fill:url(#SVGID_39_);}
</style>
<path class="st0" d="M350,120V0H0v250L350,120z"/>
<g>
	<path class="st1" d="M63.4,162.3c-1.8-1.1-1.8-2.8,0-3.9l108.3-63.8c1.8-1.1,4.8-1.1,6.6,0l108.3,63.8c1.8,1.1,1.8,2.8,0,3.9
		l-108.3,63.8c-1.8,1.1-4.8,1.1-6.6,0L63.4,162.3z"/>
	<g>
		<polygon class="st2" points="175,157 90.9,108.8 90.9,160.8 175,209 		"/>
		<polygon class="st3" points="259.1,160.8 175,209 175,157 259.1,108.8 		"/>
		
			<linearGradient id="SVGID_1_" gradientUnits="userSpaceOnUse" x1="137.6619" y1="126.787" x2="175.8956" y2="88.2984" gradientTransform="matrix(1 0 0 -1 0 250)">
			<stop  offset="0" style="stop-color:#49B1CE"/>
			<stop  offset="1" style="stop-color:#4795C6"/>
		</linearGradient>
		<polygon class="st4" points="175,209 90.9,160.8 175,112.5 259.1,160.8 		"/>
		
			<linearGradient id="SVGID_2_" gradientUnits="userSpaceOnUse" x1="90.9" y1="61.65" x2="175" y2="61.65" gradientTransform="matrix(1 0 0 -1 0 250)">
			<stop  offset="0" style="stop-color:#378CB3"/>
			<stop  offset="1" style="stop-color:#312B8F"/>
		</linearGradient>
		<polygon class="st5" points="175,215.9 90.9,167.7 90.9,160.8 175,209 		"/>
		
			<linearGradient id="SVGID_3_" gradientUnits="userSpaceOnUse" x1="90.9" y1="120.55" x2="175" y2="120.55" gradientTransform="matrix(1 0 0 -1 0 250)">
			<stop  offset="0" style="stop-color:#3584AD"/>
			<stop  offset="1" style="stop-color:#302B91"/>
		</linearGradient>
		<polygon class="st6" points="175,157 90.9,108.8 90.9,101.9 175,150.1 		"/>
		
			<linearGradient id="SVGID_4_" gradientUnits="userSpaceOnUse" x1="175" y1="120.55" x2="259.1" y2="120.55" gradientTransform="matrix(1 0 0 -1 0 250)">
			<stop  offset="0" style="stop-color:#251D73"/>
			<stop  offset="1" style="stop-color:#180D5B"/>
		</linearGradient>
		<polygon class="st7" points="259.1,101.9 175,150.1 175,157 259.1,108.8 		"/>
		
			<linearGradient id="SVGID_5_" gradientUnits="userSpaceOnUse" x1="175" y1="61.65" x2="259.1" y2="61.65" gradientTransform="matrix(1 0 0 -1 0 250)">
			<stop  offset="0" style="stop-color:#251B71"/>
			<stop  offset="1" style="stop-color:#1B105F"/>
		</linearGradient>
		<polygon class="st8" points="259.1,160.8 175,209 175,215.9 259.1,167.7 		"/>
		
			<linearGradient id="SVGID_6_" gradientUnits="userSpaceOnUse" x1="137.671" y1="185.6778" x2="175.9047" y2="147.1893" gradientTransform="matrix(1 0 0 -1 0 250)">
			<stop  offset="0" style="stop-color:#3274A6"/>
			<stop  offset="1" style="stop-color:#312A91"/>
		</linearGradient>
		<polygon class="st9" points="175,150.1 90.9,101.9 175,53.7 259.1,101.9 		"/>
		
			<linearGradient id="SVGID_7_" gradientUnits="userSpaceOnUse" x1="90.9" y1="148.1" x2="139.2" y2="148.1" gradientTransform="matrix(1 0 0 -1 0 250)">
			<stop  offset="0.2" style="stop-color:#4FECE5"/>
			<stop  offset="1" style="stop-color:#3260A0"/>
		</linearGradient>
		<polygon class="st10" points="91.3,101.9 139.2,74.2 90.9,101.9 139.2,129.6 		"/>
		<polygon class="st2" points="142.5,146.5 133.3,141.2 100.8,160.7 133.3,179.3 142.5,174.1 		"/>
		<polygon class="st11" points="182.3,160.9 216.7,179.3 249.2,160.7 215.8,141.7 		"/>
		
			<linearGradient id="SVGID_8_" gradientUnits="userSpaceOnUse" x1="100.8" y1="108.05" x2="175" y2="108.05" gradientTransform="matrix(1 0 0 -1 0 250)">
			<stop  offset="0" style="stop-color:#42E7E1"/>
			<stop  offset="1" style="stop-color:#40E5DF;stop-opacity:0"/>
		</linearGradient>
		<polygon class="st12" points="100.8,122.6 175,165.1 175,157 108.4,118.8 		"/>
		<polygon class="st13" points="216.7,141.2 216.7,179.3 249.2,160.7 249.2,122.6 		"/>
		<polygon class="st2" points="175,203.2 142.5,184.5 175,165.8 207.5,184.5 		"/>
		<polygon class="st14" points="142.5,146.5 142.5,184.6 175,203.2 175,165.1 		"/>
		<polygon class="st15" points="100.8,122.6 100.8,160.7 133.3,179.3 133.3,141.2 		"/>
		<polygon class="st16" points="100.8,114.5 100.8,122.6 108.4,118.8 108.4,118.8 		"/>
		
			<linearGradient id="SVGID_9_" gradientUnits="userSpaceOnUse" x1="142.5" y1="96.3" x2="207.5" y2="96.3" gradientTransform="matrix(1 0 0 -1 0 250)">
			<stop  offset="0" style="stop-color:#42E7E0;stop-opacity:0"/>
			<stop  offset="0.5" style="stop-color:#42E7E1"/>
			<stop  offset="1" style="stop-color:#40E5DF;stop-opacity:0"/>
		</linearGradient>
		<polygon class="st17" points="175,157 149.5,142.3 142.5,146.4 175,165.1 207.5,146.4 200.5,142.3 		"/>
		<polygon class="st18" points="175,157 175,160.1 207.5,178.8 207.5,146.5 200.4,142.4 		"/>
		<polygon class="st15" points="175,157 182.3,160.9 207.5,146.5 207.5,174.4 216.7,179.3 216.7,133.1 		"/>
		
			<linearGradient id="SVGID_10_" gradientUnits="userSpaceOnUse" x1="142.5" y1="96.3" x2="207.5" y2="96.3" gradientTransform="matrix(1 0 0 -1 0 250)">
			<stop  offset="0" style="stop-color:#42E7E0;stop-opacity:0"/>
			<stop  offset="0.5" style="stop-color:#42E7E1"/>
			<stop  offset="1" style="stop-color:#40E5DF;stop-opacity:0"/>
		</linearGradient>
		<polygon class="st19" points="175,157 149.5,142.3 142.5,146.4 175,165.1 207.5,146.4 200.5,142.3 		"/>
		
			<linearGradient id="SVGID_11_" gradientUnits="userSpaceOnUse" x1="175" y1="108.05" x2="249.2" y2="108.05" gradientTransform="matrix(1 0 0 -1 0 250)">
			<stop  offset="0" style="stop-color:#42E7E0;stop-opacity:0"/>
			<stop  offset="0.4333" style="stop-color:#42E7E1"/>
			<stop  offset="1" style="stop-color:#42E7E1;stop-opacity:0.85"/>
		</linearGradient>
		<polygon class="st20" points="249.2,122.6 175,165.1 175,157 241.6,118.8 		"/>
		<polygon class="st21" points="175,165.1 175,203.2 207.5,184.6 207.5,146.5 		"/>
		<polygon class="st15" points="216.7,142.2 216.7,179.3 249.2,160.7 		"/>
		<polygon class="st22" points="175,135.3 116.9,102 175,68.6 233.1,102 		"/>
		<polygon class="st23" points="132.2,98.6 142.8,104.7 147.5,102 132.2,93.2 116.9,102 121.6,104.7 		"/>
		
			<linearGradient id="SVGID_12_" gradientUnits="userSpaceOnUse" x1="134.55" y1="139.419" x2="134.55" y2="151.2854" gradientTransform="matrix(1 0 0 -1 0 250)">
			<stop  offset="0" style="stop-color:#42E7E1;stop-opacity:0.75"/>
			<stop  offset="1" style="stop-color:#40E5DF;stop-opacity:0"/>
		</linearGradient>
		<polygon class="st24" points="142.8,104.7 132.2,98.6 121.6,104.7 132.2,110.7 147.5,102 		"/>
		<g>
			<polygon class="st23" points="217.8,98.6 228.4,104.7 233.1,102 217.8,93.2 202.5,102 207.2,104.7 			"/>
			
				<linearGradient id="SVGID_13_" gradientUnits="userSpaceOnUse" x1="220.15" y1="139.419" x2="220.15" y2="151.2854" gradientTransform="matrix(1 0 0 -1 0 250)">
				<stop  offset="0" style="stop-color:#42E7E1;stop-opacity:0.75"/>
				<stop  offset="1" style="stop-color:#40E5DF;stop-opacity:0"/>
			</linearGradient>
			<polygon class="st25" points="228.4,104.7 217.8,98.6 207.2,104.7 217.8,110.7 233.1,102 			"/>
		</g>
		
			<linearGradient id="SVGID_14_" gradientUnits="userSpaceOnUse" x1="168.2189" y1="179.4263" x2="175.1714" y2="172.4274" gradientTransform="matrix(1 0 0 -1 0 250)">
			<stop  offset="0" style="stop-color:#3274A6"/>
			<stop  offset="1" style="stop-color:#312A91"/>
		</linearGradient>
		<polygon class="st26" points="175,74 185.6,80.1 190.3,77.4 175,68.6 159.7,77.4 164.4,80.1 		"/>
		<polygon class="st23" points="175,74 185.6,80.1 190.3,77.4 175,68.6 159.7,77.4 164.4,80.1 		"/>
		
			<linearGradient id="SVGID_15_" gradientUnits="userSpaceOnUse" x1="177.35" y1="163.9665" x2="177.35" y2="175.833" gradientTransform="matrix(1 0 0 -1 0 250)">
			<stop  offset="0" style="stop-color:#42E7E1;stop-opacity:0.75"/>
			<stop  offset="1" style="stop-color:#40E5DF;stop-opacity:0"/>
		</linearGradient>
		<polygon class="st27" points="185.6,80.1 175,74 164.4,80.1 175,86.2 190.3,77.4 		"/>
		<polygon class="st23" points="175,123.1 185.6,129.2 190.3,126.5 175,117.7 159.7,126.5 164.4,129.2 		"/>
		
			<linearGradient id="SVGID_16_" gradientUnits="userSpaceOnUse" x1="177.35" y1="114.8715" x2="177.35" y2="126.7379" gradientTransform="matrix(1 0 0 -1 0 250)">
			<stop  offset="0" style="stop-color:#42E7E1;stop-opacity:0.75"/>
			<stop  offset="1" style="stop-color:#40E5DF;stop-opacity:0"/>
		</linearGradient>
		<polygon class="st28" points="185.6,129.2 175,123.1 164.4,129.2 175,135.3 190.3,126.5 		"/>
		
			<linearGradient id="SVGID_17_" gradientUnits="userSpaceOnUse" x1="132.2" y1="141.9734" x2="132.2" y2="191.2457" gradientTransform="matrix(1 0 0 -1 0 250)">
			<stop  offset="0" style="stop-color:#42E7E1;stop-opacity:0.5"/>
			<stop  offset="1" style="stop-color:#40E5DF;stop-opacity:0"/>
		</linearGradient>
		<polygon class="st29 svgfade" points="147.5,53.5 116.9,53.5 116.9,102 132.2,110.7 147.5,102 		"/>
		
			<linearGradient id="SVGID_18_" gradientUnits="userSpaceOnUse" x1="217.8" y1="141.9734" x2="217.8" y2="191.2457" gradientTransform="matrix(1 0 0 -1 0 250)">
			<stop  offset="0" style="stop-color:#42E7E1;stop-opacity:0.5"/>
			<stop  offset="1" style="stop-color:#40E5DF;stop-opacity:0"/>
		</linearGradient>
		<polygon class="st30 svgfade" points="233.1,53.5 202.5,53.5 202.5,102 217.8,110.7 233.1,102 		"/>
		
			<linearGradient id="SVGID_19_" gradientUnits="userSpaceOnUse" x1="175" y1="119.4996" x2="175" y2="219.8064" gradientTransform="matrix(1 0 0 -1 0 250)">
			<stop  offset="0" style="stop-color:#42E7E1;stop-opacity:0.5"/>
			<stop  offset="1" style="stop-color:#40E5DF;stop-opacity:0"/>
		</linearGradient>
		<polygon class="st31 svgfade" points="190.3,28.9 159.7,28.9 159.7,126.5 175,135.3 190.3,126.5 		"/>
		<polygon class="st13" points="241.6,118.8 241.6,118.8 249.2,122.6 249.2,114.5 		"/>
	</g>
</g>
<g>
	
		<radialGradient id="SVGID_20_" cx="478.2276" cy="195.8729" r="12.671" gradientTransform="matrix(0.8343 0 0 -0.4507 -169.0392 171.7799)" gradientUnits="userSpaceOnUse">
		<stop  offset="0" style="stop-color:#42E7E1"/>
		<stop  offset="0.7821" style="stop-color:#41E6E0;stop-opacity:0.2"/>
		<stop  offset="1" style="stop-color:#40E5DF;stop-opacity:0"/>
	</radialGradient>
	<ellipse class="st32 svgfade" cx="229.9" cy="83.5" rx="10.6" ry="5.7"/>
	<g>
		
			<linearGradient id="SVGID_21_" gradientUnits="userSpaceOnUse" x1="196.5" y1="156.4" x2="230.4566" y2="156.4" gradientTransform="matrix(1 0 0 -1 0 250)">
			<stop  offset="0" style="stop-color:#40E5DF;stop-opacity:0"/>
			<stop  offset="1" style="stop-color:#42E7E1"/>
		</linearGradient>
		<polygon class="st33" points="197.2,103.8 196.5,102.5 229.8,83.4 230.4,84.6 		"/>
	</g>
	<ellipse class="st23" cx="231" cy="83.8" rx="2.6" ry="2.6"/>
	
		<radialGradient id="SVGID_22_" cx="332.8429" cy="-46.3522" r="12.6692" gradientTransform="matrix(0.8343 0 0 -0.4507 -169.0392 171.7799)" gradientUnits="userSpaceOnUse">
		<stop  offset="0" style="stop-color:#42E7E1"/>
		<stop  offset="0.7821" style="stop-color:#41E6E0;stop-opacity:0.2"/>
		<stop  offset="1" style="stop-color:#40E5DF;stop-opacity:0"/>
	</radialGradient>
	<ellipse class="st34 svgfade" cx="108.6" cy="192.7" rx="10.6" ry="5.7"/>
	<g>
		
			<linearGradient id="SVGID_23_" gradientUnits="userSpaceOnUse" x1="87.3268" y1="50.7" x2="109.1552" y2="50.7" gradientTransform="matrix(1 0 0 -1 0 250)">
			<stop  offset="0" style="stop-color:#40E5DF;stop-opacity:0"/>
			<stop  offset="1" style="stop-color:#42E7E1"/>
		</linearGradient>
		<polygon class="st35" points="88,206 87.3,204.8 108.5,192.6 109.2,193.8 		"/>
	</g>
	<ellipse class="st23" cx="109.7" cy="193" rx="2.6" ry="2.6"/>
	
		<radialGradient id="SVGID_24_" cx="567.5353" cy="131.0848" r="12.665" gradientTransform="matrix(0.8343 0 0 -0.4507 -169.0392 171.7799)" gradientUnits="userSpaceOnUse">
		<stop  offset="0" style="stop-color:#42E7E1"/>
		<stop  offset="0.7821" style="stop-color:#41E6E0;stop-opacity:0.2"/>
		<stop  offset="1" style="stop-color:#40E5DF;stop-opacity:0"/>
	</radialGradient>
	<ellipse class="st36 svgfade" cx="304.4" cy="112.7" rx="10.6" ry="5.7"/>
	<g>
		
			<linearGradient id="SVGID_25_" gradientUnits="userSpaceOnUse" x1="271" y1="127.2" x2="304.9566" y2="127.2" gradientTransform="matrix(1 0 0 -1 0 250)">
			<stop  offset="0" style="stop-color:#40E5DF;stop-opacity:0"/>
			<stop  offset="1" style="stop-color:#42E7E1"/>
		</linearGradient>
		<polygon class="st37" points="271.7,133 271,131.8 304.3,112.6 304.9,113.8 		"/>
	</g>
	<ellipse class="st23" cx="305.5" cy="113.1" rx="2.6" ry="2.6"/>
	
		<radialGradient id="SVGID_26_" cx="516.0485" cy="266.8478" r="12.6588" gradientTransform="matrix(0.8343 0 0 -0.4507 -169.0392 171.7799)" gradientUnits="userSpaceOnUse">
		<stop  offset="0" style="stop-color:#42E7E1"/>
		<stop  offset="0.7821" style="stop-color:#41E6E0;stop-opacity:0.2"/>
		<stop  offset="1" style="stop-color:#40E5DF;stop-opacity:0"/>
	</radialGradient>
	<ellipse class="st38 svgfade" cx="261.5" cy="51.5" rx="10.6" ry="5.7"/>
	<g>
		
			<linearGradient id="SVGID_27_" gradientUnits="userSpaceOnUse" x1="228" y1="188.4" x2="261.9566" y2="188.4" gradientTransform="matrix(1 0 0 -1 0 250)">
			<stop  offset="0" style="stop-color:#40E5DF;stop-opacity:0"/>
			<stop  offset="1" style="stop-color:#42E7E1"/>
		</linearGradient>
		<polygon class="st39" points="228.7,71.8 228,70.6 261.3,51.4 262,52.6 		"/>
	</g>
	<ellipse class="st23" cx="262.5" cy="51.9" rx="2.6" ry="2.6"/>
	
		<radialGradient id="SVGID_28_" cx="502.3199" cy="121.8192" r="12.6692" gradientTransform="matrix(0.8343 0 0 -0.4507 -169.0392 171.7799)" gradientUnits="userSpaceOnUse">
		<stop  offset="0" style="stop-color:#42E7E1"/>
		<stop  offset="0.7821" style="stop-color:#41E6E0;stop-opacity:0.2"/>
		<stop  offset="1" style="stop-color:#40E5DF;stop-opacity:0"/>
	</radialGradient>
	<ellipse class="st40" cx="250" cy="116.9" rx="10.6" ry="5.7"/>
	<g>
		
			<linearGradient id="SVGID_29_" gradientUnits="userSpaceOnUse" x1="216.6" y1="123.05" x2="250.5566" y2="123.05" gradientTransform="matrix(1 0 0 -1 0 250)">
			<stop  offset="0" style="stop-color:#40E5DF;stop-opacity:0"/>
			<stop  offset="1" style="stop-color:#42E7E1"/>
		</linearGradient>
		<polygon class="st41" points="217.3,137.1 216.6,135.9 249.9,116.8 250.5,118 		"/>
	</g>
	<ellipse class="st23" cx="251.1" cy="117.2" rx="2.6" ry="2.6"/>
	
		<radialGradient id="SVGID_30_" cx="284.6583" cy="36.9621" r="12.6688" gradientTransform="matrix(0.8343 0 0 -0.4507 -169.0392 171.7799)" gradientUnits="userSpaceOnUse">
		<stop  offset="0" style="stop-color:#42E7E1"/>
		<stop  offset="0.7821" style="stop-color:#41E6E0;stop-opacity:0.2"/>
		<stop  offset="1" style="stop-color:#40E5DF;stop-opacity:0"/>
	</radialGradient>
	<ellipse class="st42 svgfade" cx="68.4" cy="155.1" rx="10.6" ry="5.7"/>
	<g>
		
			<linearGradient id="SVGID_31_" gradientUnits="userSpaceOnUse" x1="35" y1="84.8" x2="68.9566" y2="84.8" gradientTransform="matrix(1 0 0 -1 0 250)">
			<stop  offset="0" style="stop-color:#40E5DF;stop-opacity:0"/>
			<stop  offset="1" style="stop-color:#42E7E1"/>
		</linearGradient>
		<polygon class="st43" points="35.7,175.4 35,174.2 68.3,155 69,156.3 		"/>
	</g>
	<ellipse class="st23" cx="69.5" cy="155.5" rx="2.6" ry="2.6"/>
	
		<radialGradient id="SVGID_32_" cx="346.966" cy="202.0478" r="12.6743" gradientTransform="matrix(0.8343 0 0 -0.4507 -169.0392 171.7799)" gradientUnits="userSpaceOnUse">
		<stop  offset="0" style="stop-color:#42E7E1"/>
		<stop  offset="0.7821" style="stop-color:#41E6E0;stop-opacity:0.2"/>
		<stop  offset="1" style="stop-color:#40E5DF;stop-opacity:0"/>
	</radialGradient>
	<ellipse class="st44 svgfade" cx="120.4" cy="80.7" rx="10.6" ry="5.7"/>
	<g>
		
			<linearGradient id="SVGID_33_" gradientUnits="userSpaceOnUse" x1="87" y1="159.2" x2="120.9566" y2="159.2" gradientTransform="matrix(1 0 0 -1 0 250)">
			<stop  offset="0" style="stop-color:#40E5DF;stop-opacity:0"/>
			<stop  offset="1" style="stop-color:#42E7E1"/>
		</linearGradient>
		<polygon class="st45" points="87.7,101 87,99.8 120.2,80.6 120.9,81.8 		"/>
	</g>
	<ellipse class="st23" cx="121.5" cy="81.1" rx="2.6" ry="2.6"/>
	
		<radialGradient id="SVGID_34_" cx="299.2199" cy="170.4192" r="12.6452" gradientTransform="matrix(0.8343 0 0 -0.4507 -169.0392 171.7799)" gradientUnits="userSpaceOnUse">
		<stop  offset="0" style="stop-color:#42E7E1"/>
		<stop  offset="0.7821" style="stop-color:#41E6E0;stop-opacity:0.2"/>
		<stop  offset="1" style="stop-color:#40E5DF;stop-opacity:0"/>
	</radialGradient>
	<ellipse class="st46 svgfade" cx="80.6" cy="95" rx="10.6" ry="5.7"/>
	<g>
		
			<linearGradient id="SVGID_35_" gradientUnits="userSpaceOnUse" x1="36" y1="141.8" x2="81.0434" y2="141.8" gradientTransform="matrix(1 0 0 -1 0 250)">
			<stop  offset="0" style="stop-color:#40E5DF;stop-opacity:0"/>
			<stop  offset="1" style="stop-color:#42E7E1"/>
		</linearGradient>
		<polygon class="st47" points="36.7,121.5 36,120.3 80.4,94.9 81.1,96.1 		"/>
	</g>
	<ellipse class="st23" cx="81.6" cy="95.3" rx="2.6" ry="2.6"/>
	
		<radialGradient id="SVGID_36_" cx="325.3496" cy="-39.4094" r="12.6775" gradientTransform="matrix(0.8343 0 0 -0.4507 -169.0392 171.7799)" gradientUnits="userSpaceOnUse">
		<stop  offset="0" style="stop-color:#42E7E1"/>
		<stop  offset="0.7821" style="stop-color:#41E6E0;stop-opacity:0.2"/>
		<stop  offset="1" style="stop-color:#40E5DF;stop-opacity:0"/>
	</radialGradient>
	<ellipse class="st48 svgfade" cx="102.4" cy="189.6" rx="10.6" ry="5.7"/>
	<g>
		
			<linearGradient id="SVGID_37_" gradientUnits="userSpaceOnUse" x1="68.9606" y1="50.35" x2="102.9172" y2="50.35" gradientTransform="matrix(1 0 0 -1 0 250)">
			<stop  offset="0" style="stop-color:#40E5DF;stop-opacity:0"/>
			<stop  offset="1" style="stop-color:#42E7E1"/>
		</linearGradient>
		<polygon class="st49" points="69.6,209.8 69,208.6 102.2,189.5 102.9,190.7 		"/>
	</g>
	<ellipse class="st23" cx="103.4" cy="189.9" rx="2.6" ry="2.6"/>
	
		<radialGradient id="SVGID_38_" cx="-292.304" cy="-74.8951" r="12.6611" gradientTransform="matrix(-0.8343 0 0 -0.4507 -1.4692 171.7799)" gradientUnits="userSpaceOnUse">
		<stop  offset="0" style="stop-color:#42E7E1"/>
		<stop  offset="0.7821" style="stop-color:#41E6E0;stop-opacity:0.2"/>
		<stop  offset="1" style="stop-color:#40E5DF;stop-opacity:0"/>
	</radialGradient>
	<ellipse class="st50 svgfade" cx="242.4" cy="205.6" rx="10.6" ry="5.7"/>
	<g>
		
			<linearGradient id="SVGID_39_" gradientUnits="userSpaceOnUse" x1="254.1607" y1="34.35" x2="288.1173" y2="34.35" gradientTransform="matrix(-1 0 0 -1 530 250)">
			<stop  offset="0" style="stop-color:#40E5DF;stop-opacity:0"/>
			<stop  offset="1" style="stop-color:#42E7E1"/>
		</linearGradient>
		<polygon class="st51" points="275.2,225.8 241.9,206.7 242.6,205.5 275.8,224.6 		"/>
	</g>
	<ellipse class="st23" cx="241.4" cy="205.9" rx="2.6" ry="2.6"/>
</g>
</svg>
