<?xml version="1.0" encoding="utf-8"?>
<!-- Generator: Adobe Illustrator 22.1.0, SVG Export Plug-In . SVG Version: 6.00 Build 0)  -->
<svg version="1.1" id="Layer_1" xmlns="http://www.w3.org/2000/svg" xmlns:xlink="http://www.w3.org/1999/xlink" x="0px" y="0px"
	 viewBox="0 0 440.7 388" style="enable-background:new 0 0 440.7 388;" xml:space="preserve">
<style type="text/css">
	.st0{fill:#FFFFFF;stroke:#E3E3E8;stroke-miterlimit:10;}
	.st1{fill:#FFFFFF;}
	.st2{fill:#E3E3E8;}
	.st3{fill:url(#SVGID_1_);}
	.st4{fill:url(#SVGID_2_);}
	.st5{fill:url(#SVGID_3_);}
	.st6{fill:#080245;}
	.st7{fill-rule:evenodd;clip-rule:evenodd;fill:url(#SVGID_4_);}
	.st8{fill:url(#SVGID_5_);}
	.st9{fill:url(#SVGID_6_);}
	.st10{fill:#FFFEFF;}
	.st11{fill:#CCCCD1;}
	.st12{fill:#F7F5F7;}
	.st13{fill:url(#SVGID_7_);}
	.st14{fill:#F79D56;}
	.st15{fill:#151D79;}
	.st16{fill:url(#SVGID_8_);}
	.st17{fill-rule:evenodd;clip-rule:evenodd;fill:url(#SVGID_9_);}
	.st18{opacity:0.5;fill:#151D79;}
	.st19{opacity:0.8;fill:#151D79;}
</style>
<g>
	<g>
		<rect x="385.2" y="113.2" class="st0" width="35" height="1.7"/>
	</g>
	<g>
		<rect x="400.2" y="129.1" class="st0" width="19.6" height="1.7"/>
	</g>
	<g>
		<rect x="337.4" y="64.9" class="st0" width="19.6" height="1.7"/>
	</g>
	<g>
		<rect x="319.2" y="174.3" class="st0" width="8.9" height="1.7"/>
	</g>
	<g>
		<path class="st0" d="M362.6,115c-1.7,0-3-1.3-3-3s1.3-3,3-3c1.7,0,3,1.3,3,3S364.3,115,362.6,115z M362.6,110.7
			c-0.7,0-1.3,0.6-1.3,1.3c0,0.7,0.6,1.2,1.3,1.2c0.7,0,1.3-0.6,1.3-1.2C363.9,111.3,363.3,110.7,362.6,110.7z"/>
	</g>
	<g>
		<g>
			<polygon class="st0" points="381.1,132.3 379.9,131.1 383.4,127.6 384.6,128.8 			"/>
		</g>
		<g>
			<polygon class="st0" points="383.4,132.3 379.9,128.8 381.1,127.6 384.6,131.1 			"/>
		</g>
	</g>
	<g>
		<rect x="356.9" y="39.7" class="st0" width="19.6" height="1.7"/>
	</g>
	<g>
		<g>
			<polygon class="st0" points="337.7,43 336.5,41.7 340,38.2 341.3,39.5 			"/>
		</g>
		<g>
			<polygon class="st0" points="340,43 336.5,39.5 337.7,38.2 341.3,41.7 			"/>
		</g>
	</g>
	<g>
		<rect x="325.6" y="195.5" class="st0" width="35" height="1.7"/>
	</g>
	<g>
		<rect x="59.8" y="105.4" class="st0" width="35" height="1.7"/>
	</g>
	<g>
		<rect x="95.8" y="126" class="st0" width="25.5" height="1.7"/>
	</g>
	<g>
		<rect x="86.2" y="126" class="st0" width="6.9" height="1.7"/>
	</g>
	<g>
		<rect x="94.7" y="197" class="st0" width="19.6" height="1.7"/>
	</g>
	<g>
		<rect x="90.9" y="88.4" class="st0" width="8.9" height="1.7"/>
	</g>
	<g>
		<path class="st0" d="M55.2,70c-1.7,0-3-1.3-3-3c0-1.7,1.3-3,3-3c1.7,0,3,1.3,3,3C58.2,68.7,56.8,70,55.2,70z M55.2,65.8
			c-0.7,0-1.3,0.6-1.3,1.2c0,0.7,0.6,1.3,1.3,1.3s1.3-0.6,1.3-1.3C56.4,66.3,55.9,65.8,55.2,65.8z"/>
	</g>
	<g>
		<path class="st0" d="M65.5,130.7c-1.7,0-3-1.3-3-3c0-1.7,1.3-3,3-3c1.7,0,3,1.3,3,3C68.5,129.4,67.2,130.7,65.5,130.7z
			 M65.5,126.5c-0.7,0-1.3,0.6-1.3,1.3c0,0.7,0.6,1.2,1.3,1.2c0.7,0,1.3-0.6,1.3-1.2C66.8,127,66.2,126.5,65.5,126.5z"/>
	</g>
	<g>
		<g>
			<polygon class="st0" points="92,143.4 90.8,142.1 94.3,138.6 95.5,139.9 			"/>
		</g>
		<g>
			<g>
				<polygon class="st0" points="92,143.4 90.8,142.1 94.3,138.6 95.5,139.9 				"/>
			</g>
			<g>
				<polygon class="st0" points="94.3,143.4 90.8,139.9 92,138.6 95.5,142.1 				"/>
			</g>
		</g>
	</g>
	<g>
		<rect x="64.8" y="150" class="st0" width="25.5" height="1.7"/>
	</g>
	<g>
		<rect x="55.2" y="150" class="st0" width="6.9" height="1.7"/>
	</g>
	<g>
		<g>
			<polygon class="st0" points="34,201.1 32.8,199.9 36.3,196.3 37.6,197.6 			"/>
		</g>
		<g>
			<g>
				<polygon class="st0" points="34,201.1 32.8,199.9 36.3,196.3 37.6,197.6 				"/>
			</g>
			<g>
				<polygon class="st0" points="36.3,201.1 32.8,197.6 34,196.3 37.6,199.9 				"/>
			</g>
		</g>
	</g>
	<g>
		<rect x="349.3" y="164.1" class="st0" width="25.5" height="1.7"/>
	</g>
	<g>
		<rect x="339.7" y="164.1" class="st0" width="6.9" height="1.7"/>
	</g>
	<g>
		<g>
			<polygon class="st0" points="345.5,181.6 344.2,180.3 347.8,176.8 349,178 			"/>
		</g>
		<g>
			<g>
				<polygon class="st0" points="345.5,181.6 344.2,180.3 347.8,176.8 349,178 				"/>
			</g>
			<g>
				<polygon class="st0" points="347.8,181.6 344.2,178 345.5,176.8 349,180.3 				"/>
			</g>
		</g>
	</g>
	<g>
		<g>
			<polygon class="st0" points="108.2,178.4 107,177.1 110.5,173.6 111.8,174.9 			"/>
		</g>
		<g>
			<polygon class="st0" points="110.5,178.4 107,174.9 108.2,173.6 111.8,177.1 			"/>
		</g>
	</g>
	<g>
		<rect x="30.9" y="376.1" class="st0" width="77.3" height="1.7"/>
	</g>
	<g>
		<rect x="26.5" y="365.5" class="st0" width="171.1" height="1.7"/>
	</g>
	<g>
		<rect x="136.9" y="376.1" class="st0" width="26.2" height="1.7"/>
	</g>
	<g>
		<rect x="1.4" y="376.1" class="st0" width="15.5" height="1.7"/>
	</g>
	<g>
		<rect x="230.7" y="386.3" class="st0" width="45.4" height="1.7"/>
	</g>
	<g>
		<rect x="292.8" y="377.5" class="st0" width="15.4" height="1.7"/>
	</g>
	<g>
		<rect x="213.3" y="386.3" class="st0" width="9.1" height="1.7"/>
	</g>
	<g>
		<g>
			<rect x="371.6" y="370.4" class="st0" width="26.4" height="1.7"/>
		</g>
		<g>
			<rect x="407.8" y="370.4" class="st0" width="9" height="1.7"/>
		</g>
		<g>
			<rect x="361.5" y="370.4" class="st0" width="5.3" height="1.7"/>
		</g>
	</g>
	<g>
		<g>
			<rect x="215" y="362.4" class="st0" width="16" height="1.7"/>
		</g>
		<g>
			<rect x="238.5" y="362.4" class="st0" width="6.9" height="1.7"/>
		</g>
	</g>
	<g>
		<g>
			<rect x="332.1" y="380" class="st0" width="45.4" height="1.7"/>
		</g>
	</g>
	<g>
		<g>
			<g>
				<path class="st1" d="M320.3,310.3c-2.9,0-5.2-2.3-5.2-5.2v-70.6c0-2.9,2.3-5.2,5.2-5.2h107c2.9,0,5.2,2.3,5.2,5.2v70.6
					c0,2.9-2.3,5.2-5.2,5.2H320.3z"/>
				<path class="st2" d="M427.3,229.8c2.6,0,4.7,2.1,4.7,4.7v70.6c0,2.6-2.1,4.7-4.7,4.7h-107c-2.6,0-4.7-2.1-4.7-4.7v-70.6
					c0-2.6,2.1-4.7,4.7-4.7H427.3 M427.3,228.8h-107c-3.2,0-5.7,2.5-5.7,5.7v70.6c0,3.1,2.6,5.7,5.7,5.7h107c3.2,0,5.7-2.5,5.7-5.7
					v-70.6C433.1,231.4,430.5,228.8,427.3,228.8L427.3,228.8z"/>
			</g>
		</g>
	</g>
	<g>
		<g>
			<linearGradient id="SVGID_1_" gradientUnits="userSpaceOnUse" x1="319.9261" y1="269.7875" x2="427.0302" y2="269.7875">
				<stop  offset="0" style="stop-color:#3FD7D7"/>
				<stop  offset="1" style="stop-color:#388DDE"/>
			</linearGradient>
			<rect x="319.9" y="235.3" class="st3" width="107.1" height="68.9"/>
		</g>
	</g>
	<g>
		<g>
			<g>
				<path class="st1" d="M370.8,318c-2.7,0-4.8-1.5-4.8-3.4c0-1.8,2.2-3.4,4.8-3.4h66c1.9,0,3.4,1.5,3.4,3.4c0,1.9-1.5,3.4-3.4,3.4
					H370.8z"/>
				<path class="st2" d="M436.8,311.8c1.6,0,2.9,1.3,2.9,2.9c0,1.6-1.3,2.9-2.9,2.9h-66c-2.4,0-4.3-1.3-4.3-2.9c0-1.5,2-2.9,4.3-2.9
					H436.8 M436.8,310.8h-66c-2.9,0-5.3,1.7-5.3,3.9c0,2.1,2.4,3.9,5.3,3.9h66c2.1,0,3.9-1.7,3.9-3.9
					C440.7,312.5,438.9,310.8,436.8,310.8L436.8,310.8z"/>
			</g>
		</g>
	</g>
	<g>
		<linearGradient id="SVGID_2_" gradientUnits="userSpaceOnUse" x1="398.5055" y1="312.0171" x2="435.6144" y2="312.0171">
			<stop  offset="0" style="stop-color:#3FD7D7"/>
			<stop  offset="1" style="stop-color:#388DDE"/>
		</linearGradient>
		<path class="st4" d="M435.6,310.8v0.3c0,1.2-1,2.2-2.2,2.2h-32.7c-1.2,0-2.2-1-2.2-2.2v-0.3H435.6z"/>
	</g>
	<g>
		<g>
			<linearGradient id="SVGID_3_" gradientUnits="userSpaceOnUse" x1="315.4997" y1="314.6236" x2="377.1056" y2="314.6236">
				<stop  offset="0" style="stop-color:#3FD7D7"/>
				<stop  offset="1" style="stop-color:#388DDE"/>
			</linearGradient>
			<path class="st5" d="M377.1,314.6c0,2.1-1.9,3.9-4.2,3.9h-53.3c-2.3,0-4.2-1.7-4.2-3.9c0-2.1,1.9-3.9,4.2-3.9h53.3
				C375.2,310.8,377.1,312.5,377.1,314.6z"/>
		</g>
	</g>
	<path class="st6" d="M355.8,314.7h-5c-0.4,0-0.8-0.3-0.8-0.8l0,0c0-0.4,0.3-0.8,0.8-0.8h5c0.4,0,0.8,0.3,0.8,0.8l0,0
		C356.6,314.3,356.2,314.7,355.8,314.7z"/>
	<path class="st6" d="M368,314.7h-5c-0.4,0-0.8-0.3-0.8-0.8l0,0c0-0.4,0.3-0.8,0.8-0.8h5c0.4,0,0.8,0.3,0.8,0.8l0,0
		C368.7,314.3,368.4,314.7,368,314.7z"/>
	
		<linearGradient id="SVGID_4_" gradientUnits="userSpaceOnUse" x1="2357.1406" y1="3165.3704" x2="2491.019" y2="3165.3704" gradientTransform="matrix(0 -1 1 0 -2954.4124 2511.3008)">
		<stop  offset="0" style="stop-color:#3FD7D7"/>
		<stop  offset="1" style="stop-color:#388DDE;stop-opacity:0"/>
	</linearGradient>
	<polygon class="st7" points="321.9,20.3 288.7,154.2 133.2,154.2 100,20.3 	"/>
	<linearGradient id="SVGID_5_" gradientUnits="userSpaceOnUse" x1="128.1575" y1="315.7386" x2="206.3099" y2="315.7386">
		<stop  offset="0" style="stop-color:#964AE2"/>
		<stop  offset="1" style="stop-color:#03BEF2"/>
	</linearGradient>
	<rect x="128.2" y="314.9" class="st8" width="78.2" height="1.7"/>
	<linearGradient id="SVGID_6_" gradientUnits="userSpaceOnUse" x1="128.1575" y1="319.5988" x2="206.3099" y2="319.5988">
		<stop  offset="0" style="stop-color:#964AE2"/>
		<stop  offset="1" style="stop-color:#03BEF2"/>
	</linearGradient>
	<rect x="128.2" y="318.7" class="st9" width="78.2" height="1.7"/>
	<rect x="207" y="314.9" class="st10" width="78.2" height="1.7"/>
	<rect x="207" y="318.7" class="st10" width="78.2" height="1.7"/>
	<g>
		<rect x="125" y="164.1" class="st6" width="81.3" height="23.9"/>
	</g>
	<g>
		<polygon class="st11" points="206.3,188.8 127.3,188.8 127.3,168.5 206.3,168.5 206.3,170.2 129,170.2 129,187.1 206.3,187.1 		
			"/>
	</g>
	<g>
		<rect x="128.2" y="172" class="st11" width="78.2" height="1.7"/>
	</g>
	<g>
		<rect x="128.2" y="175.8" class="st11" width="78.2" height="1.7"/>
	</g>
	<g>
		<rect x="128.2" y="179.7" class="st11" width="78.2" height="1.7"/>
	</g>
	<g>
		<rect x="128.2" y="183.6" class="st11" width="78.2" height="1.7"/>
	</g>
	<g>
		<rect x="202.8" y="169.4" class="st11" width="1.8" height="18.6"/>
	</g>
	<g>
		<rect x="199.4" y="169.4" class="st11" width="1.8" height="18.6"/>
	</g>
	<g>
		<rect x="196" y="169.4" class="st11" width="1.8" height="18.6"/>
	</g>
	<g>
		<rect x="192.6" y="169.4" class="st11" width="1.8" height="18.6"/>
	</g>
	<g>
		<rect x="189.2" y="169.4" class="st11" width="1.8" height="18.6"/>
	</g>
	<g>
		<rect x="123.3" y="154.1" class="st11" width="84.7" height="9.9"/>
	</g>
	<g>
		<rect x="207.8" y="154.1" class="st12" width="90.8" height="9.9"/>
	</g>
	<g>
		<rect x="206.3" y="164.1" class="st11" width="90.8" height="23.9"/>
	</g>
	<g>
		<polygon class="st10" points="286,188.8 207,188.8 207,187.1 284.2,187.1 284.2,170.2 207,170.2 207,168.5 286,168.5 		"/>
	</g>
	<g>
		<rect x="207" y="172" class="st10" width="78.2" height="1.7"/>
	</g>
	<g>
		<rect x="207" y="175.8" class="st10" width="78.2" height="1.7"/>
	</g>
	<g>
		<rect x="207" y="179.7" class="st10" width="78.2" height="1.7"/>
	</g>
	<g>
		<rect x="207" y="183.6" class="st10" width="78.2" height="1.7"/>
	</g>
	<g>
		<rect x="208.7" y="169.4" class="st10" width="1.8" height="18.6"/>
	</g>
	<g>
		<rect x="212.1" y="169.4" class="st10" width="1.8" height="18.6"/>
	</g>
	<g>
		<rect x="215.5" y="169.4" class="st10" width="1.8" height="18.6"/>
	</g>
	<g>
		<rect x="218.9" y="169.4" class="st10" width="1.8" height="18.6"/>
	</g>
	<g>
		<rect x="222.3" y="169.4" class="st10" width="1.8" height="18.6"/>
	</g>
	<g>
		<rect x="125" y="197.8" class="st6" width="81.3" height="23.9"/>
	</g>
	<g>
		<polygon class="st11" points="206.3,222.6 127.3,222.6 127.3,202.3 206.3,202.3 206.3,204 129,204 129,220.9 206.3,220.9 		"/>
	</g>
	<g>
		<rect x="128.2" y="205.8" class="st11" width="78.2" height="1.7"/>
	</g>
	<g>
		<rect x="128.2" y="209.6" class="st11" width="78.2" height="1.7"/>
	</g>
	<g>
		<rect x="128.2" y="213.5" class="st11" width="78.2" height="1.7"/>
	</g>
	<g>
		<rect x="128.2" y="217.3" class="st11" width="78.2" height="1.7"/>
	</g>
	<g>
		<rect x="202.8" y="203.2" class="st11" width="1.8" height="18.6"/>
	</g>
	<g>
		<rect x="199.4" y="203.2" class="st11" width="1.8" height="18.6"/>
	</g>
	<g>
		<rect x="196" y="203.2" class="st11" width="1.8" height="18.6"/>
	</g>
	<g>
		<rect x="192.6" y="203.2" class="st11" width="1.8" height="18.6"/>
	</g>
	<g>
		<rect x="189.2" y="203.2" class="st11" width="1.8" height="18.6"/>
	</g>
	<g>
		<rect x="123.3" y="187.9" class="st11" width="84.7" height="9.9"/>
	</g>
	<g>
		<rect x="207.8" y="187.9" class="st12" width="90.8" height="9.9"/>
	</g>
	<g>
		<rect x="206.3" y="197.8" class="st11" width="90.8" height="23.9"/>
	</g>
	<g>
		<polygon class="st10" points="286,222.6 207,222.6 207,220.9 284.2,220.9 284.2,204 207,204 207,202.3 286,202.3 		"/>
	</g>
	<g>
		<rect x="207" y="205.8" class="st10" width="78.2" height="1.7"/>
	</g>
	<g>
		<rect x="207" y="209.6" class="st10" width="78.2" height="1.7"/>
	</g>
	<g>
		<rect x="207" y="213.5" class="st10" width="78.2" height="1.7"/>
	</g>
	<g>
		<rect x="207" y="217.3" class="st10" width="78.2" height="1.7"/>
	</g>
	<g>
		<rect x="208.7" y="203.2" class="st10" width="1.8" height="18.6"/>
	</g>
	<g>
		<rect x="212.1" y="203.2" class="st10" width="1.8" height="18.6"/>
	</g>
	<g>
		<rect x="215.5" y="203.2" class="st10" width="1.8" height="18.6"/>
	</g>
	<g>
		<rect x="218.9" y="203.2" class="st10" width="1.8" height="18.6"/>
	</g>
	<g>
		<rect x="222.3" y="203.2" class="st10" width="1.8" height="18.6"/>
	</g>
	<g>
		<rect x="125" y="231.6" class="st6" width="81.3" height="23.9"/>
		<path class="st6" d="M207.2,256.4h-83v-25.6h83V256.4z M125.9,254.6h79.5v-22.1h-79.5V254.6z"/>
	</g>
	<g>
		<polygon class="st11" points="206.3,256.4 127.3,256.4 127.3,236.1 206.3,236.1 206.3,237.8 129,237.8 129,254.6 206.3,254.6 		
			"/>
	</g>
	<g>
		<rect x="128.2" y="239.6" class="st11" width="78.2" height="1.7"/>
	</g>
	<g>
		<rect x="128.2" y="243.4" class="st11" width="78.2" height="1.7"/>
	</g>
	<g>
		<rect x="128.2" y="247.3" class="st11" width="78.2" height="1.7"/>
	</g>
	<g>
		<rect x="128.2" y="251.1" class="st11" width="78.2" height="1.7"/>
	</g>
	<g>
		<rect x="202.8" y="237" class="st11" width="1.8" height="18.6"/>
	</g>
	<g>
		<rect x="199.4" y="237" class="st11" width="1.8" height="18.6"/>
	</g>
	<g>
		<rect x="196" y="237" class="st11" width="1.8" height="18.6"/>
	</g>
	<g>
		<rect x="192.6" y="237" class="st11" width="1.8" height="18.6"/>
	</g>
	<g>
		<rect x="189.2" y="237" class="st11" width="1.8" height="18.6"/>
	</g>
	<g>
		<rect x="123.3" y="221.7" class="st11" width="84.7" height="9.9"/>
	</g>
	<g>
		<rect x="207.8" y="221.7" class="st12" width="90.8" height="9.9"/>
	</g>
	<g>
		<rect x="206.3" y="231.6" class="st11" width="90.8" height="23.9"/>
	</g>
	<g>
		<polygon class="st10" points="286,256.4 207,256.4 207,254.6 284.2,254.6 284.2,237.8 207,237.8 207,236.1 286,236.1 		"/>
	</g>
	<g>
		<rect x="207" y="239.6" class="st10" width="78.2" height="1.7"/>
	</g>
	<g>
		<rect x="207" y="243.4" class="st10" width="78.2" height="1.7"/>
	</g>
	<g>
		<rect x="207" y="247.3" class="st10" width="78.2" height="1.7"/>
	</g>
	<g>
		<rect x="207" y="251.1" class="st10" width="78.2" height="1.7"/>
	</g>
	<g>
		<rect x="208.7" y="237" class="st10" width="1.8" height="18.6"/>
	</g>
	<g>
		<rect x="212.1" y="237" class="st10" width="1.8" height="18.6"/>
	</g>
	<g>
		<rect x="215.5" y="237" class="st10" width="1.8" height="18.6"/>
	</g>
	<g>
		<rect x="218.9" y="237" class="st10" width="1.8" height="18.6"/>
	</g>
	<g>
		<rect x="222.3" y="237" class="st10" width="1.8" height="18.6"/>
	</g>
	<g>
		<rect x="125" y="265.4" class="st6" width="81.3" height="23.9"/>
		<path class="st6" d="M207.2,290.2h-83v-25.6h83V290.2z M125.9,288.4h79.5v-22.1h-79.5V288.4z"/>
	</g>
	<g>
		<polygon class="st11" points="206.3,290.2 127.3,290.2 127.3,269.9 206.3,269.9 206.3,271.6 129,271.6 129,288.4 206.3,288.4 		
			"/>
	</g>
	<g>
		<rect x="128.2" y="273.4" class="st11" width="78.2" height="1.7"/>
	</g>
	<g>
		<rect x="128.2" y="277.2" class="st11" width="78.2" height="1.7"/>
	</g>
	<g>
		<rect x="128.2" y="281.1" class="st11" width="78.2" height="1.7"/>
	</g>
	<g>
		<rect x="128.2" y="284.9" class="st11" width="78.2" height="1.7"/>
	</g>
	<g>
		<rect x="202.8" y="270.7" class="st11" width="1.8" height="18.6"/>
	</g>
	<g>
		<rect x="199.4" y="270.7" class="st11" width="1.8" height="18.6"/>
	</g>
	<g>
		<rect x="196" y="270.7" class="st11" width="1.8" height="18.6"/>
	</g>
	<g>
		<rect x="192.6" y="270.7" class="st11" width="1.8" height="18.6"/>
	</g>
	<g>
		<rect x="189.2" y="270.7" class="st11" width="1.8" height="18.6"/>
	</g>
	<g>
		<rect x="123.3" y="255.5" class="st11" width="84.7" height="9.9"/>
	</g>
	<g>
		<rect x="207.8" y="255.5" class="st12" width="90.8" height="9.9"/>
	</g>
	<g>
		<rect x="206.3" y="265.4" class="st11" width="90.8" height="23.9"/>
	</g>
	<g>
		<polygon class="st10" points="286,290.2 207,290.2 207,288.4 284.2,288.4 284.2,271.6 207,271.6 207,269.9 286,269.9 		"/>
	</g>
	<g>
		<rect x="207" y="273.4" class="st10" width="78.2" height="1.7"/>
	</g>
	<g>
		<rect x="207" y="277.2" class="st10" width="78.2" height="1.7"/>
	</g>
	<g>
		<rect x="207" y="281.1" class="st10" width="78.2" height="1.7"/>
	</g>
	<g>
		<rect x="207" y="284.9" class="st10" width="78.2" height="1.7"/>
	</g>
	<g>
		<rect x="208.7" y="270.7" class="st10" width="1.8" height="18.6"/>
	</g>
	<g>
		<rect x="212.1" y="270.7" class="st10" width="1.8" height="18.6"/>
	</g>
	<g>
		<rect x="215.5" y="270.7" class="st10" width="1.8" height="18.6"/>
	</g>
	<g>
		<rect x="218.9" y="270.7" class="st10" width="1.8" height="18.6"/>
	</g>
	<g>
		<rect x="222.3" y="270.7" class="st10" width="1.8" height="18.6"/>
	</g>
	<g>
		<rect x="125" y="299.2" class="st6" width="81.3" height="23.9"/>
		<path class="st6" d="M207.2,324h-83v-25.6h83V324z M125.9,322.2h79.5v-22.1h-79.5V322.2z"/>
	</g>
	<g>
		<polygon class="st11" points="206.3,324 127.3,324 127.3,303.7 206.3,303.7 206.3,305.4 129,305.4 129,322.2 206.3,322.2 		"/>
	</g>
	<g>
		<rect x="128.2" y="307.1" class="st11" width="78.2" height="1.7"/>
	</g>
	<g>
		<rect x="128.2" y="311" class="st11" width="78.2" height="1.7"/>
	</g>
	<g>
		<rect x="128.2" y="314.6" class="st11" width="78.2" height="1.7"/>
	</g>
	<g>
		<rect x="128.2" y="318.4" class="st11" width="78.2" height="1.7"/>
	</g>
	<g>
		<rect x="202.8" y="304.5" class="st11" width="1.8" height="18.6"/>
	</g>
	<g>
		<rect x="199.4" y="304.5" class="st11" width="1.8" height="18.6"/>
	</g>
	<g>
		<rect x="196" y="304.5" class="st11" width="1.8" height="18.6"/>
	</g>
	<g>
		<rect x="192.6" y="304.5" class="st11" width="1.8" height="18.6"/>
	</g>
	<g>
		<rect x="189.2" y="304.5" class="st11" width="1.8" height="18.6"/>
	</g>
	<g>
		<rect x="123.3" y="289.3" class="st11" width="84.7" height="9.9"/>
	</g>
	<g>
		<rect x="207.8" y="289.3" class="st12" width="90.8" height="9.9"/>
	</g>
	<g>
		<rect x="206.3" y="299.2" class="st11" width="90.8" height="23.9"/>
	</g>
	<g>
		<polygon class="st10" points="286,324 207,324 207,322.2 284.2,322.2 284.2,305.4 207,305.4 207,303.7 286,303.7 		"/>
	</g>
	<g>
		<rect x="207" y="307.1" class="st10" width="78.2" height="1.7"/>
	</g>
	<g>
		<rect x="207" y="311" class="st10" width="78.2" height="1.7"/>
	</g>
	<g>
		<rect x="208.7" y="304.5" class="st10" width="1.8" height="18.6"/>
	</g>
	<g>
		<rect x="212.1" y="304.5" class="st10" width="1.8" height="18.6"/>
	</g>
	<g>
		<rect x="215.5" y="304.5" class="st10" width="1.8" height="18.6"/>
	</g>
	<g>
		<rect x="218.9" y="304.5" class="st10" width="1.8" height="18.6"/>
	</g>
	<g>
		<rect x="222.3" y="304.5" class="st10" width="1.8" height="18.6"/>
	</g>
	<g>
		<rect x="56.6" y="321.8" class="st6" width="254.6" height="2.6"/>
	</g>
	<g>
		<rect x="56.6" y="325.9" class="st6" width="254.6" height="2.6"/>
	</g>
	<g>
		<rect x="56.6" y="329.9" class="st6" width="254.6" height="2.6"/>
	</g>
	<g>
		<g>
			<g>
				<g>
					<g>
						<path class="st6" d="M86.8,334.7c0-6.5,0-15.9,0-15.9H68.3h-8.1c0,0,0,9.4,0,15.9c0,5.1-15.8,9.5-22.4,11.1
							c-1.6,0.4-2.8,1.9-2.8,3.6v0.1c0,2,1.6,3.7,3.7,3.7h69.6c2,0,3.7-1.6,3.7-3.7v-0.1c0-1.7-1.2-3.2-2.8-3.6
							C102.6,344.2,86.8,339.9,86.8,334.7z"/>
					</g>
				</g>
			</g>
		</g>
	</g>
	<g>
		<g>
			<g>
				<g>
					<g>
						<g>
							<path class="st1" d="M0.5,316.4v-89.1c0-2.5,2-4.6,4.5-4.6h137c2.5,0,4.5,2.1,4.5,4.6v89.1H0.5z"/>
							<path class="st2" d="M142,223.2c2.2,0,4,1.8,4,4.1v88.6H1v-88.6c0-2.3,1.8-4.1,4-4.1H142 M142,222.2H5c-2.8,0-5,2.3-5,5.1
								v89.6h147v-89.6C147,224.5,144.8,222.2,142,222.2L142,222.2z"/>
						</g>
					</g>
				</g>
			</g>
		</g>
	</g>
	<g>
		<g>
			<g>
				<g>
					<g>
						<linearGradient id="SVGID_7_" gradientUnits="userSpaceOnUse" x1="8.0111" y1="269.0228" x2="139.0157" y2="269.0228">
							<stop  offset="0" style="stop-color:#3FD7D7"/>
							<stop  offset="1" style="stop-color:#388DDE"/>
						</linearGradient>
						<rect x="8" y="229.7" class="st13" width="131" height="78.7"/>
					</g>
				</g>
			</g>
		</g>
	</g>
	<g>
		<g>
			<g>
				<g>
					<g>
						<path class="st1" d="M5,326.9c-2.5,0-4.5-2.1-4.5-4.6v-6h146v6c0,2.5-2,4.6-4.5,4.6H5z"/>
						<path class="st2" d="M146,316.8v5.5c0,2.3-1.8,4.1-4,4.1H5c-2.2,0-4-1.8-4-4.1v-5.5H146 M147,315.8H0v6.5c0,2.8,2.2,5.1,5,5.1
							H142c2.8,0,5-2.3,5-5.1V315.8L147,315.8z"/>
					</g>
				</g>
			</g>
		</g>
	</g>
	<g>
		<path class="st6" d="M73.5,356.1c-1.6,0-3-1.3-3-3c0-1.6,1.3-3,3-3c1.6,0,3,1.3,3,3C76.5,354.7,75.1,356.1,73.5,356.1z
			 M73.5,351.9c-0.7,0-1.2,0.5-1.2,1.2c0,0.7,0.5,1.2,1.2,1.2s1.2-0.5,1.2-1.2C74.7,352.4,74.2,351.9,73.5,351.9z"/>
	</g>
	<g>
		<path class="st6" d="M174.3,364.1H77.1c-2.5,0-4.5-2-4.5-4.5v-4.9h1.8v4.9c0,1.5,1.2,2.7,2.7,2.7h97.2c1.5,0,2.7-1.2,2.7-2.7
			v-27.6h1.8v27.6C178.8,362.1,176.8,364.1,174.3,364.1z"/>
	</g>
	<g>
		<path class="st6" d="M387.4,321.4c-1.6,0-3-1.3-3-3s1.3-3,3-3s3,1.3,3,3S389,321.4,387.4,321.4z M387.4,317.3
			c-0.7,0-1.2,0.5-1.2,1.2c0,0.7,0.5,1.2,1.2,1.2c0.7,0,1.2-0.5,1.2-1.2C388.6,317.8,388,317.3,387.4,317.3z"/>
	</g>
	<g>
		<path class="st6" d="M383.8,342.8H273.6c-2.5,0-4.5-2-4.5-4.5v-7.1h1.8v7.1c0,1.5,1.2,2.7,2.7,2.7h110.2c1.5,0,2.7-1.2,2.7-2.7
			v-18.2h1.8v18.2C388.2,340.8,386.2,342.8,383.8,342.8z"/>
	</g>
	<path class="st14" d="M201.9,300.9c-3.1-0.2-4.7-3.6-5.1-3.6c-0.1,0-0.2-0.1-0.4,0.2c-0.4,0.9,0.6,2.9,1,3.3
		c-1.2,0.6-1.6,0.8-3,1.3c-2.1,0.8-3.7,1.4-2.6,4.2c0.6,1.6,2.7,2.2,2.9,2.3c0.1,0.1,0.6,0.1,0.8,0.1c0.6,0,1.3,0,2.8-1.3
		c0.5-0.4,3.1-1.9,4.4-2.4L201.9,300.9z"/>
	<g>
		<g>
			<path class="st6" d="M232.6,285.5c-1.3,4.3-3.8,7.3-8.6,14.9c-1.7,2.8-13.7,3.1-22.1,5l-0.8-4.5l17.4-4.3c0,0,7.3-15.1,11.7-16.2
				C232.2,279.8,234.1,280.5,232.6,285.5z"/>
		</g>
	</g>
	<path class="st14" d="M254,360.2c0,0-0.1,0-0.2-0.1c-1.8-2.8-0.7-11.2-4-16.3c-3.8-5.9-3.3-13.1-3.3-18.7l-12.5-4.6
		c0,6.4,6.9,19.4,9.7,26.4c3.7,9,6.4,12.3,5.6,16.7c-1.1,2.2-2.7,5-4.8,6.1c-0.3,0.2,0.4,1.4,2.5,0.9c4-1,2.8-4.8,6.2-6.7
		C255.8,362.7,255.1,361,254,360.2z"/>
	<path class="st14" d="M220.9,310c-4.2,2.1-13.5,11.3-13.7,12.1c-0.2,0.7-0.1,1.5,0.3,2.2c0,0,14.8,17.8,15.6,21.2
		c-0.8,2.5-1.5,6.2-2.7,7.6c-0.3,0.3,0.8,1.2,2.7,0c3.5-2.1,1.5-4.2,3.7-7.4c2.6-3.8,0.3-3.8-1.1-4.1c-3-3-4.2-13.7-8.8-17.9
		c0,0,10.8-3.8,14-7.2C233.1,314,223.8,308.5,220.9,310z"/>
	<g>
		<g>
			<path class="st6" d="M245.9,250.2c-5-1.1-7.7,1.6-7.7,1.6c-15.3-2.3-18.2,19.4-11.2,24.9c5.6,4.4,10.4,1.4,10.4,1.4
				s3.2,2.4,8.1,3.1c3,0.5,6.7-1.5,6.7-1.5s4.3,3,7.5-1.5c3.3-4.5-1.6-9.3-4.1-9.3c0,0,3.1-3.7-1.1-6.2
				C252.7,261.8,255.5,252.3,245.9,250.2z"/>
		</g>
	</g>
	<path class="st14" d="M246.5,259.8c-0.8-2.2-2.4-4.1-4.7-5.2c-1.5-0.8-3.1-1.1-4.7-1c-3.3,0.1-6.5,2-8.1,5.2l-1.7,3.3
		c-1.5,3.1-0.5,6.5,0.6,9.5c1,2.8,3.3,3.8,5.8,3.9l0,1.6l0,1.9c-1.6,0.3-3,1-4,2.1c-1.2,1.4-0.4,3,0.6,3.5c2.8,1.1,8.6-1.2,9.4-3.8
		c-0.2-0.3-0.5-0.5-0.8-0.8c0,0,0-0.1,0-0.1c-0.5-1.2-0.4-3.8-0.2-5.1c0.4-0.1,0.7-0.3,1-0.4c1.8-0.9,3.6-1.8,4.6-3.8l1.7-3.3
		C247.2,264.8,247.3,262.1,246.5,259.8z"/>
	<g>
		<path class="st6" d="M242.1,265c-6.8,1.1-7.6-6.2-7.2-9.2c0.8-6.3,9.1-5.1,11.9-2c1.8,1.9,5,7.2,3.6,13.7
			c-1.4,6.5-8.1,10.6-8.1,10.6c-7.3-5.4,0.2-10.5,0.2-10.5L242.1,265z"/>
	</g>
	<g>
		<path class="st10" d="M234.2,270.4c-0.8,1-2.2,1.4-3.5,0.8c-1.2-0.6-1.8-2-1.4-3.2L234.2,270.4z"/>
	</g>
	<g>
		<path class="st6" d="M243.2,304c-3.4-4.8-2.2-11.2-2.1-19.9c0-1.3-0.6-2.4-1.3-3.4c-2.2-0.2-6,1.5-8.3,1.6c-1,0-1.7-0.2-1.8-1.2
			c0,0,0,0,0-0.1c-0.1,0.1-0.2,0.2-0.2,0.3c0,0,0,0,0,0c0,0-0.1,0.1-0.1,0.1c-1.3,1.6-4.3,3.2-5,4.8c-0.7,1.7,0.8,3.4,2.7,3.9
			c0.6,4.9,2.8,10.6-1.3,13.6c-3.8,2.7-7.2,7-7.2,7c11.5,12.9,28.8,16.5,28.8,16.5C246.1,322.6,249.5,312.7,243.2,304z"/>
	</g>
	<g>
		<path class="st6" d="M253.9,360.2c-1.3,1-3.4,7.2-4.7,9.1c-1,1.6-4,0.9-3.7-0.5c-1.3,1.7-3.9,2.3-3.7,4c0.2,1.3,3.9,1.2,5,1.1
			c2.4-0.1,3.1-2.1,3.6-4.4c0.6-2.6,2.1-4.1,3-4.9c-0.1,1.6,0.1,5.5,0,6.7h0.4c0.1-2.4,0.4-4.6,1.2-7
			C255.6,362.4,255.1,360.8,253.9,360.2z"/>
	</g>
	<g>
		<path class="st6" d="M227.4,342c-1.1,1.3-2.2,7.4-3,9.5c-0.7,1.8-4,2.7-4,1.3c-0.9,1.9-3.5,3.1-2.9,4.7c0.5,1.1,4.2,0.2,5.3-0.1
			c2.5-0.7,2.7-2.8,2.7-5.1c0-2.6,1.2-4.4,1.9-5.4c0.2,1.5,1.3,5.2,1.5,6.4l0.4-0.1c-0.4-2.3-0.6-4.5-0.3-6.9
			C229.2,344.4,228.8,342.6,227.4,342z"/>
	</g>
	<path class="st14" d="M210,302.1c-2.8-0.2-4.1-3.4-4.4-3.4c-0.1,0-0.2-0.1-0.3,0.2c-0.4,0.8,0.4,2.6,0.8,3
		c-1.1,0.5-2.9,0.4-4.2,1.5c-0.7,0.6,0,1.6,0.1,1.8c1,1.2,2.6,3.2,2.8,3.5c0.1,0.1,0.3,0.2,0.4,0.2c0.6,0,1.2,0,2.5-1.1
		c0.4-0.4,1.8-1.5,3-1.9L210,302.1z"/>
	<g>
		<g>
			<path class="st15" d="M231.1,300.8c3.7-6.3,9.5-9.2,9.6-14.3c-0.8-0.1-1.5-0.4-2-1.1c-0.8-1.1-3-0.4-3.9-1.4
				c-2,4.9-9.1,13.3-9.1,13.3l-16.7,4.6l0.9,4.4C217.9,304.2,229.5,303.5,231.1,300.8z"/>
		</g>
	</g>
	<path class="st6" d="M234.2,284.3c-2.3,4.9-8.9,12.7-8.9,12.7l-16.7,4.6l0.9,4.4c8-2,19.6-2.6,21.2-5.4c3.7-6.3,9.5-9.2,9.6-14.3
		L234.2,284.3z"/>
	<g>
		<g>
			<g>
				<g>
					<path class="st6" d="M237.2,300.5c0,0.6-0.6,1.2-1.3,1.2h-26.1c-0.7,0-1.3-0.5-1.3-1.2c0-0.6,0.6-1.2,1.3-1.2H236
						C236.7,299.3,237.2,299.9,237.2,300.5z"/>
				</g>
			</g>
		</g>
		<g>
			<g>
				<g>
					<path class="st6" d="M181.8,276.1v21.5c0,1,0.8,1.7,1.7,1.7h32.6c1,0,1.7-0.8,1.7-1.7v-21.5c0-1-0.8-1.7-1.7-1.7h-32.6
						C182.6,274.4,181.8,275.2,181.8,276.1z"/>
				</g>
			</g>
		</g>
		<g>
			<g>
				<g>
					<path class="st6" d="M215.9,300.5c0-0.6-0.5-1.2-1.2-1.2h-31.6c-0.9,0-1.3,0.5-1.3,1.2c0,0.6,0.4,1.2,1.3,1.2h31.6
						C215.4,301.7,215.9,301.2,215.9,300.5L215.9,300.5z"/>
				</g>
			</g>
		</g>
	</g>
	<linearGradient id="SVGID_8_" gradientUnits="userSpaceOnUse" x1="210.5584" y1="150.8657" x2="210.5584" y2="0">
		<stop  offset="0" style="stop-color:#FFFFFF"/>
		<stop  offset="1" style="stop-color:#F1F9F9"/>
	</linearGradient>
	<path class="st16" d="M199.6,146.4h1.8v1.9v0.7v1.8h-1.8V149v-0.7V146.4z M199.6,140.6v1.6v2.2h1.8v-2.2v-1.6v-2.3h-1.8V140.6z
		 M199.6,112.7v4.7v3.3v0.1v3.1v0v2.9v0.1v1.9h1.8v-1.9v-0.1v-2.9v0v-3.1v-0.1v-3.3v-4.7v-3.8h-1.8V112.7z M199.6,51.4v1.5v1h1.8v-1
		v-1.5v-0.5h-1.8V51.4z M199.6,81.2v1.9v0.7h1.8v-0.7v-1.9v-1.3h-1.8V81.2z M199.6,26.9L199.6,26.9V29v1v2.8v0.2v1.7h1.8v-1.7v-0.2
		V30v-1V27v0v-2h-1.8V26.9z M199.6,2h1.8V0h-1.8V2z M199.6,36.6v3.7v0h1.8v0v-3.7v-0.2h-1.8V36.6z M199.6,9v1.9v4.6h1.8v-4.6V9V7.1
		h-1.8V9z M199.6,130.9v0.7v2v1.2v2.5h1.8v-2.5v-1.2v-2v-0.7v-1.2h-1.8V130.9z M199.6,107.8h1.8v-1.9h-1.8V107.8z M199.6,101.8v0.6
		v1.4h1.8v-1.4v-0.6v-1.9h-1.8V101.8z M199.6,58v1.4v4.8v2.2v3.3v2.5V73h1.8v-0.7v-2.5v-3.3v-2.2v-4.8V58v-0.5h-1.8V58z M199.6,95.5
		v0.4v2.3h1.8v-2.3v-0.4v-3.4h-1.8V95.5z M199.6,75.9v2v0.6h1.8v-0.6v-2v-0.5h-1.8V75.9z M199.6,87.3v1.5v2.4h1.8v-2.4v-1.5v-2.2
		h-1.8V87.3z M199.6,44.6v2.6v0.2h1.8v-0.2v-2.6v-0.9h-1.8V44.6z M199.6,18.8V22v1.8h1.8V22v-3.2v-3.1h-1.8V18.8z M218.1,148.4v0.7
		v1.8h1.8V149v-0.7v-1.9h-1.8V148.4z M218.1,140.6v1.6v2.2h1.8v-2.2v-1.6v-2.3h-1.8V140.6z M218.1,112.7v4.7v3.3v0.1v3.1v0v2.9v0.1
		v1.9h1.8v-1.9v-0.1v-2.9v0v-3.1v-0.1v-3.3v-4.7v-3.8h-1.8V112.7z M218.1,51.4v1.5v1h1.8v-1v-1.5v-0.5h-1.8V51.4z M218.1,81.2v1.9
		v0.7h1.8v-0.7v-1.9v-1.3h-1.8V81.2z M218.1,26.9L218.1,26.9V29v1v2.8v0.2v1.7h1.8v-1.7v-0.2V30v-1V27v0v-2h-1.8V26.9z M218.1,2h1.8
		V0h-1.8V2z M218.1,36.6v3.7v0h1.8v0v-3.7v-0.2h-1.8V36.6z M218.1,9v1.9v4.6h1.8v-4.6V9V7.1h-1.8V9z M218.1,130.9v0.7v2v1.2v2.5h1.8
		v-2.5v-1.2v-2v-0.7v-1.2h-1.8V130.9z M218.1,107.8h1.8v-1.9h-1.8V107.8z M218.1,101.8v0.6v1.4h1.8v-1.4v-0.6v-1.9h-1.8V101.8z
		 M218.1,58v1.4v4.8v2.2v3.3v2.5V73h1.8v-0.7v-2.5v-3.3v-2.2v-4.8V58v-0.5h-1.8V58z M218.1,95.5v0.4v2.3h1.8v-2.3v-0.4v-3.4h-1.8
		V95.5z M218.1,75.9v2v0.6h1.8v-0.6v-2v-0.5h-1.8V75.9z M218.1,87.3v1.5v2.4h1.8v-2.4v-1.5v-2.2h-1.8V87.3z M218.1,44.6v2.6v0.2h1.8
		v-0.2v-2.6v-0.9h-1.8V44.6z M218.1,18.8V22v1.8h1.8V22v-3.2v-3.1h-1.8V18.8z M192.5,148.4v0.7v1.8h1.8V149v-0.7v-1.9h-1.8V148.4z
		 M192.5,140.6v1.6v2.2h1.8v-2.2v-1.6v-2.3h-1.8V140.6z M192.5,112.7v4.7v3.3v0.1v3.1v0v2.9v0.1v1.9h1.8v-1.9v-0.1v-2.9v0v-3.1v-0.1
		v-3.3v-4.7v-3.8h-1.8V112.7z M192.5,51.4v1.5v1h1.8v-1v-1.5v-0.5h-1.8V51.4z M192.5,81.2v1.9v0.7h1.8v-0.7v-1.9v-1.3h-1.8V81.2z
		 M192.5,26.9L192.5,26.9V29v1v2.8v0.2v1.7h1.8v-1.7v-0.2V30v-1V27v0v-2h-1.8V26.9z M192.5,2h1.8V0h-1.8V2z M192.5,36.6v3.7v0h1.8v0
		v-3.7v-0.2h-1.8V36.6z M192.5,9v1.9v4.6h1.8v-4.6V9V7.1h-1.8V9z M192.5,130.9v0.7v2v1.2v2.5h1.8v-2.5v-1.2v-2v-0.7v-1.2h-1.8V130.9
		z M192.5,107.8h1.8v-1.9h-1.8V107.8z M192.5,101.8v0.6v1.4h1.8v-1.4v-0.6v-1.9h-1.8V101.8z M192.5,58v1.4v4.8v2.2v3.3v2.5V73h1.8
		v-0.7v-2.5v-3.3v-2.2v-4.8V58v-0.5h-1.8V58z M192.5,95.5v0.4v2.3h1.8v-2.3v-0.4v-3.4h-1.8V95.5z M192.5,75.9v2v0.6h1.8v-0.6v-2
		v-0.5h-1.8V75.9z M192.5,87.3v1.5v2.4h1.8v-2.4v-1.5v-2.2h-1.8V87.3z M192.5,44.6v2.6v0.2h1.8v-0.2v-2.6v-0.9h-1.8V44.6z
		 M192.5,18.8V22v1.8h1.8V22v-3.2v-3.1h-1.8V18.8z M299.7,51.4v1.5v1h1.8v-1v-1.5v-0.5h-1.8V51.4z M299.7,81.2v1.9v0.7h1.8v-0.7
		v-1.9v-1.3h-1.8V81.2z M299.7,26.9L299.7,26.9V29v1v2.8v0.2v1.7h1.8v-1.7v-0.2V30v-1V27v0v-2h-1.8V26.9z M299.7,2h1.8V0h-1.8V2z
		 M299.7,36.6v3.7v0h1.8v0v-3.7v-0.2h-1.8V36.6z M299.7,9v1.9v4.6h1.8v-4.6V9V7.1h-1.8V9z M299.7,58v1.4v4.8v2.2v3.3v2.5V73h1.8
		v-0.7v-2.5v-3.3v-2.2v-4.8V58v-0.5h-1.8V58z M299.7,95.5v0.4v2.3h1.8v-2.3v-0.4v-3.4h-1.8V95.5z M299.7,75.9v2v0.6h1.8v-0.6v-2
		v-0.5h-1.8V75.9z M299.7,87.3v1.5v2.4h1.8v-2.4v-1.5v-2.2h-1.8V87.3z M299.7,44.6v2.6v0.2h1.8v-0.2v-2.6v-0.9h-1.8V44.6z
		 M299.7,18.8V22v1.8h1.8V22v-3.2v-3.1h-1.8V18.8z M289.6,148.4v0.7v1.8h1.8V149v-0.7v-1.9h-1.8V148.4z M289.6,140.6v1.6v2.2h1.8
		v-2.2v-1.6v-2.3h-1.8V140.6z M289.6,112.7v4.7v3.3v0.1v3.1v0v2.9v0.1v1.9h1.8v-1.9v-0.1v-2.9v0v-3.1v-0.1v-3.3v-4.7v-3.8h-1.8
		V112.7z M289.6,51.4v1.5v1h1.8v-1v-1.5v-0.5h-1.8V51.4z M289.6,81.2v1.9v0.7h1.8v-0.7v-1.9v-1.3h-1.8V81.2z M289.6,26.9L289.6,26.9
		V29v1v2.8v0.2v1.7h1.8v-1.7v-0.2V30v-1V27v0v-2h-1.8V26.9z M289.6,2h1.8V0h-1.8V2z M289.6,36.6v3.7v0h1.8v0v-3.7v-0.2h-1.8V36.6z
		 M289.6,9v1.9v4.6h1.8v-4.6V9V7.1h-1.8V9z M289.6,130.9v0.7v2v1.2v2.5h1.8v-2.5v-1.2v-2v-0.7v-1.2h-1.8V130.9z M289.6,107.8h1.8
		v-1.9h-1.8V107.8z M289.6,101.8v0.6v1.4h1.8v-1.4v-0.6v-1.9h-1.8V101.8z M289.6,58v1.4v4.8v2.2v3.3v2.5V73h1.8v-0.7v-2.5v-3.3v-2.2
		v-4.8V58v-0.5h-1.8V58z M289.6,95.5v0.4v2.3h1.8v-2.3v-0.4v-3.4h-1.8V95.5z M289.6,75.9v2v0.6h1.8v-0.6v-2v-0.5h-1.8V75.9z
		 M289.6,87.3v1.5v2.4h1.8v-2.4v-1.5v-2.2h-1.8V87.3z M289.6,44.6v2.6v0.2h1.8v-0.2v-2.6v-0.9h-1.8V44.6z M289.6,18.8V22v1.8h1.8V22
		v-3.2v-3.1h-1.8V18.8z M308.6,24v0.1V27v0v3.1v0.1v3.3v4.7V42h1.8v-3.8v-4.7v-3.3v-0.1V27v0v-2.9V24v-1.9h-1.8V24z M308.6,48.5V49
		V51h1.8V49v-0.6V47h-1.8V48.5z M308.6,55v0.4v3.4h1.8v-3.4V55v-2.3h-1.8V55z M308.6,0v1.8v0.7v1.9h1.8V2.5V1.8V0H308.6z
		 M308.6,44.9h1.8V43h-1.8V44.9z M308.6,8.7v1.6v2.3h1.8v-2.3V8.7V6.6h-1.8V8.7z M308.6,16.1v1.2v2V20v1.2h1.8V20v-0.7v-2v-1.2v-2.5
		h-1.8V16.1z M279.9,24v0.1V27v0v3.1v0.1v3.3v4.7V42h1.8v-3.8v-4.7v-3.3v-0.1V27v0v-2.9V24v-1.9h-1.8V24z M279.9,48.5V49V51h1.8V49
		v-0.6V47h-1.8V48.5z M279.9,55v0.4v3.4h1.8v-3.4V55v-2.3h-1.8V55z M279.9,62.1v1.5v2.2h1.8v-2.2v-1.5v-2.4h-1.8V62.1z M279.9,78.6
		v2.5v3.3v2.2v4.8v1.4v0.5h1.8v-0.5v-1.4v-4.8v-2.2v-3.3v-2.5v-0.7h-1.8V78.6z M279.9,67.7v1.9v1.3h1.8v-1.3v-1.9V67h-1.8V67.7z
		 M279.9,150.9h1.8v-2h-1.8V150.9z M279.9,139.9v1.9v1.9h1.8v-1.9v-1.9v-4.6h-1.8V139.9z M279.9,1.8v0.7v1.9h1.8V2.5V1.8V0h-1.8V1.8
		z M279.9,44.9h1.8V43h-1.8V44.9z M279.9,8.7v1.6v2.3h1.8v-2.3V8.7V6.6h-1.8V8.7z M279.9,16.1v1.2v2V20v1.2h1.8V20v-0.7v-2v-1.2
		v-2.5h-1.8V16.1z M279.9,73v2v0.5h1.8V75v-2v-0.6h-1.8V73z M279.9,97.9v1.5v0.5h1.8v-0.5v-1.5v-1h-1.8V97.9z M279.9,117.9v0.2v2.8
		v1v2.1v0v2h1.8v-2v0v-2.1v-1v-2.8v-0.2v-1.7h-1.8V117.9z M279.9,103.7v2.6v0.9h1.8v-0.9v-2.6v-0.2h-1.8V103.7z M279.9,110.5v3.7
		v0.2h1.8v-0.2v-3.7v0L279.9,110.5L279.9,110.5z M279.9,128.8v3.2v3.1h1.8V132v-3.2v-1.8h-1.8V128.8z M271.1,148.4v0.7v1.8h1.8V149
		v-0.7v-1.9h-1.8V148.4z M271.1,140.6v1.6v2.2h1.8v-2.2v-1.6v-2.3h-1.8V140.6z M271.1,112.7v4.7v3.3v0.1v3.1v0v2.9v0.1v1.9h1.8v-1.9
		v-0.1v-2.9v0v-3.1v-0.1v-3.3v-4.7v-3.8h-1.8V112.7z M271.1,51.4v1.5v1h1.8v-1v-1.5v-0.5h-1.8V51.4z M271.1,81.2v1.9v0.7h1.8v-0.7
		v-1.9v-1.3h-1.8V81.2z M271.1,26.9L271.1,26.9V29v1v2.8v0.2v1.7h1.8v-1.7v-0.2V30v-1V27v0v-2h-1.8V26.9z M271.1,2h1.8V0h-1.8V2z
		 M271.1,36.6v3.7v0h1.8v0v-3.7v-0.2h-1.8V36.6z M271.1,9v1.9v4.6h1.8v-4.6V9V7.1h-1.8V9z M271.1,130.9v0.7v2v1.2v2.5h1.8v-2.5v-1.2
		v-2v-0.7v-1.2h-1.8V130.9z M271.1,107.8h1.8v-1.9h-1.8V107.8z M271.1,101.8v0.6v1.4h1.8v-1.4v-0.6v-1.9h-1.8V101.8z M271.1,58v1.4
		v4.8v2.2v3.3v2.5V73h1.8v-0.7v-2.5v-3.3v-2.2v-4.8V58v-0.5h-1.8V58z M271.1,95.5v0.4v2.3h1.8v-2.3v-0.4v-3.4h-1.8V95.5z
		 M271.1,75.9v2v0.6h1.8v-0.6v-2v-0.5h-1.8V75.9z M271.1,87.3v1.5v2.4h1.8v-2.4v-1.5v-2.2h-1.8V87.3z M271.1,44.6v2.6v0.2h1.8v-0.2
		v-2.6v-0.9h-1.8V44.6z M271.1,18.8V22v1.8h1.8V22v-3.2v-3.1h-1.8V18.8z M264,148.4v0.7v1.8h1.8V149v-0.7v-1.9H264V148.4z
		 M264,140.6v1.6v2.2h1.8v-2.2v-1.6v-2.3H264V140.6z M264,112.7v4.7v3.3v0.1v3.1v0v2.9v0.1v1.9h1.8v-1.9v-0.1v-2.9v0v-3.1v-0.1v-3.3
		v-4.7v-3.8H264V112.7z M264,51.4v1.5v1h1.8v-1v-1.5v-0.5H264V51.4z M264,81.2v1.9v0.7h1.8v-0.7v-1.9v-1.3H264V81.2z M264,26.9
		L264,26.9V29v1v2.8v0.2v1.7h1.8v-1.7v-0.2V30v-1V27v0v-2H264V26.9z M264,2h1.8V0H264V2z M264,36.6v3.7v0h1.8v0v-3.7v-0.2H264V36.6z
		 M264,9v1.9v4.6h1.8v-4.6V9V7.1H264V9z M264,130.9v0.7v2v1.2v2.5h1.8v-2.5v-1.2v-2v-0.7v-1.2H264V130.9z M264,107.8h1.8v-1.9H264
		V107.8z M264,101.8v0.6v1.4h1.8v-1.4v-0.6v-1.9H264V101.8z M264,58v1.4v4.8v2.2v3.3v2.5V73h1.8v-0.7v-2.5v-3.3v-2.2v-4.8V58v-0.5
		H264V58z M264,95.5v0.4v2.3h1.8v-2.3v-0.4v-3.4H264V95.5z M264,75.9v2v0.6h1.8v-0.6v-2v-0.5H264V75.9z M264,87.3v1.5v2.4h1.8v-2.4
		v-1.5v-2.2H264V87.3z M264,44.6v2.6v0.2h1.8v-0.2v-2.6v-0.9H264V44.6z M264,18.8V22v1.8h1.8V22v-3.2v-3.1H264V18.8z M253.8,148.4
		v0.7v1.8h1.8V149v-0.7v-1.9h-1.8V148.4z M253.8,140.6v1.6v2.2h1.8v-2.2v-1.6v-2.3h-1.8V140.6z M253.8,112.7v4.7v3.3v0.1v3.1v0v2.9
		v0.1v1.9h1.8v-1.9v-0.1v-2.9v0v-3.1v-0.1v-3.3v-4.7v-3.8h-1.8V112.7z M253.8,51.4v1.5v1h1.8v-1v-1.5v-0.5h-1.8V51.4z M253.8,81.2
		v1.9v0.7h1.8v-0.7v-1.9v-1.3h-1.8V81.2z M253.8,26.9L253.8,26.9V29v1v2.8v0.2v1.7h1.8v-1.7v-0.2V30v-1V27v0v-2h-1.8V26.9z M253.8,2
		h1.8V0h-1.8V2z M253.8,36.6v3.7v0h1.8v0v-3.7v-0.2h-1.8V36.6z M253.8,9v1.9v4.6h1.8v-4.6V9V7.1h-1.8V9z M253.8,130.9v0.7v2v1.2v2.5
		h1.8v-2.5v-1.2v-2v-0.7v-1.2h-1.8V130.9z M253.8,107.8h1.8v-1.9h-1.8V107.8z M253.8,101.8v0.6v1.4h1.8v-1.4v-0.6v-1.9h-1.8V101.8z
		 M253.8,58v1.4v4.8v2.2v3.3v2.5V73h1.8v-0.7v-2.5v-3.3v-2.2v-4.8V58v-0.5h-1.8V58z M253.8,95.5v0.4v2.3h1.8v-2.3v-0.4v-3.4h-1.8
		V95.5z M253.8,75.9v2v0.6h1.8v-0.6v-2v-0.5h-1.8V75.9z M253.8,87.3v1.5v2.4h1.8v-2.4v-1.5v-2.2h-1.8V87.3z M253.8,44.6v2.6v0.2h1.8
		v-0.2v-2.6v-0.9h-1.8V44.6z M253.8,18.8V22v1.8h1.8V22v-3.2v-3.1h-1.8V18.8z M244.2,24v0.1V27v0v3.1v0.1v3.3v4.7V42h1.8v-3.8v-4.7
		v-3.3v-0.1V27v0v-2.9V24v-1.9h-1.8V24z M244.2,48.5V49V51h1.8V49v-0.6V47h-1.8V48.5z M244.2,55v0.4v3.4h1.8v-3.4V55v-2.3h-1.8V55z
		 M244.2,62.1v1.5v2.2h1.8v-2.2v-1.5v-2.4h-1.8V62.1z M244.2,78.6v2.5v3.3v2.2v4.8v1.4v0.5h1.8v-0.5v-1.4v-4.8v-2.2v-3.3v-2.5v-0.7
		h-1.8V78.6z M244.2,67.7v1.9v1.3h1.8v-1.3v-1.9V67h-1.8V67.7z M244.2,150.9h1.8v-2h-1.8V150.9z M244.2,139.9v1.9v1.9h1.8v-1.9v-1.9
		v-4.6h-1.8V139.9z M244.2,1.8v0.7v1.9h1.8V2.5V1.8V0h-1.8V1.8z M244.2,44.9h1.8V43h-1.8V44.9z M244.2,8.7v1.6v2.3h1.8v-2.3V8.7V6.6
		h-1.8V8.7z M244.2,16.1v1.2v2V20v1.2h1.8V20v-0.7v-2v-1.2v-2.5h-1.8V16.1z M244.2,73v2v0.5h1.8V75v-2v-0.6h-1.8V73z M244.2,97.9
		v1.5v0.5h1.8v-0.5v-1.5v-1h-1.8V97.9z M244.2,117.9v0.2v2.8v1v2.1v0v2h1.8v-2v0v-2.1v-1v-2.8v-0.2v-1.7h-1.8V117.9z M244.2,103.7
		v2.6v0.9h1.8v-0.9v-2.6v-0.2h-1.8V103.7z M244.2,110.5v3.7v0.2h1.8v-0.2v-3.7v0L244.2,110.5L244.2,110.5z M244.2,128.8v3.2v3.1h1.8
		V132v-3.2v-1.8h-1.8V128.8z M235.3,148.4v0.7v1.8h1.8V149v-0.7v-1.9h-1.8V148.4z M235.3,140.6v1.6v2.2h1.8v-2.2v-1.6v-2.3h-1.8
		V140.6z M235.3,112.7v4.7v3.3v0.1v3.1v0v2.9v0.1v1.9h1.8v-1.9v-0.1v-2.9v0v-3.1v-0.1v-3.3v-4.7v-3.8h-1.8V112.7z M235.3,51.4v1.5v1
		h1.8v-1v-1.5v-0.5h-1.8V51.4z M235.3,81.2v1.9v0.7h1.8v-0.7v-1.9v-1.3h-1.8V81.2z M235.3,26.9L235.3,26.9V29v1v2.8v0.2v1.7h1.8
		v-1.7v-0.2V30v-1V27v0v-2h-1.8V26.9z M235.3,2h1.8V0h-1.8V2z M235.3,36.6v3.7v0h1.8v0v-3.7v-0.2h-1.8V36.6z M235.3,9v1.9v4.6h1.8
		v-4.6V9V7.1h-1.8V9z M235.3,130.9v0.7v2v1.2v2.5h1.8v-2.5v-1.2v-2v-0.7v-1.2h-1.8V130.9z M235.3,107.8h1.8v-1.9h-1.8V107.8z
		 M235.3,101.8v0.6v1.4h1.8v-1.4v-0.6v-1.9h-1.8V101.8z M235.3,58v1.4v4.8v2.2v3.3v2.5V73h1.8v-0.7v-2.5v-3.3v-2.2v-4.8V58v-0.5
		h-1.8V58z M235.3,95.5v0.4v2.3h1.8v-2.3v-0.4v-3.4h-1.8V95.5z M235.3,75.9v2v0.6h1.8v-0.6v-2v-0.5h-1.8V75.9z M235.3,87.3v1.5v2.4
		h1.8v-2.4v-1.5v-2.2h-1.8V87.3z M235.3,44.6v2.6v0.2h1.8v-0.2v-2.6v-0.9h-1.8V44.6z M235.3,18.8V22v1.8h1.8V22v-3.2v-3.1h-1.8V18.8
		z M228.2,148.4v0.7v1.8h1.8V149v-0.7v-1.9h-1.8V148.4z M228.2,140.6v1.6v2.2h1.8v-2.2v-1.6v-2.3h-1.8V140.6z M228.2,112.7v4.7v3.3
		v0.1v3.1v0v2.9v0.1v1.9h1.8v-1.9v-0.1v-2.9v0v-3.1v-0.1v-3.3v-4.7v-3.8h-1.8V112.7z M228.2,51.4v1.5v1h1.8v-1v-1.5v-0.5h-1.8V51.4z
		 M228.2,81.2v1.9v0.7h1.8v-0.7v-1.9v-1.3h-1.8V81.2z M228.2,26.9L228.2,26.9V29v1v2.8v0.2v1.7h1.8v-1.7v-0.2V30v-1V27v0v-2h-1.8
		V26.9z M228.2,2h1.8V0h-1.8V2z M228.2,36.6v3.7v0h1.8v0v-3.7v-0.2h-1.8V36.6z M228.2,9v1.9v4.6h1.8v-4.6V9V7.1h-1.8V9z
		 M228.2,130.9v0.7v2v1.2v2.5h1.8v-2.5v-1.2v-2v-0.7v-1.2h-1.8V130.9z M228.2,107.8h1.8v-1.9h-1.8V107.8z M228.2,101.8v0.6v1.4h1.8
		v-1.4v-0.6v-1.9h-1.8V101.8z M228.2,58v1.4v4.8v2.2v3.3v2.5V73h1.8v-0.7v-2.5v-3.3v-2.2v-4.8V58v-0.5h-1.8V58z M228.2,95.5v0.4v2.3
		h1.8v-2.3v-0.4v-3.4h-1.8V95.5z M228.2,75.9v2v0.6h1.8v-0.6v-2v-0.5h-1.8V75.9z M228.2,87.3v1.5v2.4h1.8v-2.4v-1.5v-2.2h-1.8V87.3z
		 M228.2,44.6v2.6v0.2h1.8v-0.2v-2.6v-0.9h-1.8V44.6z M228.2,18.8V22v1.8h1.8V22v-3.2v-3.1h-1.8V18.8z M208.4,24v0.1V27v0v3.1v0.1
		v3.3v4.7V42h1.8v-3.8v-4.7v-3.3v-0.1V27v0v-2.9V24v-1.9h-1.8V24z M208.4,48.5V49V51h1.8V49v-0.6V47h-1.8V48.5z M208.4,55v0.4v3.4
		h1.8v-3.4V55v-2.3h-1.8V55z M208.4,62.1v1.5v2.2h1.8v-2.2v-1.5v-2.4h-1.8V62.1z M208.4,78.6v2.5v3.3v2.2v4.8v1.4v0.5h1.8v-0.5v-1.4
		v-4.8v-2.2v-3.3v-2.5v-0.7h-1.8V78.6z M208.4,67.7v1.9v1.3h1.8v-1.3v-1.9V67h-1.8V67.7z M208.4,150.9h1.8v-2h-1.8V150.9z
		 M208.4,139.9v1.9v1.9h1.8v-1.9v-1.9v-4.6h-1.8V139.9z M208.4,1.8v0.7v1.9h1.8V2.5V1.8V0h-1.8V1.8z M208.4,44.9h1.8V43h-1.8V44.9z
		 M208.4,8.7v1.6v2.3h1.8v-2.3V8.7V6.6h-1.8V8.7z M208.4,16.1v1.2v2V20v1.2h1.8V20v-0.7v-2v-1.2v-2.5h-1.8V16.1z M208.4,73v2v0.5
		h1.8V75v-2v-0.6h-1.8V73z M208.4,97.9v1.5v0.5h1.8v-0.5v-1.5v-1h-1.8V97.9z M208.4,117.9v0.2v2.8v1v2.1v0v2h1.8v-2v0v-2.1v-1v-2.8
		v-0.2v-1.7h-1.8V117.9z M208.4,103.7v2.6v0.9h1.8v-0.9v-2.6v-0.2h-1.8V103.7z M208.4,110.5v3.7v0.2h1.8v-0.2v-3.7v0L208.4,110.5
		L208.4,110.5z M208.4,128.8v3.2v3.1h1.8V132v-3.2v-1.8h-1.8V128.8z M182.3,148.4v0.7v1.8h1.8V149v-0.7v-1.9h-1.8V148.4z
		 M182.3,140.6v1.6v2.2h1.8v-2.2v-1.6v-2.3h-1.8V140.6z M182.3,112.7v4.7v3.3v0.1v3.1v0v2.9v0.1v1.9h1.8v-1.9v-0.1v-2.9v0v-3.1v-0.1
		v-3.3v-4.7v-3.8h-1.8V112.7z M182.3,51.4v1.5v1h1.8v-1v-1.5v-0.5h-1.8V51.4z M182.3,81.2v1.9v0.7h1.8v-0.7v-1.9v-1.3h-1.8V81.2z
		 M182.3,26.9L182.3,26.9V29v1v2.8v0.2v1.7h1.8v-1.7v-0.2V30v-1V27v0v-2h-1.8V26.9z M182.3,2h1.8V0h-1.8V2z M182.3,36.6v3.7v0h1.8v0
		v-3.7v-0.2h-1.8V36.6z M182.3,9v1.9v4.6h1.8v-4.6V9V7.1h-1.8V9z M182.3,130.9v0.7v2v1.2v2.5h1.8v-2.5v-1.2v-2v-0.7v-1.2h-1.8V130.9
		z M182.3,107.8h1.8v-1.9h-1.8V107.8z M182.3,101.8v0.6v1.4h1.8v-1.4v-0.6v-1.9h-1.8V101.8z M182.3,58v1.4v4.8v2.2v3.3v2.5V73h1.8
		v-0.7v-2.5v-3.3v-2.2v-4.8V58v-0.5h-1.8V58z M182.3,95.5v0.4v2.3h1.8v-2.3v-0.4v-3.4h-1.8V95.5z M182.3,75.9v2v0.6h1.8v-0.6v-2
		v-0.5h-1.8V75.9z M182.3,87.3v1.5v2.4h1.8v-2.4v-1.5v-2.2h-1.8V87.3z M182.3,44.6v2.6v0.2h1.8v-0.2v-2.6v-0.9h-1.8V44.6z
		 M182.3,18.8V22v1.8h1.8V22v-3.2v-3.1h-1.8V18.8z M172.6,24v0.1V27v0v3.1v0.1v3.3v4.7V42h1.8v-3.8v-4.7v-3.3v-0.1V27v0v-2.9V24
		v-1.9h-1.8V24z M172.6,48.5V49V51h1.8V49v-0.6V47h-1.8V48.5z M172.6,55v0.4v3.4h1.8v-3.4V55v-2.3h-1.8V55z M172.6,62.1v1.5v2.2h1.8
		v-2.2v-1.5v-2.4h-1.8V62.1z M172.6,78.6v2.5v3.3v2.2v4.8v1.4v0.5h1.8v-0.5v-1.4v-4.8v-2.2v-3.3v-2.5v-0.7h-1.8V78.6z M172.6,67.7
		v1.9v1.3h1.8v-1.3v-1.9V67h-1.8V67.7z M172.6,150.9h1.8v-2h-1.8V150.9z M172.6,139.9v1.9v1.9h1.8v-1.9v-1.9v-4.6h-1.8V139.9z
		 M172.6,1.8v0.7v1.9h1.8V2.5V1.8V0h-1.8V1.8z M172.6,44.9h1.8V43h-1.8V44.9z M172.6,8.7v1.6v2.3h1.8v-2.3V8.7V6.6h-1.8V8.7z
		 M172.6,16.1v1.2v2V20v1.2h1.8V20v-0.7v-2v-1.2v-2.5h-1.8V16.1z M172.6,73v2v0.5h1.8V75v-2v-0.6h-1.8V73z M172.6,97.9v1.5v0.5h1.8
		v-0.5v-1.5v-1h-1.8V97.9z M172.6,117.9v0.2v2.8v1v2.1v0v2h1.8v-2v0v-2.1v-1v-2.8v-0.2v-1.7h-1.8V117.9z M172.6,103.7v2.6v0.9h1.8
		v-0.9v-2.6v-0.2h-1.8V103.7z M172.6,110.5v3.7v0.2h1.8v-0.2v-3.7v0L172.6,110.5L172.6,110.5z M172.6,128.8v3.2v3.1h1.8V132v-3.2
		v-1.8h-1.8V128.8z M163.8,148.4v0.7v1.8h1.8V149v-0.7v-1.9h-1.8V148.4z M163.8,140.6v1.6v2.2h1.8v-2.2v-1.6v-2.3h-1.8V140.6z
		 M163.8,112.7v4.7v3.3v0.1v3.1v0v2.9v0.1v1.9h1.8v-1.9v-0.1v-2.9v0v-3.1v-0.1v-3.3v-4.7v-3.8h-1.8V112.7z M163.8,51.4v1.5v1h1.8v-1
		v-1.5v-0.5h-1.8V51.4z M163.8,81.2v1.9v0.7h1.8v-0.7v-1.9v-1.3h-1.8V81.2z M163.8,26.9L163.8,26.9V29v1v2.8v0.2v1.7h1.8v-1.7v-0.2
		V30v-1V27v0v-2h-1.8V26.9z M163.8,2h1.8V0h-1.8V2z M163.8,36.6v3.7v0h1.8v0v-3.7v-0.2h-1.8V36.6z M163.8,9v1.9v4.6h1.8v-4.6V9V7.1
		h-1.8V9z M163.8,130.9v0.7v2v1.2v2.5h1.8v-2.5v-1.2v-2v-0.7v-1.2h-1.8V130.9z M163.8,107.8h1.8v-1.9h-1.8V107.8z M163.8,101.8v0.6
		v1.4h1.8v-1.4v-0.6v-1.9h-1.8V101.8z M163.8,58v1.4v4.8v2.2v3.3v2.5V73h1.8v-0.7v-2.5v-3.3v-2.2v-4.8V58v-0.5h-1.8V58z M163.8,95.5
		v0.4v2.3h1.8v-2.3v-0.4v-3.4h-1.8V95.5z M163.8,75.9v2v0.6h1.8v-0.6v-2v-0.5h-1.8V75.9z M163.8,87.3v1.5v2.4h1.8v-2.4v-1.5v-2.2
		h-1.8V87.3z M163.8,44.6v2.6v0.2h1.8v-0.2v-2.6v-0.9h-1.8V44.6z M163.8,18.8V22v1.8h1.8V22v-3.2v-3.1h-1.8V18.8z M156.7,148.4v0.7
		v1.8h1.8V149v-0.7v-1.9h-1.8V148.4z M156.7,140.6v1.6v2.2h1.8v-2.2v-1.6v-2.3h-1.8V140.6z M156.7,112.7v4.7v3.3v0.1v3.1v0v2.9v0.1
		v1.9h1.8v-1.9v-0.1v-2.9v0v-3.1v-0.1v-3.3v-4.7v-3.8h-1.8V112.7z M156.7,51.4v1.5v1h1.8v-1v-1.5v-0.5h-1.8V51.4z M156.7,81.2v1.9
		v0.7h1.8v-0.7v-1.9v-1.3h-1.8V81.2z M156.7,26.9L156.7,26.9V29v1v2.8v0.2v1.7h1.8v-1.7v-0.2V30v-1V27v0v-2h-1.8V26.9z M156.7,2h1.8
		V0h-1.8V2z M156.7,36.6v3.7v0h1.8v0v-3.7v-0.2h-1.8V36.6z M156.7,9v1.9v4.6h1.8v-4.6V9V7.1h-1.8V9z M156.7,130.9v0.7v2v1.2v2.5h1.8
		v-2.5v-1.2v-2v-0.7v-1.2h-1.8V130.9z M156.7,107.8h1.8v-1.9h-1.8V107.8z M156.7,101.8v0.6v1.4h1.8v-1.4v-0.6v-1.9h-1.8V101.8z
		 M156.7,58v1.4v4.8v2.2v3.3v2.5V73h1.8v-0.7v-2.5v-3.3v-2.2v-4.8V58v-0.5h-1.8V58z M156.7,95.5v0.4v2.3h1.8v-2.3v-0.4v-3.4h-1.8
		V95.5z M156.7,75.9v2v0.6h1.8v-0.6v-2v-0.5h-1.8V75.9z M156.7,87.3v1.5v2.4h1.8v-2.4v-1.5v-2.2h-1.8V87.3z M156.7,44.6v2.6v0.2h1.8
		v-0.2v-2.6v-0.9h-1.8V44.6z M156.7,18.8V22v1.8h1.8V22v-3.2v-3.1h-1.8V18.8z M146.6,148.4v0.7v1.8h1.8V149v-0.7v-1.9h-1.8V148.4z
		 M146.6,140.6v1.6v2.2h1.8v-2.2v-1.6v-2.3h-1.8V140.6z M146.6,112.7v4.7v3.3v0.1v3.1v0v2.9v0.1v1.9h1.8v-1.9v-0.1v-2.9v0v-3.1v-0.1
		v-3.3v-4.7v-3.8h-1.8V112.7z M146.6,51.4v1.5v1h1.8v-1v-1.5v-0.5h-1.8V51.4z M146.6,81.2v1.9v0.7h1.8v-0.7v-1.9v-1.3h-1.8V81.2z
		 M146.6,26.9L146.6,26.9V29v1v2.8v0.2v1.7h1.8v-1.7v-0.2V30v-1V27v0v-2h-1.8V26.9z M146.6,2h1.8V0h-1.8V2z M146.6,36.6v3.7v0h1.8v0
		v-3.7v-0.2h-1.8V36.6z M146.6,9v1.9v4.6h1.8v-4.6V9V7.1h-1.8V9z M146.6,130.9v0.7v2v1.2v2.5h1.8v-2.5v-1.2v-2v-0.7v-1.2h-1.8V130.9
		z M146.6,107.8h1.8v-1.9h-1.8V107.8z M146.6,101.8v0.6v1.4h1.8v-1.4v-0.6v-1.9h-1.8V101.8z M146.6,58v1.4v4.8v2.2v3.3v2.5V73h1.8
		v-0.7v-2.5v-3.3v-2.2v-4.8V58v-0.5h-1.8V58z M146.6,95.5v0.4v2.3h1.8v-2.3v-0.4v-3.4h-1.8V95.5z M146.6,75.9v2v0.6h1.8v-0.6v-2
		v-0.5h-1.8V75.9z M146.6,87.3v1.5v2.4h1.8v-2.4v-1.5v-2.2h-1.8V87.3z M146.6,44.6v2.6v0.2h1.8v-0.2v-2.6v-0.9h-1.8V44.6z
		 M146.6,18.8V22v1.8h1.8V22v-3.2v-3.1h-1.8V18.8z M136.9,24v0.1V27v0v3.1v0.1v3.3v4.7V42h1.8v-3.8v-4.7v-3.3v-0.1V27v0v-2.9V24
		v-1.9h-1.8V24z M136.9,48.5V49V51h1.8V49v-0.6V47h-1.8V48.5z M136.9,55v0.4v3.4h1.8v-3.4V55v-2.3h-1.8V55z M136.9,62.1v1.5v2.2h1.8
		v-2.2v-1.5v-2.4h-1.8V62.1z M136.9,78.6v2.5v3.3v2.2v4.8v1.4v0.5h1.8v-0.5v-1.4v-4.8v-2.2v-3.3v-2.5v-0.7h-1.8V78.6z M136.9,67.7
		v1.9v1.3h1.8v-1.3v-1.9V67h-1.8V67.7z M136.9,150.9h1.8v-2h-1.8V150.9z M136.9,139.9v1.9v1.9h1.8v-1.9v-1.9v-4.6h-1.8V139.9z
		 M136.9,1.8v0.7v1.9h1.8V2.5V1.8V0h-1.8V1.8z M136.9,44.9h1.8V43h-1.8V44.9z M136.9,8.7v1.6v2.3h1.8v-2.3V8.7V6.6h-1.8V8.7z
		 M136.9,16.1v1.2v2V20v1.2h1.8V20v-0.7v-2v-1.2v-2.5h-1.8V16.1z M136.9,73v2v0.5h1.8V75v-2v-0.6h-1.8V73z M136.9,97.9v1.5v0.5h1.8
		v-0.5v-1.5v-1h-1.8V97.9z M136.9,117.9v0.2v2.8v1v2.1v0v2h1.8v-2v0v-2.1v-1v-2.8v-0.2v-1.7h-1.8V117.9z M136.9,103.7v2.6v0.9h1.8
		v-0.9v-2.6v-0.2h-1.8V103.7z M136.9,110.5v3.7v0.2h1.8v-0.2v-3.7v0L136.9,110.5L136.9,110.5z M136.9,128.8v3.2v3.1h1.8V132v-3.2
		v-1.8h-1.8V128.8z M128.1,148.4v0.7v1.8h1.8V149v-0.7v-1.9h-1.8V148.4z M128.1,140.6v1.6v2.2h1.8v-2.2v-1.6v-2.3h-1.8V140.6z
		 M128.1,112.7v4.7v3.3v0.1v3.1v0v2.9v0.1v1.9h1.8v-1.9v-0.1v-2.9v0v-3.1v-0.1v-3.3v-4.7v-3.8h-1.8V112.7z M128.1,51.4v1.5v1h1.8v-1
		v-1.5v-0.5h-1.8V51.4z M128.1,81.2v1.9v0.7h1.8v-0.7v-1.9v-1.3h-1.8V81.2z M128.1,26.9L128.1,26.9V29v1v2.8v0.2v1.7h1.8v-1.7v-0.2
		V30v-1V27v0v-2h-1.8V26.9z M128.1,2h1.8V0h-1.8V2z M128.1,36.6v3.7v0h1.8v0v-3.7v-0.2h-1.8V36.6z M128.1,9v1.9v4.6h1.8v-4.6V9V7.1
		h-1.8V9z M128.1,130.9v0.7v2v1.2v2.5h1.8v-2.5v-1.2v-2v-0.7v-1.2h-1.8V130.9z M128.1,107.8h1.8v-1.9h-1.8V107.8z M128.1,101.8v0.6
		v1.4h1.8v-1.4v-0.6v-1.9h-1.8V101.8z M128.1,58v1.4v4.8v2.2v3.3v2.5V73h1.8v-0.7v-2.5v-3.3v-2.2v-4.8V58v-0.5h-1.8V58z M128.1,95.5
		v0.4v2.3h1.8v-2.3v-0.4v-3.4h-1.8V95.5z M128.1,75.9v2v0.6h1.8v-0.6v-2v-0.5h-1.8V75.9z M128.1,87.3v1.5v2.4h1.8v-2.4v-1.5v-2.2
		h-1.8V87.3z M128.1,44.6v2.6v0.2h1.8v-0.2v-2.6v-0.9h-1.8V44.6z M128.1,18.8V22v1.8h1.8V22v-3.2v-3.1h-1.8V18.8z M120.9,51.4v1.5v1
		h1.8v-1v-1.5v-0.5h-1.8V51.4z M120.9,81.2v1.9v0.7h1.8v-0.7v-1.9v-1.3h-1.8V81.2z M120.9,26.9L120.9,26.9V29v1v2.8v0.2v1.7h1.8
		v-1.7v-0.2V30v-1V27v0v-2h-1.8V26.9z M120.9,2h1.8V0h-1.8V2z M120.9,36.6v3.7v0h1.8v0v-3.7v-0.2h-1.8V36.6z M120.9,9v1.9v4.6h1.8
		v-4.6V9V7.1h-1.8V9z M120.9,58v1.4v4.8v2.2v3.3v2.5V73h1.8v-0.7v-2.5v-3.3v-2.2v-4.8V58v-0.5h-1.8V58z M120.9,75.9v2v0.6h1.8v-0.6
		v-2v-0.5h-1.8V75.9z M120.9,87.3v1.5v2.4h1.8v-2.4v-1.5v-2.2h-1.8V87.3z M120.9,44.6v2.6v0.2h1.8v-0.2v-2.6v-0.9h-1.8V44.6z
		 M120.9,18.8V22v1.8h1.8V22v-3.2v-3.1h-1.8V18.8z M110.8,51.5V53v1h1.8v-1v-1.5V51h-1.8V51.5z M110.8,27L110.8,27v2.1v1v2.8V33v1.7
		h1.8V33v-0.2V30v-1V27v0v-2h-1.8V27z M110.8,2.1h1.8V0h-1.8V2.1z M110.8,36.7v3.7v0h1.8v0v-3.7v-0.2h-1.8V36.7z M110.8,9.1V11v4.6
		h1.8V11V9.1V7.1h-1.8V9.1z M110.8,44.6v2.6v0.2h1.8v-0.2v-2.6v-0.9h-1.8V44.6z M110.8,18.9v3.2v1.8h1.8v-1.8v-3.2v-3.1h-1.8V18.9z"
		/>
	<g>
		<g>
			<linearGradient id="SVGID_9_" gradientUnits="userSpaceOnUse" x1="63.8251" y1="175.813" x2="83.2009" y2="175.813">
				<stop  offset="0" style="stop-color:#3FD7D7"/>
				<stop  offset="1" style="stop-color:#388DDE"/>
			</linearGradient>
			<path class="st17" d="M73.5,161.7c-4.6,0-9.7,3.6-9.7,9.5c0,9.1,9.7,18.7,9.7,18.7s9.7-9.7,9.7-18.7
				C83.2,165.3,77.9,161.7,73.5,161.7z M73.6,176.8c-3.1,0-5.6-2.5-5.6-5.6c0-3,2.6-5.6,5.6-5.6c3.1,0,5.6,2.5,5.6,5.6
				C79.2,174.3,76.6,176.8,73.6,176.8z"/>
		</g>
	</g>
	<rect x="4.8" y="78" class="st18" width="7" height="7"/>
	<rect x="13.4" y="78" class="st6" width="7" height="7"/>
	<rect x="22" y="78" class="st19" width="7" height="7"/>
	<rect x="4.8" y="86.9" class="st6" width="7" height="7"/>
	<rect x="13.4" y="86.9" class="st6" width="7" height="7"/>
	<rect x="22" y="86.9" class="st6" width="7" height="7"/>
	<rect x="4.8" y="95.8" class="st19" width="7" height="7"/>
	<rect x="13.4" y="95.8" class="st18" width="7" height="7"/>
	<rect x="22" y="95.8" class="st6" width="7" height="7"/>
	<rect x="4.8" y="131.2" class="st19" width="7" height="7"/>
	<rect x="13.4" y="131.2" class="st6" width="7" height="7"/>
	<rect x="22" y="131.2" class="st18" width="7" height="7"/>
	<rect x="4.8" y="140.1" class="st6" width="7" height="7"/>
	<rect x="13.4" y="140.1" class="st6" width="7" height="7"/>
	<rect x="22" y="140.1" class="st18" width="7" height="7"/>
	<rect x="4.8" y="149" class="st18" width="7" height="7"/>
	<rect x="13.4" y="149" class="st6" width="7" height="7"/>
	<rect x="22" y="149" class="st6" width="7" height="7"/>
	<rect x="4.8" y="157.9" class="st6" width="7" height="7"/>
	<rect x="13.4" y="157.9" class="st6" width="7" height="7"/>
	<rect x="22" y="157.9" class="st19" width="7" height="7"/>
	<rect x="4.8" y="166.8" class="st18" width="7" height="7"/>
	<rect x="13.4" y="166.8" class="st6" width="7" height="7"/>
	<rect x="22" y="166.8" class="st18" width="7" height="7"/>
	<g>
		<polygon class="st6" points="41.4,152.9 27.2,152.9 27.2,152.1 40.5,152.1 40.5,90.8 27.2,90.8 27.2,90 41.4,90 		"/>
	</g>
</g>
</svg>
