<?xml version="1.0" encoding="utf-8"?>
<!-- Generator: Adobe Illustrator 22.1.0, SVG Export Plug-In . SVG Version: 6.00 Build 0)  -->
<svg version="1.1" id="Layer_1" xmlns="http://www.w3.org/2000/svg" xmlns:xlink="http://www.w3.org/1999/xlink" x="0px" y="0px"
	 viewBox="0 0 1920 852" style="enable-background:new 0 0 1920 852;" xml:space="preserve">
<style type="text/css">
	.st0{fill:#080245;}
	.st1{opacity:0.25;fill:url(#SVGID_1_);}
	.st2{opacity:0.4;}
	.st3{fill:url(#SVGID_2_);}
	.st4{opacity:0.8;fill:url(#SVGID_3_);}
	.st5{fill:url(#SVGID_4_);}
	.st6{fill:#42E5E0;}
	.st7{opacity:0.8;fill:url(#SVGID_5_);}
	.st8{fill:url(#SVGID_6_);}
	.st9{opacity:0.8;fill:url(#SVGID_7_);}
	.st10{fill:url(#SVGID_8_);}
	.st11{opacity:0.8;fill:url(#SVGID_9_);}
	.st12{fill:url(#SVGID_10_);}
	.st13{opacity:0.8;fill:url(#SVGID_11_);}
	.st14{fill:url(#SVGID_12_);}
	.st15{opacity:0.8;fill:url(#SVGID_13_);}
	.st16{fill:url(#SVGID_14_);}
	.st17{opacity:0.8;fill:url(#SVGID_15_);}
	.st18{fill:url(#SVGID_16_);}
	.st19{opacity:0.8;fill:url(#SVGID_17_);}
	.st20{fill:url(#SVGID_18_);}
	.st21{opacity:0.8;fill:url(#SVGID_19_);}
	.st22{opacity:0.8;fill:url(#SVGID_20_);}
	.st23{fill:url(#SVGID_21_);}
	.st24{opacity:0.8;fill:url(#SVGID_22_);}
	.st25{fill:url(#SVGID_23_);}
	.st26{fill:url(#SVGID_24_);}
</style>
<rect class="st0" width="1920" height="852"/>
<linearGradient id="SVGID_1_" gradientUnits="userSpaceOnUse" x1="960" y1="852" x2="960" y2="-9.094947e-13">
	<stop  offset="0" style="stop-color:#080245"/>
	<stop  offset="1" style="stop-color:#3FD7D7"/>
</linearGradient>
<rect class="st1" width="1920" height="852"/>
<g class="st2">
	<linearGradient id="SVGID_2_" gradientUnits="userSpaceOnUse" x1="123.2344" y1="701.041" x2="979.2344" y2="491.041">
		<stop  offset="0" style="stop-color:#43E4DF;stop-opacity:0.7"/>
		<stop  offset="1" style="stop-color:#0E1A56"/>
	</linearGradient>
	<path class="st3" d="M1013,458.1L622.3,682.6c-19,10.9-42.8,11.2-62,0.6L313.8,547.5c-17.8-10.2-39.8-10-57.5,0.5L60,658.6
		c-16.5,9.3-36.2,9.4-52.8,0.3L0,654.9v18.3c21.4,11.5,46.7,11.2,67.8-0.7l196.4-110.7l0.2-0.1c12.7-7.6,28.6-7.7,41.5-0.3
		l246.7,135.8c11.8,6.5,25,9.8,38.2,9.8c13.7,0,27.4-3.5,39.5-10.5L1021,471.9L1013,458.1z"/>
	
		<radialGradient id="SVGID_3_" cx="745.7947" cy="277.949" r="12.6692" gradientTransform="matrix(2.4074 5.727077e-04 -3.083811e-04 1.2963 -1081.4702 -88.9301)" gradientUnits="userSpaceOnUse">
		<stop  offset="0" style="stop-color:#42E7E1"/>
		<stop  offset="0.7821" style="stop-color:#41E6E0;stop-opacity:0.2"/>
		<stop  offset="1" style="stop-color:#40E5DF;stop-opacity:0"/>
	</radialGradient>
	<ellipse class="st4" cx="713.9" cy="271.8" rx="30.5" ry="16.4"/>
	<g>
		
			<linearGradient id="SVGID_4_" gradientUnits="userSpaceOnUse" x1="617.3444" y1="300.8599" x2="715.334" y2="300.8599" gradientTransform="matrix(1 2.378940e-04 -2.378940e-04 1 0.1014 -0.2284)">
			<stop  offset="0" style="stop-color:#40E5DF;stop-opacity:0"/>
			<stop  offset="1" style="stop-color:#42E7E1"/>
		</linearGradient>
		<polygon class="st5" points="619.4,330 617.4,326.5 713.4,271.6 715.4,275 		"/>
	</g>
	<circle class="st6" cx="716.9" cy="272.8" r="7.5"/>
	
		<radialGradient id="SVGID_5_" cx="600.4102" cy="520.1776" r="12.6692" gradientTransform="matrix(2.4074 5.727077e-04 -3.083811e-04 1.2963 -1081.4702 -88.9301)" gradientUnits="userSpaceOnUse">
		<stop  offset="0" style="stop-color:#42E7E1"/>
		<stop  offset="0.7821" style="stop-color:#41E6E0;stop-opacity:0.2"/>
		<stop  offset="1" style="stop-color:#40E5DF;stop-opacity:0"/>
	</radialGradient>
	<ellipse class="st7" cx="363.8" cy="585.7" rx="30.5" ry="16.4"/>
	<g>
		
			<linearGradient id="SVGID_6_" gradientUnits="userSpaceOnUse" x1="302.344" y1="604.8599" x2="365.3345" y2="604.8599" gradientTransform="matrix(1 2.378940e-04 -2.378940e-04 1 0.1014 -0.2284)">
			<stop  offset="0" style="stop-color:#40E5DF;stop-opacity:0"/>
			<stop  offset="1" style="stop-color:#42E7E1"/>
		</linearGradient>
		<polygon class="st8" points="304.3,623.9 302.3,620.5 363.3,585.5 365.3,589 		"/>
	</g>
	<circle class="st6" cx="366.8" cy="586.7" r="7.5"/>
	
		<radialGradient id="SVGID_7_" cx="835.1024" cy="342.749" r="12.6692" gradientTransform="matrix(2.4074 5.727077e-04 -3.083811e-04 1.2963 -1081.4702 -88.9301)" gradientUnits="userSpaceOnUse">
		<stop  offset="0" style="stop-color:#42E7E1"/>
		<stop  offset="0.7821" style="stop-color:#41E6E0;stop-opacity:0.2"/>
		<stop  offset="1" style="stop-color:#40E5DF;stop-opacity:0"/>
	</radialGradient>
	<ellipse class="st9" cx="928.9" cy="355.9" rx="30.5" ry="16.4"/>
	<g>
		
			<linearGradient id="SVGID_8_" gradientUnits="userSpaceOnUse" x1="832.3448" y1="384.8597" x2="930.3336" y2="384.8597" gradientTransform="matrix(1 2.378940e-04 -2.378940e-04 1 0.1014 -0.2284)">
			<stop  offset="0" style="stop-color:#40E5DF;stop-opacity:0"/>
			<stop  offset="1" style="stop-color:#42E7E1"/>
		</linearGradient>
		<polygon class="st10" points="834.3,414.1 832.3,410.6 928.4,355.6 930.3,359.1 		"/>
	</g>
	<circle class="st6" cx="931.9" cy="356.9" r="7.5"/>
	
		<radialGradient id="SVGID_9_" cx="783.5947" cy="206.9776" r="12.6692" gradientTransform="matrix(2.4074 5.727077e-04 -3.083811e-04 1.2963 -1081.4702 -88.9301)" gradientUnits="userSpaceOnUse">
		<stop  offset="0" style="stop-color:#42E7E1"/>
		<stop  offset="0.7821" style="stop-color:#41E6E0;stop-opacity:0.2"/>
		<stop  offset="1" style="stop-color:#40E5DF;stop-opacity:0"/>
	</radialGradient>
	<ellipse class="st11" cx="804.9" cy="179.8" rx="30.5" ry="16.4"/>
	<g>
		
			<linearGradient id="SVGID_10_" gradientUnits="userSpaceOnUse" x1="708.3449" y1="208.86" x2="806.3337" y2="208.86" gradientTransform="matrix(1 2.378940e-04 -2.378940e-04 1 0.1014 -0.2284)">
			<stop  offset="0" style="stop-color:#40E5DF;stop-opacity:0"/>
			<stop  offset="1" style="stop-color:#42E7E1"/>
		</linearGradient>
		<polygon class="st12" points="710.4,238 708.4,234.6 804.4,179.6 806.4,183.1 		"/>
	</g>
	<circle class="st6" cx="807.9" cy="180.8" r="7.5"/>
	
		<radialGradient id="SVGID_11_" cx="769.8871" cy="352.0062" r="12.6692" gradientTransform="matrix(2.4074 5.727077e-04 -3.083811e-04 1.2963 -1081.4702 -88.9301)" gradientUnits="userSpaceOnUse">
		<stop  offset="0" style="stop-color:#42E7E1"/>
		<stop  offset="0.7821" style="stop-color:#41E6E0;stop-opacity:0.2"/>
		<stop  offset="1" style="stop-color:#40E5DF;stop-opacity:0"/>
	</radialGradient>
	<ellipse class="st13" cx="771.9" cy="367.8" rx="30.5" ry="16.4"/>
	<g>
		
			<linearGradient id="SVGID_12_" gradientUnits="userSpaceOnUse" x1="675.3447" y1="396.8597" x2="773.3334" y2="396.8597" gradientTransform="matrix(1 2.378940e-04 -2.378940e-04 1 0.1014 -0.2284)">
			<stop  offset="0" style="stop-color:#40E5DF;stop-opacity:0"/>
			<stop  offset="1" style="stop-color:#42E7E1"/>
		</linearGradient>
		<polygon class="st14" points="677.3,426 675.3,422.6 771.4,367.6 773.3,371.1 		"/>
	</g>
	<circle class="st6" cx="774.9" cy="368.8" r="7.5"/>
	
		<radialGradient id="SVGID_13_" cx="552.2255" cy="436.8633" r="12.6692" gradientTransform="matrix(2.4074 5.727077e-04 -3.083811e-04 1.2963 -1081.4702 -88.9301)" gradientUnits="userSpaceOnUse">
		<stop  offset="0" style="stop-color:#42E7E1"/>
		<stop  offset="0.7821" style="stop-color:#41E6E0;stop-opacity:0.2"/>
		<stop  offset="1" style="stop-color:#40E5DF;stop-opacity:0"/>
	</radialGradient>
	<ellipse class="st15" cx="247.8" cy="477.7" rx="30.5" ry="16.4"/>
	<g>
		
			<linearGradient id="SVGID_14_" gradientUnits="userSpaceOnUse" x1="151.3445" y1="506.8599" x2="249.3342" y2="506.8599" gradientTransform="matrix(1 2.378940e-04 -2.378940e-04 1 0.1014 -0.2284)">
			<stop  offset="0" style="stop-color:#40E5DF;stop-opacity:0"/>
			<stop  offset="1" style="stop-color:#42E7E1"/>
		</linearGradient>
		<polygon class="st16" points="153.3,535.9 151.3,532.4 247.3,477.5 249.3,480.9 		"/>
	</g>
	<circle class="st6" cx="250.8" cy="478.7" r="7.5"/>
	
		<radialGradient id="SVGID_15_" cx="614.5332" cy="271.7776" r="12.6692" gradientTransform="matrix(2.4074 5.727077e-04 -3.083811e-04 1.2963 -1081.4702 -88.9301)" gradientUnits="userSpaceOnUse">
		<stop  offset="0" style="stop-color:#42E7E1"/>
		<stop  offset="0.7821" style="stop-color:#41E6E0;stop-opacity:0.2"/>
		<stop  offset="1" style="stop-color:#40E5DF;stop-opacity:0"/>
	</radialGradient>
	<ellipse class="st17" cx="397.9" cy="263.7" rx="30.5" ry="16.4"/>
	<g>
		
			<linearGradient id="SVGID_16_" gradientUnits="userSpaceOnUse" x1="301.3444" y1="292.8599" x2="399.3341" y2="292.8599" gradientTransform="matrix(1 2.378940e-04 -2.378940e-04 1 0.1014 -0.2284)">
			<stop  offset="0" style="stop-color:#40E5DF;stop-opacity:0"/>
			<stop  offset="1" style="stop-color:#42E7E1"/>
		</linearGradient>
		<polygon class="st18" points="303.4,321.9 301.4,318.5 397.4,263.5 399.4,267 		"/>
	</g>
	<circle class="st6" cx="400.9" cy="264.7" r="7.5"/>
	
		<radialGradient id="SVGID_17_" cx="566.764" cy="303.4062" r="12.6692" gradientTransform="matrix(2.4074 5.727077e-04 -3.083811e-04 1.2963 -1081.4702 -88.9301)" gradientUnits="userSpaceOnUse">
		<stop  offset="0" style="stop-color:#42E7E1"/>
		<stop  offset="0.7821" style="stop-color:#41E6E0;stop-opacity:0.2"/>
		<stop  offset="1" style="stop-color:#40E5DF;stop-opacity:0"/>
	</radialGradient>
	<ellipse class="st19" cx="282.9" cy="304.7" rx="30.5" ry="16.4"/>
	<g>
		
			<linearGradient id="SVGID_18_" gradientUnits="userSpaceOnUse" x1="154.3487" y1="342.8598" x2="284.3302" y2="342.8598" gradientTransform="matrix(1 2.378940e-04 -2.378940e-04 1 0.1014 -0.2284)">
			<stop  offset="0" style="stop-color:#40E5DF;stop-opacity:0"/>
			<stop  offset="1" style="stop-color:#42E7E1"/>
		</linearGradient>
		<polygon class="st20" points="156.3,380.9 154.4,377.4 282.4,304.5 284.4,307.9 		"/>
	</g>
	<circle class="st6" cx="285.9" cy="305.7" r="7.5"/>
	
		<radialGradient id="SVGID_19_" cx="474.964" cy="285.1081" r="12.6692" gradientTransform="matrix(2.4074 5.727077e-04 3.083811e-04 -1.2963 -1081.7385 1039.0356)" gradientUnits="userSpaceOnUse">
		<stop  offset="0" style="stop-color:#42E7E1"/>
		<stop  offset="0.7821" style="stop-color:#41E6E0;stop-opacity:0.2"/>
		<stop  offset="1" style="stop-color:#40E5DF;stop-opacity:0"/>
	</radialGradient>
	<ellipse class="st21" cx="61.8" cy="669.7" rx="30.5" ry="16.4"/>
	<circle class="st6" cx="64.8" cy="668.7" r="7.5"/>
	
		<radialGradient id="SVGID_20_" cx="592.9332" cy="513.2347" r="12.6692" gradientTransform="matrix(2.4074 5.727077e-04 -3.083811e-04 1.2963 -1081.4702 -88.9301)" gradientUnits="userSpaceOnUse">
		<stop  offset="0" style="stop-color:#42E7E1"/>
		<stop  offset="0.7821" style="stop-color:#41E6E0;stop-opacity:0.2"/>
		<stop  offset="1" style="stop-color:#40E5DF;stop-opacity:0"/>
	</radialGradient>
	<ellipse class="st22" cx="345.8" cy="576.7" rx="30.5" ry="16.4"/>
	<g>
		
			<linearGradient id="SVGID_21_" gradientUnits="userSpaceOnUse" x1="249.3447" y1="605.86" x2="347.3334" y2="605.86" gradientTransform="matrix(1 2.378940e-04 -2.378940e-04 1 0.1014 -0.2284)">
			<stop  offset="0" style="stop-color:#40E5DF;stop-opacity:0"/>
			<stop  offset="1" style="stop-color:#42E7E1"/>
		</linearGradient>
		<polygon class="st23" points="251.3,634.9 249.3,631.5 345.3,576.5 347.3,579.9 		"/>
	</g>
	<circle class="st6" cx="348.8" cy="577.7" r="7.5"/>
	
		<radialGradient id="SVGID_22_" cx="1010.1129" cy="548.7205" r="12.6692" gradientTransform="matrix(-2.4074 -5.727077e-04 -3.083811e-04 1.2963 3181.7151 -87.9159)" gradientUnits="userSpaceOnUse">
		<stop  offset="0" style="stop-color:#42E7E1"/>
		<stop  offset="0.7821" style="stop-color:#41E6E0;stop-opacity:0.2"/>
		<stop  offset="1" style="stop-color:#40E5DF;stop-opacity:0"/>
	</radialGradient>
	<ellipse class="st24" cx="749.8" cy="622.8" rx="30.5" ry="16.4"/>
	<g>
		
			<linearGradient id="SVGID_23_" gradientUnits="userSpaceOnUse" x1="1253.6659" y1="651.86" x2="1351.6547" y2="651.86" gradientTransform="matrix(-1 -2.378940e-04 -2.378940e-04 1 2100.1013 0.2712)">
			<stop  offset="0" style="stop-color:#40E5DF;stop-opacity:0"/>
			<stop  offset="1" style="stop-color:#42E7E1"/>
		</linearGradient>
		<polygon class="st25" points="844.3,681.1 748.3,626 750.3,622.6 846.3,677.6 		"/>
	</g>
	<circle class="st6" cx="746.8" cy="623.8" r="7.5"/>
	<linearGradient id="SVGID_24_" gradientUnits="userSpaceOnUse" x1="0" y1="650.2351" x2="63.2705" y2="650.2351">
		<stop  offset="0" style="stop-color:#40E5DF;stop-opacity:0"/>
		<stop  offset="1" style="stop-color:#42E7E1"/>
	</linearGradient>
	<polygon class="st26" points="0,630.5 0,635.1 61.3,670 63.3,666.5 	"/>
</g>
</svg>
