<?xml version="1.0" encoding="utf-8"?>
<!-- Generator: Adobe Illustrator 23.0.3, SVG Export Plug-In . SVG Version: 6.00 Build 0)  -->
<svg version="1.1" id="Layer_1" xmlns="http://www.w3.org/2000/svg" xmlns:xlink="http://www.w3.org/1999/xlink" x="0px" y="0px"
	 viewBox="0 0 218.3 38.9" style="enable-background:new 0 0 218.3 38.9;" xml:space="preserve">
<style type="text/css">
	.st0{fill:#828282;}
</style>
<title>logo</title>
<g>
	<polygon class="st0" points="23.9,15.1 10.4,15.1 10.4,0.6 0,11 0,38.5 10.4,38.5 10.4,24.3 23.9,24.3 23.9,38.5 34.9,38.5 
		34.9,0.6 23.9,0.6 	"/>
	<path class="st0" d="M70.5,5.2c-7.9-6.8-19.5-6.8-27.4,0c-3.9,3.4-5.8,8.1-5.8,14.3c0,6.1,1.9,10.9,5.7,14.3
		c7.8,6.9,19.6,6.8,27.4-0.1c3.9-3.5,5.8-8.2,5.8-14.2C76.3,13.3,74.3,8.5,70.5,5.2z M63.4,26.5c-3.9,3.3-9.6,3.3-13.4-0.1
		c-1.9-1.8-3-4.3-2.8-7c0-3.1,0.9-5.4,2.8-7.1c1.9-1.6,4.3-2.5,6.7-2.4c2.5,0,4.8,0.9,6.7,2.5C67.1,16.3,67.1,22.5,63.4,26.5z"/>
	<path class="st0" d="M91.9,15.1c-1,0-2.1-0.2-3-0.6c-0.8-0.5-1.2-1.3-1.1-2.2c0-0.6,0.2-1.1,0.7-1.4c0.5-0.3,1-0.5,1.5-0.5h13.8
		l9.8-9.7H90.3c-3.1,0-6.2,1.2-8.4,3.4c-2.3,2-3.7,4.9-3.7,8c-0.1,3.3,1.3,6.5,3.6,8.9c2.4,2.4,5.7,3.8,9.2,3.7c1.8,0,2.7,0.7,2.7,2
		c0,0.7-0.2,1.3-0.6,1.8s-1,0.7-1.6,0.7l-13.8-0.1v9.4h14.8c3.1,0,6.1-1.3,8.2-3.6c2.2-2.2,3.4-5.2,3.4-8.3c0.1-3.1-1.2-6.1-3.4-8.2
		C98.3,16.1,95.1,15,91.9,15.1z"/>
	<polygon class="st0" points="140.2,0.7 127.1,0.7 127.1,0.6 127.1,0.7 117,0.7 107.3,10.4 116.7,10.4 116.7,38.5 127.1,38.5 
		127.1,10.4 130.4,10.4 	"/>
	<polygon class="st0" points="133.8,11 133.8,38.5 144.2,38.5 144.2,0.6 	"/>
</g>
<g>
	<polygon class="st0" points="186,0.6 172.7,0.6 157.8,15.7 157.8,0.6 147.4,11 147.4,38.5 157.8,38.5 157.8,29.5 162.7,24.5 
		176.8,38.5 176.8,25.3 169,17.7 	"/>
	<path class="st0" d="M212.6,5.1c-7.8-6.8-19.5-6.8-27.4,0c-3.9,3.4-5.8,8.2-5.8,14.3s1.9,10.9,5.7,14.4c7.8,6.9,19.6,6.8,27.4-0.1
		c3.9-3.5,5.8-8.2,5.8-14.2C218.3,13.3,216.4,8.5,212.6,5.1z M205.4,26.5L205.4,26.5c-3.9,3.3-9.6,3.3-13.4-0.1
		c-3.8-3.9-3.8-10.1-0.1-14c1.9-1.6,4.3-2.5,6.7-2.4c2.5,0,4.8,0.9,6.7,2.5C209.2,16.4,209.2,22.6,205.4,26.5z"/>
</g>
</svg>
