<?xml version="1.0" encoding="utf-8"?>
<!-- Generator: Adobe Illustrator 22.1.0, SVG Export Plug-In . SVG Version: 6.00 Build 0)  -->
<svg version="1.1" id="Layer_1" xmlns="http://www.w3.org/2000/svg" xmlns:xlink="http://www.w3.org/1999/xlink" x="0px" y="0px"
	 viewBox="0 0 1920 1250" style="enable-background:new 0 0 1920 1250;" xml:space="preserve">
<style type="text/css">
	.st0{fill:#080245;}
	.st1{opacity:0.5;fill:url(#SVGID_1_);}
	.st2{opacity:0.15;fill:url(#SVGID_2_);}
	.st3{opacity:0.15;fill:url(#SVGID_3_);}
	.st4{opacity:0.15;fill:url(#SVGID_4_);}
	.st5{opacity:0.15;}
	.st6{fill:url(#SVGID_5_);}
	.st7{fill:url(#SVGID_6_);}
	.st8{fill:url(#SVGID_7_);}
	.st9{fill:url(#SVGID_8_);}
	.st10{fill:url(#SVGID_9_);}
	.st11{opacity:0.9;fill:url(#SVGID_10_);}
	.st12{opacity:0.75;fill:url(#SVGID_11_);}
	.st13{opacity:0.75;fill:url(#SVGID_12_);}
	.st14{opacity:0.5;fill:url(#SVGID_13_);}
	.st15{opacity:0.5;fill:url(#SVGID_14_);}
	.st16{fill:url(#SVGID_15_);}
	.st17{fill:url(#SVGID_16_);}
	.st18{opacity:0.9;fill:url(#SVGID_17_);}
	.st19{opacity:0.75;fill:url(#SVGID_18_);}
	.st20{opacity:0.75;fill:url(#SVGID_19_);}
	.st21{opacity:0.5;fill:url(#SVGID_20_);}
	.st22{opacity:0.5;fill:url(#SVGID_21_);}
	.st23{fill:url(#SVGID_22_);}
	.st24{fill:url(#SVGID_23_);}
	.st25{opacity:0.9;fill:url(#SVGID_24_);}
	.st26{opacity:0.75;fill:url(#SVGID_25_);}
	.st27{opacity:0.75;fill:url(#SVGID_26_);}
	.st28{opacity:0.5;fill:url(#SVGID_27_);}
	.st29{opacity:0.5;fill:url(#SVGID_28_);}
	.st30{fill:url(#SVGID_29_);}
	.st31{fill:url(#SVGID_30_);}
	.st32{fill:#24116A;}
	.st33{fill:#352786;}
	.st34{fill:#3D3292;}
	.st35{fill:#384393;}
	.st36{fill:#BDBEFF;}
	.st37{fill:url(#SVGID_31_);}
	.st38{fill:url(#SVGID_32_);}
	.st39{fill:#666EDB;}
	.st40{fill:url(#SVGID_33_);}
	.st41{fill:#43E8E1;}
	.st42{opacity:0.5;fill:url(#SVGID_34_);}
	.st43{opacity:0.75;fill:url(#SVGID_35_);}
	.st44{opacity:0.5;fill:url(#SVGID_36_);}
	.st45{fill:url(#SVGID_37_);}
	.st46{opacity:0.5;fill:url(#SVGID_38_);}
	.st47{fill:#FFFFFF;}
	.st48{clip-path:url(#SVGID_40_);fill:#586DDA;}
	.st49{clip-path:url(#SVGID_40_);fill:#3F20D3;}
	.st50{clip-path:url(#SVGID_42_);fill:#586DDA;}
	.st51{clip-path:url(#SVGID_42_);fill:#3F20D3;}
	.st52{clip-path:url(#SVGID_44_);fill:#586DDA;}
	.st53{clip-path:url(#SVGID_44_);fill:#3F20D3;}
	.st54{clip-path:url(#SVGID_46_);fill:#586DDA;}
	.st55{clip-path:url(#SVGID_46_);fill:#3F20D3;}
	.st56{fill:#3F20D3;}
	.st57{fill:url(#SVGID_47_);}
	.st58{fill:url(#SVGID_48_);}
	.st59{fill:url(#SVGID_49_);}
	.st60{fill:url(#SVGID_50_);}
	.st61{fill:url(#SVGID_51_);}
	.st62{fill:url(#SVGID_52_);}
</style>
<g>
	<path class="st0" d="M1920,501l-514.2,289.3c-6.1,3.4-13.6,3.4-19.7-0.1l-210.9-120.3c-5.8-3.3-12.9-3.5-18.9-0.5L0,1250V0h1920
		V501z"/>
	<linearGradient id="SVGID_1_" gradientUnits="userSpaceOnUse" x1="512.8284" y1="-121.3255" x2="937.5968" y2="587.6093">
		<stop  offset="0" style="stop-color:#42E7E1"/>
		<stop  offset="1" style="stop-color:#40E5DF;stop-opacity:0"/>
	</linearGradient>
	<path class="st1" d="M1920,501l-514.2,289.3c-6.1,3.4-13.6,3.4-19.7-0.1l-210.9-120.3c-5.8-3.3-12.9-3.5-18.9-0.5L0,1250V0h1920
		V501z"/>
	<g>
		<linearGradient id="SVGID_2_" gradientUnits="userSpaceOnUse" x1="1095.412" y1="524.2811" x2="1700" y2="524.2811">
			<stop  offset="0" style="stop-color:#4348AE"/>
			<stop  offset="1" style="stop-color:#39B3C2"/>
		</linearGradient>
		<polygon class="st2" points="1397,700.1 1700,525.6 1397,348.5 1095.4,526.4 		"/>
		<linearGradient id="SVGID_3_" gradientUnits="userSpaceOnUse" x1="1143.1681" y1="524.2811" x2="1652.2438" y2="524.2811">
			<stop  offset="0" style="stop-color:#4348AE"/>
			<stop  offset="1" style="stop-color:#39B3C2"/>
		</linearGradient>
		<polygon class="st3" points="1397.1,376.3 1652.2,525.4 1397.1,672.3 1143.2,526 		"/>
		<linearGradient id="SVGID_4_" gradientUnits="userSpaceOnUse" x1="1194.3567" y1="524.2811" x2="1601.0552" y2="524.2811">
			<stop  offset="0" style="stop-color:#4348AE"/>
			<stop  offset="1" style="stop-color:#39B3C2"/>
		</linearGradient>
		<polygon class="st4" points="1397.2,406 1601.1,525.2 1397.2,642.5 1194.4,525.7 		"/>
		<g class="st5">
			<linearGradient id="SVGID_5_" gradientUnits="userSpaceOnUse" x1="1259.9674" y1="531.1043" x2="1534" y2="531.1043">
				<stop  offset="0" style="stop-color:#4348AE"/>
				<stop  offset="1" style="stop-color:#39B3C2"/>
			</linearGradient>
			<path class="st6" d="M1418.8,458.1l-57.7,8.5c-0.2,0-0.5,0.1-0.7,0.2l-99.5,56.7c-0.9,0.5-0.9,1.3-1,1.6c0,0.3,0.1,1.1,0.9,1.6
				l131.3,76.2c2.5,1.5,5.6,1.5,8.1,0l132.7-76.3c0.9-0.5,0.9-1.3,0.9-1.6c0-0.3-0.1-1.1-0.9-1.6l-113-65.2
				c-0.3-0.2-0.6-0.3-0.9-0.3C1419,458.1,1418.9,458.1,1418.8,458.1z"/>
		</g>
		<g>
			
				<linearGradient id="SVGID_6_" gradientUnits="userSpaceOnUse" x1="1332.3623" y1="531.1035" x2="1610.2289" y2="531.1035" gradientTransform="matrix(-1 0 0 1 2868.2793 0)">
				<stop  offset="0" style="stop-color:#5465D7"/>
				<stop  offset="1" style="stop-color:#43E1E0"/>
			</linearGradient>
			<path class="st7" d="M1390.1,605.5l-128.9-74.8c-1.9-1.1-3.1-3.1-3.1-5.4c0-2.2,1.2-4.3,3.1-5.4l97.8-55.7
				c0.7-0.4,1.4-0.6,2.2-0.7l56.7-8.4c1.4-0.2,2.8,0.1,4,0.8l111,64c1.9,1.1,3.1,3.1,3.1,5.4c0,2.2-1.2,4.3-3.1,5.4l-130.4,74.9
				c-1.9,1.1-4,1.6-6.2,1.6C1394.1,607.2,1392,606.6,1390.1,605.5z M1418.4,459.4l-56.7,8.4c-0.2,0-0.4,0.1-0.6,0.2l-97.8,55.7
				c-0.8,0.5-0.9,1.3-0.9,1.6c0,0.3,0.1,1.1,0.9,1.6l128.9,74.8c2.5,1.4,5.5,1.4,8,0l130.4-74.9c0.8-0.5,0.9-1.3,0.9-1.6
				c0-0.3-0.1-1.1-0.9-1.6l-111-64c-0.3-0.2-0.6-0.2-0.9-0.2C1418.6,459.4,1418.5,459.4,1418.4,459.4z"/>
		</g>
		<g>
			
				<linearGradient id="SVGID_7_" gradientUnits="userSpaceOnUse" x1="1566.3706" y1="469.8605" x2="1754.6115" y2="469.8605" gradientTransform="matrix(-1 0 0 1 2868.2793 0)">
				<stop  offset="0" style="stop-color:#5465D7"/>
				<stop  offset="1" style="stop-color:#43E1E0"/>
			</linearGradient>
			<path class="st8" d="M1208.6,506.7c1.3,0,2.6-0.3,3.7-1l89.6-52.2l-2.2-3.8l-89.6,52.2c-0.9,0.5-2.1,0.5-3,0l-87.8-50.4
				l24.4-14.8l-2.3-3.7l-26.3,15.9c-0.9,0.6-1.5,1.6-1.5,2.6c0,1.1,0.6,2.1,1.5,2.6l89.8,51.5
				C1206.1,506.4,1207.4,506.7,1208.6,506.7z"/>
		</g>
		
			<linearGradient id="SVGID_8_" gradientUnits="userSpaceOnUse" x1="1575.5201" y1="447.2974" x2="1743.7662" y2="447.2974" gradientTransform="matrix(-1 0 0 1 2868.2793 0)">
			<stop  offset="0" style="stop-color:#4348AE"/>
			<stop  offset="1" style="stop-color:#39B3C2"/>
		</linearGradient>
		<polygon class="st9" points="1292.8,414.8 1292.8,432.2 1208.6,479.8 1124.5,432.2 1124.5,414.8 1208.6,462.3 		"/>
		
			<linearGradient id="SVGID_9_" gradientUnits="userSpaceOnUse" x1="1575.5201" y1="414.826" x2="1743.7662" y2="414.826" gradientTransform="matrix(-1 0 0 1 2868.2793 0)">
			<stop  offset="0" style="stop-color:#39B3C2"/>
			<stop  offset="1" style="stop-color:#CAC8F9"/>
		</linearGradient>
		<path class="st10" d="M1124.5,414.8l84.1,47.5l84.1-47.5l-84.1-47.5L1124.5,414.8z M1208.6,453.2l-67.9-38.3l67.9-38.3l67.9,38.3
			L1208.6,453.2z"/>
		
			<linearGradient id="SVGID_10_" gradientUnits="userSpaceOnUse" x1="1703.1909" y1="414.6929" x2="1630.5206" y2="414.6929" gradientTransform="matrix(-1 0 0 1 2868.2793 0)">
			<stop  offset="0" style="stop-color:#4348AE"/>
			<stop  offset="9.030807e-02" style="stop-color:#415DB2"/>
			<stop  offset="0.2468" style="stop-color:#3E7CB8"/>
			<stop  offset="0.411" style="stop-color:#3C94BC"/>
			<stop  offset="0.5839" style="stop-color:#3AA6BF"/>
			<stop  offset="0.7714" style="stop-color:#39B0C1"/>
			<stop  offset="1" style="stop-color:#39B3C2"/>
		</linearGradient>
		<polygon class="st11" points="1260.1,414.4 1208.6,443.5 1157.2,414.4 1208.6,385.9 		"/>
		
			<linearGradient id="SVGID_11_" gradientUnits="userSpaceOnUse" x1="1696.2959" y1="378.6791" x2="1632.3331" y2="378.6791" gradientTransform="matrix(-1 0 0 1 2868.2793 0)">
			<stop  offset="0" style="stop-color:#4348AE"/>
			<stop  offset="1" style="stop-color:#39B3C2"/>
		</linearGradient>
		<polygon class="st12" points="1208.6,343 1260.1,372 1260.1,414.4 1208.6,385.9 		"/>
		
			<linearGradient id="SVGID_12_" gradientUnits="userSpaceOnUse" x1="1659.6432" y1="378.6791" x2="1711.1055" y2="378.6791" gradientTransform="matrix(-1 0 0 1 2868.2793 0)">
			<stop  offset="0" style="stop-color:#39B3C2"/>
			<stop  offset="1" style="stop-color:#4348AE"/>
		</linearGradient>
		<polygon class="st13" points="1208.6,385.9 1157.2,414.4 1157.2,372 1208.6,343 		"/>
		
			<linearGradient id="SVGID_13_" gradientUnits="userSpaceOnUse" x1="1608.1809" y1="407.7493" x2="1659.6432" y2="407.7493" gradientTransform="matrix(-1 0 0 1 2868.2793 0)">
			<stop  offset="0" style="stop-color:#39B3C2"/>
			<stop  offset="1" style="stop-color:#4348AE"/>
		</linearGradient>
		<polygon class="st14" points="1208.6,401.1 1260.1,372 1260.1,414.4 1208.6,443.5 		"/>
		
			<linearGradient id="SVGID_14_" gradientUnits="userSpaceOnUse" x1="1659.6432" y1="407.7493" x2="1711.1055" y2="407.7493" gradientTransform="matrix(-1 0 0 1 2868.2793 0)">
			<stop  offset="0" style="stop-color:#39B3C2"/>
			<stop  offset="1" style="stop-color:#4348AE"/>
		</linearGradient>
		<polygon class="st15" points="1208.6,443.5 1157.2,414.4 1157.2,372 1208.6,401.1 		"/>
		
			<linearGradient id="SVGID_15_" gradientUnits="userSpaceOnUse" x1="1208.9932" y1="433.5043" x2="1377.2393" y2="433.5043" gradientTransform="matrix(-1 0 0 1 2868.2793 0)">
			<stop  offset="0" style="stop-color:#4348AE"/>
			<stop  offset="1" style="stop-color:#39B3C2"/>
		</linearGradient>
		<polygon class="st16" points="1659.3,401 1659.3,418.5 1575.2,466 1491,418.5 1491,401 1575.2,448.6 		"/>
		
			<linearGradient id="SVGID_16_" gradientUnits="userSpaceOnUse" x1="1208.9932" y1="401.0331" x2="1377.2393" y2="401.0331" gradientTransform="matrix(-1 0 0 1 2868.2793 0)">
			<stop  offset="0" style="stop-color:#39B3C2"/>
			<stop  offset="1" style="stop-color:#CAC8F9"/>
		</linearGradient>
		<path class="st17" d="M1491,401l84.1,47.5l84.1-47.5l-84.1-47.5L1491,401z M1575.2,439.4l-67.9-38.3l67.9-38.3l67.9,38.3
			L1575.2,439.4z"/>
		
			<linearGradient id="SVGID_17_" gradientUnits="userSpaceOnUse" x1="1336.6639" y1="400.8999" x2="1263.9937" y2="400.8999" gradientTransform="matrix(-1 0 0 1 2868.2793 0)">
			<stop  offset="0" style="stop-color:#4348AE"/>
			<stop  offset="9.030807e-02" style="stop-color:#415DB2"/>
			<stop  offset="0.2468" style="stop-color:#3E7CB8"/>
			<stop  offset="0.411" style="stop-color:#3C94BC"/>
			<stop  offset="0.5839" style="stop-color:#3AA6BF"/>
			<stop  offset="0.7714" style="stop-color:#39B0C1"/>
			<stop  offset="1" style="stop-color:#39B3C2"/>
		</linearGradient>
		<polygon class="st18" points="1626.6,400.6 1575.2,429.7 1523.7,400.6 1575.2,372.1 		"/>
		
			<linearGradient id="SVGID_18_" gradientUnits="userSpaceOnUse" x1="1329.7689" y1="364.886" x2="1265.8062" y2="364.886" gradientTransform="matrix(-1 0 0 1 2868.2793 0)">
			<stop  offset="0" style="stop-color:#4348AE"/>
			<stop  offset="1" style="stop-color:#39B3C2"/>
		</linearGradient>
		<polygon class="st19" points="1575.2,329.2 1626.6,358.2 1626.6,400.6 1575.2,372.1 		"/>
		
			<linearGradient id="SVGID_19_" gradientUnits="userSpaceOnUse" x1="1293.1162" y1="364.886" x2="1344.5785" y2="364.886" gradientTransform="matrix(-1 0 0 1 2868.2793 0)">
			<stop  offset="0" style="stop-color:#39B3C2"/>
			<stop  offset="1" style="stop-color:#4348AE"/>
		</linearGradient>
		<polygon class="st20" points="1575.2,372.1 1523.7,400.6 1523.7,358.2 1575.2,329.2 		"/>
		
			<linearGradient id="SVGID_20_" gradientUnits="userSpaceOnUse" x1="1241.6539" y1="393.9563" x2="1293.1162" y2="393.9563" gradientTransform="matrix(-1 0 0 1 2868.2793 0)">
			<stop  offset="0" style="stop-color:#39B3C2"/>
			<stop  offset="1" style="stop-color:#4348AE"/>
		</linearGradient>
		<polygon class="st21" points="1575.2,387.3 1626.6,358.2 1626.6,400.6 1575.2,429.7 		"/>
		
			<linearGradient id="SVGID_21_" gradientUnits="userSpaceOnUse" x1="1293.1162" y1="393.9563" x2="1344.5785" y2="393.9563" gradientTransform="matrix(-1 0 0 1 2868.2793 0)">
			<stop  offset="0" style="stop-color:#39B3C2"/>
			<stop  offset="1" style="stop-color:#4348AE"/>
		</linearGradient>
		<polygon class="st22" points="1575.2,429.7 1523.7,400.6 1523.7,358.2 1575.2,387.3 		"/>
		
			<linearGradient id="SVGID_22_" gradientUnits="userSpaceOnUse" x1="1224.2349" y1="650.5629" x2="1392.481" y2="650.5629" gradientTransform="matrix(-1 0 0 1 2868.2793 0)">
			<stop  offset="0" style="stop-color:#4348AE"/>
			<stop  offset="1" style="stop-color:#39B3C2"/>
		</linearGradient>
		<polygon class="st23" points="1644,618.1 1644,635.5 1559.9,683 1475.8,635.5 1475.8,618.1 1559.9,665.6 		"/>
		
			<linearGradient id="SVGID_23_" gradientUnits="userSpaceOnUse" x1="1224.2349" y1="618.0917" x2="1392.481" y2="618.0917" gradientTransform="matrix(-1 0 0 1 2868.2793 0)">
			<stop  offset="0" style="stop-color:#39B3C2"/>
			<stop  offset="1" style="stop-color:#CAC8F9"/>
		</linearGradient>
		<path class="st24" d="M1475.8,618.1l84.1,47.5l84.1-47.5l-84.1-47.5L1475.8,618.1z M1559.9,656.4l-67.9-38.3l67.9-38.3l67.9,38.3
			L1559.9,656.4z"/>
		
			<linearGradient id="SVGID_24_" gradientUnits="userSpaceOnUse" x1="1351.9056" y1="617.9585" x2="1279.2355" y2="617.9585" gradientTransform="matrix(-1 0 0 1 2868.2793 0)">
			<stop  offset="0" style="stop-color:#4348AE"/>
			<stop  offset="9.030807e-02" style="stop-color:#415DB2"/>
			<stop  offset="0.2468" style="stop-color:#3E7CB8"/>
			<stop  offset="0.411" style="stop-color:#3C94BC"/>
			<stop  offset="0.5839" style="stop-color:#3AA6BF"/>
			<stop  offset="0.7714" style="stop-color:#39B0C1"/>
			<stop  offset="1" style="stop-color:#39B3C2"/>
		</linearGradient>
		<polygon class="st25" points="1611.4,617.7 1559.9,646.7 1508.5,617.7 1559.9,589.2 		"/>
		
			<linearGradient id="SVGID_25_" gradientUnits="userSpaceOnUse" x1="1345.0106" y1="543.1064" x2="1281.0479" y2="543.1064" gradientTransform="matrix(-1 0 0 1 2868.2793 0)">
			<stop  offset="0" style="stop-color:#4348AE"/>
			<stop  offset="1" style="stop-color:#39B3C2"/>
		</linearGradient>
		<polygon class="st26" points="1559.9,468.5 1611.4,497.6 1611.4,617.7 1559.9,589.2 		"/>
		
			<linearGradient id="SVGID_26_" gradientUnits="userSpaceOnUse" x1="1308.3579" y1="543.1064" x2="1359.8202" y2="543.1064" gradientTransform="matrix(-1 0 0 1 2868.2793 0)">
			<stop  offset="0" style="stop-color:#39B3C2"/>
			<stop  offset="1" style="stop-color:#4348AE"/>
		</linearGradient>
		<polygon class="st27" points="1559.9,589.2 1508.5,617.7 1508.5,497.6 1559.9,468.5 		"/>
		
			<linearGradient id="SVGID_27_" gradientUnits="userSpaceOnUse" x1="1256.8958" y1="572.1766" x2="1308.3579" y2="572.1766" gradientTransform="matrix(-1 0 0 1 2868.2793 0)">
			<stop  offset="0" style="stop-color:#39B3C2"/>
			<stop  offset="1" style="stop-color:#4348AE"/>
		</linearGradient>
		<polygon class="st28" points="1559.9,526.7 1611.4,497.6 1611.4,617.7 1559.9,646.7 		"/>
		
			<linearGradient id="SVGID_28_" gradientUnits="userSpaceOnUse" x1="1308.3579" y1="572.1766" x2="1359.8202" y2="572.1766" gradientTransform="matrix(-1 0 0 1 2868.2793 0)">
			<stop  offset="0" style="stop-color:#39B3C2"/>
			<stop  offset="1" style="stop-color:#4348AE"/>
		</linearGradient>
		<polygon class="st29" points="1559.9,646.7 1508.5,617.7 1508.5,497.6 1559.9,526.7 		"/>
		
			<linearGradient id="SVGID_29_" gradientUnits="userSpaceOnUse" x1="1256.8958" y1="497.6165" x2="1359.8202" y2="497.6165" gradientTransform="matrix(-1 0 0 1 2868.2793 0)">
			<stop  offset="0" style="stop-color:#42E7E1;stop-opacity:0.9"/>
			<stop  offset="1" style="stop-color:#40E5DF;stop-opacity:0.5"/>
		</linearGradient>
		<path class="st30" d="M1508.5,497.6l51.5,29.1l51.5-29.1l-51.5-29.1L1508.5,497.6z M1559.9,515l-30.8-17.4l30.8-17.4l30.8,17.4
			L1559.9,515z"/>
		
			<linearGradient id="SVGID_30_" gradientUnits="userSpaceOnUse" x1="1532.6289" y1="494.4261" x2="1532.6289" y2="228.6754" gradientTransform="matrix(-1 0 0 1 2868.2793 0)">
			<stop  offset="0" style="stop-color:#C0C0F6"/>
			<stop  offset="1" style="stop-color:#E7E8FD"/>
		</linearGradient>
		<polygon class="st31" points="1274,476.3 1397.3,546.7 1397.3,272.3 1274,201.9 		"/>
		<polygon class="st32" points="1520.7,476.3 1397.3,546.7 1397.3,272.3 1520.7,201.9 		"/>
		<polygon class="st33" points="1520.7,432.7 1397.3,357.9 1397.3,272.3 1520.7,201.9 		"/>
		<polygon class="st33" points="1511.3,467.2 1511.3,221.7 1406.8,281.4 1406.8,526.8 		"/>
		<polygon class="st34" points="1511.3,221.7 1511.3,427 1406.8,363.7 1406.8,281.4 		"/>
		<polygon class="st35" points="1292.4,278.1 1378.9,327.5 1378.9,320.2 1292.4,270.8 		"/>
		<polygon class="st35" points="1292.4,308.1 1378.9,357.5 1378.9,350.3 1292.4,300.9 		"/>
		<polygon class="st35" points="1292.4,338.2 1378.9,387.6 1378.9,380.3 1292.4,330.9 		"/>
		<polygon class="st35" points="1292.4,368.3 1378.9,417.6 1378.9,410.4 1292.4,361 		"/>
		<polygon class="st35" points="1292.4,398.3 1378.9,447.7 1378.9,440.4 1292.4,391.1 		"/>
		<polygon class="st35" points="1292.4,428.4 1378.9,477.7 1378.9,470.5 1292.4,421.1 		"/>
		<polygon class="st36" points="1397.3,130 1520.7,201.9 1397.3,272.3 1274,201.9 		"/>
		
			<linearGradient id="SVGID_31_" gradientUnits="userSpaceOnUse" x1="1347.5509" y1="198.9651" x2="1470.9363" y2="198.9651" gradientTransform="matrix(-1 0 0 1 2868.2793 0)">
			<stop  offset="0" style="stop-color:#FFFFFF;stop-opacity:0"/>
			<stop  offset="5.817641e-03" style="stop-color:#FCFCFE;stop-opacity:8.045673e-03"/>
			<stop  offset="7.999019e-02" style="stop-color:#D4D6F5;stop-opacity:0.1106"/>
			<stop  offset="0.1592" style="stop-color:#B2B6ED;stop-opacity:0.2201"/>
			<stop  offset="0.2431" style="stop-color:#969CE6;stop-opacity:0.3361"/>
			<stop  offset="0.3333" style="stop-color:#8187E1;stop-opacity:0.4609"/>
			<stop  offset="0.433" style="stop-color:#7279DE;stop-opacity:0.5988"/>
			<stop  offset="0.5494" style="stop-color:#6971DC;stop-opacity:0.7599"/>
			<stop  offset="0.7231" style="stop-color:#666EDB"/>
		</linearGradient>
		<polygon class="st37" points="1397.3,144.5 1422.3,144.5 1520.7,201.9 1430.4,253.4 1397.3,253.4 1486.7,202.4 1486.7,196.6 		"/>
		
			<linearGradient id="SVGID_32_" gradientUnits="userSpaceOnUse" x1="1381.5448" y1="196.0613" x2="1560.3276" y2="196.0613" gradientTransform="matrix(-1 0 0 1 2868.2793 0)">
			<stop  offset="0" style="stop-color:#C1C1F5;stop-opacity:0.8"/>
			<stop  offset="0.1091" style="stop-color:#CBCBF8;stop-opacity:0.7891"/>
			<stop  offset="0.3364" style="stop-color:#DADAFB;stop-opacity:0.7664"/>
			<stop  offset="0.6027" style="stop-color:#E3E3FD;stop-opacity:0.7397"/>
			<stop  offset="1" style="stop-color:#E6E6FE;stop-opacity:0.7"/>
		</linearGradient>
		<polygon class="st38" points="1308,196.6 1397.3,144.5 1486.7,196.6 1397.3,247.6 		"/>
		<polygon class="st39" points="1397.3,247.6 1486.7,196.6 1486.7,202.4 1397.3,253.4 		"/>
		
			<linearGradient id="SVGID_33_" gradientUnits="userSpaceOnUse" x1="1470.9363" y1="224.9993" x2="1560.3276" y2="224.9993" gradientTransform="matrix(-1 0 0 1 2868.2793 0)">
			<stop  offset="0" style="stop-color:#CCCEF7"/>
			<stop  offset="1" style="stop-color:#CECDF7"/>
		</linearGradient>
		<polygon class="st40" points="1397.3,253.4 1308,202.4 1308,196.6 1397.3,247.6 		"/>
		<polygon class="st41" points="1464.1,337.8 1456.9,342 1456.9,337.2 1464.1,333.1 		"/>
		<polygon class="st41" points="1464.1,377 1456.9,381.2 1456.9,370.6 1464.1,366.4 		"/>
		<polygon class="st41" points="1464.1,390.1 1456.9,394.2 1456.9,383.7 1464.1,379.5 		"/>
		<polygon class="st41" points="1464.1,403.2 1456.9,407.3 1456.9,396.7 1464.1,392.6 		"/>
		<polygon class="st41" points="1464.1,364 1456.9,368.1 1456.9,344.5 1464.1,340.3 		"/>
		<polygon class="st41" points="1472.8,332.7 1465.6,336.9 1465.6,332.1 1472.8,328 		"/>
		<polygon class="st41" points="1472.8,345.1 1465.6,349.2 1465.6,339.4 1472.8,335.2 		"/>
		<polygon class="st41" points="1472.8,361.8 1465.6,365.9 1465.6,351.7 1472.8,347.6 		"/>
		<polygon class="st41" points="1472.8,378.5 1465.6,382.6 1465.6,368.4 1472.8,364.3 		"/>
		
			<linearGradient id="SVGID_34_" gradientUnits="userSpaceOnUse" x1="1401.2598" y1="469.5039" x2="1453.5171" y2="469.5039" gradientTransform="matrix(-1 0 0 1 2868.2793 0)">
			<stop  offset="0" style="stop-color:#39B3C2"/>
			<stop  offset="1" style="stop-color:#4348AE"/>
		</linearGradient>
		<polygon class="st42" points="1414.8,522.3 1414.8,445.8 1467,416.7 1467,492.4 		"/>
		
			<linearGradient id="SVGID_35_" gradientUnits="userSpaceOnUse" x1="1401.2598" y1="416.7497" x2="1461.5009" y2="416.7497" gradientTransform="matrix(-1 0 0 1 2868.2793 0)">
			<stop  offset="0" style="stop-color:#39B3C2"/>
			<stop  offset="1" style="stop-color:#4348AE"/>
		</linearGradient>
		<polygon class="st43" points="1406.8,392.1 1414.8,387.7 1467,416.7 1414.8,445.8 1406.8,441.4 		"/>
		
			<linearGradient id="SVGID_36_" gradientUnits="userSpaceOnUse" x1="1453.5171" y1="482.3661" x2="1461.5009" y2="482.3661" gradientTransform="matrix(-1 0 0 1 2868.2793 0)">
			<stop  offset="0" style="stop-color:#39B3C2"/>
			<stop  offset="1" style="stop-color:#4348AE"/>
		</linearGradient>
		<path class="st44" d="M1414.8,445.8v76.5l-2,1.1c-1.2-1.4-3-2-5-1.7c-0.3,0.1-0.7,0.2-1,0.3v-80.7L1414.8,445.8z"/>
		
			<linearGradient id="SVGID_37_" gradientUnits="userSpaceOnUse" x1="1433.9207" y1="417.3622" x2="1461.5009" y2="417.3622" gradientTransform="matrix(-1 0 0 1 2868.2793 0)">
			<stop  offset="0" style="stop-color:#39B3C2"/>
			<stop  offset="1" style="stop-color:#4348AE"/>
		</linearGradient>
		<path class="st45" d="M1406.8,407.2c2.8-1.3,6.2-2,9.8-2c9.8,0,17.8,5.5,17.8,12.2s-8,12.2-17.8,12.2c-3.6,0-7-0.7-9.8-2V407.2z"
			/>
		
			<linearGradient id="SVGID_38_" gradientUnits="userSpaceOnUse" x1="1453.5171" y1="388.9217" x2="1453.5171" y2="275.5974" gradientTransform="matrix(-1 0 0 1 2868.2793 0)">
			<stop  offset="0" style="stop-color:#4348AE"/>
			<stop  offset="1" style="stop-color:#39B3C2"/>
		</linearGradient>
		<path class="st46" d="M1414.3,283.1c0.1-2.1-0.6-3.7-1.7-4.5v-0.5l4.4-2.5v113.3l-2.2-1.2l-2.2,1.2V288.4
			C1413.6,286.9,1414.3,285,1414.3,283.1z"/>
		<g>
			
				<ellipse transform="matrix(0.3159 -0.9488 0.9488 0.3159 694.3868 1531.1101)" class="st47" cx="1408.9" cy="284" rx="7.4" ry="6"/>
			<g>
				<defs>
					
						<ellipse id="SVGID_39_" transform="matrix(0.3159 -0.9488 0.9488 0.3159 694.3868 1531.1101)" cx="1408.9" cy="284" rx="7.4" ry="6"/>
				</defs>
				<clipPath id="SVGID_40_">
					<use xlink:href="#SVGID_39_"  style="overflow:visible;"/>
				</clipPath>
				
					<ellipse transform="matrix(0.316 -0.9487 0.9487 0.316 694.8105 1532.9226)" class="st48" cx="1410.6" cy="284.6" rx="6.8" ry="4.4"/>
				
					<ellipse transform="matrix(0.316 -0.9487 0.9487 0.316 694.8251 1533.3667)" class="st49" cx="1410.9" cy="284.8" rx="3.9" ry="2.6"/>
			</g>
		</g>
		<g>
			
				<ellipse transform="matrix(0.3159 -0.9488 0.9488 0.3159 823.6852 1584.6677)" class="st47" cx="1510.7" cy="221.1" rx="7.4" ry="6"/>
			<g>
				<defs>
					
						<ellipse id="SVGID_41_" transform="matrix(0.3159 -0.9488 0.9488 0.3159 823.6852 1584.6677)" cx="1510.7" cy="221.1" rx="7.4" ry="6"/>
				</defs>
				<clipPath id="SVGID_42_">
					<use xlink:href="#SVGID_41_"  style="overflow:visible;"/>
				</clipPath>
				
					<ellipse transform="matrix(0.316 -0.9487 0.9487 0.316 824.0895 1586.4847)" class="st50" cx="1512.4" cy="221.7" rx="6.8" ry="4.4"/>
				
					<ellipse transform="matrix(0.316 -0.9487 0.9487 0.316 824.105 1586.9287)" class="st51" cx="1512.7" cy="221.9" rx="3.9" ry="2.6"/>
			</g>
		</g>
		<g>
			
				<ellipse transform="matrix(0.3159 -0.9488 0.9488 0.3159 462.9214 1698.2604)" class="st47" cx="1409.1" cy="528.1" rx="7.6" ry="6.3"/>
			<g>
				<defs>
					
						<ellipse id="SVGID_43_" transform="matrix(0.3159 -0.9488 0.9488 0.3159 462.9214 1698.2604)" cx="1409.1" cy="528.1" rx="7.6" ry="6.3"/>
				</defs>
				<clipPath id="SVGID_44_">
					<use xlink:href="#SVGID_43_"  style="overflow:visible;"/>
				</clipPath>
				
					<ellipse transform="matrix(0.316 -0.9487 0.9487 0.316 463.3803 1700.1023)" class="st52" cx="1410.8" cy="528.7" rx="7" ry="4.6"/>
				
					<ellipse transform="matrix(0.316 -0.9487 0.9487 0.316 463.3945 1700.5636)" class="st53" cx="1411.2" cy="528.9" rx="4.1" ry="2.7"/>
			</g>
		</g>
		<g>
			
				<ellipse transform="matrix(0.3159 -0.9488 0.9488 0.3159 591.7233 1751.1293)" class="st47" cx="1510.2" cy="465.2" rx="7.6" ry="6.3"/>
			<g>
				<defs>
					
						<ellipse id="SVGID_45_" transform="matrix(0.3159 -0.9488 0.9488 0.3159 591.7233 1751.1293)" cx="1510.2" cy="465.2" rx="7.6" ry="6.3"/>
				</defs>
				<clipPath id="SVGID_46_">
					<use xlink:href="#SVGID_45_"  style="overflow:visible;"/>
				</clipPath>
				
					<ellipse transform="matrix(0.316 -0.9487 0.9487 0.316 592.1628 1752.9758)" class="st54" cx="1511.9" cy="465.8" rx="7" ry="4.6"/>
				
					<ellipse transform="matrix(0.316 -0.9487 0.9487 0.316 592.1779 1753.437)" class="st55" cx="1512.2" cy="466" rx="4.1" ry="2.7"/>
			</g>
		</g>
		<g>
			<polygon class="st56" points="1392.9,174 1398.8,170.6 1438,193.4 1432,196.8 			"/>
			
				<linearGradient id="SVGID_47_" gradientUnits="userSpaceOnUse" x1="1425.7466" y1="198.5198" x2="1477.0383" y2="169.7287" gradientTransform="matrix(-1 0 0 1 2868.2793 0)">
				<stop  offset="0" style="stop-color:#FFFFFF;stop-opacity:0"/>
				<stop  offset="5.817641e-03" style="stop-color:#FCFCFE;stop-opacity:8.045673e-03"/>
				<stop  offset="7.999019e-02" style="stop-color:#D4D6F5;stop-opacity:0.1106"/>
				<stop  offset="0.1592" style="stop-color:#B2B6ED;stop-opacity:0.2201"/>
				<stop  offset="0.2431" style="stop-color:#969CE6;stop-opacity:0.3361"/>
				<stop  offset="0.3333" style="stop-color:#8187E1;stop-opacity:0.4609"/>
				<stop  offset="0.433" style="stop-color:#7279DE;stop-opacity:0.5988"/>
				<stop  offset="0.5494" style="stop-color:#6971DC;stop-opacity:0.7599"/>
				<stop  offset="0.7231" style="stop-color:#666EDB"/>
			</linearGradient>
			<polygon class="st57" points="1398.8,172.7 1394.7,175.1 1392.9,174 1398.8,170.6 1438,193.4 1436.1,194.5 			"/>
		</g>
		<g>
			<polygon class="st56" points="1379.8,181.3 1385.7,177.8 1424.9,200.6 1418.9,204.1 			"/>
			
				<linearGradient id="SVGID_48_" gradientUnits="userSpaceOnUse" x1="1438.8109" y1="205.7793" x2="1490.1027" y2="176.9882" gradientTransform="matrix(-1 0 0 1 2868.2793 0)">
				<stop  offset="0" style="stop-color:#FFFFFF;stop-opacity:0"/>
				<stop  offset="5.817641e-03" style="stop-color:#FCFCFE;stop-opacity:8.045673e-03"/>
				<stop  offset="7.999019e-02" style="stop-color:#D4D6F5;stop-opacity:0.1106"/>
				<stop  offset="0.1592" style="stop-color:#B2B6ED;stop-opacity:0.2201"/>
				<stop  offset="0.2431" style="stop-color:#969CE6;stop-opacity:0.3361"/>
				<stop  offset="0.3333" style="stop-color:#8187E1;stop-opacity:0.4609"/>
				<stop  offset="0.433" style="stop-color:#7279DE;stop-opacity:0.5988"/>
				<stop  offset="0.5494" style="stop-color:#6971DC;stop-opacity:0.7599"/>
				<stop  offset="0.7231" style="stop-color:#666EDB"/>
			</linearGradient>
			<polygon class="st58" points="1385.7,180 1381.7,182.4 1379.8,181.3 1385.7,177.8 1424.9,200.6 1423,201.7 			"/>
		</g>
		<g>
			<polygon class="st56" points="1366.7,188.5 1372.7,185.1 1411.9,207.9 1405.9,211.3 			"/>
			
				<linearGradient id="SVGID_49_" gradientUnits="userSpaceOnUse" x1="1451.8752" y1="213.0388" x2="1503.167" y2="184.2477" gradientTransform="matrix(-1 0 0 1 2868.2793 0)">
				<stop  offset="0" style="stop-color:#FFFFFF;stop-opacity:0"/>
				<stop  offset="5.817641e-03" style="stop-color:#FCFCFE;stop-opacity:8.045673e-03"/>
				<stop  offset="7.999019e-02" style="stop-color:#D4D6F5;stop-opacity:0.1106"/>
				<stop  offset="0.1592" style="stop-color:#B2B6ED;stop-opacity:0.2201"/>
				<stop  offset="0.2431" style="stop-color:#969CE6;stop-opacity:0.3361"/>
				<stop  offset="0.3333" style="stop-color:#8187E1;stop-opacity:0.4609"/>
				<stop  offset="0.433" style="stop-color:#7279DE;stop-opacity:0.5988"/>
				<stop  offset="0.5494" style="stop-color:#6971DC;stop-opacity:0.7599"/>
				<stop  offset="0.7231" style="stop-color:#666EDB"/>
			</linearGradient>
			<polygon class="st59" points="1372.7,187.3 1368.6,189.6 1366.7,188.5 1372.7,185.1 1411.9,207.9 1410,209 			"/>
		</g>
		<g>
			<polygon class="st56" points="1353.7,195.8 1359.6,192.3 1398.8,215.2 1392.8,218.6 			"/>
			
				<linearGradient id="SVGID_50_" gradientUnits="userSpaceOnUse" x1="1464.9396" y1="220.2983" x2="1516.2313" y2="191.5072" gradientTransform="matrix(-1 0 0 1 2868.2793 0)">
				<stop  offset="0" style="stop-color:#FFFFFF;stop-opacity:0"/>
				<stop  offset="5.817641e-03" style="stop-color:#FCFCFE;stop-opacity:8.045673e-03"/>
				<stop  offset="7.999019e-02" style="stop-color:#D4D6F5;stop-opacity:0.1106"/>
				<stop  offset="0.1592" style="stop-color:#B2B6ED;stop-opacity:0.2201"/>
				<stop  offset="0.2431" style="stop-color:#969CE6;stop-opacity:0.3361"/>
				<stop  offset="0.3333" style="stop-color:#8187E1;stop-opacity:0.4609"/>
				<stop  offset="0.433" style="stop-color:#7279DE;stop-opacity:0.5988"/>
				<stop  offset="0.5494" style="stop-color:#6971DC;stop-opacity:0.7599"/>
				<stop  offset="0.7231" style="stop-color:#666EDB"/>
			</linearGradient>
			<polygon class="st60" points="1359.6,194.5 1355.5,196.9 1353.7,195.8 1359.6,192.3 1398.8,215.2 1396.9,216.2 			"/>
		</g>
		<linearGradient id="SVGID_51_" gradientUnits="userSpaceOnUse" x1="1064" y1="604.245" x2="1529.1022" y2="604.245">
			<stop  offset="0" style="stop-color:#43E1E0"/>
			<stop  offset="1" style="stop-color:#5465D7"/>
		</linearGradient>
		<path class="st61" d="M1389,728.1c2.1,1.2,4.6,1.9,7,1.9c2.4,0,4.8-0.6,6.9-1.8l116.7-66.8v-17.1l9.6-5.2l-4.5-2.5l-9.5,5.1v17.2
			l-114.5,65.6c-2.9,1.7-6.6,1.7-9.5,0l-170.5-98.5c-0.8-0.4-0.8-1.2-0.8-1.5c0-0.3,0.1-1,0.8-1.5l100.2-57.6l-4.3-2.5l-98.1,56.3
			c-1.5,0.8-2.5,2.2-2.9,3.8l-147-85.9c-0.2-0.1-0.3-0.3-0.3-0.5c0-0.1,0-0.4,0.3-0.5l93.2-55.1l-4.3-2.5l-91.1,53.8
			c-1.5,0.9-2.4,2.5-2.4,4.2c0,1.8,0.9,3.4,2.4,4.3L1389,728.1z"/>
		<polygon class="st35" points="1559.9,480.2 1590.7,497.6 1588.8,498.7 1559.9,482.4 1531,498.7 1529.1,497.6 		"/>
		
			<linearGradient id="SVGID_52_" gradientUnits="userSpaceOnUse" x1="1308.3579" y1="499.5078" x2="1308.3579" y2="159.7639" gradientTransform="matrix(-1 0 0 1 2868.2793 0)">
			<stop  offset="0" style="stop-color:#43E1E0"/>
			<stop  offset="1" style="stop-color:#5465D7;stop-opacity:0"/>
		</linearGradient>
		<polygon class="st62" points="1557.7,499.5 1562.1,499.5 1562.1,159.8 1557.7,159.8 		"/>
	</g>
</g>
</svg>
