<?xml version="1.0" encoding="utf-8"?>
<!-- Generator: Adobe Illustrator 22.1.0, SVG Export Plug-In . SVG Version: 6.00 Build 0)  -->
<svg version="1.1" id="Layer_1" xmlns="http://www.w3.org/2000/svg" xmlns:xlink="http://www.w3.org/1999/xlink" x="0px" y="0px"
	 viewBox="0 0 195.5 36" style="enable-background:new 0 0 195.5 36;" xml:space="preserve">
<style type="text/css">
	.st0{fill:url(#SVGID_1_);}
</style>
<g>
	<path d="M81.8,17.4c0-2.3-0.6-4.2-1.9-5.5c-1.3-1.4-3-2-5.1-2c-2.3,0-4.1,0.9-5.4,2.8c-1.3,1.7-1.9,3.7-1.9,6.1
		c0,2.4,0.6,4.4,1.9,6.1c1.5,1.9,3.4,2.8,5.9,2.8c2.7,0,4.8-0.9,6.2-2.7c0.1-0.2,0.2-0.4,0.2-0.6c0-0.3-0.1-0.5-0.3-0.8
		c-0.2-0.2-0.5-0.4-0.8-0.4c-0.2,0-0.6,0.2-1.2,0.7c-0.7,0.6-1.3,1-1.7,1.2c-0.8,0.4-1.6,0.7-2.4,0.7c-1.4,0-2.6-0.6-3.7-1.8
		c-1.1-1.2-1.6-2.5-1.6-4h11C81.6,19.9,81.8,19.1,81.8,17.4z M70.1,17.6c0-1.8,0.6-3.2,1.5-4.2c0.9-0.9,2-1.4,3.3-1.4
		c1.3,0,2.3,0.5,3.2,1.4c1,1,1.5,2.4,1.5,4.2H70.1z"/>
	<path d="M63.4,11.4c-1.1-1-2.4-1.5-4-1.5c-1.9,0-3.5,0.8-4.6,2.3V6c0-0.8-0.4-1.2-1.1-1.2c-0.7,0-1.1,0.4-1.1,1.2v20.2
		c0,0.8,0.4,1.1,1.1,1.1c0.7,0,1.1-0.4,1.1-1.1v-9.5c0-1.5,0.4-2.6,1.3-3.5c0.8-0.8,1.7-1.1,2.8-1.1c1.1,0,2,0.4,2.8,1.1
		c0.8,0.8,1.3,2,1.3,3.5v9.5c0,0.7,0.4,1.1,1.1,1.1c0.7,0,1.1-0.4,1.1-1.1V15.7C65.2,13.9,64.6,12.5,63.4,11.4z"/>
	<path d="M100.3,9.9c-2.3,0-4.1,1-5.3,2.9c-1-1.9-2.6-2.9-4.6-2.9c-1.8,0-3.3,0.8-4.4,2.4v-1.1c0-0.9-0.3-1.3-1.1-1.3
		c-0.7,0-1.1,0.4-1.1,1.3v14.9c0,0.7,0.4,1.1,1.1,1.1c0.7,0,1.1-0.4,1.1-1.1v-9.1c0-1.4,0.4-2.6,1.3-3.5c0.8-0.8,1.8-1.2,2.9-1.2
		c1,0,1.8,0.3,2.5,1c0.7,0.7,1.1,1.7,1.1,3v9.9c0,0.7,0.4,1.1,1.1,1.1c0.7,0,1.1-0.4,1.1-1.1V17c0-1.5,0.5-2.6,1.4-3.5
		c0.8-0.8,1.8-1.2,2.9-1.2c1,0,1.8,0.3,2.4,1c0.7,0.7,1.1,1.7,1.1,3v9.9c0,0.7,0.4,1.1,1.1,1.1c0.7,0,1.1-0.4,1.1-1.1V15.2
		c0-1.6-0.6-2.9-1.7-3.9C103.1,10.3,101.8,9.9,100.3,9.9z"/>
	<path d="M38.3,18.9C38.3,18.9,38.3,18.9,38.3,18.9c-0.8-0.9-2-1.2-4-1.2c-0.7,0-1.6,0.1-2.6,0.1l0-15.6c0-1.2-1-2.2-2.2-2.2H2.2
		C1,0,0,1,0,2.2v27.4c0,1.2,1,2.2,2.2,2.2h7.3c0.1,0.2,0.3,0.4,0.5,0.7C12,34.8,15.4,36,20.1,36c3.6,0,7.4-0.7,9.8-1.1l0.9-0.2
		c3-0.5,4.6-1.2,5.7-2.3c0.4-0.2,1-0.5,1.2-0.9c0.1-0.2,0.1-0.5,0-0.8c-0.1-0.2-0.2-0.4-0.4-0.5c0.1-0.2,0.2-0.3,0.3-0.5
		c0.4-0.2,0.7-0.4,0.9-0.8c0.1-0.2,0.1-0.5,0-0.8c-0.1-0.3-0.3-0.4-0.5-0.6c0-0.2,0-0.3,0-0.5c0.1-0.1,0.1-0.2,0.2-0.2
		c0.5-0.2,1.3-0.6,1.6-1.2c0.1-0.3,0.2-0.6,0-0.9c-0.2-0.5-0.7-0.8-1.3-1c0-0.1,0-0.1,0.1-0.2c0.1-0.2,0.3-0.5,0.4-0.7
		c0.7-0.3,1.5-0.7,1.9-1.4c0.2-0.4,0.2-0.8,0.1-1.1C40.7,19.4,39.3,19.1,38.3,18.9z M37.7,22.9l-3.4,0.5l3.3,0.4
		c0.3,0.8,0.5,2.2-0.9,3.5c0,0,0,0,0,0.1l-2.7,0.4l2.8,0.3c0.1,0.4,0,1-0.3,1.6l-2.2,0.7l1.8,0c0,0.4-0.3,1.8-5.5,2.8
		c-5.9,1-22.5,4.6-20-8.4C13.3,11.6,27.2,5.9,30,5.9v12.5c-1.5,0.2-2.9,0.5-4.1,0.8c-1.3-0.2-4.5-0.5-6.1,0l3.8,0.6
		c-3.4,0.9-4.9,1.8-4.9,1.8c3.9-1.1,8.4-1.8,10.4-2.1c3.5-0.4,7.4-0.1,8.1,0.7C38.6,21.6,38.1,22.5,37.7,22.9z"/>
	<linearGradient id="SVGID_1_" gradientUnits="userSpaceOnUse" x1="10.4477" y1="20.0601" x2="38.1348" y2="20.0601">
		<stop  offset="0" style="stop-color:#B0804C"/>
		<stop  offset="1" style="stop-color:#7F5321"/>
	</linearGradient>
	<path class="st0" d="M37.7,22.9l-3.4,0.5l3.3,0.4c0.3,0.8,0.5,2.2-0.9,3.5c0,0,0,0,0,0.1l-2.7,0.4l2.8,0.3c0.1,0.4,0,1-0.3,1.6
		l-2.2,0.7l1.8,0c0,0.4-0.3,1.8-5.5,2.8c-5.9,1-22.5,4.6-20-8.4C13.3,11.6,27.2,5.9,30,5.9v12.5c-1.5,0.2-2.9,0.5-4.1,0.8
		c-1.3-0.2-4.5-0.5-6.1,0l3.8,0.6c-3.4,0.9-4.9,1.8-4.9,1.8c3.9-1.1,8.4-1.8,10.4-2.1c3.5-0.4,7.4-0.1,8.1,0.7
		C38.6,21.6,38.1,22.5,37.7,22.9z"/>
	<path d="M49.4,10.5h-1.5V5.9c0-0.7-0.4-1.1-1.1-1.1c-0.8,0-1.1,0.4-1.1,1.1v4.6H44c-0.7,0-1,0.3-1,1c0,0.7,0.4,1,1.1,1h1.5v13.6
		c0,0.7,0.4,1.1,1.1,1.1c0.8,0,1.2-0.4,1.2-1.1V12.5h1.5c0.7,0,1.1-0.3,1.1-1C50.5,10.8,50.1,10.5,49.4,10.5z"/>
	<path d="M194.3,10.5h-1.5V5.9c0-0.7-0.4-1.1-1.1-1.1c-0.8,0-1.1,0.4-1.1,1.1v4.6H189c-0.7,0-1,0.3-1,1c0,0.7,0.4,1,1.1,1h1.5v13.6
		c0,0.7,0.4,1.1,1.1,1.1c0.8,0,1.2-0.4,1.2-1.1V12.5h1.5c0.7,0,1.1-0.3,1.1-1C195.5,10.8,195.1,10.5,194.3,10.5z"/>
	<path d="M171.7,17.4c0-2.3-0.6-4.2-1.9-5.5c-1.2-1.4-3-2-5.1-2c-2.3,0-4.1,0.9-5.4,2.8c-1.2,1.7-1.9,3.7-1.9,6.1
		c0,2.4,0.6,4.4,1.9,6.1c1.5,1.9,3.4,2.8,5.9,2.8c2.7,0,4.8-0.9,6.2-2.7c0.1-0.2,0.2-0.4,0.2-0.6c0-0.3-0.1-0.5-0.3-0.8
		c-0.2-0.2-0.5-0.4-0.8-0.4c-0.2,0-0.6,0.2-1.2,0.7c-0.7,0.6-1.3,1-1.7,1.2c-0.8,0.4-1.6,0.7-2.4,0.7c-1.4,0-2.6-0.6-3.7-1.8
		c-1.1-1.2-1.6-2.5-1.6-4h11C171.4,19.9,171.7,19.1,171.7,17.4z M159.9,17.6c0-1.8,0.6-3.2,1.5-4.2c0.9-0.9,2-1.4,3.3-1.4
		s2.3,0.5,3.2,1.4c1,1,1.5,2.4,1.5,4.2H159.9z"/>
	<path d="M183.5,18.6c-0.5-0.3-2-1-4.5-2.2c-1.6-0.8-2.5-1.4-2.5-2.1c0-1.4,0.8-2.2,2.3-2.2c1.6,0,3.3,0.5,4.9,1.6
		c0.2,0.1,0.5,0.2,0.7,0.2c0.6,0,1-0.4,1-1.2c0-0.4-0.2-0.8-0.5-1.1c-1.4-1.2-3.2-1.8-5.4-1.8c-1.6,0-2.8,0.4-3.8,1.1
		c-1.1,0.8-1.7,2-1.7,3.6c0,1.4,0.8,2.6,2.4,3.5c1.5,0.7,3,1.4,4.5,2.1c1.6,0.8,2.4,1.6,2.4,2.5c0,1.8-1,2.7-2.9,2.7
		c-0.9,0-1.9-0.2-2.9-0.6c-1-0.4-1.7-0.9-2.1-1.4c-0.2-0.3-0.5-0.5-0.8-0.5c-0.3,0-0.5,0.1-0.7,0.4c-0.2,0.3-0.3,0.6-0.3,1
		c0,0.4,0.1,0.7,0.3,0.9c1.4,1.6,3.3,2.4,5.9,2.4c1.7,0,3.1-0.4,4.3-1.3c1.3-0.9,1.9-2.2,1.9-3.9C186,21,185.1,19.7,183.5,18.6z"/>
	<path d="M155.5,9.9c-1.2,0-2.5,1.1-3.9,3.4v-2.1c0-0.8-0.4-1.2-1.1-1.2c-0.7,0-1.1,0.4-1.1,1.3v14.9c0,0.7,0.4,1.1,1.1,1.1
		c0.7,0,1.1-0.4,1.1-1.1v-7.9c0-1.8,0.5-3.1,1.5-4c0.5-0.4,1.3-0.9,2.6-1.4c1-0.4,1.5-0.8,1.5-1.3c0-0.5-0.2-0.8-0.5-1.1
		C156.4,10,156,9.9,155.5,9.9z"/>
	<path d="M139.8,9.9c-2.3,0-4.2,0.9-5.5,2.8c-1.2,1.7-1.8,3.7-1.8,6.1c0,2.4,0.6,4.4,1.8,6.1c1.3,1.9,3.2,2.8,5.5,2.8
		c2.3,0,4.2-0.9,5.5-2.7c1.2-1.6,1.8-3.6,1.8-6c0-2.4-0.6-4.5-1.8-6.2C143.9,10.8,142.1,9.9,139.8,9.9z M143.4,23.6
		c-0.9,1.3-2.1,2-3.6,2c-1.5,0-2.7-0.7-3.6-2.2c-0.8-1.4-1.2-3-1.2-4.9c0-1.8,0.4-3.3,1.1-4.5c0.9-1.4,2.1-2.1,3.6-2.1
		c1.4,0,2.6,0.8,3.5,2.3c0.8,1.4,1.3,3,1.3,4.9C144.6,20.9,144.2,22.4,143.4,23.6z"/>
	<path d="M122.6,17.4c0-2.3-0.6-4.2-1.9-5.5c-1.3-1.4-3-2-5.1-2c-2.3,0-4.1,0.9-5.4,2.8c-1.3,1.7-1.9,3.7-1.9,6.1
		c0,2.4,0.6,4.4,1.9,6.1c1.4,1.9,3.4,2.8,5.9,2.8c2.7,0,4.8-0.9,6.2-2.7c0.1-0.2,0.2-0.4,0.2-0.6c0-0.3-0.1-0.5-0.3-0.8
		c-0.2-0.2-0.5-0.4-0.8-0.4c-0.2,0-0.6,0.2-1.2,0.7c-0.7,0.6-1.3,1-1.7,1.2c-0.8,0.4-1.6,0.7-2.4,0.7c-1.4,0-2.6-0.6-3.7-1.8
		c-1.1-1.2-1.6-2.5-1.6-4h11C122.3,19.9,122.6,19.1,122.6,17.4z M110.8,17.6c0-1.8,0.6-3.2,1.5-4.2c0.9-0.9,2-1.4,3.3-1.4
		c1.3,0,2.3,0.5,3.2,1.4c1,1,1.5,2.4,1.5,4.2H110.8z"/>
	<path d="M130.6,4.8h-2c-1.6,0-2.4,0.9-2.4,2.8v2.9h-1.4c-0.8,0-1.2,0.4-1.2,1.2c0,0.7,0.4,1.1,1.2,1.1h1.4v13.4
		c0,0.8,0.4,1.1,1.1,1.1c0.7,0,1.1-0.4,1.1-1.1V12.7h1.9c0.9,0,1.3-0.4,1.3-1.1c0-0.7-0.4-1.1-1.2-1.1h-1.9V8.4
		c0-0.8,0.2-1.2,0.5-1.4c0.2-0.1,0.7-0.1,1.7-0.1c0.9,0,1.3-0.3,1.3-1C131.9,5.1,131.5,4.8,130.6,4.8z"/>
</g>
</svg>
