<?xml version="1.0" encoding="utf-8"?>
<!-- Generator: Adobe Illustrator 22.1.0, SVG Export Plug-In . SVG Version: 6.00 Build 0)  -->
<svg version="1.1" id="Layer_1" xmlns="http://www.w3.org/2000/svg" xmlns:xlink="http://www.w3.org/1999/xlink" x="0px" y="0px"
	 viewBox="0 0 162.5 36" style="enable-background:new 0 0 162.5 36;" xml:space="preserve">
<style type="text/css">
	.st0{fill:url(#SVGID_1_);}
</style>
<g>
	<path d="M63,8.9c0.6,0,1.3,0.2,1.9,0.6c0.6,0.4,1.1,0.5,1.2,0.5c0.4,0,0.7-0.1,0.9-0.4c0.2-0.3,0.4-0.6,0.4-0.9
		c0-0.4-0.2-0.8-0.5-1.1c-0.4-0.4-1.1-0.7-1.9-0.9c-0.7-0.2-1.3-0.3-1.9-0.3c-2.5,0-4.5,1-5.9,2.9c-1.3,1.8-2,3.9-2,6.4
		c0,2.5,0.7,4.6,2,6.3c1.5,1.9,3.5,2.9,6,2.9c1.6,0,2.8-0.3,3.6-1c0.4-0.3,0.6-0.7,0.6-1.2c0-0.7-0.4-1.1-1.2-1.1
		c-0.1,0-0.6,0.1-1.4,0.4c-0.8,0.3-1.4,0.4-2,0.4c-1.7,0-2.9-0.7-3.9-2c-0.8-1.2-1.3-2.7-1.3-4.5c0-1.9,0.5-3.4,1.3-4.8
		C60,9.6,61.3,8.9,63,8.9z"/>
	<path d="M51.5,6.3c-0.8,0-1.2,0.5-1.2,1.5v1.5c-0.4-0.8-1.1-1.5-2.1-2c-1-0.5-2-0.8-3-0.8c-2.2,0-4,1-5.4,3c-1.2,1.8-1.8,4-1.8,6.6
		c0,2.4,0.6,4.4,1.7,6c1.3,1.8,3,2.7,5.1,2.7c1.3,0,2.4-0.1,3.1-0.4c0.9-0.3,1.7-1,2.5-1.9c0,0.3,0,0.7,0,1.3c0,0.6,0.4,0.9,1.2,0.9
		c0.8,0,1.1-0.3,1.1-0.9v-16C52.6,6.8,52.3,6.3,51.5,6.3z M49,20.6c-1,1.5-2.3,2.3-3.9,2.3c-1.5,0-2.6-0.7-3.5-2.2
		c-0.8-1.3-1.1-2.9-1.1-4.8c0-1.9,0.4-3.5,1.1-4.8c0.9-1.4,2-2.2,3.5-2.2c1.6,0,2.9,0.7,3.9,2.1c0.9,1.3,1.3,2.8,1.3,4.7
		C50.3,17.6,49.9,19.2,49,20.6z"/>
	<path d="M75.5,7h-1.5V2.3c0-0.8-0.4-1.2-1.2-1.2c-0.8,0-1.2,0.4-1.2,1.2V7H70c-0.7,0-1.1,0.3-1.1,1c0,0.7,0.4,1.1,1.1,1.1h1.6v14.1
		c0,0.8,0.4,1.2,1.1,1.2c0.8,0,1.2-0.4,1.2-1.2V9.1h1.6c0.8,0,1.2-0.4,1.2-1.1C76.7,7.4,76.3,7,75.5,7z"/>
	<path d="M128.8,1.1c-0.8,0-1.2,0.4-1.2,1.2v7c-1.5-1.9-3.2-2.9-5.1-2.9c-2.3,0-4.1,1-5.4,3c-1.2,1.8-1.8,3.9-1.8,6.5
		c0,2.5,0.6,4.5,1.8,6.2c1.3,1.9,3.2,2.8,5.5,2.8c2.3,0,4-0.9,5.1-2.6v1.5c0,0.7,0.4,1.1,1.2,1.1c0.8,0,1.1-0.4,1.1-1.1V2.3
		C129.9,1.5,129.5,1.1,128.8,1.1z M126.4,20.4c-1,1.4-2.3,2.1-3.9,2.1c-1.5,0-2.7-0.7-3.6-2.1c-0.8-1.3-1.2-2.8-1.2-4.6
		c0-1.9,0.4-3.5,1.2-4.8c0.9-1.5,2.1-2.2,3.5-2.2c1.6,0,3,0.7,3.9,2.1c0.9,1.3,1.3,2.9,1.3,4.8C127.7,17.5,127.3,19.1,126.4,20.4z"
		/>
	<path d="M147.3,14.2c0-2.4-0.6-4.3-1.9-5.7c-1.3-1.4-3.1-2.1-5.3-2.1c-2.4,0-4.2,1-5.6,2.9c-1.3,1.7-1.9,3.9-1.9,6.3
		c0,2.5,0.7,4.6,2,6.3c1.5,1.9,3.5,2.9,6.1,2.9c2.8,0,4.9-0.9,6.4-2.8c0.1-0.2,0.2-0.4,0.2-0.6c0-0.3-0.1-0.6-0.3-0.8
		c-0.2-0.2-0.5-0.4-0.8-0.4c-0.3,0-0.7,0.2-1.2,0.7c-0.8,0.6-1.4,1-1.8,1.2c-0.8,0.5-1.7,0.7-2.5,0.7c-1.4,0-2.7-0.6-3.8-1.9
		c-1.1-1.3-1.6-2.6-1.6-4.1h11.4C147.1,16.8,147.3,15.9,147.3,14.2z M135.1,14.4c0-1.8,0.6-3.3,1.6-4.4c0.9-1,2.1-1.4,3.4-1.4
		c1.3,0,2.4,0.5,3.3,1.4c1,1.1,1.5,2.5,1.5,4.4H135.1z"/>
	<path d="M160.7,8c-1.1-1-2.4-1.5-4-1.5c-2.2,0-3.9,0.9-5,2.7c0-0.2,0-0.8,0-1.6c0-0.7-0.4-1.1-1.2-1.1c-0.8,0-1.1,0.4-1.1,1.1v15.8
		c0,0.8,0.4,1.2,1.1,1.2c0.8,0,1.2-0.4,1.2-1.2V14c0-1.6,0.5-2.9,1.5-3.9c0.9-0.9,1.9-1.3,3.2-1.3c1,0,1.9,0.3,2.7,1
		c0.8,0.7,1.2,1.7,1.2,2.9v10.5c0,0.8,0.4,1.2,1.2,1.2c0.8,0,1.2-0.4,1.2-1.2V12.5C162.5,10.6,161.9,9.1,160.7,8z"/>
	<path d="M80.4,1.1c-1.1,0-1.6,0.5-1.6,1.5c0,0.4,0.1,0.8,0.4,1.2c0.3,0.3,0.7,0.5,1.1,0.5c1.1,0,1.7-0.5,1.7-1.5
		c0-0.4-0.2-0.8-0.5-1.2C81.3,1.3,80.9,1.1,80.4,1.1z"/>
	<path d="M113.2,14.2c0-2.4-0.6-4.3-1.9-5.7c-1.3-1.4-3.1-2.1-5.3-2.1c-2.4,0-4.2,1-5.6,2.9c-1.3,1.7-1.9,3.9-1.9,6.3
		c0,2.5,0.7,4.6,2,6.3c1.5,1.9,3.5,2.9,6.1,2.9c2.8,0,4.9-0.9,6.4-2.8c0.1-0.2,0.2-0.4,0.2-0.6c0-0.3-0.1-0.6-0.3-0.8
		c-0.2-0.2-0.5-0.4-0.8-0.4c-0.3,0-0.7,0.2-1.2,0.7c-0.8,0.6-1.4,1-1.8,1.2c-0.8,0.5-1.7,0.7-2.5,0.7c-1.4,0-2.7-0.6-3.8-1.9
		c-1.1-1.3-1.6-2.6-1.6-4.1h11.4C112.9,16.8,113.2,15.9,113.2,14.2z M101,14.4c0-1.8,0.6-3.3,1.6-4.4c0.9-1,2.1-1.4,3.4-1.4
		c1.3,0,2.4,0.5,3.3,1.4c1,1.1,1.5,2.5,1.5,4.4H101z"/>
	<path d="M80.4,6.4c-0.8,0-1.1,0.4-1.1,1.2v15.6c0,0.8,0.4,1.2,1.2,1.2c0.8,0,1.2-0.4,1.2-1.2V7.6C81.6,6.8,81.2,6.4,80.4,6.4z"/>
	<path d="M96.3,7c-0.6,0-1.1,0.4-1.4,1.3l-4.2,12.2l-4-12.1C86.5,7.4,86.1,7,85.4,7c-0.7,0-1,0.4-1,1.1c0,0.2,0,0.4,0.1,0.6l5,14.9
		c0.2,0.6,0.6,1,1.3,1c0.7,0,1.1-0.3,1.4-1l5.1-14.9c0.1-0.2,0.1-0.3,0.1-0.5C97.3,7.3,97,7,96.3,7z"/>
	<linearGradient id="SVGID_1_" gradientUnits="userSpaceOnUse" x1="6.8303" y1="10.5647" x2="22.8607" y2="28.1218">
		<stop  offset="0" style="stop-color:#F38020"/>
		<stop  offset="1" style="stop-color:#F9C814"/>
	</linearGradient>
	<path class="st0" d="M29.6,27.3L29.6,27.3c-1,0.3-2,0.5-3,0.5c-4,0-7.2-2.6-9.6-7.9c-0.7-1.6-1.3-2.9-1.9-4
		c-0.3-0.6-0.6-1.2-0.9-1.8c-0.5-0.8-0.9-1.6-1.3-2.2C10,7.1,7.2,5.1,2.7,4.4c-0.3,0-0.6-0.1-0.8-0.1v2.4c1.6,0.5,3.3,1.5,5,3
		c2.7,2.4,3.1,6.5,3.5,10.8c0.4,4.3,0.8,8.3,3.3,10.9c0.8,0.7,1.7,1.4,2.9,1.8c4.5,1.6,8.2,0.4,10.4-1c2.7-1.6,4.7-4.1,5.8-6.3
		C31.7,26.5,30.6,27,29.6,27.3z M24.9,32.3c-1.9,0.8-4.9,1.3-8.3-0.5c-1.2-0.6-2-1.4-2.5-2.3c0.1-1.7-0.4-3.1,2.8-2
		c3.2,1.1,1.5-1.4,1.9-3.4c1,2.1,3.1,3.5,4.8,4.2c1.4,0.5,2.9,0.6,4.7,0.1c0.8-0.2,1.5-0.4,2.4-0.8C29.5,29.5,27.5,31.2,24.9,32.3z"
		/>
	<g>
		<path d="M35.4,22.3c-0.4-0.2-0.8-0.2-1.2,0.1c-1.6,1.3-3.2,2.2-4.6,2.8V2.1c0-1.1-0.9-2.1-2.1-2.1H2.1C0.9,0,0,0.9,0,2.1v25.4
			c0,1.1,0.9,2.1,2.1,2.1h8c1.1,2.4,2.8,4.4,5.8,5.5c5.3,1.9,9.6,0.4,12.2-1.2c4.5-2.7,7.3-7.4,7.8-10.6
			C35.9,22.9,35.7,22.5,35.4,22.3z M27,32.1c-2.3,1.4-5.9,2.6-10.4,1c-1.2-0.4-2.1-1-2.9-1.8c-2.5-2.5-2.9-6.6-3.3-10.9
			C10,16.1,9.6,12.1,6.9,9.7c-1.7-1.5-3.4-2.5-5-3V4.3c0.3,0,0.6,0.1,0.8,0.1c4.5,0.7,7.3,2.7,10.2,7.5c0.4,0.7,0.8,1.4,1.3,2.2
			c0.3,0.6,0.6,1.2,0.9,1.8c0.6,1.1,1.2,2.4,1.9,4c2.4,5.2,5.6,7.9,9.6,7.9c1,0,1.9-0.2,3-0.5v0c1.1-0.3,2.2-0.8,3.3-1.5
			C31.8,28.1,29.7,30.5,27,32.1z"/>
		<path d="M23.5,28.3c-1.7-0.7-3.7-2.1-4.8-4.2c-0.4,2,1.3,4.5-1.9,3.4c-3.2-1.1-2.7,0.3-2.8,2c0.6,1,1.4,1.7,2.5,2.3
			c3.4,1.8,6.4,1.3,8.3,0.5c2.5-1.1,4.6-2.8,5.6-4.6c-0.8,0.4-1.6,0.6-2.4,0.8C26.5,28.9,24.9,28.9,23.5,28.3z"/>
	</g>
</g>
</svg>
