<?xml version="1.0" encoding="utf-8"?>
<!-- Generator: Adobe Illustrator 22.1.0, SVG Export Plug-In . SVG Version: 6.00 Build 0)  -->
<svg version="1.1" id="Layer_1" xmlns="http://www.w3.org/2000/svg" xmlns:xlink="http://www.w3.org/1999/xlink" x="0px" y="0px"
	 viewBox="0 0 200.7 36" style="enable-background:new 0 0 200.7 36;" xml:space="preserve">
<style type="text/css">
	.st0{fill:#F49B22;}
</style>
<g>
	<path class="st0" d="M25.6,19.7l1.3,0c0,0,7,1.9,7.3,2s4,2.7,4.2,2.8s1.9,2.7,1.9,2.7l1.2-2.1l0.4-3.3l-1.4-3.5L37,14.8l-2.6-1.1
		l0.1,1.1C34.9,20.7,29.7,17,25.6,19.7z"/>
	<path d="M67.2,10.8c-2.4,0-4.3,0.9-5.7,2.8c-1.2,1.7-1.9,3.8-1.9,6.2c0,2.5,0.6,4.5,1.9,6.2c1.4,1.9,3.3,2.9,5.7,2.9
		c2.4,0,4.3-0.9,5.7-2.8c1.2-1.7,1.9-3.7,1.9-6.1c0-2.5-0.6-4.6-1.9-6.4C71.5,11.7,69.6,10.8,67.2,10.8z M70.9,24.8
		c-0.9,1.4-2.1,2.1-3.7,2.1c-1.5,0-2.7-0.8-3.6-2.3c-0.8-1.4-1.2-3.1-1.2-5c0-1.9,0.4-3.4,1.2-4.7c0.9-1.4,2.1-2.1,3.7-2.1
		c1.5,0,2.7,0.8,3.6,2.3c0.9,1.4,1.3,3.1,1.3,5.1C72.1,22.1,71.8,23.6,70.9,24.8z"/>
	<path d="M23.1,13.8c-0.5-0.1-1-0.2-1.5-0.3c-0.1,0-0.2,0-0.2,0.1c-0.2,0.3-0.4,0.3-0.7,0.3c-0.3,0-0.5-0.2-0.5-0.5
		c0-0.3-0.2-0.3-0.4-0.3c-0.1,0-0.1,0-0.2-0.1c-0.1,0-0.2,0-0.2,0.1c-0.4,0.5-0.6,1.1-0.5,1.7c0.2,1,1.1,1.6,2.2,1.6c0,0,0,0,0,0
		c0.3-0.1,0.6-0.1,0.9-0.2c0.9-0.4,1.5-1.3,1.3-2.2C23.3,13.9,23.3,13.8,23.1,13.8z"/>
	<path d="M39.9,16.3c-1.1-1.1-2.4-2.1-3.7-2.9c-0.1-0.1-0.2-0.2-0.2-0.3c-0.2-0.9-0.1-1.9-0.1-2.8c0-1.9,0-3.8,0-5.7
		c0-1.4-1.1-2.5-2.5-2.6c-0.1,0-0.2,0-0.3,0c-4.8,0-9.5,0-14.3,0c-0.5,0-1-0.1-1.4-0.2c-1.7-0.4-3.3-0.9-5-1.5
		C12,0.2,11.5,0.1,11.1,0h-0.3c0,0.1,0,0.1,0.1,0.2c0.5,0.6,0.9,1.1,1.4,1.7c0,0,0.1,0.1,0.1,0.2h-0.2c-2.5,0-5,0-7.5,0
		C3.3,2.1,2.2,2.9,2,4.2c0,0.2,0,0.3,0,0.5c0,2.2,0,4.3,0,6.5c0,0.2,0,0.2-0.2,0.3c-0.2,0.1-0.4,0.2-0.6,0.3c0.2,0,0.5,0,0.8-0.1
		v0.2c0,0.8,0,1.6,0,2.4c0,0.1,0,0.2-0.1,0.3c-0.4,0.2-0.7,0.5-1,0.7c-0.3,0.2-0.5,0.4-0.8,0.6v0.1c0.6,0.1,1.2,0.2,1.7,0.3
		c0.2,0,0.2,0.1,0.2,0.3c0,3.1,0,6.1,0,9.2c0,2.4,0,4.9,0,7.4c0,1.3,0.9,2.4,2.1,2.6c0.2,0,0.4,0,0.5,0h28.6c1.5,0,2.6-1.1,2.7-2.6
		c0-1.5,0-3,0-4.5v-5.6c0.6,0.1,1.1,0.4,1.5,0.8c0.6,0.7,1.3,1.5,1.9,2.3c0.3,0.4,0.6,0.8,1,1.2c0.1,0.1,0.2,0.2,0.3,0.3
		c0,0,0.1-0.1,0.1-0.1c0.5-1.1,1.1-2.2,1.6-3.3c0.2-0.5,0.4-1.1,0.5-1.6c0.1-0.7,0-1.4-0.2-2.1C42.1,19.1,41.1,17.6,39.9,16.3z
		 M41.4,23.8c-0.2,0.9-0.3,1.8-0.8,2.7c-0.1-0.1-0.1-0.3-0.2-0.4c-0.5-0.9-1.1-1.7-1.7-2.5c-0.6-0.7-1.3-1.3-2.1-1.7
		c-1.6-0.9-3.3-1.6-5-2.2c0,0-0.1,0-0.1,0c1.1,0.6,2.2,1.2,3.2,1.8c0,0,0,0,0,0.1c-0.6-0.2-1.2-0.3-1.8-0.5
		c-0.9-0.3-0.7-0.1-2.8-0.8c-3.9-1.1-4.5-0.4-4.5-0.4c3.8,0.4,4.5,1.2,6.5,2.2c-0.1,0.3-0.2,0.5-0.3,0.8c-0.1,0.4-0.3,0.8-0.4,1.1
		c-0.1,0.2-0.1,0.5,0,0.7c0.8,2,1.6,4.1,2.4,6.1c0,0.1,0.1,0.2,0.1,0.4v3.5c0,0.1,0,0.1,0,0.2c0,0,0,0,0,0c-0.3,0.4-0.8,0.5-1.3,0.5
		c-6.3,0-12.7,0-19,0c-3,0-6,0-9.1,0c-0.2,0-0.3,0-0.5,0c-0.7-0.1-1.1-0.6-1.2-1.4c0-0.3,0-0.7,0-1c0,0,0-0.1,0-0.1
		c0.8-1.5,1.4-3.1,2-4.7c0-0.1,0.1-0.2,0.1-0.4c-0.5,1-1.3,1.8-2.1,2.6c0,0,0,0-0.1,0c0-0.5,0-1,0.1-1.5c0.3-2,0.6-3.9,0.9-5.9
		c0,0,0,0,0-0.1c-0.3,1-0.6,1.9-0.9,2.9c0,0,0,0,0,0v-0.3c0-1.8,0-3.7,0-5.5c0-0.1,0-0.2,0.1-0.3c0.4-0.9,0.8-1.8,1.3-2.7
		c0.1-0.2,0-0.5-0.2-0.5C3.4,16,3,16,2.6,15.9c-0.3,0-0.5-0.1-0.9-0.1c0.1-0.1,0.2-0.1,0.2-0.2c2.1-1.4,4.1-3.1,5.7-5
		c0.1-0.1,0.2-0.2,0.2-0.4c-0.1-0.2-0.3-0.1-0.4-0.1c-0.5,0.1-1.1,0.2-1.6,0.4c-0.3,0.1-0.5,0.2-0.8,0.2c1.9-1.6,3.8-3.2,5.6-4.8
		C9,4.8,7.4,3.7,5.8,2.6c0,0,0,0,0,0c3.1,0.6,6.3,1.1,9.4,1.7c-1-1.1-1.9-2.1-2.9-3.1c0.1,0,0.1,0,0.2,0c3.2,1.1,6.4,2.2,9.7,3.2
		c3.1,1,6,2.3,8.7,4.2c1.1,0.7,2.1,1.6,2.8,2.7c0.4,0.5,0.7,1.1,0.8,1.8c0,0.1,0,0.2-0.1,0.2c-0.3,0.1-0.4,0.4-0.6,0.6
		c-0.3,0.5-0.4,1-0.4,1.5c0,0.3-0.1,0.4-0.4,0.4c-0.2,0-0.5,0-0.7-0.1c-0.3-0.1-0.6-0.2-0.9-0.3c-0.1,0-0.1,0-0.1,0
		c0.7,0.4,1.4,0.8,2.2,0.9c0.4,0,0.7,0,1-0.3c0.1-0.1,0.1-0.2,0.1-0.3c-0.1-0.4,0-0.7,0.2-1c0.1-0.1,0.2-0.1,0.3,0
		c1.4,0.8,2.7,1.8,3.8,2.9c0.7,0.7,1.2,1.4,1.7,2.2C41.4,20.9,41.6,22.3,41.4,23.8z"/>
	<path d="M55,13.2c0.6,0,1.3,0.2,1.9,0.5c0.6,0.4,1,0.5,1.2,0.5c0.4,0,0.7-0.1,0.9-0.4c0.2-0.3,0.4-0.6,0.4-0.9
		c0-0.4-0.2-0.8-0.5-1.1c-0.4-0.4-1.1-0.7-1.9-0.9c-0.7-0.2-1.3-0.3-1.9-0.3c-2.5,0-4.4,1-5.9,2.9c-1.3,1.7-2,3.8-2,6.3
		c0,2.5,0.7,4.5,2,6.2c1.5,1.9,3.5,2.8,6,2.8c1.6,0,2.7-0.3,3.5-1c0.4-0.3,0.6-0.7,0.6-1.2c0-0.7-0.4-1.1-1.1-1.1
		c-0.1,0-0.6,0.1-1.4,0.4c-0.8,0.3-1.4,0.4-2,0.4c-1.6,0-2.9-0.7-3.9-2c-0.8-1.2-1.2-2.6-1.2-4.4c0-1.8,0.4-3.4,1.3-4.7
		C52.1,13.9,53.4,13.2,55,13.2z"/>
	<path d="M168.1,11.4c-0.6,0-1.1,0.3-1.3,0.9l-4.4,12.4l-4-12.3c-0.2-0.7-0.7-1.1-1.3-1.1c-0.7,0-1.1,0.4-1.1,1.1
		c0,0.2,0,0.5,0.2,0.7l5.2,14.5l-2.3,6.1c-0.1,0.2-0.1,0.5-0.1,0.7c0,0.7,0.4,1.1,1.1,1.1c0.6,0,1.1-0.4,1.3-1.1l7.7-21.5
		c0.1-0.2,0.2-0.5,0.2-0.7C169.2,11.7,168.8,11.4,168.1,11.4z"/>
	<path d="M177.8,10.8c-2.4,0-4.3,0.9-5.7,2.8c-1.2,1.7-1.9,3.8-1.9,6.2c0,2.5,0.6,4.5,1.9,6.2c1.4,1.9,3.3,2.9,5.7,2.9
		c2.4,0,4.3-0.9,5.7-2.8c1.2-1.7,1.9-3.7,1.9-6.1c0-2.5-0.6-4.6-1.9-6.4C182,11.7,180.1,10.8,177.8,10.8z M181.4,24.8
		c-0.9,1.4-2.1,2.1-3.7,2.1c-1.5,0-2.7-0.8-3.7-2.3c-0.8-1.4-1.2-3.1-1.2-5c0-1.9,0.4-3.4,1.2-4.7c0.9-1.4,2.1-2.1,3.7-2.1
		c1.5,0,2.7,0.8,3.6,2.3c0.9,1.4,1.3,3.1,1.3,5.1C182.7,22.1,182.3,23.6,181.4,24.8z"/>
	<path d="M90.5,5.5c-0.8,0-1.2,0.4-1.2,1.2v6.9c-1.5-1.9-3.2-2.9-5.1-2.9c-2.2,0-4,1-5.4,2.9c-1.2,1.8-1.8,3.9-1.8,6.4
		c0,2.4,0.6,4.5,1.8,6.2c1.3,1.8,3.1,2.8,5.4,2.8c2.3,0,4-0.8,5.1-2.5v1.5c0,0.7,0.4,1.1,1.2,1.1c0.8,0,1.1-0.4,1.1-1.1V6.7
		C91.7,5.9,91.3,5.5,90.5,5.5z M88.2,24.6c-1,1.4-2.3,2.1-3.9,2.1c-1.5,0-2.7-0.7-3.5-2.1c-0.8-1.2-1.2-2.8-1.2-4.6
		c0-1.9,0.4-3.4,1.2-4.8c0.9-1.4,2-2.2,3.5-2.2c1.6,0,2.9,0.7,3.9,2.1c0.9,1.3,1.3,2.9,1.3,4.7C89.5,21.8,89.1,23.3,88.2,24.6z"/>
	<path d="M198.9,12.3c-1.1-1-2.4-1.5-4-1.5c-2.2,0-3.8,0.9-5,2.7c0-0.2,0-0.8,0-1.6c0-0.7-0.4-1.1-1.2-1.1c-0.8,0-1.1,0.4-1.1,1.1
		v15.6c0,0.8,0.4,1.1,1.1,1.1c0.8,0,1.2-0.4,1.2-1.1v-9.2c0-1.6,0.5-2.9,1.5-3.9c0.9-0.8,1.9-1.3,3.1-1.3c1,0,1.9,0.3,2.6,1
		c0.8,0.7,1.1,1.7,1.1,2.9v10.4c0,0.8,0.4,1.1,1.1,1.1c0.8,0,1.2-0.4,1.2-1.1V16.8C200.7,14.9,200.1,13.4,198.9,12.3z"/>
	<path d="M147.9,10.8c-2.2,0-3.8,0.9-5,2.7c0-0.2,0-0.8,0-1.6c0-0.7-0.4-1.1-1.2-1.1c-0.8,0-1.1,0.4-1.1,1.1v15.6
		c0,0.8,0.4,1.1,1.1,1.1c0.8,0,1.2-0.4,1.2-1.1v-9.2c0-1.6,0.5-2.9,1.5-3.9c0.9-0.8,1.9-1.3,3.1-1.3c1,0,1.9,0.3,2.6,1
		c0.8,0.7,1.1,1.7,1.1,2.9v10.4c0,0.8,0.4,1.1,1.1,1.1c0.8,0,1.2-0.4,1.2-1.1V16.8c0-1.9-0.6-3.4-1.8-4.5
		C150.7,11.3,149.4,10.8,147.9,10.8z"/>
	<path d="M136.9,10.6c-0.8,0-1.2,0.5-1.2,1.5v1.5c-0.4-0.8-1.1-1.5-2.1-2c-1-0.5-2-0.8-3-0.8c-2.2,0-4,1-5.3,3
		c-1.2,1.8-1.8,4-1.8,6.5c0,2.4,0.5,4.4,1.6,6c1.2,1.8,2.9,2.7,5.1,2.7c1.3,0,2.3-0.1,3.1-0.4c0.9-0.3,1.7-1,2.5-1.9
		c0,0.3,0,0.7,0,1.3c0,0.6,0.4,0.9,1.1,0.9c0.7,0,1.1-0.3,1.1-0.9V12.1C138.1,11.1,137.7,10.6,136.9,10.6z M134.4,24.8
		c-1,1.5-2.2,2.2-3.8,2.2c-1.5,0-2.6-0.7-3.5-2.2c-0.8-1.3-1.1-2.9-1.1-4.8c0-1.9,0.4-3.5,1.1-4.8c0.9-1.4,2-2.1,3.5-2.1
		c1.6,0,2.9,0.7,3.8,2.1c0.8,1.3,1.3,2.8,1.3,4.7C135.7,21.8,135.3,23.4,134.4,24.8z"/>
	<path d="M108.9,18.5c0-2.4-0.6-4.3-1.9-5.7c-1.3-1.4-3-2.1-5.2-2.1c-2.3,0-4.2,1-5.6,2.9c-1.3,1.7-1.9,3.8-1.9,6.3
		c0,2.5,0.7,4.6,2,6.2c1.5,1.9,3.5,2.9,6.1,2.9c2.8,0,4.9-0.9,6.4-2.8c0.1-0.2,0.2-0.4,0.2-0.6c0-0.3-0.1-0.6-0.3-0.8
		c-0.2-0.2-0.5-0.4-0.8-0.4c-0.2,0-0.7,0.2-1.2,0.7c-0.8,0.6-1.3,1-1.7,1.2c-0.8,0.5-1.6,0.7-2.5,0.7c-1.4,0-2.7-0.6-3.8-1.9
		c-1.1-1.2-1.6-2.6-1.6-4.1h11.3C108.7,21,108.9,20.2,108.9,18.5z M96.9,18.7c0-1.8,0.6-3.2,1.6-4.3c0.9-1,2.1-1.4,3.4-1.4
		c1.3,0,2.4,0.5,3.3,1.4c1,1.1,1.5,2.5,1.5,4.3H96.9z"/>
	<path d="M118.6,13.2c0.6,0,1.3,0.2,1.9,0.5c0.6,0.4,1,0.5,1.2,0.5c0.4,0,0.7-0.1,0.9-0.4c0.2-0.3,0.4-0.6,0.4-0.9
		c0-0.4-0.2-0.8-0.5-1.1c-0.4-0.4-1.1-0.7-1.9-0.9c-0.7-0.2-1.3-0.3-1.9-0.3c-2.5,0-4.4,1-5.9,2.9c-1.3,1.7-2,3.8-2,6.3
		c0,2.5,0.7,4.5,2,6.2c1.5,1.9,3.5,2.8,6,2.8c1.6,0,2.7-0.3,3.5-1c0.4-0.3,0.6-0.7,0.6-1.2c0-0.7-0.4-1.1-1.1-1.1
		c-0.1,0-0.6,0.1-1.4,0.4c-0.8,0.3-1.4,0.4-2,0.4c-1.6,0-2.9-0.7-3.9-2c-0.8-1.2-1.2-2.6-1.2-4.4c0-1.8,0.4-3.4,1.3-4.7
		C115.7,13.9,117,13.2,118.6,13.2z"/>
</g>
</svg>
