<?xml version="1.0" encoding="utf-8"?>
<!-- Generator: Adobe Illustrator 22.1.0, SVG Export Plug-In . SVG Version: 6.00 Build 0)  -->
<svg version="1.1" id="Layer_1" xmlns="http://www.w3.org/2000/svg" xmlns:xlink="http://www.w3.org/1999/xlink" x="0px" y="0px"
	 viewBox="0 0 1920 600" style="enable-background:new 0 0 1920 600;" xml:space="preserve">
<style type="text/css">
	.st0{fill:#080245;}
	.st1{opacity:0.5;fill:url(#SVGID_1_);}
	.st2{opacity:0.2;fill:#140852;}
	.st3{opacity:7.000000e-02;fill:url(#SVGID_2_);}
	.st4{opacity:0.3;}
	.st5{fill:#140852;}
	.st6{fill:url(#SVGID_3_);}
	.st7{fill:url(#SVGID_4_);}
	.st8{fill:url(#SVGID_5_);}
	.st9{fill:url(#SVGID_6_);}
	.st10{opacity:0.9;fill:url(#SVGID_7_);}
	.st11{opacity:0.75;fill:url(#SVGID_8_);}
	.st12{opacity:0.75;fill:url(#SVGID_9_);}
	.st13{opacity:0.5;fill:url(#SVGID_10_);}
	.st14{opacity:0.5;fill:url(#SVGID_11_);}
	.st15{fill:url(#SVGID_12_);}
	.st16{fill:url(#SVGID_13_);}
	.st17{opacity:0.9;fill:url(#SVGID_14_);}
	.st18{opacity:0.75;fill:url(#SVGID_15_);}
	.st19{opacity:0.75;fill:url(#SVGID_16_);}
	.st20{opacity:0.5;fill:url(#SVGID_17_);}
	.st21{opacity:0.5;fill:url(#SVGID_18_);}
	.st22{fill:url(#SVGID_19_);}
	.st23{fill:url(#SVGID_20_);}
	.st24{opacity:0.9;fill:url(#SVGID_21_);}
	.st25{opacity:0.75;fill:url(#SVGID_22_);}
	.st26{opacity:0.75;fill:url(#SVGID_23_);}
	.st27{opacity:0.5;fill:url(#SVGID_24_);}
	.st28{opacity:0.5;fill:url(#SVGID_25_);}
	.st29{fill:url(#SVGID_26_);}
	.st30{fill:url(#SVGID_27_);}
	.st31{fill:#24116A;}
	.st32{fill:#352786;}
	.st33{fill:#3D3292;}
	.st34{fill:#384393;}
	.st35{fill:#BDBEFF;}
	.st36{fill:url(#SVGID_28_);}
	.st37{fill:url(#SVGID_29_);}
	.st38{fill:#666EDB;}
	.st39{fill:url(#SVGID_30_);}
	.st40{fill:#43E8E1;}
	.st41{opacity:0.5;fill:url(#SVGID_31_);}
	.st42{opacity:0.75;fill:url(#SVGID_32_);}
	.st43{opacity:0.5;fill:url(#SVGID_33_);}
	.st44{fill:url(#SVGID_34_);}
	.st45{opacity:0.5;fill:url(#SVGID_35_);}
	.st46{fill:#FFFFFF;}
	.st47{clip-path:url(#SVGID_37_);fill:#586DDA;}
	.st48{clip-path:url(#SVGID_37_);fill:#3F20D3;}
	.st49{clip-path:url(#SVGID_39_);fill:#586DDA;}
	.st50{clip-path:url(#SVGID_39_);fill:#3F20D3;}
	.st51{clip-path:url(#SVGID_41_);fill:#586DDA;}
	.st52{clip-path:url(#SVGID_41_);fill:#3F20D3;}
	.st53{clip-path:url(#SVGID_43_);fill:#586DDA;}
	.st54{clip-path:url(#SVGID_43_);fill:#3F20D3;}
	.st55{fill:#3F20D3;}
	.st56{fill:url(#SVGID_44_);}
	.st57{fill:url(#SVGID_45_);}
	.st58{fill:url(#SVGID_46_);}
	.st59{fill:url(#SVGID_47_);}
	.st60{fill:url(#SVGID_48_);}
	.st61{fill:url(#SVGID_49_);}
</style>
<rect class="st0" width="1920" height="600"/>
<linearGradient id="SVGID_1_" gradientUnits="userSpaceOnUse" x1="25.5839" y1="582.3129" x2="1905.5839" y2="14.3129">
	<stop  offset="0" style="stop-color:#42E7E1"/>
	<stop  offset="1" style="stop-color:#40E5DF;stop-opacity:0"/>
</linearGradient>
<rect class="st1" width="1920" height="600"/>
<g>
	<polygon class="st2" points="1303,539 1515,417 1303,293.1 1092,417.5 	"/>
	<linearGradient id="SVGID_2_" gradientUnits="userSpaceOnUse" x1="1303.4893" y1="515.9198" x2="1303.4893" y2="309.5019">
		<stop  offset="0" style="stop-color:#39B3C2"/>
		<stop  offset="1" style="stop-color:#4348AE"/>
	</linearGradient>
	<polygon class="st3" points="1303.1,312.5 1481.6,416.9 1303.1,519.6 1125.4,417.3 	"/>
	<polygon class="st2" points="1303.1,333.3 1445.8,416.7 1303.1,498.8 1161.2,417 	"/>
	<g class="st4">
		<path class="st5" d="M1318.2,369.8l-40.4,6c-0.2,0-0.3,0.1-0.5,0.2l-69.6,39.7c-0.6,0.3-0.7,0.9-0.7,1.1c0,0.2,0.1,0.8,0.7,1.1
			l91.8,53.3c1.8,1,3.9,1,5.7,0l92.9-53.4c0.6-0.3,0.7-0.9,0.7-1.1c0-0.2-0.1-0.8-0.7-1.1l-79.1-45.6c-0.2-0.1-0.4-0.2-0.7-0.2
			C1318.4,369.7,1318.3,369.7,1318.2,369.8z"/>
	</g>
	<g>
		
			<linearGradient id="SVGID_3_" gradientUnits="userSpaceOnUse" x1="1468.0858" y1="420.835" x2="1662.505" y2="420.835" gradientTransform="matrix(-1 0 0 1 2868.2793 0)">
			<stop  offset="0" style="stop-color:#5465D7"/>
			<stop  offset="1" style="stop-color:#43E1E0"/>
		</linearGradient>
		<path class="st6" d="M1298.2,472.9l-90.2-52.4c-1.4-0.8-2.2-2.2-2.2-3.8c0-1.6,0.8-3,2.2-3.8l68.4-39c0.5-0.3,1-0.4,1.5-0.5
			l39.6-5.9c1-0.1,2,0,2.8,0.5L1398,413c1.4,0.8,2.2,2.2,2.2,3.8c0,1.6-0.8,3-2.2,3.8l-91.2,52.4c-1.3,0.8-2.8,1.1-4.3,1.1
			C1301,474.1,1299.5,473.7,1298.2,472.9z M1318,370.7l-39.6,5.9c-0.2,0-0.3,0.1-0.5,0.2l-68.4,39c-0.6,0.3-0.7,0.9-0.7,1.1
			c0,0.2,0.1,0.8,0.6,1.1l90.2,52.4c1.7,1,3.9,1,5.6,0l91.2-52.4c0.6-0.3,0.6-0.9,0.6-1.1c0-0.2-0.1-0.8-0.6-1.1l-77.7-44.8
			c-0.2-0.1-0.4-0.2-0.6-0.2C1318.1,370.7,1318,370.7,1318,370.7z"/>
	</g>
	<g>
		
			<linearGradient id="SVGID_4_" gradientUnits="userSpaceOnUse" x1="1631.818" y1="377.9842" x2="1763.5273" y2="377.9842" gradientTransform="matrix(-1 0 0 1 2868.2793 0)">
			<stop  offset="0" style="stop-color:#5465D7"/>
			<stop  offset="1" style="stop-color:#43E1E0"/>
		</linearGradient>
		<path class="st7" d="M1171.2,403.8c0.9,0,1.8-0.2,2.6-0.7l62.7-36.5l-1.5-2.6l-62.7,36.5c-0.6,0.4-1.5,0.4-2.1,0l-61.4-35.3
			l17.1-10.3l-1.6-2.6l-18.4,11.2c-0.6,0.4-1,1.1-1,1.8c0,0.8,0.4,1.4,1.1,1.8l62.8,36C1169.4,403.5,1170.3,403.8,1171.2,403.8z"/>
	</g>
	
		<linearGradient id="SVGID_5_" gradientUnits="userSpaceOnUse" x1="1638.2198" y1="362.1971" x2="1755.9392" y2="362.1971" gradientTransform="matrix(-1 0 0 1 2868.2793 0)">
		<stop  offset="0" style="stop-color:#4348AE"/>
		<stop  offset="1" style="stop-color:#39B3C2"/>
	</linearGradient>
	<polygon class="st8" points="1230.1,339.5 1230.1,351.7 1171.2,384.9 1112.3,351.7 1112.3,339.5 1171.2,372.7 	"/>
	
		<linearGradient id="SVGID_6_" gradientUnits="userSpaceOnUse" x1="1638.2198" y1="339.4774" x2="1755.9392" y2="339.4774" gradientTransform="matrix(-1 0 0 1 2868.2793 0)">
		<stop  offset="0" style="stop-color:#39B3C2"/>
		<stop  offset="1" style="stop-color:#CAC8F9"/>
	</linearGradient>
	<path class="st9" d="M1112.3,339.5l58.9,33.2l58.9-33.2l-58.9-33.2L1112.3,339.5z M1171.2,366.3l-47.5-26.8l47.5-26.8l47.5,26.8
		L1171.2,366.3z"/>
	
		<linearGradient id="SVGID_7_" gradientUnits="userSpaceOnUse" x1="1727.5492" y1="339.3842" x2="1676.7029" y2="339.3842" gradientTransform="matrix(-1 0 0 1 2868.2793 0)">
		<stop  offset="0" style="stop-color:#4348AE"/>
		<stop  offset="9.030807e-02" style="stop-color:#415DB2"/>
		<stop  offset="0.2468" style="stop-color:#3E7CB8"/>
		<stop  offset="0.411" style="stop-color:#3C94BC"/>
		<stop  offset="0.5839" style="stop-color:#3AA6BF"/>
		<stop  offset="0.7714" style="stop-color:#39B0C1"/>
		<stop  offset="1" style="stop-color:#39B3C2"/>
	</linearGradient>
	<polygon class="st10" points="1207.2,339.2 1171.2,359.5 1135.2,339.2 1171.2,319.2 	"/>
	
		<linearGradient id="SVGID_8_" gradientUnits="userSpaceOnUse" x1="1722.7249" y1="314.1858" x2="1677.9711" y2="314.1858" gradientTransform="matrix(-1 0 0 1 2868.2793 0)">
		<stop  offset="0" style="stop-color:#4348AE"/>
		<stop  offset="1" style="stop-color:#39B3C2"/>
	</linearGradient>
	<polygon class="st11" points="1171.2,289.2 1207.2,309.5 1207.2,339.2 1171.2,319.2 	"/>
	
		<linearGradient id="SVGID_9_" gradientUnits="userSpaceOnUse" x1="1697.0795" y1="314.1858" x2="1733.0869" y2="314.1858" gradientTransform="matrix(-1 0 0 1 2868.2793 0)">
		<stop  offset="0" style="stop-color:#39B3C2"/>
		<stop  offset="1" style="stop-color:#4348AE"/>
	</linearGradient>
	<polygon class="st12" points="1171.2,319.2 1135.2,339.2 1135.2,309.5 1171.2,289.2 	"/>
	
		<linearGradient id="SVGID_10_" gradientUnits="userSpaceOnUse" x1="1661.0721" y1="334.5258" x2="1697.0795" y2="334.5258" gradientTransform="matrix(-1 0 0 1 2868.2793 0)">
		<stop  offset="0" style="stop-color:#39B3C2"/>
		<stop  offset="1" style="stop-color:#4348AE"/>
	</linearGradient>
	<polygon class="st13" points="1171.2,329.9 1207.2,309.5 1207.2,339.2 1171.2,359.5 	"/>
	
		<linearGradient id="SVGID_11_" gradientUnits="userSpaceOnUse" x1="1697.0795" y1="334.5258" x2="1733.0869" y2="334.5258" gradientTransform="matrix(-1 0 0 1 2868.2793 0)">
		<stop  offset="0" style="stop-color:#39B3C2"/>
		<stop  offset="1" style="stop-color:#4348AE"/>
	</linearGradient>
	<polygon class="st14" points="1171.2,359.5 1135.2,339.2 1135.2,309.5 1171.2,329.9 	"/>
	
		<linearGradient id="SVGID_12_" gradientUnits="userSpaceOnUse" x1="1381.7662" y1="352.5463" x2="1499.4856" y2="352.5463" gradientTransform="matrix(-1 0 0 1 2868.2793 0)">
		<stop  offset="0" style="stop-color:#4348AE"/>
		<stop  offset="1" style="stop-color:#39B3C2"/>
	</linearGradient>
	<polygon class="st15" points="1486.5,329.8 1486.5,342 1427.7,375.3 1368.8,342 1368.8,329.8 1427.7,363.1 	"/>
	
		<linearGradient id="SVGID_13_" gradientUnits="userSpaceOnUse" x1="1381.7662" y1="329.8266" x2="1499.4856" y2="329.8266" gradientTransform="matrix(-1 0 0 1 2868.2793 0)">
		<stop  offset="0" style="stop-color:#39B3C2"/>
		<stop  offset="1" style="stop-color:#CAC8F9"/>
	</linearGradient>
	<path class="st16" d="M1368.8,329.8l58.9,33.2l58.9-33.2l-58.9-33.2L1368.8,329.8z M1427.7,356.7l-47.5-26.8l47.5-26.8l47.5,26.8
		L1427.7,356.7z"/>
	
		<linearGradient id="SVGID_14_" gradientUnits="userSpaceOnUse" x1="1471.0956" y1="329.7334" x2="1420.2493" y2="329.7334" gradientTransform="matrix(-1 0 0 1 2868.2793 0)">
		<stop  offset="0" style="stop-color:#4348AE"/>
		<stop  offset="9.030807e-02" style="stop-color:#415DB2"/>
		<stop  offset="0.2468" style="stop-color:#3E7CB8"/>
		<stop  offset="0.411" style="stop-color:#3C94BC"/>
		<stop  offset="0.5839" style="stop-color:#3AA6BF"/>
		<stop  offset="0.7714" style="stop-color:#39B0C1"/>
		<stop  offset="1" style="stop-color:#39B3C2"/>
	</linearGradient>
	<polygon class="st17" points="1463.7,329.5 1427.7,349.9 1391.6,329.5 1427.7,309.6 	"/>
	
		<linearGradient id="SVGID_15_" gradientUnits="userSpaceOnUse" x1="1466.2712" y1="304.535" x2="1421.5175" y2="304.535" gradientTransform="matrix(-1 0 0 1 2868.2793 0)">
		<stop  offset="0" style="stop-color:#4348AE"/>
		<stop  offset="1" style="stop-color:#39B3C2"/>
	</linearGradient>
	<polygon class="st18" points="1427.7,279.5 1463.7,299.9 1463.7,329.5 1427.7,309.6 	"/>
	
		<linearGradient id="SVGID_16_" gradientUnits="userSpaceOnUse" x1="1440.6259" y1="304.535" x2="1476.6333" y2="304.535" gradientTransform="matrix(-1 0 0 1 2868.2793 0)">
		<stop  offset="0" style="stop-color:#39B3C2"/>
		<stop  offset="1" style="stop-color:#4348AE"/>
	</linearGradient>
	<polygon class="st19" points="1427.7,309.6 1391.6,329.5 1391.6,299.9 1427.7,279.5 	"/>
	
		<linearGradient id="SVGID_17_" gradientUnits="userSpaceOnUse" x1="1404.6185" y1="324.8751" x2="1440.6259" y2="324.8751" gradientTransform="matrix(-1 0 0 1 2868.2793 0)">
		<stop  offset="0" style="stop-color:#39B3C2"/>
		<stop  offset="1" style="stop-color:#4348AE"/>
	</linearGradient>
	<polygon class="st20" points="1427.7,320.2 1463.7,299.9 1463.7,329.5 1427.7,349.9 	"/>
	
		<linearGradient id="SVGID_18_" gradientUnits="userSpaceOnUse" x1="1440.6259" y1="324.8751" x2="1476.6333" y2="324.8751" gradientTransform="matrix(-1 0 0 1 2868.2793 0)">
		<stop  offset="0" style="stop-color:#39B3C2"/>
		<stop  offset="1" style="stop-color:#4348AE"/>
	</linearGradient>
	<polygon class="st21" points="1427.7,349.9 1391.6,329.5 1391.6,299.9 1427.7,320.2 	"/>
	
		<linearGradient id="SVGID_19_" gradientUnits="userSpaceOnUse" x1="1392.4307" y1="504.419" x2="1510.15" y2="504.419" gradientTransform="matrix(-1 0 0 1 2868.2793 0)">
		<stop  offset="0" style="stop-color:#4348AE"/>
		<stop  offset="1" style="stop-color:#39B3C2"/>
	</linearGradient>
	<polygon class="st22" points="1475.8,481.7 1475.8,493.9 1417,527.1 1358.1,493.9 1358.1,481.7 1417,514.9 	"/>
	
		<linearGradient id="SVGID_20_" gradientUnits="userSpaceOnUse" x1="1392.4307" y1="481.6993" x2="1510.15" y2="481.6993" gradientTransform="matrix(-1 0 0 1 2868.2793 0)">
		<stop  offset="0" style="stop-color:#39B3C2"/>
		<stop  offset="1" style="stop-color:#CAC8F9"/>
	</linearGradient>
	<path class="st23" d="M1358.1,481.7l58.9,33.2l58.9-33.2l-58.9-33.2L1358.1,481.7z M1417,508.5l-47.5-26.8l47.5-26.8l47.5,26.8
		L1417,508.5z"/>
	
		<linearGradient id="SVGID_21_" gradientUnits="userSpaceOnUse" x1="1481.76" y1="481.6062" x2="1430.9137" y2="481.6062" gradientTransform="matrix(-1 0 0 1 2868.2793 0)">
		<stop  offset="0" style="stop-color:#4348AE"/>
		<stop  offset="9.030807e-02" style="stop-color:#415DB2"/>
		<stop  offset="0.2468" style="stop-color:#3E7CB8"/>
		<stop  offset="0.411" style="stop-color:#3C94BC"/>
		<stop  offset="0.5839" style="stop-color:#3AA6BF"/>
		<stop  offset="0.7714" style="stop-color:#39B0C1"/>
		<stop  offset="1" style="stop-color:#39B3C2"/>
	</linearGradient>
	<polygon class="st24" points="1453,481.4 1417,501.7 1381,481.4 1417,461.5 	"/>
	
		<linearGradient id="SVGID_22_" gradientUnits="userSpaceOnUse" x1="1476.9357" y1="429.2332" x2="1432.1819" y2="429.2332" gradientTransform="matrix(-1 0 0 1 2868.2793 0)">
		<stop  offset="0" style="stop-color:#4348AE"/>
		<stop  offset="1" style="stop-color:#39B3C2"/>
	</linearGradient>
	<polygon class="st25" points="1417,377.1 1453,397.4 1453,481.4 1417,461.5 	"/>
	
		<linearGradient id="SVGID_23_" gradientUnits="userSpaceOnUse" x1="1451.2903" y1="429.2332" x2="1487.2976" y2="429.2332" gradientTransform="matrix(-1 0 0 1 2868.2793 0)">
		<stop  offset="0" style="stop-color:#39B3C2"/>
		<stop  offset="1" style="stop-color:#4348AE"/>
	</linearGradient>
	<polygon class="st26" points="1417,461.5 1381,481.4 1381,397.4 1417,377.1 	"/>
	
		<linearGradient id="SVGID_24_" gradientUnits="userSpaceOnUse" x1="1415.283" y1="449.5733" x2="1451.2903" y2="449.5733" gradientTransform="matrix(-1 0 0 1 2868.2793 0)">
		<stop  offset="0" style="stop-color:#39B3C2"/>
		<stop  offset="1" style="stop-color:#4348AE"/>
	</linearGradient>
	<polygon class="st27" points="1417,417.7 1453,397.4 1453,481.4 1417,501.7 	"/>
	
		<linearGradient id="SVGID_25_" gradientUnits="userSpaceOnUse" x1="1451.2903" y1="449.5733" x2="1487.2976" y2="449.5733" gradientTransform="matrix(-1 0 0 1 2868.2793 0)">
		<stop  offset="0" style="stop-color:#39B3C2"/>
		<stop  offset="1" style="stop-color:#4348AE"/>
	</linearGradient>
	<polygon class="st28" points="1417,501.7 1381,481.4 1381,397.4 1417,417.7 	"/>
	
		<linearGradient id="SVGID_26_" gradientUnits="userSpaceOnUse" x1="1415.283" y1="397.4046" x2="1487.2976" y2="397.4046" gradientTransform="matrix(-1 0 0 1 2868.2793 0)">
		<stop  offset="0" style="stop-color:#42E7E1;stop-opacity:0.9"/>
		<stop  offset="1" style="stop-color:#40E5DF;stop-opacity:0.5"/>
	</linearGradient>
	<path class="st29" d="M1381,397.4l36,20.3l36-20.3l-36-20.3L1381,397.4z M1417,409.6l-21.6-12.2l21.6-12.2l21.6,12.2L1417,409.6z"
		/>
	
		<linearGradient id="SVGID_27_" gradientUnits="userSpaceOnUse" x1="1608.2095" y1="395.1724" x2="1608.2095" y2="209.2305" gradientTransform="matrix(-1 0 0 1 2868.2793 0)">
		<stop  offset="0" style="stop-color:#C0C0F6"/>
		<stop  offset="1" style="stop-color:#E7E8FD"/>
	</linearGradient>
	<polygon class="st30" points="1216.9,382.5 1303.2,431.7 1303.2,239.7 1216.9,190.5 	"/>
	<polygon class="st31" points="1389.6,382.5 1303.2,431.7 1303.2,239.7 1389.6,190.5 	"/>
	<polygon class="st32" points="1389.6,352 1303.2,299.7 1303.2,239.7 1389.6,190.5 	"/>
	<polygon class="st32" points="1383,376.1 1383,204.4 1309.8,246.1 1309.8,417.8 	"/>
	<polygon class="st33" points="1383,204.4 1383,348 1309.8,303.7 1309.8,246.1 	"/>
	<polygon class="st34" points="1229.8,243.8 1290.3,278.3 1290.3,273.3 1229.8,238.7 	"/>
	<polygon class="st34" points="1229.8,264.8 1290.3,299.4 1290.3,294.3 1229.8,259.8 	"/>
	<polygon class="st34" points="1229.8,285.9 1290.3,320.4 1290.3,315.3 1229.8,280.8 	"/>
	<polygon class="st34" points="1229.8,306.9 1290.3,341.4 1290.3,336.4 1229.8,301.8 	"/>
	<polygon class="st34" points="1229.8,327.9 1290.3,362.5 1290.3,357.4 1229.8,322.8 	"/>
	<polygon class="st34" points="1229.8,348.9 1290.3,383.5 1290.3,378.4 1229.8,343.9 	"/>
	<polygon class="st35" points="1303.2,140.2 1389.6,190.5 1303.2,239.7 1216.9,190.5 	"/>
	
		<linearGradient id="SVGID_28_" gradientUnits="userSpaceOnUse" x1="1478.713" y1="188.4426" x2="1565.0439" y2="188.4426" gradientTransform="matrix(-1 0 0 1 2868.2793 0)">
		<stop  offset="0" style="stop-color:#FFFFFF;stop-opacity:0"/>
		<stop  offset="5.817641e-03" style="stop-color:#FCFCFE;stop-opacity:8.045673e-03"/>
		<stop  offset="7.999019e-02" style="stop-color:#D4D6F5;stop-opacity:0.1106"/>
		<stop  offset="0.1592" style="stop-color:#B2B6ED;stop-opacity:0.2201"/>
		<stop  offset="0.2431" style="stop-color:#969CE6;stop-opacity:0.3361"/>
		<stop  offset="0.3333" style="stop-color:#8187E1;stop-opacity:0.4609"/>
		<stop  offset="0.433" style="stop-color:#7279DE;stop-opacity:0.5988"/>
		<stop  offset="0.5494" style="stop-color:#6971DC;stop-opacity:0.7599"/>
		<stop  offset="0.7231" style="stop-color:#666EDB"/>
	</linearGradient>
	<polygon class="st36" points="1303.2,150.3 1320.7,150.3 1389.6,190.5 1326.4,226.5 1303.2,226.5 1365.8,190.8 1365.8,186.8 	"/>
	
		<linearGradient id="SVGID_29_" gradientUnits="userSpaceOnUse" x1="1502.498" y1="186.4108" x2="1627.5898" y2="186.4108" gradientTransform="matrix(-1 0 0 1 2868.2793 0)">
		<stop  offset="0" style="stop-color:#C1C1F5;stop-opacity:0.8"/>
		<stop  offset="0.1091" style="stop-color:#CBCBF8;stop-opacity:0.7891"/>
		<stop  offset="0.3364" style="stop-color:#DADAFB;stop-opacity:0.7664"/>
		<stop  offset="0.6027" style="stop-color:#E3E3FD;stop-opacity:0.7397"/>
		<stop  offset="1" style="stop-color:#E6E6FE;stop-opacity:0.7"/>
	</linearGradient>
	<polygon class="st37" points="1240.7,186.8 1303.2,150.3 1365.8,186.8 1303.2,222.5 	"/>
	<polygon class="st38" points="1303.2,222.5 1365.8,186.8 1365.8,190.8 1303.2,226.5 	"/>
	
		<linearGradient id="SVGID_30_" gradientUnits="userSpaceOnUse" x1="1565.0439" y1="206.6583" x2="1627.5898" y2="206.6583" gradientTransform="matrix(-1 0 0 1 2868.2793 0)">
		<stop  offset="0" style="stop-color:#CCCEF7"/>
		<stop  offset="1" style="stop-color:#CECDF7"/>
	</linearGradient>
	<polygon class="st39" points="1303.2,226.5 1240.7,190.8 1240.7,186.8 1303.2,222.5 	"/>
	<polygon class="st40" points="1350,285.6 1344.9,288.5 1344.9,285.2 1350,282.3 	"/>
	<polygon class="st40" points="1350,313 1344.9,315.9 1344.9,308.5 1350,305.6 	"/>
	<polygon class="st40" points="1350,322.2 1344.9,325.1 1344.9,317.7 1350,314.8 	"/>
	<polygon class="st40" points="1350,331.3 1344.9,334.2 1344.9,326.8 1350,323.9 	"/>
	<polygon class="st40" points="1350,303.9 1344.9,306.8 1344.9,290.2 1350,287.3 	"/>
	<polygon class="st40" points="1356,282 1351,284.9 1351,281.6 1356,278.7 	"/>
	<polygon class="st40" points="1356,290.7 1351,293.6 1351,286.7 1356,283.8 	"/>
	<polygon class="st40" points="1356,302.4 1351,305.3 1351,295.3 1356,292.4 	"/>
	<polygon class="st40" points="1356,314 1351,316.9 1351,307 1356,304.1 	"/>
	
		<linearGradient id="SVGID_31_" gradientUnits="userSpaceOnUse" x1="1516.2924" y1="377.7346" x2="1552.8561" y2="377.7346" gradientTransform="matrix(-1 0 0 1 2868.2793 0)">
		<stop  offset="0" style="stop-color:#39B3C2"/>
		<stop  offset="1" style="stop-color:#4348AE"/>
	</linearGradient>
	<polygon class="st41" points="1315.4,414.6 1315.4,361.1 1352,340.8 1352,393.8 	"/>
	
		<linearGradient id="SVGID_32_" gradientUnits="userSpaceOnUse" x1="1516.2924" y1="340.8233" x2="1558.4421" y2="340.8233" gradientTransform="matrix(-1 0 0 1 2868.2793 0)">
		<stop  offset="0" style="stop-color:#39B3C2"/>
		<stop  offset="1" style="stop-color:#4348AE"/>
	</linearGradient>
	<polygon class="st42" points="1309.8,323.6 1315.4,320.5 1352,340.8 1315.4,361.1 1309.8,358 	"/>
	
		<linearGradient id="SVGID_33_" gradientUnits="userSpaceOnUse" x1="1552.8561" y1="386.7342" x2="1558.4421" y2="386.7342" gradientTransform="matrix(-1 0 0 1 2868.2793 0)">
		<stop  offset="0" style="stop-color:#39B3C2"/>
		<stop  offset="1" style="stop-color:#4348AE"/>
	</linearGradient>
	<path class="st43" d="M1315.4,361.1v53.5l-1.4,0.8c-0.9-1-2.1-1.4-3.5-1.2c-0.2,0-0.5,0.1-0.7,0.2V358L1315.4,361.1z"/>
	
		<linearGradient id="SVGID_34_" gradientUnits="userSpaceOnUse" x1="1539.1447" y1="341.2518" x2="1558.4421" y2="341.2518" gradientTransform="matrix(-1 0 0 1 2868.2793 0)">
		<stop  offset="0" style="stop-color:#39B3C2"/>
		<stop  offset="1" style="stop-color:#4348AE"/>
	</linearGradient>
	<path class="st44" d="M1309.8,334.1c2-0.9,4.3-1.4,6.9-1.4c6.9,0,12.4,3.8,12.4,8.6s-5.6,8.6-12.4,8.6c-2.5,0-4.9-0.5-6.9-1.4
		V334.1z"/>
	
		<linearGradient id="SVGID_35_" gradientUnits="userSpaceOnUse" x1="1552.8561" y1="321.3524" x2="1552.8561" y2="242.061" gradientTransform="matrix(-1 0 0 1 2868.2793 0)">
		<stop  offset="0" style="stop-color:#4348AE"/>
		<stop  offset="1" style="stop-color:#39B3C2"/>
	</linearGradient>
	<path class="st45" d="M1315.1,247.3c0-1.5-0.4-2.6-1.2-3.2v-0.4l3-1.7v79.3l-1.5-0.8l-1.5,0.8V251
		C1314.6,250,1315.1,248.7,1315.1,247.3z"/>
	<g>
		
			<ellipse transform="matrix(0.3159 -0.9488 0.9488 0.3159 661.8453 1413.8401)" class="st46" cx="1311.4" cy="248" rx="5.2" ry="4.2"/>
		<g>
			<defs>
				
					<ellipse id="SVGID_36_" transform="matrix(0.3159 -0.9488 0.9488 0.3159 661.8453 1413.8401)" cx="1311.4" cy="248" rx="5.2" ry="4.2"/>
			</defs>
			<clipPath id="SVGID_37_">
				<use xlink:href="#SVGID_36_"  style="overflow:visible;"/>
			</clipPath>
			
				<ellipse transform="matrix(0.316 -0.9487 0.9487 0.316 662.0928 1415.0833)" class="st47" cx="1312.5" cy="248.3" rx="4.7" ry="3.1"/>
			
				<ellipse transform="matrix(0.316 -0.9487 0.9487 0.316 662.1052 1415.395)" class="st48" cx="1312.7" cy="248.5" rx="2.8" ry="1.8"/>
		</g>
	</g>
	<g>
		
			<ellipse transform="matrix(0.3159 -0.9488 0.9488 0.3159 752.3136 1451.3135)" class="st46" cx="1382.6" cy="204" rx="5.2" ry="4.2"/>
		<g>
			<defs>
				
					<ellipse id="SVGID_38_" transform="matrix(0.3159 -0.9488 0.9488 0.3159 752.3136 1451.3135)" cx="1382.6" cy="204" rx="5.2" ry="4.2"/>
			</defs>
			<clipPath id="SVGID_39_">
				<use xlink:href="#SVGID_38_"  style="overflow:visible;"/>
			</clipPath>
			
				<ellipse transform="matrix(0.316 -0.9487 0.9487 0.316 752.5474 1452.5599)" class="st49" cx="1383.7" cy="204.3" rx="4.7" ry="3.1"/>
			
				<ellipse transform="matrix(0.316 -0.9487 0.9487 0.316 752.5604 1452.8716)" class="st50" cx="1383.9" cy="204.5" rx="2.8" ry="1.8"/>
		</g>
	</g>
	<g>
		
			<ellipse transform="matrix(0.3159 -0.9488 0.9488 0.3159 499.8923 1530.7926)" class="st46" cx="1311.5" cy="418.7" rx="5.3" ry="4.4"/>
		<g>
			<defs>
				
					<ellipse id="SVGID_40_" transform="matrix(0.3159 -0.9488 0.9488 0.3159 499.8923 1530.7926)" cx="1311.5" cy="418.7" rx="5.3" ry="4.4"/>
			</defs>
			<clipPath id="SVGID_41_">
				<use xlink:href="#SVGID_40_"  style="overflow:visible;"/>
			</clipPath>
			
				<ellipse transform="matrix(0.316 -0.9487 0.9487 0.316 500.1644 1532.0564)" class="st51" cx="1312.7" cy="419.1" rx="4.9" ry="3.2"/>
			
				<ellipse transform="matrix(0.316 -0.9487 0.9487 0.316 500.1765 1532.3802)" class="st52" cx="1312.9" cy="419.3" rx="2.9" ry="1.9"/>
		</g>
	</g>
	<g>
		
			<ellipse transform="matrix(0.3159 -0.9488 0.9488 0.3159 590.0132 1567.7843)" class="st46" cx="1382.2" cy="374.7" rx="5.3" ry="4.4"/>
		<g>
			<defs>
				
					<ellipse id="SVGID_42_" transform="matrix(0.3159 -0.9488 0.9488 0.3159 590.0132 1567.7843)" cx="1382.2" cy="374.7" rx="5.3" ry="4.4"/>
			</defs>
			<clipPath id="SVGID_43_">
				<use xlink:href="#SVGID_42_"  style="overflow:visible;"/>
			</clipPath>
			
				<ellipse transform="matrix(0.316 -0.9487 0.9487 0.316 590.2717 1569.0513)" class="st53" cx="1383.4" cy="375.1" rx="4.9" ry="3.2"/>
			
				<ellipse transform="matrix(0.316 -0.9487 0.9487 0.316 590.2844 1569.375)" class="st54" cx="1383.6" cy="375.3" rx="2.9" ry="1.9"/>
		</g>
	</g>
	<g>
		<polygon class="st55" points="1300.1,171 1304.3,168.6 1331.7,184.5 1327.5,186.9 		"/>
		
			<linearGradient id="SVGID_44_" gradientUnits="userSpaceOnUse" x1="1533.4254" y1="188.131" x2="1569.3135" y2="167.9863" gradientTransform="matrix(-1 0 0 1 2868.2793 0)">
			<stop  offset="0" style="stop-color:#FFFFFF;stop-opacity:0"/>
			<stop  offset="5.817641e-03" style="stop-color:#FCFCFE;stop-opacity:8.045673e-03"/>
			<stop  offset="7.999019e-02" style="stop-color:#D4D6F5;stop-opacity:0.1106"/>
			<stop  offset="0.1592" style="stop-color:#B2B6ED;stop-opacity:0.2201"/>
			<stop  offset="0.2431" style="stop-color:#969CE6;stop-opacity:0.3361"/>
			<stop  offset="0.3333" style="stop-color:#8187E1;stop-opacity:0.4609"/>
			<stop  offset="0.433" style="stop-color:#7279DE;stop-opacity:0.5988"/>
			<stop  offset="0.5494" style="stop-color:#6971DC;stop-opacity:0.7599"/>
			<stop  offset="0.7231" style="stop-color:#666EDB"/>
		</linearGradient>
		<polygon class="st56" points="1304.3,170.1 1301.4,171.7 1300.1,171 1304.3,168.6 1331.7,184.5 1330.4,185.3 		"/>
	</g>
	<g>
		<polygon class="st55" points="1291,176.1 1295.1,173.6 1322.5,189.6 1318.3,192 		"/>
		
			<linearGradient id="SVGID_45_" gradientUnits="userSpaceOnUse" x1="1542.5664" y1="193.2104" x2="1578.4545" y2="173.0657" gradientTransform="matrix(-1 0 0 1 2868.2793 0)">
			<stop  offset="0" style="stop-color:#FFFFFF;stop-opacity:0"/>
			<stop  offset="5.817641e-03" style="stop-color:#FCFCFE;stop-opacity:8.045673e-03"/>
			<stop  offset="7.999019e-02" style="stop-color:#D4D6F5;stop-opacity:0.1106"/>
			<stop  offset="0.1592" style="stop-color:#B2B6ED;stop-opacity:0.2201"/>
			<stop  offset="0.2431" style="stop-color:#969CE6;stop-opacity:0.3361"/>
			<stop  offset="0.3333" style="stop-color:#8187E1;stop-opacity:0.4609"/>
			<stop  offset="0.433" style="stop-color:#7279DE;stop-opacity:0.5988"/>
			<stop  offset="0.5494" style="stop-color:#6971DC;stop-opacity:0.7599"/>
			<stop  offset="0.7231" style="stop-color:#666EDB"/>
		</linearGradient>
		<polygon class="st57" points="1295.1,175.2 1292.3,176.8 1291,176.1 1295.1,173.6 1322.5,189.6 1321.2,190.4 		"/>
	</g>
	<g>
		<polygon class="st55" points="1281.8,181.1 1286,178.7 1313.4,194.7 1309.2,197.1 		"/>
		
			<linearGradient id="SVGID_46_" gradientUnits="userSpaceOnUse" x1="1551.7073" y1="198.2897" x2="1587.5953" y2="178.145" gradientTransform="matrix(-1 0 0 1 2868.2793 0)">
			<stop  offset="0" style="stop-color:#FFFFFF;stop-opacity:0"/>
			<stop  offset="5.817641e-03" style="stop-color:#FCFCFE;stop-opacity:8.045673e-03"/>
			<stop  offset="7.999019e-02" style="stop-color:#D4D6F5;stop-opacity:0.1106"/>
			<stop  offset="0.1592" style="stop-color:#B2B6ED;stop-opacity:0.2201"/>
			<stop  offset="0.2431" style="stop-color:#969CE6;stop-opacity:0.3361"/>
			<stop  offset="0.3333" style="stop-color:#8187E1;stop-opacity:0.4609"/>
			<stop  offset="0.433" style="stop-color:#7279DE;stop-opacity:0.5988"/>
			<stop  offset="0.5494" style="stop-color:#6971DC;stop-opacity:0.7599"/>
			<stop  offset="0.7231" style="stop-color:#666EDB"/>
		</linearGradient>
		<polygon class="st58" points="1286,180.2 1283.1,181.9 1281.8,181.1 1286,178.7 1313.4,194.7 1312.1,195.5 		"/>
	</g>
	<g>
		<polygon class="st55" points="1272.7,186.2 1276.8,183.8 1304.3,199.8 1300.1,202.2 		"/>
		
			<linearGradient id="SVGID_47_" gradientUnits="userSpaceOnUse" x1="1560.8483" y1="203.3691" x2="1596.7362" y2="183.2244" gradientTransform="matrix(-1 0 0 1 2868.2793 0)">
			<stop  offset="0" style="stop-color:#FFFFFF;stop-opacity:0"/>
			<stop  offset="5.817641e-03" style="stop-color:#FCFCFE;stop-opacity:8.045673e-03"/>
			<stop  offset="7.999019e-02" style="stop-color:#D4D6F5;stop-opacity:0.1106"/>
			<stop  offset="0.1592" style="stop-color:#B2B6ED;stop-opacity:0.2201"/>
			<stop  offset="0.2431" style="stop-color:#969CE6;stop-opacity:0.3361"/>
			<stop  offset="0.3333" style="stop-color:#8187E1;stop-opacity:0.4609"/>
			<stop  offset="0.433" style="stop-color:#7279DE;stop-opacity:0.5988"/>
			<stop  offset="0.5494" style="stop-color:#6971DC;stop-opacity:0.7599"/>
			<stop  offset="0.7231" style="stop-color:#666EDB"/>
		</linearGradient>
		<polygon class="st59" points="1276.8,185.3 1274,187 1272.7,186.2 1276.8,183.8 1304.3,199.8 1302.9,200.5 		"/>
	</g>
	<linearGradient id="SVGID_48_" gradientUnits="userSpaceOnUse" x1="1070" y1="472.011" x2="1395.4253" y2="472.011">
		<stop  offset="0" style="stop-color:#43E1E0"/>
		<stop  offset="1" style="stop-color:#5465D7"/>
	</linearGradient>
	<path class="st60" d="M1297.4,558.7c1.5,0.9,3.2,1.3,4.9,1.3c1.7,0,3.3-0.4,4.8-1.3l81.6-46.8v-12l6.7-3.6l-3.1-1.8l-6.6,3.6v12
		l-80.1,45.9c-2.1,1.2-4.6,1.2-6.7,0l-119.3-68.9c-0.5-0.3-0.6-0.8-0.6-1c0-0.2,0.1-0.7,0.6-1l70.1-40.3l-3-1.8l-68.6,39.4
		c-1,0.6-1.7,1.5-2,2.6L1073.2,425c-0.2-0.1-0.2-0.2-0.2-0.3c0-0.1,0-0.2,0.2-0.3l65.2-38.5l-3-1.7l-63.7,37.6
		c-1.1,0.6-1.7,1.7-1.7,3c0,1.2,0.6,2.4,1.7,3L1297.4,558.7z"/>
	<polygon class="st34" points="1417,385.2 1438.5,397.4 1437.2,398.2 1417,386.8 1396.8,398.2 1395.4,397.4 	"/>
	
		<linearGradient id="SVGID_49_" gradientUnits="userSpaceOnUse" x1="1451.2903" y1="398.7279" x2="1451.2903" y2="161.014" gradientTransform="matrix(-1 0 0 1 2868.2793 0)">
		<stop  offset="0" style="stop-color:#43E1E0"/>
		<stop  offset="1" style="stop-color:#5465D7;stop-opacity:0"/>
	</linearGradient>
	<polygon class="st61" points="1415.5,398.7 1418.5,398.7 1418.5,161 1415.5,161 	"/>
</g>
</svg>
