<?xml version="1.0" encoding="utf-8"?>
<!-- Generator: Adobe Illustrator 22.1.0, SVG Export Plug-In . SVG Version: 6.00 Build 0)  -->
<svg version="1.1" id="Layer_1" xmlns="http://www.w3.org/2000/svg" xmlns:xlink="http://www.w3.org/1999/xlink" x="0px" y="0px"
	 viewBox="0 0 350 250" style="enable-background:new 0 0 350 250;" xml:space="preserve">
<style type="text/css">
		@keyframes hostikofadeIn {
    0% {
			opacity: 1;
		}


		50% {
			opacity: 0;
		}


		100% {
			opacity: 1;
		}
}
	.vpsfade{
    animation: hostikofadeIn 4s infinite;
}
	.st0{fill:#080245;}
	.st1{fill:#0F0A4C;}
	.st2{fill:url(#SVGID_1_);}
	.st3{opacity:0.3;}
	.st4{fill:#43E4DF;}
	.st5{opacity:0.8;}
	.st6{fill:url(#SVGID_2_);}
	.st7{opacity:0.8;fill:url(#SVGID_3_);enable-background:new    ;}
	.st8{opacity:0.8;fill:url(#SVGID_4_);enable-background:new    ;}
	.st9{fill:url(#SVGID_5_);}
	.st10{fill:url(#SVGID_6_);}
	.st11{fill:url(#SVGID_7_);}
	.st12{fill:url(#SVGID_8_);}
	.st13{fill:url(#SVGID_9_);}
	.st14{fill:url(#SVGID_10_);}
	.st15{fill:url(#SVGID_11_);}
	.st16{fill:url(#SVGID_12_);}
	.st17{opacity:0.8;fill:url(#SVGID_13_);enable-background:new    ;}
	.st18{fill:url(#SVGID_14_);}
	.st19{fill:#42E5E0;}
	.st20{opacity:0.8;fill:url(#SVGID_15_);enable-background:new    ;}
	.st21{fill:url(#SVGID_16_);}
	.st22{opacity:0.8;fill:url(#SVGID_17_);enable-background:new    ;}
	.st23{fill:url(#SVGID_18_);}
	.st24{opacity:0.8;fill:url(#SVGID_19_);enable-background:new    ;}
	.st25{fill:url(#SVGID_20_);}
	.st26{opacity:0.8;fill:url(#SVGID_21_);enable-background:new    ;}
	.st27{fill:url(#SVGID_22_);}
	.st28{opacity:0.8;fill:url(#SVGID_23_);enable-background:new    ;}
	.st29{fill:url(#SVGID_24_);}
	.st30{opacity:0.8;fill:url(#SVGID_25_);enable-background:new    ;}
	.st31{fill:url(#SVGID_26_);}
	.st32{opacity:0.8;fill:url(#SVGID_27_);enable-background:new    ;}
	.st33{fill:url(#SVGID_28_);}
	.st34{opacity:0.8;fill:url(#SVGID_29_);enable-background:new    ;}
	.st35{fill:url(#SVGID_30_);}
	.st36{opacity:0.8;fill:url(#SVGID_31_);enable-background:new    ;}
	.st37{fill:url(#SVGID_32_);}
</style>
<g>
	<path class="st0" d="M350,120V0H0v250L350,120z"/>
	<g>
		<path class="st1" d="M62.4,161.7c-1.8-1.1-1.8-2.8,0-3.9L174,93.3c1.8-1.1,4.8-1,6.7,0.1l107,64.4c1.8,1.1,1.8,2.9,0,4l-107,64.4
			c-1.8,1.1-4.8,1.1-6.7,0.1L62.4,161.7z"/>
		<g>
			
				<radialGradient id="SVGID_1_" cx="171.2536" cy="40.6544" r="92.806" gradientTransform="matrix(0.8769 0 0 -0.8838 24.8277 195.6365)" gradientUnits="userSpaceOnUse">
				<stop  offset="0" style="stop-color:#43E4DF"/>
				<stop  offset="1" style="stop-color:#180E5A;stop-opacity:0.8"/>
			</radialGradient>
			<path class="st2" d="M176.8,219.2c-1.7,0-3.4-0.4-4.8-1.2l-92.9-53.7c-1.9-1.1-2.9-2.8-2.9-4.6c0-1.9,1.1-3.5,2.9-4.6l92.9-53.7
				c2.8-1.6,7-1.6,9.8,0.1l89.1,53.6c1.8,1.1,2.9,2.8,2.9,4.6s-1,3.6-2.9,4.6l-89.1,53.6C180.4,218.8,178.6,219.2,176.8,219.2z
				 M83.5,159.7l91.6,53c0.9,0.5,2.7,0.5,3.6,0l88-52.9l-88-52.9c-0.9-0.5-2.7-0.5-3.6,0L83.5,159.7z M82.1,158.9L82.1,158.9
				L82.1,158.9z"/>
		</g>
		<g class="st3">
			<path class="st4" d="M102.6,156.6l70.9-41c1.8-1.1,4.1-1,5.9,0.1l68.1,41c2.3,1.4,2.3,4.8,0,6.2l-68.1,41
				c-1.8,1.1-4.1,1.1-5.9,0.1l-70.9-41C100.2,161.5,100.2,158,102.6,156.6z"/>
		</g>
		<g class="st5">
			
				<radialGradient id="SVGID_2_" cx="172.5641" cy="15.5" r="51.9639" gradientTransform="matrix(0.8769 0 0 -0.8838 24.8277 195.6365)" gradientUnits="userSpaceOnUse">
				<stop  offset="0" style="stop-color:#43E4DF"/>
				<stop  offset="1" style="stop-color:#1B105F"/>
			</radialGradient>
			<path class="st6" d="M116.5,163.1c-4.2-2.4-4.2-6.4,0-8.8l52.1-30.1c4.2-2.4,11-2.4,15.1,0.1l49.7,29.9c4.1,2.5,4.1,6.6,0,9.1
				l-49.7,29.9c-4.1,2.5-11,2.6-15.1,0.1L116.5,163.1z"/>
		</g>
		
			<linearGradient id="SVGID_3_" gradientUnits="userSpaceOnUse" x1="112.15" y1="115.3731" x2="112.15" y2="215.9238" gradientTransform="matrix(1 0 0 -1 0 250)">
			<stop  offset="0" style="stop-color:#43E4DF"/>
			<stop  offset="1" style="stop-color:#1B105F;stop-opacity:0"/>
		</linearGradient>
		<rect x="111" y="37.1" class="st7" width="2.3" height="122.1"/>
		
			<linearGradient id="SVGID_4_" gradientUnits="userSpaceOnUse" x1="68.15" y1="115.3731" x2="68.15" y2="215.9238" gradientTransform="matrix(-1 0 0 -1 306 250)">
			<stop  offset="0" style="stop-color:#43E4DF"/>
			<stop  offset="1" style="stop-color:#1B105F;stop-opacity:0"/>
		</linearGradient>
		<polygon class="st8" points="236.7,159.1 239,159.1 239,37.1 236.7,37.1 		"/>
		
			<linearGradient id="SVGID_5_" gradientUnits="userSpaceOnUse" x1="215.45" y1="75.2543" x2="215.45" y2="132.5848" gradientTransform="matrix(1 0 0 -1 0 250)">
			<stop  offset="0" style="stop-color:#42E7E0;stop-opacity:0"/>
			<stop  offset="0.5" style="stop-color:#42E7E1;stop-opacity:0.75"/>
			<stop  offset="1" style="stop-color:#40E5DF;stop-opacity:0"/>
		</linearGradient>
		<polygon class="st9 vpsfade" points="219.7,171.5 219.7,115.2 211.2,115.2 211.2,176.6 		"/>
		
			<linearGradient id="SVGID_6_" gradientUnits="userSpaceOnUse" x1="199.25" y1="64.277" x2="199.25" y2="176.9461" gradientTransform="matrix(1 0 0 -1 0 250)">
			<stop  offset="0" style="stop-color:#42E7E0;stop-opacity:0"/>
			<stop  offset="0.5" style="stop-color:#42E7E1;stop-opacity:0.75"/>
			<stop  offset="1" style="stop-color:#40E5DF;stop-opacity:0"/>
		</linearGradient>
		<polygon class="st10 vpsfade" points="203.5,181.2 203.5,72 195,72 195,186.3 		"/>
		
			<linearGradient id="SVGID_7_" gradientUnits="userSpaceOnUse" x1="150.65" y1="65.343" x2="150.65" y2="176.9556" gradientTransform="matrix(1 0 0 -1 0 250)">
			<stop  offset="0" style="stop-color:#42E7E0;stop-opacity:0"/>
			<stop  offset="0.5" style="stop-color:#42E7E1;stop-opacity:0.75"/>
			<stop  offset="1" style="stop-color:#40E5DF;stop-opacity:0"/>
		</linearGradient>
		<polygon class="st11 vpsfade" points="154.9,185.3 154.9,72 146.4,72 146.4,180.3 		"/>
		
			<linearGradient id="SVGID_8_" gradientUnits="userSpaceOnUse" x1="134.45" y1="75.9277" x2="134.45" y2="132.6099" gradientTransform="matrix(1 0 0 -1 0 250)">
			<stop  offset="0" style="stop-color:#42E7E0;stop-opacity:0"/>
			<stop  offset="0.5" style="stop-color:#42E7E1;stop-opacity:0.75"/>
			<stop  offset="1" style="stop-color:#40E5DF;stop-opacity:0"/>
		</linearGradient>
		<polygon class="st12 vpsfade" points="138.7,175.9 138.7,115.2 130.2,115.2 130.2,171 		"/>
		
			<linearGradient id="SVGID_9_" gradientUnits="userSpaceOnUse" x1="118.65" y1="84.6917" x2="118.65" y2="110.682" gradientTransform="matrix(1 0 0 -1 0 250)">
			<stop  offset="0" style="stop-color:#42E7E0;stop-opacity:0"/>
			<stop  offset="0.5" style="stop-color:#42E7E1;stop-opacity:0.75"/>
			<stop  offset="1" style="stop-color:#40E5DF;stop-opacity:0"/>
		</linearGradient>
		<polygon class="st13 vpsfade" points="122.5,166.5 122.9,166.5 122.9,137.7 114.4,137.7 114.4,161.8 		"/>
		
			<linearGradient id="SVGID_10_" gradientUnits="userSpaceOnUse" x1="166.85" y1="45.2969" x2="166.85" y2="219.3479" gradientTransform="matrix(1 0 0 -1 0 250)">
			<stop  offset="0" style="stop-color:#42E7E0;stop-opacity:0"/>
			<stop  offset="0.5" style="stop-color:#42E7E1;stop-opacity:0.75"/>
			<stop  offset="1" style="stop-color:#40E5DF;stop-opacity:0"/>
		</linearGradient>
		<polygon class="st14 vpsfade" points="171.1,194.6 171.1,27 162.6,27 162.6,189.7 		"/>
		
			<linearGradient id="SVGID_11_" gradientUnits="userSpaceOnUse" x1="183.05" y1="43.8526" x2="183.05" y2="219.3178" gradientTransform="matrix(1 0 0 -1 0 250)">
			<stop  offset="0" style="stop-color:#42E7E0;stop-opacity:0"/>
			<stop  offset="0.5" style="stop-color:#42E7E1;stop-opacity:0.75"/>
			<stop  offset="1" style="stop-color:#40E5DF;stop-opacity:0"/>
		</linearGradient>
		<path class="st15 vpsfade" d="M179.6,195.6l7.7-4.6V27h-8.5v169C179.1,195.9,179.4,195.8,179.6,195.6z"/>
		
			<linearGradient id="SVGID_12_" gradientUnits="userSpaceOnUse" x1="231.3" y1="84.158" x2="231.3" y2="110.6515" gradientTransform="matrix(1 0 0 -1 0 250)">
			<stop  offset="0" style="stop-color:#42E7E0;stop-opacity:0"/>
			<stop  offset="0.5" style="stop-color:#42E7E1;stop-opacity:0.75"/>
			<stop  offset="1" style="stop-color:#40E5DF;stop-opacity:0"/>
		</linearGradient>
		<polygon class="st16 vpsfade" points="235.5,162 235.5,137.7 227.1,137.7 227.1,167.1 		"/>
		<path class="st4" d="M168.7,134.6c4.2-2.4,11-2.4,15.1,0.1l48.4,29.1h0.1l1.1-0.7c4.1-2.5,4.1-6.6,0-9.1l-49.7-29.9
			c-4.1-2.5-11-2.6-15.1-0.1l-52.1,30.1c-4.2,2.4-4.2,6.4,0,8.8l1.4,0.8h0.1L168.7,134.6z"/>
	</g>
	<g>
		
			<radialGradient id="SVGID_13_" cx="478.2179" cy="195.8028" r="12.6692" gradientTransform="matrix(0.8343 0 0 -0.4507 -169.0392 171.7799)" gradientUnits="userSpaceOnUse">
			<stop  offset="0" style="stop-color:#42E7E1"/>
			<stop  offset="0.7821" style="stop-color:#41E6E0;stop-opacity:0.2"/>
			<stop  offset="1" style="stop-color:#40E5DF;stop-opacity:0"/>
		</radialGradient>
		<ellipse class="st17 vpsfade" cx="229.9" cy="83.5" rx="10.6" ry="5.7"/>
		<g>
			
				<linearGradient id="SVGID_14_" gradientUnits="userSpaceOnUse" x1="196.5" y1="156.35" x2="230.4566" y2="156.35" gradientTransform="matrix(1 0 0 -1 0 250)">
				<stop  offset="0" style="stop-color:#40E5DF;stop-opacity:0"/>
				<stop  offset="1" style="stop-color:#42E7E1"/>
			</linearGradient>
			<polygon class="st18" points="197.2,103.8 196.5,102.6 229.7,83.5 230.4,84.7 			"/>
		</g>
		<ellipse class="st19" cx="231" cy="83.9" rx="2.6" ry="2.6"/>
		
			<radialGradient id="SVGID_15_" cx="332.8333" cy="-46.4169" r="12.6648" gradientTransform="matrix(0.8343 0 0 -0.4507 -169.0392 171.7799)" gradientUnits="userSpaceOnUse">
			<stop  offset="0" style="stop-color:#42E7E1"/>
			<stop  offset="0.7821" style="stop-color:#41E6E0;stop-opacity:0.2"/>
			<stop  offset="1" style="stop-color:#40E5DF;stop-opacity:0"/>
		</radialGradient>
		<ellipse class="st20 vpsfade" cx="108.6" cy="192.7" rx="10.6" ry="5.7"/>
		<g>
			
				<linearGradient id="SVGID_16_" gradientUnits="userSpaceOnUse" x1="87.3" y1="50.7" x2="109.1285" y2="50.7" gradientTransform="matrix(1 0 0 -1 0 250)">
				<stop  offset="0" style="stop-color:#40E5DF;stop-opacity:0"/>
				<stop  offset="1" style="stop-color:#42E7E1"/>
			</linearGradient>
			<polygon class="st21" points="88,206 87.3,204.8 108.5,192.6 109.1,193.8 			"/>
		</g>
		<ellipse class="st19" cx="109.7" cy="193.1" rx="2.6" ry="2.6"/>
		
			<radialGradient id="SVGID_17_" cx="567.5256" cy="131.0028" r="12.6692" gradientTransform="matrix(0.8343 0 0 -0.4507 -169.0392 171.7799)" gradientUnits="userSpaceOnUse">
			<stop  offset="0" style="stop-color:#42E7E1"/>
			<stop  offset="0.7821" style="stop-color:#41E6E0;stop-opacity:0.2"/>
			<stop  offset="1" style="stop-color:#40E5DF;stop-opacity:0"/>
		</radialGradient>
		<ellipse class="st22 vpsfade" cx="304.4" cy="112.7" rx="10.6" ry="5.7"/>
		<g>
			
				<linearGradient id="SVGID_18_" gradientUnits="userSpaceOnUse" x1="271" y1="127.15" x2="304.9566" y2="127.15" gradientTransform="matrix(1 0 0 -1 0 250)">
				<stop  offset="0" style="stop-color:#40E5DF;stop-opacity:0"/>
				<stop  offset="1" style="stop-color:#42E7E1"/>
			</linearGradient>
			<polygon class="st23" points="271.7,133 271,131.8 304.3,112.7 304.9,113.9 			"/>
		</g>
		<ellipse class="st19" cx="305.5" cy="113.1" rx="2.6" ry="2.6"/>
		
			<radialGradient id="SVGID_19_" cx="516.0179" cy="266.7742" r="12.6692" gradientTransform="matrix(0.8343 0 0 -0.4507 -169.0392 171.7799)" gradientUnits="userSpaceOnUse">
			<stop  offset="0" style="stop-color:#42E7E1"/>
			<stop  offset="0.7821" style="stop-color:#41E6E0;stop-opacity:0.2"/>
			<stop  offset="1" style="stop-color:#40E5DF;stop-opacity:0"/>
		</radialGradient>
		<ellipse class="st24 vpsfade" cx="261.5" cy="51.5" rx="10.6" ry="5.7"/>
		<g>
			
				<linearGradient id="SVGID_20_" gradientUnits="userSpaceOnUse" x1="228" y1="188.35" x2="261.9566" y2="188.35" gradientTransform="matrix(1 0 0 -1 0 250)">
				<stop  offset="0" style="stop-color:#40E5DF;stop-opacity:0"/>
				<stop  offset="1" style="stop-color:#42E7E1"/>
			</linearGradient>
			<polygon class="st25" points="228.7,71.8 228,70.6 261.3,51.5 262,52.7 			"/>
		</g>
		<ellipse class="st19" cx="262.5" cy="51.9" rx="2.6" ry="2.6"/>
		
			<radialGradient id="SVGID_21_" cx="502.3102" cy="121.7659" r="12.6532" gradientTransform="matrix(0.8343 0 0 -0.4507 -169.0392 171.7799)" gradientUnits="userSpaceOnUse">
			<stop  offset="0" style="stop-color:#42E7E1"/>
			<stop  offset="0.7821" style="stop-color:#41E6E0;stop-opacity:0.2"/>
			<stop  offset="1" style="stop-color:#40E5DF;stop-opacity:0"/>
		</radialGradient>
		<ellipse class="st26 vpsfade" cx="250" cy="116.9" rx="10.6" ry="5.7"/>
		<g>
			
				<linearGradient id="SVGID_22_" gradientUnits="userSpaceOnUse" x1="216.6" y1="123" x2="250.5565" y2="123" gradientTransform="matrix(1 0 0 -1 0 250)">
				<stop  offset="0" style="stop-color:#40E5DF;stop-opacity:0"/>
				<stop  offset="1" style="stop-color:#42E7E1"/>
			</linearGradient>
			<polygon class="st27" points="217.3,137.2 216.6,136 249.8,116.8 250.5,118 			"/>
		</g>
		<ellipse class="st19" cx="251.1" cy="117.3" rx="2.6" ry="2.6"/>
		
			<radialGradient id="SVGID_23_" cx="284.6487" cy="36.8885" r="12.6692" gradientTransform="matrix(0.8343 0 0 -0.4507 -169.0392 171.7799)" gradientUnits="userSpaceOnUse">
			<stop  offset="0" style="stop-color:#42E7E1"/>
			<stop  offset="0.7821" style="stop-color:#41E6E0;stop-opacity:0.2"/>
			<stop  offset="1" style="stop-color:#40E5DF;stop-opacity:0"/>
		</radialGradient>
		<ellipse class="st28 vpsfade" cx="68.4" cy="155.2" rx="10.6" ry="5.7"/>
		<g>
			
				<linearGradient id="SVGID_24_" gradientUnits="userSpaceOnUse" x1="35" y1="84.75" x2="68.9566" y2="84.75" gradientTransform="matrix(1 0 0 -1 0 250)">
				<stop  offset="0" style="stop-color:#40E5DF;stop-opacity:0"/>
				<stop  offset="1" style="stop-color:#42E7E1"/>
			</linearGradient>
			<polygon class="st29" points="35.7,175.4 35,174.2 68.3,155.1 68.9,156.3 			"/>
		</g>
		<ellipse class="st19" cx="69.5" cy="155.5" rx="2.6" ry="2.6"/>
		
			<radialGradient id="SVGID_25_" cx="346.9564" cy="201.9742" r="12.6692" gradientTransform="matrix(0.8343 0 0 -0.4507 -169.0392 171.7799)" gradientUnits="userSpaceOnUse">
			<stop  offset="0" style="stop-color:#42E7E1"/>
			<stop  offset="0.7821" style="stop-color:#41E6E0;stop-opacity:0.2"/>
			<stop  offset="1" style="stop-color:#40E5DF;stop-opacity:0"/>
		</radialGradient>
		<ellipse class="st30 vpsfade" cx="120.4" cy="80.8" rx="10.6" ry="5.7"/>
		<g>
			
				<linearGradient id="SVGID_26_" gradientUnits="userSpaceOnUse" x1="87" y1="159.15" x2="120.9566" y2="159.15" gradientTransform="matrix(1 0 0 -1 0 250)">
				<stop  offset="0" style="stop-color:#40E5DF;stop-opacity:0"/>
				<stop  offset="1" style="stop-color:#42E7E1"/>
			</linearGradient>
			<polygon class="st31" points="87.7,101 87,99.8 120.2,80.7 120.9,81.9 			"/>
		</g>
		<ellipse class="st19" cx="121.5" cy="81.1" rx="2.6" ry="2.6"/>
		
			<radialGradient id="SVGID_27_" cx="299.1872" cy="170.357" r="12.6636" gradientTransform="matrix(0.8343 0 0 -0.4507 -169.0392 171.7799)" gradientUnits="userSpaceOnUse">
			<stop  offset="0" style="stop-color:#42E7E1"/>
			<stop  offset="0.7821" style="stop-color:#41E6E0;stop-opacity:0.2"/>
			<stop  offset="1" style="stop-color:#40E5DF;stop-opacity:0"/>
		</radialGradient>
		<ellipse class="st32 vpsfade" cx="80.6" cy="95" rx="10.6" ry="5.7"/>
		<g>
			
				<linearGradient id="SVGID_28_" gradientUnits="userSpaceOnUse" x1="36" y1="141.8" x2="81.0434" y2="141.8" gradientTransform="matrix(1 0 0 -1 0 250)">
				<stop  offset="0" style="stop-color:#40E5DF;stop-opacity:0"/>
				<stop  offset="1" style="stop-color:#42E7E1"/>
			</linearGradient>
			<polygon class="st33" points="36.7,121.5 36,120.3 80.4,94.9 81.1,96.1 			"/>
		</g>
		<ellipse class="st19" cx="81.6" cy="95.4" rx="2.6" ry="2.6"/>
		
			<radialGradient id="SVGID_29_" cx="325.3496" cy="-39.4829" r="12.6726" gradientTransform="matrix(0.8343 0 0 -0.4507 -169.0392 171.7799)" gradientUnits="userSpaceOnUse">
			<stop  offset="0" style="stop-color:#42E7E1"/>
			<stop  offset="0.7821" style="stop-color:#41E6E0;stop-opacity:0.2"/>
			<stop  offset="1" style="stop-color:#40E5DF;stop-opacity:0"/>
		</radialGradient>
		<ellipse class="st34 vpsfade" cx="102.4" cy="189.6" rx="10.6" ry="5.7"/>
		<g>
			
				<linearGradient id="SVGID_30_" gradientUnits="userSpaceOnUse" x1="68.9526" y1="50.35" x2="102.9092" y2="50.35" gradientTransform="matrix(1 0 0 -1 0 250)">
				<stop  offset="0" style="stop-color:#40E5DF;stop-opacity:0"/>
				<stop  offset="1" style="stop-color:#42E7E1"/>
			</linearGradient>
			<polygon class="st35" points="69.6,209.8 69,208.6 102.2,189.5 102.9,190.7 			"/>
		</g>
		<ellipse class="st19" cx="103.4" cy="189.9" rx="2.6" ry="2.6"/>
		
			<radialGradient id="SVGID_31_" cx="-292.304" cy="-74.9685" r="12.6661" gradientTransform="matrix(-0.8343 0 0 -0.4507 -1.4692 171.7799)" gradientUnits="userSpaceOnUse">
			<stop  offset="0" style="stop-color:#42E7E1"/>
			<stop  offset="0.7821" style="stop-color:#41E6E0;stop-opacity:0.2"/>
			<stop  offset="1" style="stop-color:#40E5DF;stop-opacity:0"/>
		</radialGradient>
		<ellipse class="st36 vpsfade" cx="242.4" cy="205.6" rx="10.6" ry="5.7"/>
		<g>
			
				<linearGradient id="SVGID_32_" gradientUnits="userSpaceOnUse" x1="254.2" y1="34.35" x2="288.1566" y2="34.35" gradientTransform="matrix(-1 0 0 -1 530 250)">
				<stop  offset="0" style="stop-color:#40E5DF;stop-opacity:0"/>
				<stop  offset="1" style="stop-color:#42E7E1"/>
			</linearGradient>
			<polygon class="st37" points="275.1,225.8 241.9,206.7 242.6,205.5 275.8,224.6 			"/>
		</g>
		<ellipse class="st19" cx="241.4" cy="205.9" rx="2.6" ry="2.6"/>
	</g>
</g>
</svg>
