<?xml version="1.0" encoding="utf-8"?>
<!-- Generator: Adobe Illustrator 16.0.3, SVG Export Plug-In . SVG Version: 6.00 Build 0)  -->
<!DOCTYPE svg PUBLIC "-//W3C//DTD SVG 1.1//EN" "http://www.w3.org/Graphics/SVG/1.1/DTD/svg11.dtd">
<svg version="1.1" id="Layer_1" xmlns="http://www.w3.org/2000/svg" xmlns:xlink="http://www.w3.org/1999/xlink" x="0px" y="0px"
	 width="165.219px" height="165.221px" viewBox="0 0 165.219 165.221" enable-background="new 0 0 165.219 165.221"
	 xml:space="preserve">
<g>
	<path fill="#080245" d="M165.219,80.25V23.603H0v118.015L165.219,80.25z"/>
	<g>
		<path fill="#0F0A4C" d="M29.457,99.934c-0.851-0.519-0.851-1.321,0-1.841l52.681-30.447c0.85-0.52,2.266-0.473,3.164,0.047
			l50.51,30.4c0.851,0.52,0.851,1.369,0,1.889l-50.51,30.4c-0.851,0.519-2.267,0.519-3.164,0.047L29.457,99.934z"/>
		<g>
			
				<radialGradient id="SVGID_1_" cx="1250.4006" cy="-1462.2219" r="92.8139" gradientTransform="matrix(0.4139 0 0 -0.4172 -434.9319 -511.045)" gradientUnits="userSpaceOnUse">
				<stop  offset="0" style="stop-color:#43E4DF"/>
				<stop  offset="1" style="stop-color:#180E5A;stop-opacity:0.8"/>
			</radialGradient>
			<path fill="url(#SVGID_1_)" d="M83.459,127.078c-0.802,0-1.605-0.188-2.267-0.566l-43.854-25.35
				c-0.897-0.521-1.369-1.321-1.369-2.172c0-0.896,0.519-1.651,1.369-2.172l43.854-25.35c1.322-0.755,3.306-0.755,4.626,0.047
				l42.061,25.303c0.851,0.521,1.369,1.321,1.369,2.172s-0.473,1.699-1.369,2.172l-42.061,25.303
				C85.159,126.889,84.309,127.078,83.459,127.078z M39.417,98.99l43.241,25.02c0.425,0.236,1.274,0.236,1.698,0l41.541-24.972
				L84.356,74.066c-0.424-0.235-1.273-0.235-1.698,0L39.417,98.99z M38.756,98.613L38.756,98.613L38.756,98.613z"/>
		</g>
		<g opacity="0.3">
			<path fill="#43E4DF" d="M48.433,97.527l33.469-19.354c0.851-0.521,1.937-0.472,2.785,0.047l32.147,19.354
				c1.085,0.66,1.085,2.267,0,2.927l-32.147,19.354c-0.85,0.521-1.936,0.521-2.785,0.047l-33.469-19.354
				C47.3,99.841,47.3,98.188,48.433,97.527z"/>
		</g>
		<g opacity="0.8">
			
				<radialGradient id="SVGID_2_" cx="1251.6331" cy="-1487.3689" r="51.9643" gradientTransform="matrix(0.4139 0 0 -0.4172 -434.9319 -511.045)" gradientUnits="userSpaceOnUse">
				<stop  offset="0" style="stop-color:#43E4DF"/>
				<stop  offset="1" style="stop-color:#1B105F"/>
			</radialGradient>
			<path fill="url(#SVGID_2_)" d="M54.995,100.595c-1.983-1.133-1.983-3.021,0-4.154l24.594-14.209
				c1.981-1.133,5.193-1.133,7.128,0.048l23.461,14.114c1.936,1.181,1.936,3.115,0,4.296l-23.461,14.114
				c-1.937,1.18-5.193,1.229-7.128,0.047L54.995,100.595z"/>
		</g>
		
			<linearGradient id="SVGID_3_" gradientUnits="userSpaceOnUse" x1="1058.26" y1="-1212.7966" x2="1058.26" y2="-1112.2458" gradientTransform="matrix(0.4721 0 0 -0.4721 -446.6643 -485.3752)">
			<stop  offset="0" style="stop-color:#43E4DF"/>
			<stop  offset="1" style="stop-color:#1B105F;stop-opacity:0"/>
		</linearGradient>
		<rect x="52.398" y="41.116" opacity="0.8" fill="url(#SVGID_3_)" enable-background="new    " width="1.085" height="57.639"/>
		
			<linearGradient id="SVGID_4_" gradientUnits="userSpaceOnUse" x1="-877.5364" y1="-1212.7966" x2="-877.5364" y2="-1112.2458" gradientTransform="matrix(-0.4721 0 0 -0.4721 -302.0076 -485.3752)">
			<stop  offset="0" style="stop-color:#43E4DF"/>
			<stop  offset="1" style="stop-color:#1B105F;stop-opacity:0"/>
		</linearGradient>
		<polygon opacity="0.8" fill="url(#SVGID_4_)" enable-background="new    " points="111.736,98.707 112.821,98.707 112.821,41.116 
			111.736,41.116 		"/>
		
			<linearGradient id="SVGID_5_" gradientUnits="userSpaceOnUse" x1="1161.553" y1="-1252.9177" x2="1161.553" y2="-1195.5836" gradientTransform="matrix(0.4721 0 0 -0.4721 -446.6643 -485.3752)">
			<stop  offset="0" style="stop-color:#42E7E0;stop-opacity:0"/>
			<stop  offset="0.5" style="stop-color:#42E7E1;stop-opacity:0.75"/>
			<stop  offset="1" style="stop-color:#40E5DF;stop-opacity:0"/>
		</linearGradient>
		<polygon fill="url(#SVGID_5_)" points="103.711,104.56 103.711,77.984 99.698,77.984 99.698,106.969 		"/>
		
			<linearGradient id="SVGID_6_" gradientUnits="userSpaceOnUse" x1="1145.3538" y1="-1263.8943" x2="1145.3538" y2="-1151.2251" gradientTransform="matrix(0.4721 0 0 -0.4721 -446.6643 -485.3752)">
			<stop  offset="0" style="stop-color:#42E7E0;stop-opacity:0"/>
			<stop  offset="0.5" style="stop-color:#42E7E1;stop-opacity:0.75"/>
			<stop  offset="1" style="stop-color:#40E5DF;stop-opacity:0"/>
		</linearGradient>
		<polygon fill="url(#SVGID_6_)" points="96.063,109.139 96.063,57.592 92.051,57.592 92.051,111.548 		"/>
		
			<linearGradient id="SVGID_7_" gradientUnits="userSpaceOnUse" x1="1096.76" y1="-1262.825" x2="1096.76" y2="-1151.2162" gradientTransform="matrix(0.4721 0 0 -0.4721 -446.6643 -485.3752)">
			<stop  offset="0" style="stop-color:#42E7E0;stop-opacity:0"/>
			<stop  offset="0.5" style="stop-color:#42E7E1;stop-opacity:0.75"/>
			<stop  offset="1" style="stop-color:#40E5DF;stop-opacity:0"/>
		</linearGradient>
		<polygon fill="url(#SVGID_7_)" points="73.122,111.075 73.122,57.592 69.109,57.592 69.109,108.715 		"/>
		
			<linearGradient id="SVGID_8_" gradientUnits="userSpaceOnUse" x1="1080.5608" y1="-1252.2419" x2="1080.5608" y2="-1195.558" gradientTransform="matrix(0.4721 0 0 -0.4721 -446.6643 -485.3752)">
			<stop  offset="0" style="stop-color:#42E7E0;stop-opacity:0"/>
			<stop  offset="0.5" style="stop-color:#42E7E1;stop-opacity:0.75"/>
			<stop  offset="1" style="stop-color:#40E5DF;stop-opacity:0"/>
		</linearGradient>
		<polygon fill="url(#SVGID_8_)" points="65.474,106.637 65.474,77.984 61.462,77.984 61.462,104.325 		"/>
		
			<linearGradient id="SVGID_9_" gradientUnits="userSpaceOnUse" x1="1064.762" y1="-1243.4778" x2="1064.762" y2="-1217.4857" gradientTransform="matrix(0.4721 0 0 -0.4721 -446.6643 -485.3752)">
			<stop  offset="0" style="stop-color:#42E7E0;stop-opacity:0"/>
			<stop  offset="0.5" style="stop-color:#42E7E1;stop-opacity:0.75"/>
			<stop  offset="1" style="stop-color:#40E5DF;stop-opacity:0"/>
		</linearGradient>
		<polygon fill="url(#SVGID_9_)" points="57.827,102.2 58.016,102.2 58.016,88.605 54.003,88.605 54.003,99.982 		"/>
		
			<linearGradient id="SVGID_10_" gradientUnits="userSpaceOnUse" x1="1112.9573" y1="-1282.8728" x2="1112.9573" y2="-1108.8196" gradientTransform="matrix(0.4721 0 0 -0.4721 -446.6643 -485.3752)">
			<stop  offset="0" style="stop-color:#42E7E0;stop-opacity:0"/>
			<stop  offset="0.5" style="stop-color:#42E7E1;stop-opacity:0.75"/>
			<stop  offset="1" style="stop-color:#40E5DF;stop-opacity:0"/>
		</linearGradient>
		<polygon fill="url(#SVGID_10_)" points="80.769,115.466 80.769,36.348 76.756,36.348 76.756,113.152 		"/>
		
			<linearGradient id="SVGID_11_" gradientUnits="userSpaceOnUse" x1="1129.1565" y1="-1284.3171" x2="1129.1565" y2="-1108.8499" gradientTransform="matrix(0.4721 0 0 -0.4721 -446.6643 -485.3752)">
			<stop  offset="0" style="stop-color:#42E7E0;stop-opacity:0"/>
			<stop  offset="0.5" style="stop-color:#42E7E1;stop-opacity:0.75"/>
			<stop  offset="1" style="stop-color:#40E5DF;stop-opacity:0"/>
		</linearGradient>
		<path fill="url(#SVGID_11_)" d="M84.782,115.937l3.635-2.172V36.348h-4.014v79.777C84.545,116.079,84.687,116.032,84.782,115.937z
			"/>
		
			<linearGradient id="SVGID_12_" gradientUnits="userSpaceOnUse" x1="1177.4016" y1="-1244.009" x2="1177.4016" y2="-1217.5156" gradientTransform="matrix(0.4721 0 0 -0.4721 -446.6643 -485.3752)">
			<stop  offset="0" style="stop-color:#42E7E0;stop-opacity:0"/>
			<stop  offset="0.5" style="stop-color:#42E7E1;stop-opacity:0.75"/>
			<stop  offset="1" style="stop-color:#40E5DF;stop-opacity:0"/>
		</linearGradient>
		<polygon fill="url(#SVGID_12_)" points="111.169,100.076 111.169,88.605 107.204,88.605 107.204,102.484 		"/>
		<path fill="#43E4DF" d="M79.636,87.141c1.983-1.133,5.193-1.133,7.128,0.048l22.848,13.736h0.048l0.52-0.33
			c1.936-1.18,1.936-3.115,0-4.296L86.717,82.185c-1.937-1.181-5.193-1.228-7.128-0.047L54.995,96.347
			c-1.983,1.133-1.983,3.021,0,4.153l0.66,0.378h0.048L79.636,87.141z"/>
	</g>
	<g>
		
			<radialGradient id="SVGID_13_" cx="1612.3635" cy="-2750.9314" r="12.6697" gradientTransform="matrix(0.3938 0 0 -0.2128 -526.4433 -522.2999)" gradientUnits="userSpaceOnUse">
			<stop  offset="0" style="stop-color:#42E7E1"/>
			<stop  offset="0.7821" style="stop-color:#41E6E0;stop-opacity:0.2"/>
			<stop  offset="1" style="stop-color:#40E5DF;stop-opacity:0"/>
		</radialGradient>
		<ellipse opacity="0.8" fill="url(#SVGID_13_)" enable-background="new    " cx="108.526" cy="63.02" rx="5.004" ry="2.691"/>
		<g>
			
				<linearGradient id="SVGID_14_" gradientUnits="userSpaceOnUse" x1="1142.6682" y1="-1171.7556" x2="1176.6248" y2="-1171.7556" gradientTransform="matrix(0.4721 0 0 -0.4721 -446.6643 -485.3752)">
				<stop  offset="0" style="stop-color:#40E5DF;stop-opacity:0"/>
				<stop  offset="1" style="stop-color:#42E7E1"/>
			</linearGradient>
			<polygon fill="url(#SVGID_14_)" points="93.089,72.602 92.759,72.036 108.431,63.019 108.762,63.587 			"/>
		</g>
		<ellipse fill="#42E5E0" cx="109.045" cy="63.209" rx="1.228" ry="1.228"/>
		
			<radialGradient id="SVGID_15_" cx="1466.9778" cy="-2993.1501" r="12.6658" gradientTransform="matrix(0.3938 0 0 -0.2128 -526.4433 -522.2999)" gradientUnits="userSpaceOnUse">
			<stop  offset="0" style="stop-color:#42E7E1"/>
			<stop  offset="0.7821" style="stop-color:#41E6E0;stop-opacity:0.2"/>
			<stop  offset="1" style="stop-color:#40E5DF;stop-opacity:0"/>
		</radialGradient>
		<ellipse opacity="0.8" fill="url(#SVGID_15_)" enable-background="new    " cx="51.265" cy="114.568" rx="5.004" ry="2.69"/>
		<g>
			
				<linearGradient id="SVGID_16_" gradientUnits="userSpaceOnUse" x1="1033.4651" y1="-1277.3972" x2="1055.2936" y2="-1277.3972" gradientTransform="matrix(0.4721 0 0 -0.4721 -446.6643 -485.3752)">
				<stop  offset="0" style="stop-color:#40E5DF;stop-opacity:0"/>
				<stop  offset="1" style="stop-color:#42E7E1"/>
			</linearGradient>
			<polygon fill="url(#SVGID_16_)" points="41.541,120.846 41.21,120.28 51.218,114.521 51.501,115.088 			"/>
		</g>
		<ellipse fill="#42E5E0" cx="51.785" cy="114.757" rx="1.227" ry="1.227"/>
		
			<radialGradient id="SVGID_17_" cx="1701.6711" cy="-2815.7312" r="12.6702" gradientTransform="matrix(0.3938 0 0 -0.2128 -526.4433 -522.2999)" gradientUnits="userSpaceOnUse">
			<stop  offset="0" style="stop-color:#42E7E1"/>
			<stop  offset="0.7821" style="stop-color:#41E6E0;stop-opacity:0.2"/>
			<stop  offset="1" style="stop-color:#40E5DF;stop-opacity:0"/>
		</radialGradient>
		<ellipse opacity="0.8" fill="url(#SVGID_17_)" enable-background="new    " cx="143.694" cy="76.804" rx="5.004" ry="2.691"/>
		<g>
			
				<linearGradient id="SVGID_18_" gradientUnits="userSpaceOnUse" x1="1217.1663" y1="-1200.9529" x2="1251.1228" y2="-1200.9529" gradientTransform="matrix(0.4721 0 0 -0.4721 -446.6643 -485.3752)">
				<stop  offset="0" style="stop-color:#40E5DF;stop-opacity:0"/>
				<stop  offset="1" style="stop-color:#42E7E1"/>
			</linearGradient>
			<polygon fill="url(#SVGID_18_)" points="128.258,86.386 127.927,85.82 143.647,76.803 143.93,77.37 			"/>
		</g>
		<ellipse fill="#42E5E0" cx="144.213" cy="76.992" rx="1.227" ry="1.227"/>
		
			<radialGradient id="SVGID_19_" cx="1650.1604" cy="-2679.9578" r="12.6682" gradientTransform="matrix(0.3938 0 0 -0.2128 -526.4433 -522.2999)" gradientUnits="userSpaceOnUse">
			<stop  offset="0" style="stop-color:#42E7E1"/>
			<stop  offset="0.7821" style="stop-color:#41E6E0;stop-opacity:0.2"/>
			<stop  offset="1" style="stop-color:#40E5DF;stop-opacity:0"/>
		</radialGradient>
		<ellipse opacity="0.8" fill="url(#SVGID_19_)" enable-background="new    " cx="123.443" cy="47.914" rx="5.004" ry="2.69"/>
		<g>
			
				<linearGradient id="SVGID_20_" gradientUnits="userSpaceOnUse" x1="1174.1682" y1="-1139.7615" x2="1208.1208" y2="-1139.7615" gradientTransform="matrix(0.4721 0 0 -0.4721 -446.6643 -485.3752)">
				<stop  offset="0" style="stop-color:#40E5DF;stop-opacity:0"/>
				<stop  offset="1" style="stop-color:#42E7E1"/>
			</linearGradient>
			<polygon fill="url(#SVGID_20_)" points="107.959,57.497 107.629,56.93 123.348,47.914 123.678,48.48 			"/>
		</g>
		<ellipse fill="#42E5E0" cx="123.915" cy="48.103" rx="1.227" ry="1.227"/>
		
			<radialGradient id="SVGID_21_" cx="1636.4553" cy="-2824.9666" r="12.6543" gradientTransform="matrix(0.3938 0 0 -0.2128 -526.4433 -522.2999)" gradientUnits="userSpaceOnUse">
			<stop  offset="0" style="stop-color:#42E7E1"/>
			<stop  offset="0.7821" style="stop-color:#41E6E0;stop-opacity:0.2"/>
			<stop  offset="1" style="stop-color:#40E5DF;stop-opacity:0"/>
		</radialGradient>
		<ellipse opacity="0.8" fill="url(#SVGID_21_)" enable-background="new    " cx="118.014" cy="78.786" rx="5.004" ry="2.691"/>
		<g>
			
				<linearGradient id="SVGID_22_" gradientUnits="userSpaceOnUse" x1="1162.7659" y1="-1205.1042" x2="1196.7263" y2="-1205.1042" gradientTransform="matrix(0.4721 0 0 -0.4721 -446.6643 -485.3752)">
				<stop  offset="0" style="stop-color:#40E5DF;stop-opacity:0"/>
				<stop  offset="1" style="stop-color:#42E7E1"/>
			</linearGradient>
			<polygon fill="url(#SVGID_22_)" points="102.578,88.369 102.248,87.802 117.919,78.74 118.25,79.305 			"/>
		</g>
		<ellipse fill="#42E5E0" cx="118.534" cy="78.975" rx="1.228" ry="1.228"/>
		
			<radialGradient id="SVGID_23_" cx="1418.7932" cy="-2909.8455" r="12.6672" gradientTransform="matrix(0.3938 0 0 -0.2128 -526.4433 -522.2999)" gradientUnits="userSpaceOnUse">
			<stop  offset="0" style="stop-color:#42E7E1"/>
			<stop  offset="0.7821" style="stop-color:#41E6E0;stop-opacity:0.2"/>
			<stop  offset="1" style="stop-color:#40E5DF;stop-opacity:0"/>
		</radialGradient>
		<ellipse opacity="0.8" fill="url(#SVGID_23_)" enable-background="new    " cx="32.289" cy="96.866" rx="5.004" ry="2.691"/>
		<g>
			
				<linearGradient id="SVGID_24_" gradientUnits="userSpaceOnUse" x1="981.1663" y1="-1243.3503" x2="1015.1229" y2="-1243.3503" gradientTransform="matrix(0.4721 0 0 -0.4721 -446.6643 -485.3752)">
				<stop  offset="0" style="stop-color:#40E5DF;stop-opacity:0"/>
				<stop  offset="1" style="stop-color:#42E7E1"/>
			</linearGradient>
			<polygon fill="url(#SVGID_24_)" points="16.853,106.402 16.522,105.836 32.242,96.819 32.525,97.385 			"/>
		</g>
		<ellipse fill="#42E5E0" cx="32.808" cy="97.008" rx="1.228" ry="1.228"/>
		
			<radialGradient id="SVGID_25_" cx="1481.1018" cy="-2744.7595" r="12.6699" gradientTransform="matrix(0.3938 0 0 -0.2128 -526.4433 -522.2999)" gradientUnits="userSpaceOnUse">
			<stop  offset="0" style="stop-color:#42E7E1"/>
			<stop  offset="0.7821" style="stop-color:#41E6E0;stop-opacity:0.2"/>
			<stop  offset="1" style="stop-color:#40E5DF;stop-opacity:0"/>
		</radialGradient>
		<ellipse opacity="0.8" fill="url(#SVGID_25_)" enable-background="new    " cx="56.835" cy="61.745" rx="5.004" ry="2.691"/>
		<g>
			
				<linearGradient id="SVGID_26_" gradientUnits="userSpaceOnUse" x1="1033.1663" y1="-1168.9587" x2="1067.1228" y2="-1168.9587" gradientTransform="matrix(0.4721 0 0 -0.4721 -446.6643 -485.3752)">
				<stop  offset="0" style="stop-color:#40E5DF;stop-opacity:0"/>
				<stop  offset="1" style="stop-color:#42E7E1"/>
			</linearGradient>
			<polygon fill="url(#SVGID_26_)" points="41.399,71.281 41.069,70.715 56.741,61.698 57.072,62.264 			"/>
		</g>
		<ellipse fill="#42E5E0" cx="57.355" cy="61.887" rx="1.227" ry="1.227"/>
		
			<radialGradient id="SVGID_27_" cx="1433.3333" cy="-2776.3748" r="12.6639" gradientTransform="matrix(0.3938 0 0 -0.2128 -526.4433 -522.2999)" gradientUnits="userSpaceOnUse">
			<stop  offset="0" style="stop-color:#42E7E1"/>
			<stop  offset="0.7821" style="stop-color:#41E6E0;stop-opacity:0.2"/>
			<stop  offset="1" style="stop-color:#40E5DF;stop-opacity:0"/>
		</radialGradient>
		<ellipse opacity="0.8" fill="url(#SVGID_27_)" enable-background="new    " cx="38.048" cy="68.448" rx="5.004" ry="2.691"/>
		<g>
			
				<linearGradient id="SVGID_28_" gradientUnits="userSpaceOnUse" x1="982.1682" y1="-1186.3064" x2="1027.2096" y2="-1186.3064" gradientTransform="matrix(0.4721 0 0 -0.4721 -446.6643 -485.3752)">
				<stop  offset="0" style="stop-color:#40E5DF;stop-opacity:0"/>
				<stop  offset="1" style="stop-color:#42E7E1"/>
			</linearGradient>
			<polygon fill="url(#SVGID_28_)" points="17.325,80.958 16.994,80.391 37.953,68.401 38.284,68.968 			"/>
		</g>
		<ellipse fill="#42E5E0" cx="38.52" cy="68.637" rx="1.228" ry="1.228"/>
		
			<radialGradient id="SVGID_29_" cx="1459.4944" cy="-2986.2166" r="12.6726" gradientTransform="matrix(0.3938 0 0 -0.2128 -526.4433 -522.2999)" gradientUnits="userSpaceOnUse">
			<stop  offset="0" style="stop-color:#42E7E1"/>
			<stop  offset="0.7821" style="stop-color:#41E6E0;stop-opacity:0.2"/>
			<stop  offset="1" style="stop-color:#40E5DF;stop-opacity:0"/>
		</radialGradient>
		<ellipse opacity="0.8" fill="url(#SVGID_29_)" enable-background="new    " cx="48.338" cy="113.105" rx="5.004" ry="2.691"/>
		<g>
			
				<linearGradient id="SVGID_30_" gradientUnits="userSpaceOnUse" x1="1015.1155" y1="-1277.7458" x2="1049.072" y2="-1277.7458" gradientTransform="matrix(0.4721 0 0 -0.4721 -446.6643 -485.3752)">
				<stop  offset="0" style="stop-color:#40E5DF;stop-opacity:0"/>
				<stop  offset="1" style="stop-color:#42E7E1"/>
			</linearGradient>
			<polygon fill="url(#SVGID_30_)" points="32.855,122.64 32.572,122.074 48.244,113.057 48.575,113.624 			"/>
		</g>
		<ellipse fill="#42E5E0" cx="48.811" cy="113.247" rx="1.228" ry="1.228"/>
		
			<radialGradient id="SVGID_31_" cx="-1426.011" cy="-3021.7029" r="12.6663" gradientTransform="matrix(-0.3938 0 0 -0.2128 -447.1675 -522.2999)" gradientUnits="userSpaceOnUse">
			<stop  offset="0" style="stop-color:#42E7E1"/>
			<stop  offset="0.7821" style="stop-color:#41E6E0;stop-opacity:0.2"/>
			<stop  offset="1" style="stop-color:#40E5DF;stop-opacity:0"/>
		</radialGradient>
		<ellipse opacity="0.8" fill="url(#SVGID_31_)" enable-background="new    " cx="114.426" cy="120.658" rx="5.004" ry="2.69"/>
		<g>
			
				<linearGradient id="SVGID_32_" gradientUnits="userSpaceOnUse" x1="-691.5076" y1="-1293.7449" x2="-657.5491" y2="-1293.7449" gradientTransform="matrix(-0.4721 0 0 -0.4721 -196.2673 -485.3752)">
				<stop  offset="0" style="stop-color:#40E5DF;stop-opacity:0"/>
				<stop  offset="1" style="stop-color:#42E7E1"/>
			</linearGradient>
			<polygon fill="url(#SVGID_32_)" points="129.863,130.193 114.19,121.177 114.521,120.611 130.194,129.627 			"/>
		</g>
		<ellipse fill="#42E5E0" cx="113.955" cy="120.8" rx="1.228" ry="1.228"/>
	</g>
</g>
</svg>
