<?xml version="1.0" encoding="utf-8"?>
<!-- Generator: Adobe Illustrator 22.1.0, SVG Export Plug-In . SVG Version: 6.00 Build 0)  -->
<svg version="1.1" id="Layer_1" xmlns="http://www.w3.org/2000/svg" xmlns:xlink="http://www.w3.org/1999/xlink" x="0px" y="0px"
	 viewBox="0 0 1920 600" style="enable-background:new 0 0 1920 600;" xml:space="preserve">
<style type="text/css">
	.st0{fill:#080245;}
	.st1{opacity:0.5;fill:url(#SVGID_1_);}
	.st2{fill:url(#SVGID_2_);}
	.st3{fill:#0F0A4C;}
	.st4{fill:url(#SVGID_3_);}
	.st5{opacity:0.3;}
	.st6{fill:#43E4DF;}
	.st7{opacity:0.8;}
	.st8{fill:url(#SVGID_4_);}
	.st9{opacity:0.8;fill:url(#SVGID_5_);}
	.st10{opacity:0.8;fill:url(#SVGID_6_);}
	.st11{fill:url(#SVGID_7_);}
	.st12{fill:url(#SVGID_8_);}
	.st13{fill:url(#SVGID_9_);}
	.st14{fill:url(#SVGID_10_);}
	.st15{fill:url(#SVGID_11_);}
	.st16{fill:url(#SVGID_12_);}
	.st17{fill:url(#SVGID_13_);}
	.st18{fill:url(#SVGID_14_);}
	.st19{opacity:0.8;fill:url(#SVGID_15_);}
	.st20{fill:url(#SVGID_16_);}
	.st21{fill:#42E5E0;}
	.st22{opacity:0.8;fill:url(#SVGID_17_);}
	.st23{fill:url(#SVGID_18_);}
	.st24{opacity:0.8;fill:url(#SVGID_19_);}
	.st25{fill:url(#SVGID_20_);}
	.st26{opacity:0.5;}
	.st27{opacity:0.8;fill:url(#SVGID_21_);}
	.st28{fill:url(#SVGID_22_);}
	.st29{opacity:0.8;fill:url(#SVGID_23_);}
	.st30{fill:url(#SVGID_24_);}
	.st31{opacity:0.8;fill:url(#SVGID_25_);}
	.st32{fill:url(#SVGID_26_);}
	.st33{opacity:0.8;fill:url(#SVGID_27_);}
	.st34{fill:url(#SVGID_28_);}
	.st35{opacity:0.8;fill:url(#SVGID_29_);}
	.st36{fill:url(#SVGID_30_);}
	.st37{opacity:0.8;fill:url(#SVGID_31_);}
	.st38{fill:url(#SVGID_32_);}
	.st39{opacity:0.8;fill:url(#SVGID_33_);}
	.st40{fill:url(#SVGID_34_);}
	.st41{opacity:0.8;fill:url(#SVGID_35_);}
	.st42{fill:#42E7E1;}
	.st43{fill:url(#SVGID_36_);}
</style>
<g>
	<rect class="st0" width="1920" height="600"/>
	<linearGradient id="SVGID_1_" gradientUnits="userSpaceOnUse" x1="25.5839" y1="582.3129" x2="1905.5839" y2="14.3129">
		<stop  offset="0" style="stop-color:#42E7E1"/>
		<stop  offset="1" style="stop-color:#40E5DF;stop-opacity:0"/>
	</linearGradient>
	<rect class="st1" width="1920" height="600"/>
	<g>
		<g>
			<linearGradient id="SVGID_2_" gradientUnits="userSpaceOnUse" x1="476.3853" y1="427.8233" x2="1612.9758" y2="427.8233">
				<stop  offset="8.648649e-02" style="stop-color:#43E4DF;stop-opacity:0"/>
				<stop  offset="0.5" style="stop-color:#43E4DF;stop-opacity:0.3"/>
				<stop  offset="1" style="stop-color:#43E4DF;stop-opacity:0"/>
			</linearGradient>
			<path class="st2" d="M1294.1,550c-9.8,0-19.6-2.4-28.3-7.2L1083,442.1c-9.5-5.5-21.3-5.4-30.7,0.3l-0.1,0.1l-145.6,82.1
				c-15.8,8.9-34.8,9-50.7,0.3L476.4,316l5.7-10.4l379.5,208.8c12.3,6.7,26.9,6.6,39.2-0.2l145.5-82c13.1-7.8,29.4-7.9,42.6-0.4
				l182.7,100.5c14.3,7.8,31.9,7.7,46-0.4l289.5-166.5l5.9,10.3l-289.5,166.5C1314.4,547.4,1304.3,550,1294.1,550z"/>
		</g>
	</g>
	<g>
		<path class="st3" d="M1078.2,388.1c-4.8-2.7-4.8-7.2,0-10L1288,257.7c4.8-2.7,12.5-2.7,17.3,0.1L1506.5,378
			c4.7,2.8,4.7,7.4,0,10.3l-201.2,120.1c-4.7,2.8-12.5,2.9-17.3,0.1L1078.2,388.1z"/>
	</g>
	<g>
		<radialGradient id="SVGID_3_" cx="1292.3066" cy="383.1398" r="153.1129" gradientUnits="userSpaceOnUse">
			<stop  offset="0" style="stop-color:#43E4DF"/>
			<stop  offset="1" style="stop-color:#180E5A;stop-opacity:0.8"/>
		</radialGradient>
		<path class="st4" d="M1295.8,493.3c-2.7,0-5.4-0.6-7.6-1.8l-178.4-102.4c-2.5-1.4-4-3.6-4-5.9s1.4-4.5,4-5.9l178.4-102.4
			c4.3-2.5,11.1-2.4,15.4,0.1l171.2,102.2c2.5,1.5,3.9,3.7,3.9,6s-1.4,4.6-3.9,6l-171.2,102.2
			C1301.5,492.6,1298.7,493.3,1295.8,493.3z M1295.8,278.2c-1.8,0-3.6,0.4-5,1.1l-178.4,102.4c-0.9,0.5-1.3,1.1-1.3,1.4
			c0,0.3,0.4,0.9,1.3,1.4L1290.9,487c2.7,1.6,7.5,1.5,10.2-0.1l171.2-102.2c0.8-0.5,1.4-1.1,1.4-1.6s-0.5-1.1-1.4-1.6L1301,279.4
			C1299.7,278.6,1297.7,278.2,1295.8,278.2z"/>
	</g>
	<g class="st5">
		<path class="st6" d="M1153.3,377.2l136.2-78.2c3.5-2,7.9-2,11.4,0.1l130.9,78.1c4.5,2.7,4.5,9.1,0,11.8l-130.9,78.1
			c-3.5,2.1-7.9,2.1-11.4,0.1l-136.2-78.2C1148.7,386.5,1148.7,379.8,1153.3,377.2z"/>
	</g>
	<g class="st7">
		<radialGradient id="SVGID_4_" cx="1294.5852" cy="426.7836" r="90.1282" gradientUnits="userSpaceOnUse">
			<stop  offset="0" style="stop-color:#43E4DF"/>
			<stop  offset="1" style="stop-color:#1B105F"/>
		</radialGradient>
		<path class="st8" d="M1174.1,386.1c-4.8-2.7-4.8-7.2,0-10l112.1-64.3c4.8-2.7,12.5-2.7,17.3,0.1l107.2,64c4.7,2.8,4.7,7.4,0,10.3
			l-107.2,64c-4.7,2.8-12.5,2.9-17.3,0.1L1174.1,386.1z"/>
	</g>
	<linearGradient id="SVGID_5_" gradientUnits="userSpaceOnUse" x1="1171.48" y1="335.2891" x2="1171.48" y2="143.5821">
		<stop  offset="0" style="stop-color:#43E4DF"/>
		<stop  offset="1" style="stop-color:#1B105F;stop-opacity:0"/>
	</linearGradient>
	<rect x="1169.3" y="149.3" class="st9" width="4.4" height="232.7"/>
	
		<linearGradient id="SVGID_6_" gradientUnits="userSpaceOnUse" x1="462.9044" y1="335.2891" x2="462.9044" y2="143.5821" gradientTransform="matrix(-1 0 0 1 1876 0)">
		<stop  offset="0" style="stop-color:#43E4DF"/>
		<stop  offset="1" style="stop-color:#1B105F;stop-opacity:0"/>
	</linearGradient>
	<polygon class="st10" points="1410.9,382 1415.3,382 1415.3,149.3 1410.9,149.3 	"/>
	<linearGradient id="SVGID_7_" gradientUnits="userSpaceOnUse" x1="1370.1088" y1="411.7783" x2="1370.1088" y2="302.4737">
		<stop  offset="0" style="stop-color:#42E7E0;stop-opacity:0"/>
		<stop  offset="0.5" style="stop-color:#42E7E1;stop-opacity:0.75"/>
		<stop  offset="1" style="stop-color:#40E5DF;stop-opacity:0"/>
	</linearGradient>
	<polygon class="st11" points="1378.3,405.5 1378.3,298.2 1362,298.2 1362,415.3 	"/>
	<linearGradient id="SVGID_8_" gradientUnits="userSpaceOnUse" x1="1338.9803" y1="432.7073" x2="1338.9803" y2="217.8957">
		<stop  offset="0" style="stop-color:#42E7E0;stop-opacity:0"/>
		<stop  offset="0.5" style="stop-color:#42E7E1;stop-opacity:0.75"/>
		<stop  offset="1" style="stop-color:#40E5DF;stop-opacity:0"/>
	</linearGradient>
	<polygon class="st12" points="1347.1,424.1 1347.1,216 1330.8,216 1330.8,433.9 	"/>
	<linearGradient id="SVGID_9_" gradientUnits="userSpaceOnUse" x1="1245.5951" y1="430.675" x2="1245.5951" y2="217.8777">
		<stop  offset="0" style="stop-color:#42E7E0;stop-opacity:0"/>
		<stop  offset="0.5" style="stop-color:#42E7E1;stop-opacity:0.75"/>
		<stop  offset="1" style="stop-color:#40E5DF;stop-opacity:0"/>
	</linearGradient>
	<polygon class="st13" points="1253.7,431.8 1253.7,216 1237.4,216 1237.4,422.5 	"/>
	<linearGradient id="SVGID_10_" gradientUnits="userSpaceOnUse" x1="1214.4668" y1="410.4945" x2="1214.4668" y2="302.4259">
		<stop  offset="0" style="stop-color:#42E7E0;stop-opacity:0"/>
		<stop  offset="0.5" style="stop-color:#42E7E1;stop-opacity:0.75"/>
		<stop  offset="1" style="stop-color:#40E5DF;stop-opacity:0"/>
	</linearGradient>
	<polygon class="st14" points="1222.6,414 1222.6,298.2 1206.3,298.2 1206.3,404.6 	"/>
	<linearGradient id="SVGID_11_" gradientUnits="userSpaceOnUse" x1="1184.0795" y1="393.7853" x2="1184.0795" y2="344.2328">
		<stop  offset="0" style="stop-color:#42E7E0;stop-opacity:0"/>
		<stop  offset="0.5" style="stop-color:#42E7E1;stop-opacity:0.75"/>
		<stop  offset="1" style="stop-color:#40E5DF;stop-opacity:0"/>
	</linearGradient>
	<polygon class="st15" points="1191.5,396.1 1192.2,396.1 1192.2,341.2 1175.9,341.2 1175.9,387.2 	"/>
	<linearGradient id="SVGID_12_" gradientUnits="userSpaceOnUse" x1="1276.7235" y1="468.8942" x2="1276.7235" y2="137.0538">
		<stop  offset="0" style="stop-color:#42E7E0;stop-opacity:0"/>
		<stop  offset="0.5" style="stop-color:#42E7E1;stop-opacity:0.75"/>
		<stop  offset="1" style="stop-color:#40E5DF;stop-opacity:0"/>
	</linearGradient>
	<polygon class="st16" points="1284.9,449.7 1284.9,130 1268.6,130 1268.6,440.3 	"/>
	<linearGradient id="SVGID_13_" gradientUnits="userSpaceOnUse" x1="1307.8519" y1="471.6478" x2="1307.8519" y2="137.1111">
		<stop  offset="0" style="stop-color:#42E7E0;stop-opacity:0"/>
		<stop  offset="0.5" style="stop-color:#42E7E1;stop-opacity:0.75"/>
		<stop  offset="1" style="stop-color:#40E5DF;stop-opacity:0"/>
	</linearGradient>
	<path class="st17" d="M1301.2,451.6l14.8-8.9V130h-16.3v322.3C1300.2,452.1,1300.7,451.8,1301.2,451.6z"/>
	<linearGradient id="SVGID_14_" gradientUnits="userSpaceOnUse" x1="1400.496" y1="394.8027" x2="1400.496" y2="344.291">
		<stop  offset="0" style="stop-color:#42E7E0;stop-opacity:0"/>
		<stop  offset="0.5" style="stop-color:#42E7E1;stop-opacity:0.75"/>
		<stop  offset="1" style="stop-color:#40E5DF;stop-opacity:0"/>
	</linearGradient>
	<polygon class="st18" points="1408.6,387.4 1408.6,341.2 1392.3,341.2 1392.3,397.1 	"/>
	<g>
		<path class="st6" d="M1286.1,331.9c4.8-2.7,12.5-2.7,17.3,0.1l98.9,59.1c0.1,0,0.2,0,0.2,0l8.1-4.8c4.7-2.8,4.7-7.4,0-10.3
			l-107.2-64c-4.7-2.8-12.5-2.9-17.3-0.1l-112.1,64.3c-4.8,2.7-4.8,7.2,0,10l8.7,5c0.1,0,0.2,0,0.2,0L1286.1,331.9z"/>
	</g>
	<g>
		<g>
			
				<radialGradient id="SVGID_15_" cx="1024.7102" cy="237.756" r="9.3898" gradientTransform="matrix(2.4074 0 0 1.2963 -1081.5927 -80.7407)" gradientUnits="userSpaceOnUse">
				<stop  offset="0" style="stop-color:#42E7E1"/>
				<stop  offset="0.7821" style="stop-color:#41E6E0;stop-opacity:0.2"/>
				<stop  offset="1" style="stop-color:#40E5DF;stop-opacity:0"/>
			</radialGradient>
			<ellipse class="st19" cx="1385.3" cy="227.5" rx="22.6" ry="12.2"/>
			<g>
				<linearGradient id="SVGID_16_" gradientUnits="userSpaceOnUse" x1="1313.7858" y1="248.9549" x2="1386.41" y2="248.9549">
					<stop  offset="0" style="stop-color:#40E5DF;stop-opacity:0"/>
					<stop  offset="1" style="stop-color:#42E7E1"/>
				</linearGradient>
				<polygon class="st20" points="1315.3,270.6 1313.8,268.1 1384.9,227.3 1386.4,229.9 				"/>
			</g>
			<circle class="st21" cx="1387.5" cy="228.2" r="5.6"/>
		</g>
		<g class="st7">
			
				<radialGradient id="SVGID_17_" cx="916.9581" cy="417.2843" r="9.3898" gradientTransform="matrix(2.4074 0 0 1.2963 -1081.5927 -80.7407)" gradientUnits="userSpaceOnUse">
				<stop  offset="0" style="stop-color:#42E7E1"/>
				<stop  offset="0.7821" style="stop-color:#41E6E0;stop-opacity:0.2"/>
				<stop  offset="1" style="stop-color:#40E5DF;stop-opacity:0"/>
			</radialGradient>
			<ellipse class="st22" cx="1125.9" cy="460.2" rx="22.6" ry="12.2"/>
			<g>
				<linearGradient id="SVGID_18_" gradientUnits="userSpaceOnUse" x1="1080.3218" y1="474.2651" x2="1127.0071" y2="474.2651">
					<stop  offset="0" style="stop-color:#40E5DF;stop-opacity:0"/>
					<stop  offset="1" style="stop-color:#42E7E1"/>
				</linearGradient>
				<polygon class="st23" points="1081.8,488.5 1080.3,485.9 1125.5,460 1127,462.6 				"/>
			</g>
			<circle class="st21" cx="1128.1" cy="460.9" r="5.6"/>
		</g>
		
			<radialGradient id="SVGID_19_" cx="1090.9008" cy="285.7827" r="9.3898" gradientTransform="matrix(2.4074 0 0 1.2963 -1081.5927 -80.7407)" gradientUnits="userSpaceOnUse">
			<stop  offset="0" style="stop-color:#42E7E1"/>
			<stop  offset="0.7821" style="stop-color:#41E6E0;stop-opacity:0.2"/>
			<stop  offset="1" style="stop-color:#40E5DF;stop-opacity:0"/>
		</radialGradient>
		<ellipse class="st24" cx="1544.7" cy="289.7" rx="22.6" ry="12.2"/>
		<g>
			<linearGradient id="SVGID_20_" gradientUnits="userSpaceOnUse" x1="1473.1335" y1="311.2117" x2="1545.7577" y2="311.2117">
				<stop  offset="0" style="stop-color:#40E5DF;stop-opacity:0"/>
				<stop  offset="1" style="stop-color:#42E7E1"/>
			</linearGradient>
			<polygon class="st25" points="1474.6,332.9 1473.1,330.3 1544.3,289.5 1545.8,292.1 			"/>
		</g>
		<circle class="st21" cx="1546.9" cy="290.5" r="5.6"/>
		<g class="st26">
			
				<radialGradient id="SVGID_21_" cx="1052.7257" cy="185.1554" r="9.3898" gradientTransform="matrix(2.4074 0 0 1.2963 -1081.5927 -80.7407)" gradientUnits="userSpaceOnUse">
				<stop  offset="0" style="stop-color:#42E7E1"/>
				<stop  offset="0.7821" style="stop-color:#41E6E0;stop-opacity:0.2"/>
				<stop  offset="1" style="stop-color:#40E5DF;stop-opacity:0"/>
			</radialGradient>
			<ellipse class="st27" cx="1452.7" cy="159.3" rx="22.6" ry="12.2"/>
			<g>
				<linearGradient id="SVGID_22_" gradientUnits="userSpaceOnUse" x1="1381.2306" y1="180.7689" x2="1453.8549" y2="180.7689">
					<stop  offset="0" style="stop-color:#40E5DF;stop-opacity:0"/>
					<stop  offset="1" style="stop-color:#42E7E1"/>
				</linearGradient>
				<polygon class="st28" points="1382.7,202.4 1381.2,199.9 1452.4,159.1 1453.9,161.7 				"/>
			</g>
			<circle class="st21" cx="1455" cy="160" r="5.6"/>
		</g>
		<g class="st5">
			
				<radialGradient id="SVGID_23_" cx="1042.5663" cy="292.6436" r="9.3898" gradientTransform="matrix(2.4074 0 0 1.2963 -1081.5927 -80.7407)" gradientUnits="userSpaceOnUse">
				<stop  offset="0" style="stop-color:#42E7E1"/>
				<stop  offset="0.7821" style="stop-color:#41E6E0;stop-opacity:0.2"/>
				<stop  offset="1" style="stop-color:#40E5DF;stop-opacity:0"/>
			</radialGradient>
			<ellipse class="st29" cx="1428.3" cy="298.6" rx="22.6" ry="12.2"/>
			<g>
				<linearGradient id="SVGID_24_" gradientUnits="userSpaceOnUse" x1="1356.7726" y1="320.1055" x2="1429.3969" y2="320.1055">
					<stop  offset="0" style="stop-color:#40E5DF;stop-opacity:0"/>
					<stop  offset="1" style="stop-color:#42E7E1"/>
				</linearGradient>
				<polygon class="st30" points="1358.2,341.8 1356.8,339.2 1427.9,298.4 1429.4,301 				"/>
			</g>
			<circle class="st21" cx="1430.5" cy="299.4" r="5.6"/>
		</g>
		<g class="st5">
			
				<radialGradient id="SVGID_25_" cx="881.2459" cy="355.5357" r="9.3898" gradientTransform="matrix(2.4074 0 0 1.2963 -1081.5927 -80.7407)" gradientUnits="userSpaceOnUse">
				<stop  offset="0" style="stop-color:#42E7E1"/>
				<stop  offset="0.7821" style="stop-color:#41E6E0;stop-opacity:0.2"/>
				<stop  offset="1" style="stop-color:#40E5DF;stop-opacity:0"/>
			</radialGradient>
			<ellipse class="st31" cx="1039.9" cy="380.1" rx="22.6" ry="12.2"/>
			<g>
				<linearGradient id="SVGID_26_" gradientUnits="userSpaceOnUse" x1="968.4087" y1="401.632" x2="1041.033" y2="401.632">
					<stop  offset="0" style="stop-color:#40E5DF;stop-opacity:0"/>
					<stop  offset="1" style="stop-color:#42E7E1"/>
				</linearGradient>
				<polygon class="st32" points="969.9,423.3 968.4,420.7 1039.6,380 1041,382.5 				"/>
			</g>
			<circle class="st21" cx="1042.1" cy="380.9" r="5.6"/>
		</g>
		<g class="st26">
			
				<radialGradient id="SVGID_27_" cx="927.4254" cy="233.1821" r="9.3898" gradientTransform="matrix(2.4074 0 0 1.2963 -1081.5927 -80.7407)" gradientUnits="userSpaceOnUse">
				<stop  offset="0" style="stop-color:#42E7E1"/>
				<stop  offset="0.7821" style="stop-color:#41E6E0;stop-opacity:0.2"/>
				<stop  offset="1" style="stop-color:#40E5DF;stop-opacity:0"/>
			</radialGradient>
			<ellipse class="st33" cx="1151.1" cy="221.5" rx="22.6" ry="12.2"/>
			<g>
				<linearGradient id="SVGID_28_" gradientUnits="userSpaceOnUse" x1="1079.5813" y1="243.0257" x2="1152.2056" y2="243.0257">
					<stop  offset="0" style="stop-color:#40E5DF;stop-opacity:0"/>
					<stop  offset="1" style="stop-color:#42E7E1"/>
				</linearGradient>
				<polygon class="st34" points="1081.1,264.7 1079.6,262.1 1150.7,221.4 1152.2,223.9 				"/>
			</g>
			<circle class="st21" cx="1153.3" cy="222.3" r="5.6"/>
		</g>
		<g>
			
				<radialGradient id="SVGID_29_" cx="892.0212" cy="256.6236" r="9.3898" gradientTransform="matrix(2.4074 0 0 1.2963 -1081.5927 -80.7407)" gradientUnits="userSpaceOnUse">
				<stop  offset="0" style="stop-color:#42E7E1"/>
				<stop  offset="0.7821" style="stop-color:#41E6E0;stop-opacity:0.2"/>
				<stop  offset="1" style="stop-color:#40E5DF;stop-opacity:0"/>
			</radialGradient>
			<ellipse class="st35" cx="1065.9" cy="251.9" rx="22.6" ry="12.2"/>
			<g>
				<linearGradient id="SVGID_30_" gradientUnits="userSpaceOnUse" x1="970.6345" y1="280.0833" x2="1066.9706" y2="280.0833">
					<stop  offset="0" style="stop-color:#40E5DF;stop-opacity:0"/>
					<stop  offset="1" style="stop-color:#42E7E1"/>
				</linearGradient>
				<polygon class="st36" points="972.1,308.4 970.6,305.8 1065.5,251.7 1067,254.3 				"/>
			</g>
			<circle class="st21" cx="1068.1" cy="252.7" r="5.6"/>
		</g>
		<g>
			
				<radialGradient id="SVGID_31_" cx="823.9834" cy="352.7902" r="9.3898" gradientTransform="matrix(2.4074 0 0 -1.2963 -1081.5927 979.8177)" gradientUnits="userSpaceOnUse">
				<stop  offset="0" style="stop-color:#42E7E1"/>
				<stop  offset="0.7821" style="stop-color:#41E6E0;stop-opacity:0.2"/>
				<stop  offset="1" style="stop-color:#40E5DF;stop-opacity:0"/>
			</radialGradient>
			<ellipse class="st37" cx="902.1" cy="522.5" rx="22.6" ry="12.2"/>
			<g>
				
					<linearGradient id="SVGID_32_" gradientUnits="userSpaceOnUse" x1="716.4211" y1="430.3418" x2="903.1741" y2="430.3418" gradientTransform="matrix(1 0 0 -1 0 899.0769)">
					<stop  offset="0" style="stop-color:#40E5DF;stop-opacity:0"/>
					<stop  offset="1" style="stop-color:#42E7E1"/>
				</linearGradient>
				<polygon class="st38" points="901.7,522.7 716.4,417.4 717.9,414.8 903.2,520.1 				"/>
			</g>
			<circle class="st21" cx="904.3" cy="521.8" r="5.6"/>
		</g>
		<g>
			
				<radialGradient id="SVGID_33_" cx="911.4166" cy="412.1385" r="9.3898" gradientTransform="matrix(2.4074 0 0 1.2963 -1081.5927 -80.7407)" gradientUnits="userSpaceOnUse">
				<stop  offset="0" style="stop-color:#42E7E1"/>
				<stop  offset="0.7821" style="stop-color:#41E6E0;stop-opacity:0.2"/>
				<stop  offset="1" style="stop-color:#40E5DF;stop-opacity:0"/>
			</radialGradient>
			<ellipse class="st39" cx="1112.6" cy="453.5" rx="22.6" ry="12.2"/>
			<g>
				<linearGradient id="SVGID_34_" gradientUnits="userSpaceOnUse" x1="1041.0414" y1="475.0063" x2="1113.6656" y2="475.0063">
					<stop  offset="0" style="stop-color:#40E5DF;stop-opacity:0"/>
					<stop  offset="1" style="stop-color:#42E7E1"/>
				</linearGradient>
				<polygon class="st40" points="1042.5,496.7 1041,494.1 1112.2,453.3 1113.7,455.9 				"/>
			</g>
			<circle class="st21" cx="1114.8" cy="454.3" r="5.6"/>
		</g>
		
			<radialGradient id="SVGID_35_" cx="735.0682" cy="438.4388" r="9.3898" gradientTransform="matrix(-2.4074 0 0 1.2963 3181.5925 -80.7407)" gradientUnits="userSpaceOnUse">
			<stop  offset="0" style="stop-color:#42E7E1"/>
			<stop  offset="0.7821" style="stop-color:#41E6E0;stop-opacity:0.2"/>
			<stop  offset="1" style="stop-color:#40E5DF;stop-opacity:0"/>
		</radialGradient>
		<ellipse class="st41" cx="1412" cy="487.6" rx="22.6" ry="12.2"/>
		<path class="st42" d="M1410.9,487.4v2.6V487.4z"/>
		<linearGradient id="SVGID_36_" gradientUnits="userSpaceOnUse" x1="1415.3188" y1="490.6646" x2="1476.3905" y2="525.9904">
			<stop  offset="0" style="stop-color:#42E7E1"/>
			<stop  offset="1" style="stop-color:#40E5DF;stop-opacity:0"/>
		</linearGradient>
		<polygon class="st43" points="1482,530.8 1410.9,490 1412.4,487.4 1483.5,528.2 		"/>
		<circle class="st21" cx="1409.8" cy="488.3" r="5.6"/>
	</g>
</g>
</svg>
