<?xml version="1.0" encoding="utf-8"?>
<!-- Generator: Adobe Illustrator 22.1.0, SVG Export Plug-In . SVG Version: 6.00 Build 0)  -->
<svg version="1.1" id="Layer_1" xmlns="http://www.w3.org/2000/svg" xmlns:xlink="http://www.w3.org/1999/xlink" x="0px" y="0px"
	 viewBox="0 0 63.4 60" style="enable-background:new 0 0 63.4 60;" xml:space="preserve">
<style type="text/css">
	.st0{fill:url(#SVGID_1_);}
	.st1{fill:url(#SVGID_2_);}
	.st2{fill:url(#SVGID_3_);}
	.st3{fill:url(#SVGID_4_);}
	.st4{fill:#080245;}
</style>
<g>
	<linearGradient id="SVGID_1_" gradientUnits="userSpaceOnUse" x1="9.1929" y1="20.8231" x2="24.6892" y2="20.8231">
		<stop  offset="0.25" style="stop-color:#3FD7D7"/>
		<stop  offset="1" style="stop-color:#080245"/>
	</linearGradient>
	<path class="st0" d="M16.9,13.1c-4.3,0-7.7,3.5-7.7,7.7s3.5,7.7,7.7,7.7s7.7-3.5,7.7-7.7S21.2,13.1,16.9,13.1z M20.7,21.2L15.8,24
		c-0.3,0.2-0.6,0-0.6-0.4V18c0-0.3,0.3-0.5,0.6-0.4l4.8,2.8C21,20.6,21,21,20.7,21.2z"/>
	<linearGradient id="SVGID_2_" gradientUnits="userSpaceOnUse" x1="43.1755" y1="31.2079" x2="49.4988" y2="31.2079">
		<stop  offset="0.25" style="stop-color:#3FD7D7"/>
		<stop  offset="1" style="stop-color:#080245"/>
	</linearGradient>
	<path class="st1" d="M47.5,26c0.1,0.3,0.1,0.5,0.1,0.8v5c0,2.1-1.3,2.8-2.8,2.8H44c-0.3,0-0.5,0-0.8-0.1c0.3,1.2,1.4,2,2.7,2h0.8
		c1.6,0,2.8-1.3,2.8-2.8v-5C49.5,27.4,48.6,26.3,47.5,26z"/>
	<g>
		<linearGradient id="SVGID_3_" gradientUnits="userSpaceOnUse" x1="35.0714" y1="43.1185" x2="58.1589" y2="43.1185">
			<stop  offset="0.25" style="stop-color:#3FD7D7"/>
			<stop  offset="1" style="stop-color:#080245"/>
		</linearGradient>
		<path class="st2" d="M44.8,54.2c5.2,0,9.5-4.5,10-10.3l0-17l3.3,2l0,19.7c-0.5,6-5.5,10.6-11.5,10.6l0,0
			c-6.1,0-11.1-4.7-11.5-10.8l0-3C36.1,50.5,40.1,54.2,44.8,54.2z"/>
	</g>
	<linearGradient id="SVGID_4_" gradientUnits="userSpaceOnUse" x1="21.1335" y1="28.645" x2="29.1091" y2="28.645">
		<stop  offset="0.25" style="stop-color:#3FD7D7"/>
		<stop  offset="1" style="stop-color:#080245"/>
	</linearGradient>
	<polygon class="st3" points="28.4,26 21.4,24.3 21.1,31.4 24,29.4 27.1,33 29.1,31.4 26.2,27.6 	"/>
</g>
<path class="st4" d="M5.8,55C6,55.4,5.8,56,5.4,56.2c-0.4,0.2-0.9,0.1-1.2-0.3C4,55.5,4.2,55,4.6,54.7C5,54.5,5.5,54.6,5.8,55z
	 M20,31.5l0.3-8.1c0-0.2,0.1-0.5,0.3-0.6c0.2-0.1,0.4-0.2,0.7-0.1l7.9,2c0.3,0.1,0.5,0.3,0.6,0.6c0.1,0.3-0.1,0.6-0.3,0.8l-1.8,1.3
	l2.8,3.7c0.3,0.4,0.2,0.9-0.2,1.1l-3.3,2.4c-0.1,0.1-0.3,0.2-0.5,0.2c0,0-0.1,0-0.1,0c-0.2,0-0.4-0.1-0.5-0.3l-2.8-3.7l-1.9,1.4
	c-0.3,0.2-0.6,0.2-0.9,0.1C20.2,32.1,20,31.8,20,31.5z M21.7,29.8l1.2-0.9c0.1-0.1,0.3-0.2,0.5-0.2c0,0,0.1,0,0.1,0
	c0.2,0,0.4,0.1,0.5,0.3l2.8,3.7l2-1.5L26,27.7c-0.3-0.4-0.2-0.9,0.2-1.1l1.1-0.8l-5.3-1.3L21.7,29.8z M63.4,44.5
	C62.2,53.6,55.3,60,46.5,60c-0.1,0-0.2,0-0.3-0.1c-6.3-0.2-11.4-4.9-12-11.2L30,35.5c-0.1-0.3,0-0.7,0.3-0.9l4-2.8l0-2.9
	c0-0.3,0.1-0.6,0.4-0.7l8-4.8c0.3-0.2,0.6-0.2,0.8,0c0.3,0.1,0.4,0.4,0.4,0.7v1.6c0.4-0.3,0.8-0.4,1.3-0.5V13c0-0.9-0.7-1.6-1.6-1.6
	h-5.2c-0.1,0-0.2,0-0.3-0.1c-0.1,0-0.1,0-0.2,0h-1.2c-0.5,0-0.8-0.4-0.8-0.8s0.4-0.8,0.8-0.8h1.2c0.1,0,0.2,0,0.3,0.1
	c0.1,0,0.1,0,0.2,0h5.2c1.8,0,3.3,1.5,3.3,3.3v12c0.7,0,1.4,0.2,1.9,0.6V24c0-0.3,0.2-0.6,0.4-0.7c0.2-0.1,0.6-0.1,0.8,0l8.7,4.9
	c0.3,0.1,0.4,0.4,0.4,0.7l0,7.6c0,0,0,0,0,0l4.3,7.6C63.4,44.2,63.4,44.3,63.4,44.5z M43.9,28.7v4.2v0.8c0,1.1,0.9,2,2,2h0.8
	c1.1,0,2-0.9,2-2v-1.2v-3.8c0-1.1-0.9-2-2-2h-0.8C44.8,26.7,43.9,27.6,43.9,28.7z M31.7,35.6l2.6,7.8l0-9.7L31.7,35.6z M46.6,58.3
	c5.6,0,10.3-4.4,10.7-10l0-19l-7-4v3.3v3.8v1.2c0,1.9-1.5,3.4-3.3,3.6v3.3c0,0.5-0.4,0.8-0.8,0.8s-0.8-0.4-0.8-0.8v-3.3
	c-1.8-0.2-3.1-1.8-3.1-3.6v-0.8v-4.2v-3.2l-6.4,3.8l0,19.3C36.4,54.1,41,58.3,46.6,58.3z M61.7,44.6L59,39.7l0,8.6c0,0,0,0,0,0.1
	c-0.1,2-0.7,3.9-1.7,5.5C59.6,51.5,61.2,48.3,61.7,44.6z M50.6,22c0.5,0,0.8-0.4,0.8-0.8V5.1c0-0.5-0.4-0.8-0.8-0.8H4.8
	c-0.5,0-0.8,0.4-0.8,0.8v33.5c0,0.5,0.4,0.8,0.8,0.8h24c0.5,0,0.8-0.4,0.8-0.8s-0.4-0.8-0.8-0.8H5.6V5.9h44.2v15.3
	C49.8,21.7,50.2,22,50.6,22z M34.3,54.7h-20v-2h18.5c0.5,0,0.8-0.4,0.8-0.8S33.3,51,32.8,51H21.4c0.6-1.2,0.9-2.5,0.9-3.9v-3.4h7.1
	c0.5,0,0.8-0.4,0.8-0.8s-0.4-0.8-0.8-0.8H1.8c-0.1,0-0.2-0.1-0.2-0.2V1.8c0-0.1,0.1-0.2,0.2-0.2h52c0.1,0,0.2,0.1,0.2,0.2v22.3
	c0,0.5,0.4,0.8,0.8,0.8c0.5,0,0.8-0.4,0.8-0.8V1.8c0-1-0.8-1.8-1.8-1.8h-52C0.8,0,0,0.8,0,1.8V42c0,1,0.8,1.8,1.8,1.8h18.8v3.4
	c0,1.4-0.4,2.7-1.1,3.9h-6c-0.5,0-0.8,0.4-0.8,0.8v2.8H7.8C7.4,54.7,7,55,7,55.5s0.4,0.8,0.8,0.8h26.5c0.5,0,0.8-0.4,0.8-0.8
	S34.8,54.7,34.3,54.7z M21.9,11.3c0.5,0,0.8-0.4,0.8-0.8s-0.4-0.8-0.8-0.8h-1.2c-0.5,0-0.8,0.4-0.8,0.8s0.4,0.8,0.8,0.8H21.9z
	 M32.5,9.7h-1.2c-0.5,0-0.8,0.4-0.8,0.8s0.4,0.8,0.8,0.8h1.2c0.5,0,0.8-0.4,0.8-0.8S32.9,9.7,32.5,9.7z M10.1,9.7
	c-0.5,0-0.8,0.4-0.8,0.8s0.4,0.8,0.8,0.8h1.2c0.5,0,0.8-0.4,0.8-0.8s-0.4-0.8-0.8-0.8H10.1z M15.4,9.7c-0.5,0-0.8,0.4-0.8,0.8
	s0.4,0.8,0.8,0.8h1.2c0.5,0,0.8-0.4,0.8-0.8S17,9.7,16.6,9.7H15.4z M27.2,11.3c0.5,0,0.8-0.4,0.8-0.8s-0.4-0.8-0.8-0.8H26
	c-0.5,0-0.8,0.4-0.8,0.8s0.4,0.8,0.8,0.8H27.2z M41.7,16.5c0-0.5-0.4-0.8-0.8-0.8H29.8c-0.5,0-0.8,0.4-0.8,0.8s0.4,0.8,0.8,0.8h11.1
	C41.3,17.3,41.7,17,41.7,16.5z M36.8,21.1c0-0.5-0.4-0.8-0.8-0.8h-6.3c-0.5,0-0.8,0.4-0.8,0.8s0.4,0.8,0.8,0.8H36
	C36.5,21.9,36.8,21.5,36.8,21.1z"/>
</svg>
