<?xml version="1.0" encoding="utf-8"?>
<!-- Generator: Adobe Illustrator 22.1.0, SVG Export Plug-In . SVG Version: 6.00 Build 0)  -->
<svg version="1.1" id="Layer_1" xmlns="http://www.w3.org/2000/svg" xmlns:xlink="http://www.w3.org/1999/xlink" x="0px" y="0px"
	 viewBox="0 0 65 65" style="enable-background:new 0 0 65 65;" xml:space="preserve">
<style type="text/css">
	.st0{fill:#080245;}
</style>
<g>
	<g>
		<path class="st0" d="M32.5,2C49.3,2,63,15.7,63,32.5S49.3,63,32.5,63S2,49.3,2,32.5S15.7,2,32.5,2 M32.5,0C14.6,0,0,14.6,0,32.5
			S14.6,65,32.5,65S65,50.4,65,32.5S50.4,0,32.5,0L32.5,0z"/>
	</g>
</g>
<g>
	<path class="st0" d="M27.5,47.5c-0.3,0-0.6-0.1-0.8-0.3c-0.4-0.4-0.3-1,0.1-1.4L42,32.5L26.8,19.3c-0.4-0.4-0.5-1-0.1-1.4
		c0.4-0.4,1-0.5,1.4-0.1l16,14c0.2,0.2,0.3,0.5,0.3,0.8s-0.1,0.6-0.3,0.8l-16,14C28,47.4,27.7,47.5,27.5,47.5z"/>
</g>
</svg>
